%TF.GenerationSoftware,KiCad,Pcbnew,9.0.3*%
%TF.CreationDate,2025-11-29T09:23:08-06:00*%
%TF.ProjectId,zenith,7a656e69-7468-42e6-9b69-6361645f7063,rev?*%
%TF.SameCoordinates,Original*%
%TF.FileFunction,Copper,L1,Top*%
%TF.FilePolarity,Positive*%
%FSLAX46Y46*%
G04 Gerber Fmt 4.6, Leading zero omitted, Abs format (unit mm)*
G04 Created by KiCad (PCBNEW 9.0.3) date 2025-11-29 09:23:08*
%MOMM*%
%LPD*%
G01*
G04 APERTURE LIST*
G04 Aperture macros list*
%AMRoundRect*
0 Rectangle with rounded corners*
0 $1 Rounding radius*
0 $2 $3 $4 $5 $6 $7 $8 $9 X,Y pos of 4 corners*
0 Add a 4 corners polygon primitive as box body*
4,1,4,$2,$3,$4,$5,$6,$7,$8,$9,$2,$3,0*
0 Add four circle primitives for the rounded corners*
1,1,$1+$1,$2,$3*
1,1,$1+$1,$4,$5*
1,1,$1+$1,$6,$7*
1,1,$1+$1,$8,$9*
0 Add four rect primitives between the rounded corners*
20,1,$1+$1,$2,$3,$4,$5,0*
20,1,$1+$1,$4,$5,$6,$7,0*
20,1,$1+$1,$6,$7,$8,$9,0*
20,1,$1+$1,$8,$9,$2,$3,0*%
G04 Aperture macros list end*
%TA.AperFunction,SMDPad,CuDef*%
%ADD10RoundRect,0.140000X-0.140000X-0.170000X0.140000X-0.170000X0.140000X0.170000X-0.140000X0.170000X0*%
%TD*%
%TA.AperFunction,SMDPad,CuDef*%
%ADD11RoundRect,0.100000X-0.130000X-0.100000X0.130000X-0.100000X0.130000X0.100000X-0.130000X0.100000X0*%
%TD*%
%TA.AperFunction,SMDPad,CuDef*%
%ADD12RoundRect,0.250000X0.250000X0.475000X-0.250000X0.475000X-0.250000X-0.475000X0.250000X-0.475000X0*%
%TD*%
%TA.AperFunction,SMDPad,CuDef*%
%ADD13RoundRect,0.140000X0.170000X-0.140000X0.170000X0.140000X-0.170000X0.140000X-0.170000X-0.140000X0*%
%TD*%
%TA.AperFunction,SMDPad,CuDef*%
%ADD14R,0.280000X0.680000*%
%TD*%
%TA.AperFunction,SMDPad,CuDef*%
%ADD15R,0.680000X0.280000*%
%TD*%
%TA.AperFunction,SMDPad,CuDef*%
%ADD16R,1.230000X1.360000*%
%TD*%
%TA.AperFunction,SMDPad,CuDef*%
%ADD17RoundRect,0.100000X-0.100000X0.130000X-0.100000X-0.130000X0.100000X-0.130000X0.100000X0.130000X0*%
%TD*%
%TA.AperFunction,SMDPad,CuDef*%
%ADD18RoundRect,0.135000X0.185000X-0.135000X0.185000X0.135000X-0.185000X0.135000X-0.185000X-0.135000X0*%
%TD*%
%TA.AperFunction,SMDPad,CuDef*%
%ADD19RoundRect,0.100000X0.130000X0.100000X-0.130000X0.100000X-0.130000X-0.100000X0.130000X-0.100000X0*%
%TD*%
%TA.AperFunction,SMDPad,CuDef*%
%ADD20R,0.900000X0.700000*%
%TD*%
%TA.AperFunction,SMDPad,CuDef*%
%ADD21R,2.160000X1.630000*%
%TD*%
%TA.AperFunction,SMDPad,CuDef*%
%ADD22RoundRect,0.250000X0.475000X-0.250000X0.475000X0.250000X-0.475000X0.250000X-0.475000X-0.250000X0*%
%TD*%
%TA.AperFunction,ComponentPad*%
%ADD23RoundRect,0.250000X0.750000X-0.750000X0.750000X0.750000X-0.750000X0.750000X-0.750000X-0.750000X0*%
%TD*%
%TA.AperFunction,ComponentPad*%
%ADD24C,2.000000*%
%TD*%
%TA.AperFunction,ComponentPad*%
%ADD25R,1.700000X1.700000*%
%TD*%
%TA.AperFunction,ComponentPad*%
%ADD26C,1.700000*%
%TD*%
%TA.AperFunction,SMDPad,CuDef*%
%ADD27RoundRect,0.100000X0.100000X-0.130000X0.100000X0.130000X-0.100000X0.130000X-0.100000X-0.130000X0*%
%TD*%
%TA.AperFunction,SMDPad,CuDef*%
%ADD28RoundRect,0.140000X0.140000X0.170000X-0.140000X0.170000X-0.140000X-0.170000X0.140000X-0.170000X0*%
%TD*%
%TA.AperFunction,SMDPad,CuDef*%
%ADD29R,1.400000X1.200000*%
%TD*%
%TA.AperFunction,SMDPad,CuDef*%
%ADD30RoundRect,0.140000X-0.170000X0.140000X-0.170000X-0.140000X0.170000X-0.140000X0.170000X0.140000X0*%
%TD*%
%TA.AperFunction,SMDPad,CuDef*%
%ADD31R,0.280000X0.700000*%
%TD*%
%TA.AperFunction,SMDPad,CuDef*%
%ADD32R,0.700000X0.280000*%
%TD*%
%TA.AperFunction,SMDPad,CuDef*%
%ADD33R,2.800000X2.800000*%
%TD*%
%TA.AperFunction,SMDPad,CuDef*%
%ADD34RoundRect,0.147500X0.147500X0.172500X-0.147500X0.172500X-0.147500X-0.172500X0.147500X-0.172500X0*%
%TD*%
%TA.AperFunction,ComponentPad*%
%ADD35C,1.000000*%
%TD*%
%TA.AperFunction,SMDPad,CuDef*%
%ADD36R,0.600000X1.300000*%
%TD*%
%TA.AperFunction,SMDPad,CuDef*%
%ADD37R,1.200000X1.400000*%
%TD*%
%TA.AperFunction,SMDPad,CuDef*%
%ADD38R,1.200000X2.000000*%
%TD*%
%TA.AperFunction,SMDPad,CuDef*%
%ADD39R,0.300000X0.300000*%
%TD*%
%TA.AperFunction,SMDPad,CuDef*%
%ADD40RoundRect,0.150000X0.150000X-0.512500X0.150000X0.512500X-0.150000X0.512500X-0.150000X-0.512500X0*%
%TD*%
%TA.AperFunction,SMDPad,CuDef*%
%ADD41R,0.250000X0.700000*%
%TD*%
%TA.AperFunction,SMDPad,CuDef*%
%ADD42R,0.700000X0.250000*%
%TD*%
%TA.AperFunction,SMDPad,CuDef*%
%ADD43R,0.250000X1.450000*%
%TD*%
%TA.AperFunction,SMDPad,CuDef*%
%ADD44R,0.250000X1.850000*%
%TD*%
%TA.AperFunction,SMDPad,CuDef*%
%ADD45R,1.000000X1.800000*%
%TD*%
%TA.AperFunction,SMDPad,CuDef*%
%ADD46R,0.800000X0.860000*%
%TD*%
%TA.AperFunction,SMDPad,CuDef*%
%ADD47RoundRect,0.250000X-0.250000X-0.475000X0.250000X-0.475000X0.250000X0.475000X-0.250000X0.475000X0*%
%TD*%
%TA.AperFunction,SMDPad,CuDef*%
%ADD48RoundRect,0.075000X-0.441942X-0.548008X0.548008X0.441942X0.441942X0.548008X-0.548008X-0.441942X0*%
%TD*%
%TA.AperFunction,SMDPad,CuDef*%
%ADD49RoundRect,0.075000X0.441942X-0.548008X0.548008X-0.441942X-0.441942X0.548008X-0.548008X0.441942X0*%
%TD*%
%TA.AperFunction,SMDPad,CuDef*%
%ADD50R,1.000000X3.800000*%
%TD*%
%TA.AperFunction,SMDPad,CuDef*%
%ADD51RoundRect,0.140000X0.021213X-0.219203X0.219203X-0.021213X-0.021213X0.219203X-0.219203X0.021213X0*%
%TD*%
%TA.AperFunction,SMDPad,CuDef*%
%ADD52R,3.320000X1.500000*%
%TD*%
%TA.AperFunction,ComponentPad*%
%ADD53C,0.700000*%
%TD*%
%TA.AperFunction,SMDPad,CuDef*%
%ADD54R,0.550000X1.100000*%
%TD*%
%TA.AperFunction,SMDPad,CuDef*%
%ADD55R,0.300000X1.100000*%
%TD*%
%TA.AperFunction,ComponentPad*%
%ADD56O,1.100000X2.000000*%
%TD*%
%TA.AperFunction,ComponentPad*%
%ADD57O,1.200000X1.800000*%
%TD*%
%TA.AperFunction,ViaPad*%
%ADD58C,0.600000*%
%TD*%
%TA.AperFunction,ViaPad*%
%ADD59C,0.400000*%
%TD*%
%TA.AperFunction,Conductor*%
%ADD60C,0.200000*%
%TD*%
%TA.AperFunction,Conductor*%
%ADD61C,0.400000*%
%TD*%
G04 APERTURE END LIST*
D10*
%TO.P,C26,1*%
%TO.N,+3.3V*%
X108870000Y-80580000D03*
%TO.P,C26,2*%
%TO.N,GND*%
X109830000Y-80580000D03*
%TD*%
D11*
%TO.P,R2,1*%
%TO.N,GND*%
X112835000Y-71265000D03*
%TO.P,R2,2*%
%TO.N,Net-(USB1-CC2)*%
X113475000Y-71265000D03*
%TD*%
%TO.P,R20,1*%
%TO.N,+3.3V*%
X135330000Y-80580000D03*
%TO.P,R20,2*%
%TO.N,/SD_DAT1*%
X135970000Y-80580000D03*
%TD*%
%TO.P,C30,1*%
%TO.N,+3.3V*%
X119580000Y-76640000D03*
%TO.P,C30,2*%
%TO.N,GND*%
X120220000Y-76640000D03*
%TD*%
D12*
%TO.P,C3,1*%
%TO.N,VSYS*%
X131580000Y-94420000D03*
%TO.P,C3,2*%
%TO.N,GND*%
X129680000Y-94420000D03*
%TD*%
D13*
%TO.P,C9,1*%
%TO.N,+5V*%
X137840000Y-87710000D03*
%TO.P,C9,2*%
%TO.N,GND*%
X137840000Y-86750000D03*
%TD*%
D14*
%TO.P,U4,1,AP_SDO/AP_AD0*%
%TO.N,/ICM_SD0*%
X126250000Y-91090000D03*
%TO.P,U4,2,RESV/AUX1_SDIO/AUX1_SDI/MAS_DA*%
%TO.N,unconnected-(U4-RESV{slash}AUX1_SDIO{slash}AUX1_SDI{slash}MAS_DA-Pad2)*%
X125750000Y-91090000D03*
%TO.P,U4,3,RESV/AUX1_SCLK/MAS_CLK*%
%TO.N,unconnected-(U4-RESV{slash}AUX1_SCLK{slash}MAS_CLK-Pad3)*%
X125250000Y-91090000D03*
%TO.P,U4,4,INT1/INT*%
%TO.N,/ICM_INT1*%
X124750000Y-91090000D03*
D15*
%TO.P,U4,5,VDDIO*%
%TO.N,+3.3V*%
X124490000Y-91850000D03*
%TO.P,U4,6,GND*%
%TO.N,GND*%
X124490000Y-92350000D03*
%TO.P,U4,7,RESV*%
%TO.N,unconnected-(U4-RESV-Pad7)*%
X124490000Y-92850000D03*
D14*
%TO.P,U4,8,VDD*%
%TO.N,+3.3V*%
X124750000Y-93610000D03*
%TO.P,U4,9,INT2/FSYNC/CLKIN*%
%TO.N,/ICM_INT2*%
X125250000Y-93610000D03*
%TO.P,U4,10,RESV/AUX1_CS*%
%TO.N,unconnected-(U4-RESV{slash}AUX1_CS-Pad10)*%
X125750000Y-93610000D03*
%TO.P,U4,11,RESV/AUX1_SDO*%
%TO.N,unconnected-(U4-RESV{slash}AUX1_SDO-Pad11)*%
X126250000Y-93610000D03*
D15*
%TO.P,U4,12,AP_CS*%
%TO.N,/ICM_CS*%
X126510000Y-92850000D03*
%TO.P,U4,13,AP_SCL/AP_SCLK*%
%TO.N,/ICM_SCK*%
X126510000Y-92350000D03*
%TO.P,U4,14,AP_SDA/AP_SDIO/AP_SDI*%
%TO.N,/ICM_SDI*%
X126510000Y-91850000D03*
%TD*%
D11*
%TO.P,C20,1*%
%TO.N,+3.3V*%
X109865000Y-74895000D03*
%TO.P,C20,2*%
%TO.N,GND*%
X110505000Y-74895000D03*
%TD*%
D16*
%TO.P,BOOT,1,1*%
%TO.N,+3.3V*%
X122640000Y-97320000D03*
%TO.P,BOOT,2,2*%
%TO.N,/BOOT*%
X118280000Y-97320000D03*
%TD*%
D17*
%TO.P,C15,1*%
%TO.N,Net-(U6-CB)*%
X102130000Y-68845000D03*
%TO.P,C15,2*%
%TO.N,Net-(U6-SW)*%
X102130000Y-69485000D03*
%TD*%
D18*
%TO.P,R14,1*%
%TO.N,+3.3V*%
X107030000Y-69955000D03*
%TO.P,R14,2*%
%TO.N,Net-(U6-FB)*%
X107030000Y-68935000D03*
%TD*%
D19*
%TO.P,R21,1*%
%TO.N,+3.3V*%
X134350000Y-80590000D03*
%TO.P,R21,2*%
%TO.N,/SD_DAT0*%
X133710000Y-80590000D03*
%TD*%
D20*
%TO.P,LED1,1,DO*%
%TO.N,Net-(LED1-DO)*%
X104550000Y-80650000D03*
%TO.P,LED1,2,GND*%
%TO.N,GND*%
X104550000Y-81750000D03*
%TO.P,LED1,3,DI*%
%TO.N,Net-(LED1-DI)*%
X106390000Y-81750000D03*
%TO.P,LED1,4,VDD*%
%TO.N,+5V*%
X106390000Y-80650000D03*
%TD*%
D11*
%TO.P,C32,1*%
%TO.N,+3.3V*%
X119220000Y-92820000D03*
%TO.P,C32,2*%
%TO.N,GND*%
X119860000Y-92820000D03*
%TD*%
D20*
%TO.P,LED2,1,DO*%
%TO.N,Net-(LED2-DO)*%
X104650000Y-86990000D03*
%TO.P,LED2,2,GND*%
%TO.N,GND*%
X104650000Y-88090000D03*
%TO.P,LED2,3,DI*%
%TO.N,Net-(LED1-DO)*%
X106490000Y-88090000D03*
%TO.P,LED2,4,VDD*%
%TO.N,+5V*%
X106490000Y-86990000D03*
%TD*%
D21*
%TO.P,L1,1,1*%
%TO.N,Net-(C2-Pad1)*%
X125380000Y-98610000D03*
%TO.P,L1,2,2*%
%TO.N,/BTST*%
X125380000Y-96270000D03*
%TD*%
D22*
%TO.P,C17,1*%
%TO.N,+3.3V*%
X103230000Y-77430000D03*
%TO.P,C17,2*%
%TO.N,GND*%
X103230000Y-75530000D03*
%TD*%
D11*
%TO.P,R12,1*%
%TO.N,Net-(U1-EN)*%
X134100000Y-84180000D03*
%TO.P,R12,2*%
%TO.N,VSYS*%
X134740000Y-84180000D03*
%TD*%
D23*
%TO.P,J1,1,Pin_1*%
%TO.N,+BAT*%
X137300000Y-96850000D03*
D24*
%TO.P,J1,2,Pin_2*%
%TO.N,BAT-*%
X137300000Y-94310000D03*
%TD*%
D25*
%TO.P,SERVO HEADERS,1,Pin_1*%
%TO.N,+5V*%
X109150000Y-101880000D03*
D26*
%TO.P,SERVO HEADERS,2,Pin_2*%
%TO.N,/SERVO2*%
X106610000Y-101880000D03*
%TO.P,SERVO HEADERS,3,Pin_3*%
%TO.N,GND*%
X104070000Y-101880000D03*
%TD*%
D13*
%TO.P,C16,1*%
%TO.N,VSYS*%
X106700000Y-67775000D03*
%TO.P,C16,2*%
%TO.N,GND*%
X106700000Y-66815000D03*
%TD*%
D22*
%TO.P,C13,1*%
%TO.N,+5V*%
X136210000Y-87240000D03*
%TO.P,C13,2*%
%TO.N,GND*%
X136210000Y-85340000D03*
%TD*%
D19*
%TO.P,C8,1*%
%TO.N,Net-(U1-Vaux)*%
X133040000Y-83970000D03*
%TO.P,C8,2*%
%TO.N,GND*%
X132400000Y-83970000D03*
%TD*%
D17*
%TO.P,R5,1*%
%TO.N,+3.3V*%
X135200000Y-99910000D03*
%TO.P,R5,2*%
%TO.N,/I2C_SCL*%
X135200000Y-100550000D03*
%TD*%
D27*
%TO.P,R15,1*%
%TO.N,Net-(U6-FB)*%
X107870000Y-67140000D03*
%TO.P,R15,2*%
%TO.N,GND*%
X107870000Y-66500000D03*
%TD*%
D17*
%TO.P,C19,1*%
%TO.N,+3.3V*%
X108945000Y-76115000D03*
%TO.P,C19,2*%
%TO.N,GND*%
X108945000Y-76755000D03*
%TD*%
D19*
%TO.P,R13,1*%
%TO.N,Net-(U1-PG)*%
X131380000Y-84180000D03*
%TO.P,R13,2*%
%TO.N,Net-(U1-FB)*%
X130740000Y-84180000D03*
%TD*%
D28*
%TO.P,C2,1*%
%TO.N,Net-(C2-Pad1)*%
X126290000Y-101280000D03*
%TO.P,C2,2*%
%TO.N,GND*%
X125330000Y-101280000D03*
%TD*%
D29*
%TO.P,X1,1,OSC1*%
%TO.N,/HSE_IN*%
X110140000Y-90890000D03*
%TO.P,X1,2,GND*%
%TO.N,GND*%
X107940000Y-90890000D03*
%TO.P,X1,3,OSC2*%
%TO.N,/HSE_OUT*%
X107940000Y-92590000D03*
%TO.P,X1,4,GND*%
%TO.N,GND*%
X110140000Y-92590000D03*
%TD*%
D30*
%TO.P,C7,1*%
%TO.N,VSYS*%
X137840000Y-84800000D03*
%TO.P,C7,2*%
%TO.N,GND*%
X137840000Y-85760000D03*
%TD*%
D31*
%TO.P,U3,1,D-*%
%TO.N,unconnected-(U3-D--Pad1)*%
X128320000Y-102320000D03*
%TO.P,U3,2,STAT*%
%TO.N,Net-(D1-A)*%
X128820000Y-102320000D03*
%TO.P,U3,3,~{CE}*%
%TO.N,/BQ_CE*%
X129320000Y-102320000D03*
%TO.P,U3,4,SDA*%
%TO.N,/I2C_SDA*%
X129820000Y-102320000D03*
%TO.P,U3,5,SCL*%
%TO.N,/I2C_SCL*%
X130320000Y-102320000D03*
%TO.P,U3,6,~{INT}*%
%TO.N,/BQ_INT*%
X130820000Y-102320000D03*
D32*
%TO.P,U3,7,TS*%
%TO.N,Net-(U3-TS)*%
X131570000Y-101570000D03*
%TO.P,U3,8,ILIM*%
%TO.N,Net-(U3-ILIM)*%
X131570000Y-101070000D03*
%TO.P,U3,9,~{PG}*%
%TO.N,/BQ_PG*%
X131570000Y-100570000D03*
%TO.P,U3,10,NC*%
%TO.N,unconnected-(U3-NC-Pad10)*%
X131570000Y-100070000D03*
%TO.P,U3,11,REGN*%
%TO.N,VREGN*%
X131570000Y-99570000D03*
%TO.P,U3,12,BTST*%
%TO.N,Net-(U3-BTST)*%
X131570000Y-99070000D03*
D31*
%TO.P,U3,13,BAT*%
%TO.N,+BAT*%
X130820000Y-98320000D03*
%TO.P,U3,14,BAT*%
%TO.N,unconnected-(U3-BAT-Pad14)*%
X130320000Y-98320000D03*
%TO.P,U3,15,SYS*%
%TO.N,VSYS*%
X129820000Y-98320000D03*
%TO.P,U3,16,SYS*%
X129320000Y-98320000D03*
%TO.P,U3,17,SW*%
%TO.N,/BTST*%
X128820000Y-98320000D03*
%TO.P,U3,18,SW*%
X128330000Y-98320000D03*
D32*
%TO.P,U3,19,GND*%
%TO.N,GND*%
X127570000Y-99070000D03*
%TO.P,U3,20,GND*%
X127570000Y-99570000D03*
%TO.P,U3,21,PMID*%
%TO.N,Net-(C2-Pad1)*%
X127570000Y-100070000D03*
%TO.P,U3,22,PMID*%
X127570000Y-100570000D03*
%TO.P,U3,23,VBUS*%
%TO.N,VSYS*%
X127570000Y-101070000D03*
%TO.P,U3,24,D+*%
%TO.N,unconnected-(U3-D+-Pad24)*%
X127570000Y-101570000D03*
D33*
%TO.P,U3,25,EP*%
%TO.N,unconnected-(U3-EP-Pad25)*%
X129580000Y-100320000D03*
%TD*%
D19*
%TO.P,R23,1*%
%TO.N,/LED_DIN*%
X109100000Y-87290000D03*
%TO.P,R23,2*%
%TO.N,Net-(LED1-DI)*%
X108460000Y-87290000D03*
%TD*%
D34*
%TO.P,D1,1,K*%
%TO.N,Net-(D1-K)*%
X121745000Y-94320000D03*
%TO.P,D1,2,A*%
%TO.N,Net-(D1-A)*%
X120775000Y-94320000D03*
%TD*%
D13*
%TO.P,C24,1*%
%TO.N,+3.3V*%
X115020000Y-93740000D03*
%TO.P,C24,2*%
%TO.N,GND*%
X115020000Y-92780000D03*
%TD*%
D11*
%TO.P,C37,1*%
%TO.N,GND*%
X115580000Y-94860000D03*
%TO.P,C37,2*%
%TO.N,/RESET*%
X116220000Y-94860000D03*
%TD*%
%TO.P,R16,1*%
%TO.N,+3.3V*%
X131140000Y-80482500D03*
%TO.P,R16,2*%
%TO.N,/SD_CLK*%
X131780000Y-80482500D03*
%TD*%
D19*
%TO.P,R19,1*%
%TO.N,+3.3V*%
X127710000Y-80482500D03*
%TO.P,R19,2*%
%TO.N,/SD_DAT2*%
X127070000Y-80482500D03*
%TD*%
D17*
%TO.P,C22,1*%
%TO.N,+3.3V*%
X123470000Y-91800000D03*
%TO.P,C22,2*%
%TO.N,GND*%
X123470000Y-92440000D03*
%TD*%
D11*
%TO.P,R10,1*%
%TO.N,Net-(U3-TS)*%
X129330000Y-92860000D03*
%TO.P,R10,2*%
%TO.N,GND*%
X129970000Y-92860000D03*
%TD*%
D35*
%TO.P,SD Card,*%
%TO.N,*%
X134640000Y-68310000D03*
X126640000Y-68310000D03*
D36*
%TO.P,SD Card,1,DAT2(RSV)*%
%TO.N,/SD_DAT2*%
X127450000Y-79160000D03*
%TO.P,SD Card,2,CDDAT3(CS)*%
%TO.N,/SD_DAT3*%
X128550000Y-79160000D03*
%TO.P,SD Card,3,CMD(DI)*%
%TO.N,/SD_CMD*%
X129650000Y-79160000D03*
%TO.P,SD Card,4,VDD*%
%TO.N,+3.3V*%
X130750000Y-79160000D03*
%TO.P,SD Card,5,CLK(SCLK)*%
%TO.N,/SD_CLK*%
X131850000Y-79160000D03*
%TO.P,SD Card,6,VSS*%
%TO.N,GND*%
X132950000Y-79160000D03*
%TO.P,SD Card,7,DAT0(D0)*%
%TO.N,/SD_DAT0*%
X134050000Y-79160000D03*
%TO.P,SD Card,8,DAT1(RSV)*%
%TO.N,/SD_DAT1*%
X135150000Y-79160000D03*
%TO.P,SD Card,9,CD*%
%TO.N,/SD_CD*%
X136250000Y-79160000D03*
D37*
%TO.P,SD Card,10,GND*%
%TO.N,GND*%
X137450000Y-78310000D03*
D38*
%TO.P,SD Card,11,GND*%
X137450000Y-68600000D03*
%TO.P,SD Card,12,GND*%
X121930000Y-68600000D03*
D37*
%TO.P,SD Card,13,GND*%
X122770000Y-78310000D03*
%TD*%
D11*
%TO.P,R11,1*%
%TO.N,VREGN*%
X132610000Y-99210000D03*
%TO.P,R11,2*%
%TO.N,Net-(U3-TS)*%
X133250000Y-99210000D03*
%TD*%
D39*
%TO.P,U2,1,VDDIO*%
%TO.N,+3.3V*%
X109710000Y-76100000D03*
%TO.P,U2,2,SCK*%
%TO.N,/I2C_SCL*%
X109710000Y-76600000D03*
%TO.P,U2,3,VSS*%
%TO.N,GND*%
X109990000Y-77130000D03*
%TO.P,U2,4,SDI*%
%TO.N,/I2C_SDA*%
X110490000Y-77130000D03*
%TO.P,U2,5,SDO*%
%TO.N,GND*%
X110990000Y-77130000D03*
%TO.P,U2,6,CSB*%
X111270000Y-76600000D03*
%TO.P,U2,7,INT*%
%TO.N,/BMP_INT*%
X111270000Y-76100000D03*
%TO.P,U2,8,VSS*%
%TO.N,GND*%
X110990000Y-75570000D03*
%TO.P,U2,9,VSS*%
X110490000Y-75570000D03*
%TO.P,U2,10,VDD*%
%TO.N,+3.3V*%
X109990000Y-75570000D03*
%TD*%
D12*
%TO.P,C5,1*%
%TO.N,Net-(U3-BTST)*%
X131580000Y-96570000D03*
%TO.P,C5,2*%
%TO.N,/BTST*%
X129680000Y-96570000D03*
%TD*%
D19*
%TO.P,C28,1*%
%TO.N,+3.3V*%
X121080000Y-91600000D03*
%TO.P,C28,2*%
%TO.N,GND*%
X120440000Y-91600000D03*
%TD*%
%TO.P,C36,1*%
%TO.N,/LSE_OUT*%
X105835000Y-90720000D03*
%TO.P,C36,2*%
%TO.N,GND*%
X105195000Y-90720000D03*
%TD*%
%TO.P,R22,1*%
%TO.N,/BOOT*%
X118640000Y-94860000D03*
%TO.P,R22,2*%
%TO.N,GND*%
X118000000Y-94860000D03*
%TD*%
D40*
%TO.P,U6,1,GND*%
%TO.N,GND*%
X103320000Y-68920000D03*
%TO.P,U6,2,SW*%
%TO.N,Net-(U6-SW)*%
X104270000Y-68920000D03*
%TO.P,U6,3,VIN*%
%TO.N,VSYS*%
X105220000Y-68920000D03*
%TO.P,U6,4,FB*%
%TO.N,Net-(U6-FB)*%
X105220000Y-66645000D03*
%TO.P,U6,5,EN*%
%TO.N,VSYS*%
X104270000Y-66645000D03*
%TO.P,U6,6,CB*%
%TO.N,Net-(U6-CB)*%
X103320000Y-66645000D03*
%TD*%
D17*
%TO.P,R4,1*%
%TO.N,+3.3V*%
X136000000Y-99930000D03*
%TO.P,R4,2*%
%TO.N,/BQ_INT*%
X136000000Y-100570000D03*
%TD*%
D41*
%TO.P,U1,1,PS/SYNC*%
%TO.N,Net-(U1-EN)*%
X133470000Y-85090000D03*
%TO.P,U1,2,PG*%
%TO.N,Net-(U1-PG)*%
X132970000Y-85090000D03*
%TO.P,U1,3,Vaux*%
%TO.N,Net-(U1-Vaux)*%
X132470000Y-85090000D03*
%TO.P,U1,4,GND*%
%TO.N,GND*%
X131970000Y-85090000D03*
D42*
%TO.P,U1,5,FB*%
%TO.N,Net-(U1-FB)*%
X131270000Y-85540000D03*
%TO.P,U1,6,FB2*%
%TO.N,GND*%
X131270000Y-86040000D03*
%TO.P,U1,7,Vout*%
%TO.N,+5V*%
X131270000Y-86540000D03*
%TO.P,U1,8,Vout*%
X131270000Y-87040000D03*
D43*
%TO.P,U1,9,L2*%
%TO.N,Net-(U1-L2)*%
X132220000Y-87130000D03*
D44*
%TO.P,U1,10,PGND*%
%TO.N,GND*%
X132720000Y-86930000D03*
D43*
%TO.P,U1,11,L1*%
%TO.N,Net-(U1-L1)*%
X133220000Y-87130000D03*
D42*
%TO.P,U1,12,Vin*%
%TO.N,VSYS*%
X134170000Y-87040000D03*
%TO.P,U1,13,Vin*%
X134170000Y-86540000D03*
%TO.P,U1,14,EN*%
%TO.N,Net-(U1-EN)*%
X134170000Y-86040000D03*
%TO.P,U1,15,Vsel*%
%TO.N,GND*%
X134170000Y-85540000D03*
%TD*%
D17*
%TO.P,R9,1*%
%TO.N,Net-(U3-TS)*%
X128170000Y-92890000D03*
%TO.P,R9,2*%
%TO.N,GND*%
X128170000Y-93530000D03*
%TD*%
D45*
%TO.P,X2,1,1*%
%TO.N,/LSE_IN*%
X103030000Y-92450000D03*
%TO.P,X2,2,2*%
%TO.N,/LSE_OUT*%
X105530000Y-92450000D03*
%TD*%
D46*
%TO.P,L4,1,1*%
%TO.N,Net-(U5-VDDA)*%
X116440000Y-92760000D03*
%TO.P,L4,2,2*%
%TO.N,+3.3V*%
X117840000Y-92760000D03*
%TD*%
D47*
%TO.P,C12,1*%
%TO.N,+5V*%
X131780000Y-82570000D03*
%TO.P,C12,2*%
%TO.N,GND*%
X133680000Y-82570000D03*
%TD*%
D11*
%TO.P,C35,1*%
%TO.N,/LSE_IN*%
X103025000Y-90710000D03*
%TO.P,C35,2*%
%TO.N,GND*%
X103665000Y-90710000D03*
%TD*%
D17*
%TO.P,C33,1*%
%TO.N,/HSE_IN*%
X111790000Y-90540000D03*
%TO.P,C33,2*%
%TO.N,GND*%
X111790000Y-91180000D03*
%TD*%
D11*
%TO.P,C34,1*%
%TO.N,/HSE_OUT*%
X107615000Y-94200000D03*
%TO.P,C34,2*%
%TO.N,GND*%
X108255000Y-94200000D03*
%TD*%
D16*
%TO.P,RESET,1,1*%
%TO.N,GND*%
X111670000Y-97360000D03*
%TO.P,RESET,2,2*%
%TO.N,/RESET*%
X116030000Y-97360000D03*
%TD*%
D11*
%TO.P,C29,1*%
%TO.N,+3.3V*%
X125400000Y-86170000D03*
%TO.P,C29,2*%
%TO.N,GND*%
X126040000Y-86170000D03*
%TD*%
D25*
%TO.P,J2,1,Pin_1*%
%TO.N,+5V*%
X109140000Y-98000000D03*
D26*
%TO.P,J2,2,Pin_2*%
%TO.N,/SERVO1*%
X106600000Y-98000000D03*
%TO.P,J2,3,Pin_3*%
%TO.N,GND*%
X104060000Y-98000000D03*
%TD*%
D19*
%TO.P,C21,1*%
%TO.N,+3.3V*%
X124640000Y-94590000D03*
%TO.P,C21,2*%
%TO.N,GND*%
X124000000Y-94590000D03*
%TD*%
D13*
%TO.P,C10,1*%
%TO.N,VSYS*%
X127690000Y-85990000D03*
%TO.P,C10,2*%
%TO.N,GND*%
X127690000Y-85030000D03*
%TD*%
D22*
%TO.P,C18,1*%
%TO.N,+3.3V*%
X105390000Y-77430000D03*
%TO.P,C18,2*%
%TO.N,GND*%
X105390000Y-75530000D03*
%TD*%
D48*
%TO.P,U5,1,VBAT*%
%TO.N,+3.3V*%
X110495519Y-85881181D03*
%TO.P,U5,2,PC13*%
%TO.N,unconnected-(U5-PC13-Pad2)*%
X110849072Y-86234734D03*
%TO.P,U5,3,PC14*%
%TO.N,/LSE_IN*%
X111202625Y-86588287D03*
%TO.P,U5,4,PC15*%
%TO.N,/LSE_OUT*%
X111556179Y-86941841D03*
%TO.P,U5,5,PH0*%
%TO.N,/HSE_IN*%
X111909732Y-87295394D03*
%TO.P,U5,6,PH1*%
%TO.N,/HSE_OUT*%
X112263286Y-87648948D03*
%TO.P,U5,7,NRST*%
%TO.N,/RESET*%
X112616839Y-88002501D03*
%TO.P,U5,8,PC0*%
%TO.N,unconnected-(U5-PC0-Pad8)*%
X112970392Y-88356054D03*
%TO.P,U5,9,PC1*%
%TO.N,unconnected-(U5-PC1-Pad9)*%
X113323946Y-88709608D03*
%TO.P,U5,10,PC2*%
%TO.N,unconnected-(U5-PC2-Pad10)*%
X113677499Y-89063161D03*
%TO.P,U5,11,PC3*%
%TO.N,unconnected-(U5-PC3-Pad11)*%
X114031052Y-89416714D03*
%TO.P,U5,12,VSSA*%
%TO.N,GND*%
X114384606Y-89770268D03*
%TO.P,U5,13,VDDA*%
%TO.N,Net-(U5-VDDA)*%
X114738159Y-90123821D03*
%TO.P,U5,14,PA0*%
%TO.N,/SERVO1*%
X115091713Y-90477375D03*
%TO.P,U5,15,PA1*%
%TO.N,/SERVO2*%
X115445266Y-90830928D03*
%TO.P,U5,16,PA2*%
%TO.N,/LED_DIN*%
X115798819Y-91184481D03*
D49*
%TO.P,U5,17,PA3*%
%TO.N,unconnected-(U5-PA3-Pad17)*%
X118521181Y-91184481D03*
%TO.P,U5,18,VSS*%
%TO.N,GND*%
X118874734Y-90830928D03*
%TO.P,U5,19,VDD*%
%TO.N,+3.3V*%
X119228287Y-90477375D03*
%TO.P,U5,20,PA4*%
%TO.N,/ICM_CS*%
X119581841Y-90123821D03*
%TO.P,U5,21,PA5*%
%TO.N,/ICM_SCK*%
X119935394Y-89770268D03*
%TO.P,U5,22,PA6*%
%TO.N,/ICM_SD0*%
X120288948Y-89416714D03*
%TO.P,U5,23,PA7*%
%TO.N,/ICM_SDI*%
X120642501Y-89063161D03*
%TO.P,U5,24,PC4*%
%TO.N,unconnected-(U5-PC4-Pad24)*%
X120996054Y-88709608D03*
%TO.P,U5,25,PB0*%
%TO.N,/ICM_INT2*%
X121349608Y-88356054D03*
%TO.P,U5,26,PB1*%
%TO.N,/ICM_INT1*%
X121703161Y-88002501D03*
%TO.P,U5,27,PB2*%
%TO.N,unconnected-(U5-PB2-Pad27)*%
X122056714Y-87648948D03*
%TO.P,U5,28,PB10*%
%TO.N,unconnected-(U5-PB10-Pad28)*%
X122410268Y-87295394D03*
%TO.P,U5,29,PB11*%
%TO.N,unconnected-(U5-PB11-Pad29)*%
X122763821Y-86941841D03*
%TO.P,U5,30,VCAP_1*%
%TO.N,Net-(U5-VCAP_1)*%
X123117375Y-86588287D03*
%TO.P,U5,31,VSS*%
%TO.N,GND*%
X123470928Y-86234734D03*
%TO.P,U5,32,VDD*%
%TO.N,+3.3V*%
X123824481Y-85881181D03*
D48*
%TO.P,U5,33,PB12*%
%TO.N,unconnected-(U5-PB12-Pad33)*%
X123824481Y-83158819D03*
%TO.P,U5,34,PB13*%
%TO.N,unconnected-(U5-PB13-Pad34)*%
X123470928Y-82805266D03*
%TO.P,U5,35,PB14*%
%TO.N,unconnected-(U5-PB14-Pad35)*%
X123117375Y-82451713D03*
%TO.P,U5,36,PB15*%
%TO.N,unconnected-(U5-PB15-Pad36)*%
X122763821Y-82098159D03*
%TO.P,U5,37,PC6*%
%TO.N,unconnected-(U5-PC6-Pad37)*%
X122410268Y-81744606D03*
%TO.P,U5,38,PC7*%
%TO.N,unconnected-(U5-PC7-Pad38)*%
X122056714Y-81391052D03*
%TO.P,U5,39,PC8*%
%TO.N,/SD_DAT0*%
X121703161Y-81037499D03*
%TO.P,U5,40,PC9*%
%TO.N,/SD_DAT1*%
X121349608Y-80683946D03*
%TO.P,U5,41,PA8*%
%TO.N,/ICM_INT1*%
X120996054Y-80330392D03*
%TO.P,U5,42,PA9*%
%TO.N,/ICM_INT2*%
X120642501Y-79976839D03*
%TO.P,U5,43,PA10*%
%TO.N,unconnected-(U5-PA10-Pad43)*%
X120288948Y-79623286D03*
%TO.P,U5,44,PA11*%
%TO.N,/USB_DN*%
X119935394Y-79269732D03*
%TO.P,U5,45,PA12*%
%TO.N,/USB_DP*%
X119581841Y-78916179D03*
%TO.P,U5,46,PA13*%
%TO.N,unconnected-(U5-PA13-Pad46)*%
X119228287Y-78562625D03*
%TO.P,U5,47,VSS*%
%TO.N,GND*%
X118874734Y-78209072D03*
%TO.P,U5,48,VDD*%
%TO.N,+3.3V*%
X118521181Y-77855519D03*
D49*
%TO.P,U5,49,PA14*%
%TO.N,unconnected-(U5-PA14-Pad49)*%
X115798819Y-77855519D03*
%TO.P,U5,50,PA15*%
%TO.N,unconnected-(U5-PA15-Pad50)*%
X115445266Y-78209072D03*
%TO.P,U5,51,PC10*%
%TO.N,/SD_DAT2*%
X115091713Y-78562625D03*
%TO.P,U5,52,PC11*%
%TO.N,/SD_DAT3*%
X114738159Y-78916179D03*
%TO.P,U5,53,PC12*%
%TO.N,/SD_CLK*%
X114384606Y-79269732D03*
%TO.P,U5,54,PD2*%
%TO.N,/SD_CMD*%
X114031052Y-79623286D03*
%TO.P,U5,55,PB3*%
%TO.N,/SD_CD*%
X113677499Y-79976839D03*
%TO.P,U5,56,PB4*%
%TO.N,/BMP_INT*%
X113323946Y-80330392D03*
%TO.P,U5,57,PB5*%
%TO.N,/BQ_INT*%
X112970392Y-80683946D03*
%TO.P,U5,58,PB6*%
%TO.N,/I2C_SCL*%
X112616839Y-81037499D03*
%TO.P,U5,59,PB7*%
%TO.N,/I2C_SDA*%
X112263286Y-81391052D03*
%TO.P,U5,60,BOOT0*%
%TO.N,/BOOT*%
X111909732Y-81744606D03*
%TO.P,U5,61,PB8*%
%TO.N,/BQ_CE*%
X111556179Y-82098159D03*
%TO.P,U5,62,PB9*%
%TO.N,unconnected-(U5-PB9-Pad62)*%
X111202625Y-82451713D03*
%TO.P,U5,63,VSS*%
%TO.N,GND*%
X110849072Y-82805266D03*
%TO.P,U5,64,VDD*%
%TO.N,+3.3V*%
X110495519Y-83158819D03*
%TD*%
D13*
%TO.P,C1,1*%
%TO.N,BAT-*%
X133150000Y-94970000D03*
%TO.P,C1,2*%
%TO.N,VSYS*%
X133150000Y-94010000D03*
%TD*%
D10*
%TO.P,C27,1*%
%TO.N,+3.3V*%
X108240000Y-84360000D03*
%TO.P,C27,2*%
%TO.N,GND*%
X109200000Y-84360000D03*
%TD*%
D11*
%TO.P,C31,1*%
%TO.N,+3.3V*%
X109030000Y-81720000D03*
%TO.P,C31,2*%
%TO.N,GND*%
X109670000Y-81720000D03*
%TD*%
D50*
%TO.P,L2,1,1*%
%TO.N,Net-(U1-L2)*%
X131480000Y-90390000D03*
%TO.P,L2,2,2*%
%TO.N,Net-(U1-L1)*%
X133880000Y-90390000D03*
%TD*%
D51*
%TO.P,C23,1*%
%TO.N,Net-(U5-VCAP_1)*%
X123930589Y-88319411D03*
%TO.P,C23,2*%
%TO.N,GND*%
X124609411Y-87640589D03*
%TD*%
D19*
%TO.P,R17,1*%
%TO.N,+3.3V*%
X130180000Y-80512500D03*
%TO.P,R17,2*%
%TO.N,/SD_CMD*%
X129540000Y-80512500D03*
%TD*%
D22*
%TO.P,C14,1*%
%TO.N,+5V*%
X129330000Y-87370000D03*
%TO.P,C14,2*%
%TO.N,GND*%
X129330000Y-85470000D03*
%TD*%
D27*
%TO.P,R8,1*%
%TO.N,/BQ_PG*%
X132570000Y-100620000D03*
%TO.P,R8,2*%
%TO.N,+3.3V*%
X132570000Y-99980000D03*
%TD*%
D28*
%TO.P,C4,1*%
%TO.N,+BAT*%
X128270000Y-97290000D03*
%TO.P,C4,2*%
%TO.N,GND*%
X127310000Y-97290000D03*
%TD*%
D19*
%TO.P,R3,1*%
%TO.N,Net-(D1-K)*%
X135850000Y-101700000D03*
%TO.P,R3,2*%
%TO.N,+3.3V*%
X135210000Y-101700000D03*
%TD*%
D27*
%TO.P,R18,1*%
%TO.N,+3.3V*%
X128570000Y-81112500D03*
%TO.P,R18,2*%
%TO.N,/SD_DAT3*%
X128570000Y-80472500D03*
%TD*%
D28*
%TO.P,C6,1*%
%TO.N,GND*%
X132660000Y-98070000D03*
%TO.P,C6,2*%
%TO.N,VREGN*%
X131700000Y-98070000D03*
%TD*%
D52*
%TO.P,L3,1,1*%
%TO.N,Net-(U6-SW)*%
X104390000Y-70940000D03*
%TO.P,L3,2,2*%
%TO.N,+3.3V*%
X104390000Y-73600000D03*
%TD*%
D17*
%TO.P,R6,1*%
%TO.N,+3.3V*%
X133380000Y-100000000D03*
%TO.P,R6,2*%
%TO.N,/I2C_SDA*%
X133380000Y-100640000D03*
%TD*%
D13*
%TO.P,C11,1*%
%TO.N,VSYS*%
X127680000Y-87820000D03*
%TO.P,C11,2*%
%TO.N,GND*%
X127680000Y-86860000D03*
%TD*%
D53*
%TO.P,USB1,*%
%TO.N,*%
X118140000Y-68960000D03*
X112360000Y-68960000D03*
D54*
%TO.P,USB1,1,GND*%
%TO.N,GND*%
X118450000Y-70040000D03*
%TO.P,USB1,2,VBUS*%
%TO.N,/VBUS*%
X117650000Y-70040000D03*
D55*
%TO.P,USB1,3,SBU2*%
%TO.N,unconnected-(USB1-SBU2-Pad3)*%
X117000000Y-70040000D03*
%TO.P,USB1,4,CC1*%
%TO.N,Net-(USB1-CC1)*%
X116500000Y-70040000D03*
%TO.P,USB1,5,DN2*%
%TO.N,/USB_DN*%
X116000000Y-70040000D03*
%TO.P,USB1,6,DP1*%
%TO.N,/USB_DP*%
X115500000Y-70040000D03*
%TO.P,USB1,7,DN1*%
%TO.N,/USB_DN*%
X115000000Y-70040000D03*
%TO.P,USB1,8,DP2*%
%TO.N,/USB_DP*%
X114500000Y-70040000D03*
%TO.P,USB1,9,SBU1*%
%TO.N,unconnected-(USB1-SBU1-Pad9)*%
X114000000Y-70040000D03*
%TO.P,USB1,10,CC2*%
%TO.N,Net-(USB1-CC2)*%
X113500000Y-70040000D03*
D54*
%TO.P,USB1,11,VBUS*%
%TO.N,/VBUS*%
X112850000Y-70040000D03*
%TO.P,USB1,12,GND*%
%TO.N,GND*%
X112050000Y-70040000D03*
D56*
%TO.P,USB1,13,SHELL*%
X119570000Y-69490000D03*
D57*
X119570000Y-65280000D03*
D56*
%TO.P,USB1,14,SHELL*%
X110930000Y-69490000D03*
D57*
X110930000Y-65280000D03*
%TD*%
D11*
%TO.P,R7,1*%
%TO.N,Net-(U3-ILIM)*%
X125400000Y-100350000D03*
%TO.P,R7,2*%
%TO.N,GND*%
X126040000Y-100350000D03*
%TD*%
D13*
%TO.P,C25,1*%
%TO.N,+3.3V*%
X108960000Y-86320000D03*
%TO.P,C25,2*%
%TO.N,GND*%
X108960000Y-85360000D03*
%TD*%
D19*
%TO.P,R1,1*%
%TO.N,GND*%
X117150000Y-71235000D03*
%TO.P,R1,2*%
%TO.N,Net-(USB1-CC1)*%
X116510000Y-71235000D03*
%TD*%
D58*
%TO.N,VSYS*%
X137610000Y-84180000D03*
X107870000Y-68270000D03*
X129530000Y-98419998D03*
X126341075Y-84989367D03*
X127016930Y-102166908D03*
X132720000Y-93400000D03*
%TO.N,BAT-*%
X133150000Y-95650000D03*
D59*
%TO.N,GND*%
X114510000Y-92430000D03*
D58*
X126138832Y-100405177D03*
D59*
X123429087Y-93538377D03*
D58*
X108245000Y-76247076D03*
X126230000Y-87000000D03*
D59*
X112330000Y-91560000D03*
X136210000Y-85340000D03*
D58*
X106730000Y-90750000D03*
X120170000Y-75920000D03*
X119362885Y-95053903D03*
D59*
X133009852Y-85840002D03*
D58*
X104650000Y-88769000D03*
X106330000Y-66420000D03*
X110241726Y-78080253D03*
X129969000Y-86270000D03*
X134670000Y-97800000D03*
X134960000Y-82440000D03*
X111560000Y-78170711D03*
X121590000Y-78800000D03*
X126991206Y-99447755D03*
D59*
X131921000Y-85966000D03*
D58*
X130490000Y-94890000D03*
X124682083Y-100719196D03*
D59*
X131590000Y-85014998D03*
D58*
X137435000Y-86971792D03*
X104650000Y-90809000D03*
X105148712Y-91049999D03*
D59*
X134684000Y-85010000D03*
X123795247Y-92525199D03*
D58*
X123349000Y-95950000D03*
X133034379Y-80944001D03*
D59*
X132008394Y-83901000D03*
D58*
X103420000Y-69689998D03*
%TO.N,+BAT*%
X128504375Y-97124385D03*
X130937259Y-97743141D03*
%TO.N,Net-(U3-BTST)*%
X132483467Y-97260518D03*
X131480002Y-98930000D03*
%TO.N,+5V*%
X130200000Y-88510000D03*
X107560000Y-88340000D03*
%TO.N,+3.3V*%
X118050000Y-77130000D03*
X118119692Y-75057877D03*
X122920000Y-85090000D03*
X123430000Y-90840000D03*
%TO.N,/HSE_IN*%
X111062260Y-88113857D03*
X111039374Y-89600475D03*
%TO.N,/RESET*%
X113630000Y-94060000D03*
X111770000Y-89240000D03*
%TO.N,/SD_DAT3*%
X123110000Y-75320000D03*
X112840000Y-76990000D03*
%TO.N,/SD_DAT0*%
X124678700Y-80645362D03*
X130350000Y-76250000D03*
%TO.N,/SD_DAT1*%
X124590000Y-79800000D03*
X129650000Y-75710000D03*
%TO.N,/SD_CLK*%
X112889000Y-77805303D03*
X116719620Y-74319000D03*
%TO.N,/SD_CD*%
X123340000Y-73160000D03*
X112419239Y-79012843D03*
%TO.N,/SD_DAT2*%
X116570000Y-79050000D03*
X123235215Y-76160729D03*
%TO.N,/SD_CMD*%
X117275067Y-74962415D03*
X113148218Y-78575700D03*
%TO.N,Net-(D1-K)*%
X136740000Y-102580000D03*
X121770000Y-95240000D03*
%TO.N,Net-(U1-L1)*%
X134986504Y-87615268D03*
X135000000Y-90370000D03*
%TO.N,Net-(U1-L2)*%
X132460000Y-90350000D03*
X131884997Y-87589000D03*
%TO.N,Net-(U5-VDDA)*%
X117450000Y-90060000D03*
X115805849Y-89170925D03*
%TO.N,/BQ_INT*%
X131970000Y-104320000D03*
X115173724Y-80276471D03*
%TO.N,/I2C_SCL*%
X110588878Y-80925835D03*
X130520000Y-103869000D03*
X107707342Y-77799740D03*
X131456811Y-102888333D03*
X134360000Y-100550000D03*
X111443132Y-79941610D03*
%TO.N,/I2C_SDA*%
X133749900Y-101207818D03*
X120900000Y-103290000D03*
X109006246Y-78640104D03*
X134236527Y-102587264D03*
%TO.N,Net-(U3-ILIM)*%
X132448541Y-101399878D03*
X124272614Y-99974320D03*
%TO.N,Net-(U3-TS)*%
X132090000Y-92890000D03*
X132985971Y-101999381D03*
X129488346Y-92266875D03*
X134290000Y-99090000D03*
%TO.N,/BOOT*%
X117145002Y-97320000D03*
X114936048Y-84696808D03*
%TO.N,/ICM_SDI*%
X126890000Y-89430000D03*
X127092602Y-91682603D03*
%TO.N,/ICM_SD0*%
X126398634Y-90963018D03*
X121429889Y-90285085D03*
%TO.N,/ICM_INT1*%
X122029944Y-91523508D03*
X120424131Y-86723471D03*
%TO.N,/ICM_SCK*%
X125660000Y-92350000D03*
X118405448Y-89498212D03*
%TO.N,Net-(LED1-DO)*%
X104550000Y-80650000D03*
X103699998Y-88360000D03*
%TO.N,/LED_DIN*%
X116252478Y-91429001D03*
X109320000Y-88350000D03*
%TD*%
D60*
%TO.N,*%
X102709000Y-67629000D02*
X102719586Y-67629000D01*
X102260000Y-67170000D02*
X102680000Y-67590000D01*
X102680000Y-67590000D02*
X102680000Y-67600000D01*
X102680000Y-67600000D02*
X102709000Y-67629000D01*
X119228287Y-105721000D02*
X119739001Y-105721000D01*
%TO.N,VSYS*%
X128291000Y-87186550D02*
X128036550Y-87441000D01*
X129270000Y-98320000D02*
X129820000Y-98320000D01*
X137460000Y-84840000D02*
X137500000Y-84800000D01*
X127323450Y-87441000D02*
X126880000Y-86997550D01*
X105220000Y-68565532D02*
X105220000Y-68920000D01*
X131580000Y-94420000D02*
X132740000Y-94420000D01*
X106700000Y-67775000D02*
X107375000Y-67775000D01*
X134170000Y-86540000D02*
X134170000Y-87040000D01*
X128291000Y-86281001D02*
X128291000Y-87186550D01*
X137840000Y-84800000D02*
X137840000Y-84410000D01*
X136800000Y-84180000D02*
X134740000Y-84180000D01*
X131580000Y-94420000D02*
X131580000Y-93492000D01*
X126678000Y-85326292D02*
X126341075Y-84989367D01*
X126919000Y-101129000D02*
X126919000Y-102068978D01*
X129879000Y-97669000D02*
X129820000Y-97728000D01*
X128739179Y-90651179D02*
X128739179Y-90082333D01*
X137460000Y-84840000D02*
X136800000Y-84180000D01*
X134747000Y-86540000D02*
X134170000Y-86540000D01*
X106365000Y-67775000D02*
X105220000Y-68920000D01*
X137840000Y-84410000D02*
X137610000Y-84180000D01*
X128304000Y-87196000D02*
X127680000Y-87820000D01*
X106700000Y-67775000D02*
X106365000Y-67775000D01*
X128036550Y-87441000D02*
X127323450Y-87441000D01*
X126919000Y-102068978D02*
X127016930Y-102166908D01*
X135184000Y-84624000D02*
X135184000Y-85431685D01*
X126880000Y-86730761D02*
X126678000Y-86528761D01*
X132720000Y-93580000D02*
X133150000Y-94010000D01*
X127690000Y-85990000D02*
X127999999Y-85990000D01*
X126678000Y-86528761D02*
X126678000Y-85326292D01*
X129320000Y-98320000D02*
X129270000Y-98320000D01*
X129270000Y-98320000D02*
X129260000Y-98330000D01*
X126978000Y-101070000D02*
X126919000Y-101129000D01*
X104270000Y-67615532D02*
X105220000Y-68565532D01*
X127999999Y-85990000D02*
X128291000Y-86281001D01*
X128330000Y-88160001D02*
X127989999Y-87820000D01*
X134821000Y-86466000D02*
X134747000Y-86540000D01*
X129320000Y-98320000D02*
X129430002Y-98320000D01*
X128739179Y-90082333D02*
X128330000Y-89673154D01*
X127570000Y-101070000D02*
X126978000Y-101070000D01*
X127690000Y-85990000D02*
X127999999Y-85990000D01*
X128330000Y-89673154D02*
X128330000Y-88160001D01*
X132720000Y-93400000D02*
X132720000Y-93580000D01*
X127989999Y-87820000D02*
X127680000Y-87820000D01*
X131140000Y-94860000D02*
X131140000Y-95159239D01*
X134740000Y-84180000D02*
X135184000Y-84624000D01*
X129430002Y-98320000D02*
X129530000Y-98419998D01*
X131580000Y-94420000D02*
X131140000Y-94860000D01*
X134821000Y-85794685D02*
X134821000Y-86466000D01*
X131140000Y-95159239D02*
X130779000Y-95520239D01*
X129820000Y-97728000D02*
X129820000Y-98320000D01*
X104270000Y-66645000D02*
X104270000Y-67615532D01*
X126880000Y-86997550D02*
X126880000Y-86730761D01*
X127999999Y-85990000D02*
X128304000Y-86294001D01*
X135184000Y-85431685D02*
X134821000Y-85794685D01*
X130779000Y-95520239D02*
X130779000Y-97052338D01*
X128304000Y-86294001D02*
X128304000Y-87196000D01*
X107375000Y-67775000D02*
X107870000Y-68270000D01*
X130162338Y-97669000D02*
X129879000Y-97669000D01*
X130779000Y-97052338D02*
X130162338Y-97669000D01*
X132740000Y-94420000D02*
X133150000Y-94010000D01*
X131580000Y-93492000D02*
X128739179Y-90651179D01*
X137500000Y-84800000D02*
X137840000Y-84800000D01*
%TO.N,BAT-*%
X133150000Y-95650000D02*
X133150000Y-94970000D01*
%TO.N,Net-(C2-Pad1)*%
X126290000Y-101280000D02*
X126290000Y-101183785D01*
X126903785Y-100570000D02*
X127570000Y-100570000D01*
X126430000Y-99777106D02*
X126430000Y-99660000D01*
X126290000Y-101183785D02*
X126903785Y-100570000D01*
X127570000Y-100070000D02*
X127570000Y-100570000D01*
X126430000Y-99660000D02*
X125380000Y-98610000D01*
X127570000Y-100070000D02*
X126722894Y-100070000D01*
X126722894Y-100070000D02*
X126430000Y-99777106D01*
%TO.N,GND*%
X110819000Y-75741000D02*
X110819000Y-76551000D01*
X130020000Y-94420000D02*
X130490000Y-94890000D01*
X114370000Y-93430000D02*
X114370000Y-94870000D01*
X110661000Y-75741000D02*
X110819000Y-75741000D01*
X112050000Y-70040000D02*
X112050000Y-70690000D01*
X106790000Y-90890000D02*
X106760000Y-90860000D01*
D61*
X127570000Y-99070000D02*
X127570000Y-99529000D01*
D60*
X110990000Y-76722000D02*
X110868000Y-76600000D01*
X120220000Y-76640000D02*
X120220000Y-75970000D01*
X109990000Y-77130000D02*
X109990000Y-77626376D01*
X111420996Y-84259004D02*
X111330000Y-84350000D01*
X107940000Y-90890000D02*
X106790000Y-90890000D01*
X127622450Y-86860000D02*
X127079000Y-86316550D01*
X127310000Y-96430000D02*
X127090000Y-96210000D01*
X109200000Y-84360000D02*
X109550000Y-84360000D01*
X114510000Y-92430000D02*
X114670000Y-92430000D01*
D61*
X124256479Y-102033521D02*
X124256479Y-100943271D01*
D60*
X108290000Y-78020000D02*
X108260000Y-78050000D01*
X114370000Y-94870000D02*
X114380000Y-94860000D01*
X132720000Y-86129854D02*
X133009852Y-85840002D01*
D61*
X109068381Y-79790104D02*
X108529901Y-79790104D01*
D60*
X120440000Y-91600000D02*
X119643806Y-91600000D01*
D61*
X124256479Y-100943271D02*
X124480554Y-100719196D01*
D60*
X134170000Y-85524000D02*
X134684000Y-85010000D01*
X137840000Y-85760000D02*
X136630000Y-85760000D01*
X102429000Y-74729000D02*
X102429000Y-72549000D01*
X124000000Y-94590000D02*
X124000000Y-94109290D01*
D61*
X129680000Y-94420000D02*
X129970000Y-94130000D01*
D60*
X102204000Y-93483000D02*
X102204000Y-76556000D01*
X127090000Y-96210000D02*
X127090000Y-95930000D01*
X124000000Y-94590000D02*
X123420000Y-94590000D01*
D61*
X127310000Y-99269000D02*
X127169961Y-99269000D01*
X132660000Y-98070000D02*
X134380000Y-98070000D01*
D60*
X116939000Y-94359000D02*
X117070000Y-94490000D01*
X124490000Y-92350000D02*
X124100000Y-92350000D01*
X129680000Y-94420000D02*
X130020000Y-94420000D01*
X114380000Y-94860000D02*
X115580000Y-94860000D01*
X126040000Y-86567727D02*
X126040000Y-86170000D01*
X119446658Y-91975244D02*
X120081414Y-92610000D01*
X109100000Y-78020000D02*
X108290000Y-78020000D01*
X115020000Y-92780000D02*
X114370000Y-93430000D01*
X124000000Y-94590000D02*
X123770001Y-94590000D01*
X110990000Y-77130000D02*
X111560000Y-77700000D01*
X105390000Y-75530000D02*
X106270000Y-75530000D01*
X103665000Y-90710000D02*
X103831000Y-90876000D01*
X110140000Y-92590000D02*
X108029000Y-94701000D01*
X127079000Y-86316550D02*
X127079000Y-85641000D01*
D61*
X109159075Y-79790105D02*
X109068383Y-79790106D01*
D60*
X124100000Y-92350000D02*
X124080000Y-92330000D01*
X122770000Y-78310000D02*
X122080000Y-78310000D01*
D61*
X127310000Y-99269000D02*
X127570000Y-99529000D01*
X129680000Y-94420000D02*
X129060000Y-94420000D01*
D60*
X137840000Y-85760000D02*
X137840000Y-86750000D01*
X123349000Y-95011001D02*
X123349000Y-95950000D01*
D61*
X127169961Y-99269000D02*
X126991206Y-99447755D01*
D60*
X129330000Y-85470000D02*
X129330000Y-85090000D01*
X103630000Y-81750000D02*
X103550000Y-81670000D01*
X110990000Y-77130000D02*
X110990000Y-76722000D01*
X131270000Y-86040000D02*
X131847000Y-86040000D01*
X118450000Y-70040000D02*
X118450000Y-70840000D01*
X121530000Y-92610000D02*
X122000000Y-93080000D01*
X119871414Y-92820000D02*
X120081414Y-92610000D01*
X110276193Y-77912569D02*
X110276193Y-78175502D01*
X118874734Y-90830928D02*
X119446658Y-91402852D01*
X137435000Y-86971792D02*
X137618208Y-86971792D01*
X114384606Y-89770268D02*
X113812683Y-90342191D01*
X123555199Y-92525199D02*
X123470000Y-92440000D01*
X118341130Y-94359000D02*
X118938870Y-94359000D01*
D61*
X109830000Y-80580000D02*
X109830000Y-80461030D01*
D60*
X131847000Y-86040000D02*
X131921000Y-85966000D01*
X131921000Y-85139000D02*
X131970000Y-85090000D01*
X110170000Y-92590000D02*
X111580000Y-91180000D01*
X110819000Y-76551000D02*
X110868000Y-76600000D01*
X120220000Y-76863806D02*
X118874734Y-78209072D01*
X115580000Y-94860000D02*
X115580000Y-94700130D01*
X133810000Y-82440000D02*
X133680000Y-82570000D01*
X118000000Y-94860000D02*
X118000000Y-94700130D01*
X110990000Y-75570000D02*
X110819000Y-75741000D01*
X136630000Y-85760000D02*
X136210000Y-85340000D01*
X111790000Y-91180000D02*
X111950000Y-91180000D01*
X109670000Y-81720000D02*
X109670000Y-80740000D01*
D61*
X124480554Y-100719196D02*
X124682083Y-100719196D01*
X109068383Y-79790106D02*
X109068381Y-79790104D01*
D60*
X124609411Y-87640589D02*
X124609411Y-87373217D01*
X105195000Y-90720000D02*
X105195000Y-91003711D01*
X103320000Y-69589998D02*
X103420000Y-69689998D01*
D61*
X127310000Y-97290000D02*
X127310000Y-99269000D01*
D60*
X124609411Y-87373217D02*
X123470928Y-86234734D01*
X106469899Y-78500101D02*
X105640000Y-79330000D01*
D61*
X106700000Y-65900000D02*
X106620000Y-65820000D01*
D60*
X113812683Y-90342191D02*
X113547809Y-90342191D01*
D61*
X107239899Y-78500101D02*
X106808291Y-78068494D01*
D60*
X123420000Y-94590000D02*
X123380000Y-94630000D01*
X105195000Y-91003711D02*
X105148712Y-91049999D01*
X103831000Y-93651000D02*
X102372000Y-93651000D01*
X109990000Y-77130000D02*
X109100000Y-78020000D01*
X127079000Y-85641000D02*
X127690000Y-85030000D01*
X106330000Y-66445000D02*
X106700000Y-66815000D01*
D61*
X126040000Y-100350000D02*
X126083655Y-100350000D01*
D60*
X111420996Y-83377190D02*
X111420996Y-84259004D01*
X120220000Y-75970000D02*
X120170000Y-75920000D01*
X109763806Y-81720000D02*
X110849072Y-82805266D01*
X131921000Y-85966000D02*
X131921000Y-85139000D01*
X126040000Y-86810000D02*
X126230000Y-87000000D01*
X132950000Y-79160000D02*
X132950000Y-80859622D01*
X137618208Y-86971792D02*
X137840000Y-86750000D01*
X110140000Y-92590000D02*
X110170000Y-92590000D01*
X109110000Y-85530000D02*
X109120000Y-85520000D01*
X108945000Y-76755000D02*
X108752924Y-76755000D01*
X131590000Y-85014998D02*
X131894998Y-85014998D01*
D61*
X126083655Y-100350000D02*
X126138832Y-100405177D01*
X106700000Y-66815000D02*
X106700000Y-65900000D01*
D60*
X110868000Y-76600000D02*
X111270000Y-76600000D01*
D61*
X134380000Y-98070000D02*
X134650000Y-97800000D01*
D60*
X110490000Y-74910000D02*
X110505000Y-74895000D01*
X123795247Y-92525199D02*
X123555199Y-92525199D01*
D61*
X129970000Y-94130000D02*
X129970000Y-92860000D01*
D60*
X102204000Y-76556000D02*
X103230000Y-75530000D01*
X107316130Y-94701000D02*
X106730000Y-94114870D01*
X129330000Y-85631000D02*
X129969000Y-86270000D01*
X120081414Y-92610000D02*
X120690000Y-92610000D01*
D61*
X107767792Y-76755000D02*
X108945000Y-76755000D01*
X129060000Y-94420000D02*
X128170000Y-93530000D01*
D60*
X109550000Y-84360000D02*
X109560000Y-84350000D01*
X124967138Y-87640589D02*
X126040000Y-86567727D01*
D61*
X106808291Y-78068494D02*
X106808291Y-77364502D01*
D60*
X107870000Y-66500000D02*
X108510000Y-65860000D01*
X129270000Y-85030000D02*
X127690000Y-85030000D01*
X132950000Y-80859622D02*
X133034379Y-80944001D01*
X127090000Y-95930000D02*
X127830000Y-95190000D01*
X107239899Y-78500101D02*
X106469899Y-78500101D01*
D61*
X106808291Y-77364502D02*
X107062793Y-77110000D01*
D60*
X102429000Y-72549000D02*
X106351000Y-72549000D01*
X126040000Y-86170000D02*
X126040000Y-86810000D01*
X134960000Y-82440000D02*
X133810000Y-82440000D01*
X123770001Y-94590000D02*
X123349000Y-95011001D01*
X106351000Y-72549000D02*
X106351000Y-74569000D01*
X110849072Y-82805266D02*
X110865266Y-82805266D01*
X102372000Y-93651000D02*
X102204000Y-93483000D01*
X110849072Y-82805266D02*
X111420996Y-83377190D01*
X129330000Y-85470000D02*
X129330000Y-85631000D01*
X103230000Y-75530000D02*
X102429000Y-74729000D01*
X110865266Y-82805266D02*
X111550000Y-83490000D01*
X106270000Y-75530000D02*
X107100000Y-74700000D01*
X104650000Y-88090000D02*
X104650000Y-88769000D01*
X118000000Y-94700130D02*
X118341130Y-94359000D01*
X106351000Y-74569000D02*
X105390000Y-75530000D01*
X127310000Y-97290000D02*
X127310000Y-96430000D01*
X118938870Y-94359000D02*
X119362885Y-94783015D01*
X104550000Y-81750000D02*
X103630000Y-81750000D01*
X111950000Y-91180000D02*
X112330000Y-91560000D01*
X120690000Y-92610000D02*
X121530000Y-92610000D01*
X110140000Y-93240000D02*
X109380000Y-94000000D01*
X124000000Y-94109290D02*
X123429087Y-93538377D01*
D61*
X107412792Y-77110000D02*
X107767792Y-76755000D01*
D60*
X122080000Y-78310000D02*
X121590000Y-78800000D01*
X110490000Y-75570000D02*
X110490000Y-74910000D01*
X119860000Y-92820000D02*
X119871414Y-92820000D01*
X109670000Y-81720000D02*
X109763806Y-81720000D01*
D61*
X125190000Y-101280000D02*
X124500000Y-101970000D01*
D60*
X104070000Y-98000000D02*
X104800000Y-97270000D01*
X106730000Y-94114870D02*
X106730000Y-90750000D01*
X108029000Y-94701000D02*
X107316130Y-94701000D01*
X118450000Y-70840000D02*
X118460000Y-70850000D01*
X119362885Y-94783015D02*
X119362885Y-95053903D01*
X119446658Y-91402852D02*
X119446658Y-91975244D01*
D61*
X109830000Y-80461030D02*
X109159075Y-79790105D01*
X107062793Y-77110000D02*
X107412792Y-77110000D01*
D60*
X115921130Y-94359000D02*
X116939000Y-94359000D01*
X110490000Y-75570000D02*
X110661000Y-75741000D01*
X115580000Y-94700130D02*
X115921130Y-94359000D01*
X129330000Y-85090000D02*
X129270000Y-85030000D01*
X119643806Y-91600000D02*
X118874734Y-90830928D01*
X124609411Y-87640589D02*
X124967138Y-87640589D01*
X127680000Y-86860000D02*
X127622450Y-86860000D01*
X109990000Y-77626376D02*
X110276193Y-77912569D01*
X104060000Y-98000000D02*
X104070000Y-98000000D01*
X108510000Y-65860000D02*
X108540000Y-65860000D01*
X134650000Y-97800000D02*
X134670000Y-97800000D01*
X111580000Y-91180000D02*
X111790000Y-91180000D01*
X110140000Y-92590000D02*
X110140000Y-93240000D01*
X132400000Y-83970000D02*
X132077394Y-83970000D01*
X132720000Y-86930000D02*
X132720000Y-86129854D01*
D61*
X125330000Y-101280000D02*
X125190000Y-101280000D01*
X108529901Y-79790104D02*
X107239899Y-78500101D01*
D60*
X131894998Y-85014998D02*
X131970000Y-85090000D01*
X114670000Y-92430000D02*
X115020000Y-92780000D01*
X120220000Y-76640000D02*
X120220000Y-76863806D01*
X110490000Y-75570000D02*
X110490000Y-75880000D01*
X103831000Y-90876000D02*
X103831000Y-93651000D01*
X108752924Y-76755000D02*
X108245000Y-76247076D01*
X109670000Y-80740000D02*
X109830000Y-80580000D01*
X103320000Y-68920000D02*
X103320000Y-69589998D01*
X106330000Y-66420000D02*
X106330000Y-66445000D01*
X113547809Y-90342191D02*
X112330000Y-91560000D01*
X132077394Y-83970000D02*
X132008394Y-83901000D01*
X134170000Y-85540000D02*
X134170000Y-85524000D01*
X111560000Y-77700000D02*
X111560000Y-78170711D01*
%TO.N,+BAT*%
X128270000Y-97290000D02*
X128338760Y-97290000D01*
X128338760Y-97290000D02*
X128504375Y-97124385D01*
X130846859Y-97743141D02*
X130937259Y-97743141D01*
X130820000Y-97770000D02*
X130846859Y-97743141D01*
X130820000Y-98320000D02*
X130820000Y-97770000D01*
%TO.N,Net-(U3-BTST)*%
X132483467Y-97260518D02*
X132270518Y-97260518D01*
X132270518Y-97260518D02*
X131580000Y-96570000D01*
X131570000Y-99070000D02*
X131570000Y-99019998D01*
X131570000Y-99019998D02*
X131480002Y-98930000D01*
%TO.N,/BTST*%
X128753318Y-96523385D02*
X129105375Y-96875442D01*
X128099817Y-96679000D02*
X128255432Y-96523385D01*
X126590000Y-95784314D02*
X127764314Y-94610000D01*
X128330000Y-98320000D02*
X128820000Y-98320000D01*
X128820000Y-97728000D02*
X129680000Y-96868000D01*
X126729000Y-97619000D02*
X126729000Y-96694686D01*
X128255432Y-96523385D02*
X128753318Y-96523385D01*
X129680000Y-96868000D02*
X129680000Y-96570000D01*
X127764314Y-94610000D02*
X128095686Y-94610000D01*
X127970000Y-96549183D02*
X128099817Y-96679000D01*
X128095686Y-94610000D02*
X128230000Y-94744314D01*
X127970000Y-95615686D02*
X127970000Y-96549183D01*
X128230000Y-94744314D02*
X128230000Y-95355686D01*
X125380000Y-96270000D02*
X126729000Y-97619000D01*
X128230000Y-95355686D02*
X127970000Y-95615686D01*
X128820000Y-98320000D02*
X128820000Y-97728000D01*
X129105375Y-96875442D02*
X129105375Y-97544625D01*
X129105375Y-97544625D02*
X128330000Y-98320000D01*
X126729000Y-96694686D02*
X126590000Y-96555686D01*
X126590000Y-96555686D02*
X126590000Y-95784314D01*
%TO.N,VREGN*%
X132610000Y-98980000D02*
X132610000Y-99210000D01*
X132610000Y-99210000D02*
X132380001Y-99210000D01*
X132380001Y-99210000D02*
X132020001Y-99570000D01*
X132020001Y-99570000D02*
X131570000Y-99570000D01*
X131700000Y-98070000D02*
X132610000Y-98980000D01*
%TO.N,Net-(U1-Vaux)*%
X133128371Y-83970000D02*
X133365632Y-84207261D01*
X133040000Y-83970000D02*
X133128371Y-83970000D01*
X132444615Y-85634347D02*
X132444615Y-85115385D01*
X132444615Y-85115385D02*
X132470000Y-85090000D01*
%TO.N,+5V*%
X130619000Y-85114000D02*
X130619000Y-86439000D01*
X130209000Y-83641000D02*
X130209000Y-84704000D01*
X131130000Y-87040000D02*
X130800000Y-87370000D01*
X135419761Y-88530239D02*
X136210000Y-87740000D01*
X107570000Y-86990000D02*
X106490000Y-86990000D01*
X129330000Y-87640000D02*
X130200000Y-88510000D01*
X136680000Y-87710000D02*
X137840000Y-87710000D01*
X131280000Y-82570000D02*
X130209000Y-83641000D01*
X131270000Y-87040000D02*
X131130000Y-87040000D01*
X107580000Y-81538000D02*
X107580000Y-86980000D01*
X131270000Y-87040000D02*
X131270000Y-88039239D01*
X106692000Y-80650000D02*
X107580000Y-81538000D01*
X130800000Y-87370000D02*
X129330000Y-87370000D01*
X130619000Y-86439000D02*
X130720000Y-86540000D01*
X131419761Y-88189000D02*
X134681000Y-88189000D01*
X109140000Y-98070000D02*
X109150000Y-98080000D01*
X136210000Y-87240000D02*
X136680000Y-87710000D01*
X106390000Y-80650000D02*
X106692000Y-80650000D01*
X135022239Y-88530239D02*
X135419761Y-88530239D01*
X107570000Y-86990000D02*
X107300000Y-87260000D01*
X129330000Y-87370000D02*
X129330000Y-87640000D01*
X131270000Y-88039239D02*
X131419761Y-88189000D01*
X130209000Y-84704000D02*
X130619000Y-85114000D01*
X134681000Y-88189000D02*
X135022239Y-88530239D01*
X107300000Y-88080000D02*
X107560000Y-88340000D01*
X136210000Y-87740000D02*
X136210000Y-87240000D01*
X109140000Y-98000000D02*
X109140000Y-98070000D01*
X107580000Y-86980000D02*
X107570000Y-86990000D01*
X109150000Y-98080000D02*
X109150000Y-101880000D01*
X131270000Y-86540000D02*
X131270000Y-87040000D01*
X107300000Y-87260000D02*
X107300000Y-88080000D01*
X131780000Y-82570000D02*
X131280000Y-82570000D01*
X130720000Y-86540000D02*
X131270000Y-86540000D01*
%TO.N,Net-(U6-CB)*%
X103320000Y-67595686D02*
X102885686Y-68030000D01*
X102161000Y-68466499D02*
X102161000Y-68814000D01*
X103320000Y-66645000D02*
X103320000Y-67595686D01*
X102885686Y-68030000D02*
X102597499Y-68030000D01*
X102597499Y-68030000D02*
X102161000Y-68466499D01*
%TO.N,Net-(U6-SW)*%
X102161000Y-69516000D02*
X102161000Y-69485000D01*
X102984998Y-70339998D02*
X102161000Y-69516000D01*
X104390000Y-69040000D02*
X104270000Y-68920000D01*
X104390000Y-70940000D02*
X104390000Y-69040000D01*
X103689239Y-70339998D02*
X102984998Y-70339998D01*
X104270000Y-68920000D02*
X104270000Y-69759237D01*
X104270000Y-69759237D02*
X103689239Y-70339998D01*
%TO.N,+3.3V*%
X117840000Y-92760000D02*
X116860000Y-93740000D01*
X131140000Y-79550000D02*
X130750000Y-79160000D01*
X122920000Y-85090000D02*
X123033300Y-85090000D01*
X110495519Y-83158819D02*
X110283388Y-83158819D01*
X124113300Y-86170000D02*
X123824481Y-85881181D01*
X122969000Y-92141130D02*
X122969000Y-92738870D01*
X129739870Y-81112500D02*
X130180000Y-80672370D01*
X136540001Y-103230000D02*
X137009239Y-103230000D01*
X120738870Y-91099000D02*
X120971000Y-91331130D01*
X123999000Y-95154000D02*
X124275999Y-95154000D01*
X119730001Y-93530000D02*
X122115686Y-93530000D01*
X110030000Y-73050000D02*
X113090000Y-73050000D01*
X125400000Y-86170000D02*
X125400000Y-84282500D01*
X132570000Y-99750001D02*
X132580001Y-99740000D01*
X104364000Y-73626000D02*
X104390000Y-73600000D01*
X121315686Y-92210000D02*
X121080000Y-91974314D01*
X109030000Y-81905431D02*
X109030000Y-81720000D01*
X107205686Y-76610000D02*
X107440000Y-76375686D01*
X130180000Y-80672370D02*
X130180000Y-80512500D01*
X120971000Y-91868870D02*
X120738870Y-92101000D01*
X104364000Y-76015160D02*
X104364000Y-73626000D01*
X110283388Y-83158819D02*
X109030000Y-81905431D01*
X126771130Y-80983500D02*
X126539000Y-80751370D01*
X135980000Y-99910000D02*
X136000000Y-99930000D01*
X123999000Y-96420239D02*
X123999000Y-95154000D01*
X134350000Y-80590000D02*
X134350000Y-81445685D01*
X108721181Y-83158819D02*
X108240000Y-83640000D01*
X109865000Y-73215000D02*
X110030000Y-73050000D01*
X123201130Y-92971000D02*
X123568818Y-92971000D01*
X127710000Y-80482500D02*
X127710000Y-80682499D01*
X127710000Y-80682499D02*
X127408999Y-80983500D01*
X110495519Y-83158819D02*
X108721181Y-83158819D01*
X135720000Y-97365075D02*
X135104924Y-96750000D01*
X119220000Y-93019999D02*
X119730001Y-93530000D01*
X107501000Y-74930160D02*
X106100160Y-76331000D01*
X118050000Y-77701038D02*
X117895519Y-77855519D01*
X104890062Y-77929938D02*
X105390000Y-77430000D01*
X135200000Y-99910000D02*
X133470000Y-99910000D01*
X122299183Y-92173508D02*
X122672691Y-91800000D01*
X109695000Y-76115000D02*
X109710000Y-76100000D01*
X122630000Y-93015686D02*
X122630000Y-92584314D01*
X119580000Y-76796700D02*
X118521181Y-77855519D01*
X120778999Y-92101000D02*
X121080000Y-91799999D01*
X134350000Y-81445685D02*
X134251685Y-81544000D01*
X126539000Y-80751370D02*
X126539000Y-80177000D01*
X132055315Y-81091000D02*
X131548501Y-81091000D01*
X130180000Y-80512500D02*
X131110000Y-80512500D01*
X132570000Y-99980000D02*
X132570000Y-99750001D01*
X134350000Y-80590000D02*
X135320000Y-80590000D01*
X121080000Y-91974314D02*
X121080000Y-91600000D01*
X126539000Y-80177000D02*
X123172729Y-76810729D01*
X122672691Y-91800000D02*
X123470000Y-91800000D01*
X131140000Y-80682499D02*
X131140000Y-80482500D01*
X117840000Y-92760000D02*
X119160000Y-92760000D01*
X109030000Y-80740000D02*
X108870000Y-80580000D01*
X107030000Y-69955000D02*
X107349999Y-69955000D01*
X123568818Y-92971000D02*
X124207818Y-93610000D01*
X134251685Y-81544000D02*
X132508315Y-81544000D01*
X132580001Y-99740000D02*
X134559239Y-99740000D01*
X137009239Y-103230000D02*
X137390000Y-102849239D01*
X118981513Y-75057877D02*
X118119692Y-75057877D01*
X123470000Y-91800000D02*
X123470000Y-90880000D01*
X108960000Y-86320000D02*
X108240000Y-85600000D01*
X122640000Y-97320000D02*
X122640000Y-96590000D01*
X124275999Y-95154000D02*
X124640000Y-94789999D01*
X125400000Y-86170000D02*
X124113300Y-86170000D01*
X135200000Y-99910000D02*
X135980000Y-99910000D01*
X119569391Y-74470000D02*
X118981513Y-75057877D01*
X108945000Y-76115000D02*
X109695000Y-76115000D01*
X131548501Y-81091000D02*
X131140000Y-80682499D01*
X105474314Y-79730000D02*
X104890062Y-79145748D01*
X134162000Y-93517350D02*
X138451000Y-89228350D01*
X121653508Y-92173508D02*
X122299183Y-92173508D01*
X132508315Y-81544000D02*
X132055315Y-81091000D01*
X119160000Y-92760000D02*
X119220000Y-92820000D01*
X106724314Y-79730000D02*
X105474314Y-79730000D01*
X125400000Y-84282500D02*
X128570000Y-81112500D01*
X120971000Y-91331130D02*
X120971000Y-91868870D01*
X109990000Y-75570000D02*
X109865000Y-75445000D01*
X123260130Y-91850000D02*
X122969000Y-92141130D01*
X135210000Y-101700000D02*
X135210000Y-101899999D01*
X109865000Y-75445000D02*
X109865000Y-74895000D01*
X123033300Y-85090000D02*
X123824481Y-85881181D01*
X109030000Y-81720000D02*
X109030000Y-80740000D01*
X122640000Y-96590000D02*
X123829239Y-96590000D01*
X138451000Y-89228350D02*
X138451000Y-83900999D01*
X120738870Y-92101000D02*
X120778999Y-92101000D01*
X127408999Y-80983500D02*
X126771130Y-80983500D01*
X124490000Y-91850000D02*
X123520000Y-91850000D01*
X124750000Y-93610000D02*
X124750000Y-94480000D01*
X123520000Y-91850000D02*
X123470000Y-91800000D01*
X123172729Y-76810729D02*
X122965976Y-76810729D01*
X104364000Y-73626000D02*
X104390000Y-73600000D01*
X134559239Y-99740000D02*
X135720000Y-98579239D01*
X128570000Y-81112500D02*
X128340000Y-81112500D01*
X117895519Y-77855519D02*
X118521181Y-77855519D01*
X110495519Y-85881181D02*
X109398819Y-85881181D01*
X135104924Y-96750000D02*
X134642792Y-96750000D01*
X122630000Y-92584314D02*
X122255685Y-92210000D01*
X128570000Y-81112500D02*
X129739870Y-81112500D01*
X107440000Y-76375686D02*
X107440000Y-76025686D01*
X104364000Y-76404000D02*
X104364000Y-73626000D01*
X121080000Y-91600000D02*
X121653508Y-92173508D01*
X108657075Y-75597076D02*
X108945000Y-75885001D01*
X119228287Y-90477375D02*
X119849912Y-91099000D01*
X135210000Y-101899999D02*
X136540001Y-103230000D01*
X104890062Y-79145748D02*
X104890062Y-77929938D01*
X107440000Y-76025686D02*
X107868610Y-75597076D01*
X108240000Y-85600000D02*
X108240000Y-84360000D01*
X105390000Y-77430000D02*
X104364000Y-76404000D01*
X113090000Y-73050000D02*
X117895519Y-77855519D01*
X109710000Y-76100000D02*
X109710000Y-75850000D01*
X108945000Y-75885001D02*
X108945000Y-76115000D01*
X128340000Y-81112500D02*
X127710000Y-80482500D01*
X108240000Y-83640000D02*
X108240000Y-84360000D01*
X138451000Y-83900999D02*
X135330000Y-80779999D01*
X137390000Y-102284314D02*
X136690000Y-101584314D01*
X136690000Y-101584314D02*
X136690000Y-100460130D01*
X107349999Y-69955000D02*
X107501000Y-70106001D01*
X120770610Y-74470000D02*
X119569391Y-74470000D01*
X109865000Y-74895000D02*
X109865000Y-73215000D01*
X134642792Y-96750000D02*
X134162000Y-96269208D01*
X106100160Y-76331000D02*
X104679840Y-76331000D01*
X135330000Y-80779999D02*
X135330000Y-80580000D01*
X118050000Y-77130000D02*
X118050000Y-77701038D01*
X103230000Y-77430000D02*
X105390000Y-77430000D01*
X122965976Y-76810729D02*
X121620000Y-75464753D01*
X124640000Y-94789999D02*
X124640000Y-94590000D01*
X131110000Y-80512500D02*
X131140000Y-80482500D01*
X109710000Y-75850000D02*
X109990000Y-75570000D01*
X123829239Y-96590000D02*
X123999000Y-96420239D01*
X119849912Y-91099000D02*
X120738870Y-91099000D01*
X121620000Y-75464753D02*
X121620000Y-75319391D01*
X132570000Y-99980000D02*
X133360000Y-99980000D01*
X107868610Y-75597076D02*
X108657075Y-75597076D01*
X104679840Y-76331000D02*
X104364000Y-76015160D01*
X124207818Y-93610000D02*
X124750000Y-93610000D01*
X123470000Y-90880000D02*
X123430000Y-90840000D01*
X116860000Y-93740000D02*
X115020000Y-93740000D01*
X122969000Y-92738870D02*
X123201130Y-92971000D01*
X108870000Y-80580000D02*
X107574314Y-80580000D01*
X134162000Y-96269208D02*
X134162000Y-93517350D01*
X133360000Y-99980000D02*
X133380000Y-100000000D01*
X124750000Y-94480000D02*
X124640000Y-94590000D01*
X121080000Y-91799999D02*
X121080000Y-91600000D01*
X109398819Y-85881181D02*
X108960000Y-86320000D01*
X121620000Y-75319391D02*
X120770610Y-74470000D01*
X131140000Y-80482500D02*
X131140000Y-79550000D01*
X135320000Y-80590000D02*
X135330000Y-80580000D01*
X122115686Y-93530000D02*
X122630000Y-93015686D01*
X133470000Y-99910000D02*
X133380000Y-100000000D01*
X136690000Y-100460130D02*
X136159870Y-99930000D01*
X137390000Y-102849239D02*
X137390000Y-102284314D01*
X135720000Y-98579239D02*
X135720000Y-97365075D01*
X107574314Y-80580000D02*
X106724314Y-79730000D01*
X119220000Y-92820000D02*
X119220000Y-93019999D01*
X106210000Y-76610000D02*
X107205686Y-76610000D01*
X119580000Y-76640000D02*
X119580000Y-76796700D01*
X105390000Y-77430000D02*
X106210000Y-76610000D01*
X122255685Y-92210000D02*
X121315686Y-92210000D01*
X107501000Y-70106001D02*
X107501000Y-74930160D01*
X124490000Y-91850000D02*
X123260130Y-91850000D01*
%TO.N,Net-(U5-VCAP_1)*%
X123930589Y-87401501D02*
X123930589Y-88319411D01*
X123117375Y-86588287D02*
X123930589Y-87401501D01*
%TO.N,/HSE_IN*%
X110140000Y-90890000D02*
X110490000Y-90540000D01*
X111200475Y-89600475D02*
X111039374Y-89600475D01*
X111790000Y-90540000D02*
X111790000Y-90190000D01*
X111880723Y-87295394D02*
X111062260Y-88113857D01*
X111790000Y-90190000D02*
X111200475Y-89600475D01*
X111909732Y-87295394D02*
X111880723Y-87295394D01*
X110490000Y-90540000D02*
X111790000Y-90540000D01*
%TO.N,/HSE_OUT*%
X109139000Y-89989000D02*
X109328000Y-89800000D01*
X107615000Y-92915000D02*
X107615000Y-94200000D01*
X109139000Y-91491000D02*
X109139000Y-89989000D01*
X108040000Y-92590000D02*
X109139000Y-91491000D01*
X110910610Y-88810000D02*
X111242240Y-88810000D01*
X109328000Y-89800000D02*
X109920611Y-89799999D01*
X109920611Y-89799999D02*
X110910610Y-88810000D01*
X107940000Y-92590000D02*
X107615000Y-92915000D01*
X107940000Y-92590000D02*
X108040000Y-92590000D01*
X111691362Y-88360878D02*
X111691362Y-88220872D01*
X111242240Y-88810000D02*
X111691362Y-88360878D01*
X111691362Y-88220872D02*
X112263286Y-87648948D01*
%TO.N,/LSE_IN*%
X103025000Y-90710000D02*
X103025000Y-92445000D01*
X105421610Y-90209000D02*
X103326001Y-90209000D01*
X103025000Y-90510001D02*
X103025000Y-90710000D01*
X111202625Y-86588287D02*
X110630701Y-87160211D01*
X103025000Y-90710000D02*
X103025000Y-90510001D01*
X109588825Y-88999000D02*
X108574661Y-88999000D01*
X106126949Y-89503661D02*
X105421610Y-90209000D01*
X110630701Y-87160211D02*
X110413450Y-87160211D01*
X103025000Y-92445000D02*
X103030000Y-92450000D01*
X110413450Y-87160211D02*
X109969000Y-87604661D01*
X103326001Y-90209000D02*
X103025000Y-90510001D01*
X109969000Y-87604661D02*
X109969000Y-88618824D01*
X109969000Y-88618824D02*
X109588825Y-88999000D01*
X108070000Y-89503661D02*
X106126949Y-89503661D01*
X108574661Y-88999000D02*
X108070000Y-89503661D01*
%TO.N,/LSE_OUT*%
X110984256Y-87513764D02*
X111556179Y-86941841D01*
X110579550Y-87561211D02*
X110796801Y-87561211D01*
X110370000Y-88784924D02*
X110370000Y-87770761D01*
X106566000Y-89989000D02*
X108573314Y-89989000D01*
X110796801Y-87561211D02*
X110844248Y-87513764D01*
X109754925Y-89400000D02*
X110370000Y-88784924D01*
X105530000Y-92450000D02*
X105835000Y-92145000D01*
X110370000Y-87770761D02*
X110579550Y-87561211D01*
X109162314Y-89400000D02*
X109754925Y-89400000D01*
X110844248Y-87513764D02*
X110984256Y-87513764D01*
X108573314Y-89989000D02*
X109162314Y-89400000D01*
X105835000Y-90720000D02*
X106566000Y-89989000D01*
X105835000Y-92145000D02*
X105835000Y-90720000D01*
%TO.N,/RESET*%
X114355315Y-95361000D02*
X114264315Y-95270000D01*
X116220000Y-95059999D02*
X115918999Y-95361000D01*
X116030000Y-97360000D02*
X116220000Y-97170000D01*
X114264315Y-95270000D02*
X114204315Y-95270000D01*
X115918999Y-95361000D02*
X114355315Y-95361000D01*
X113630000Y-94945686D02*
X113630000Y-94060000D01*
X111770000Y-89240000D02*
X111770000Y-88849340D01*
X114174315Y-95240000D02*
X113924314Y-95240000D01*
X113924314Y-95240000D02*
X113630000Y-94945686D01*
X111770000Y-88849340D02*
X112616839Y-88002501D01*
X116220000Y-97170000D02*
X116220000Y-94860000D01*
X116220000Y-94860000D02*
X116220000Y-95059999D01*
X114204315Y-95270000D02*
X114174315Y-95240000D01*
%TO.N,/SD_DAT3*%
X113583142Y-77525700D02*
X113483799Y-77525700D01*
X128550000Y-78708000D02*
X128550000Y-79160000D01*
X113483799Y-77525700D02*
X112948099Y-76990000D01*
X125162000Y-75320000D02*
X128550000Y-78708000D01*
X123110000Y-75320000D02*
X125162000Y-75320000D01*
X114166236Y-78344256D02*
X114166236Y-78108793D01*
X114738159Y-78916179D02*
X114166236Y-78344256D01*
X112948099Y-76990000D02*
X112840000Y-76990000D01*
X114166236Y-78108793D02*
X113583142Y-77525700D01*
X128550000Y-80452500D02*
X128570000Y-80472500D01*
X128550000Y-79160000D02*
X128550000Y-80452500D01*
%TO.N,/SD_DAT0*%
X122460660Y-80280000D02*
X124230761Y-80280000D01*
X124230761Y-80280000D02*
X124596123Y-80645362D01*
X131460000Y-76250000D02*
X130350000Y-76250000D01*
X134050000Y-78840000D02*
X131460000Y-76250000D01*
X133710000Y-80590000D02*
X133710000Y-79500000D01*
X124596123Y-80645362D02*
X124678700Y-80645362D01*
X134050000Y-79160000D02*
X134050000Y-78840000D01*
X133710000Y-79500000D02*
X134050000Y-79160000D01*
X121703161Y-81037499D02*
X122460660Y-80280000D01*
%TO.N,/SD_DAT1*%
X129711000Y-75649000D02*
X129650000Y-75710000D01*
X124590000Y-79800000D02*
X122233554Y-79800000D01*
X135150000Y-79160000D02*
X135150000Y-78860000D01*
X135150000Y-78860000D02*
X131939000Y-75649000D01*
X135970000Y-80580000D02*
X135970000Y-80330000D01*
X135150000Y-79510000D02*
X135150000Y-79160000D01*
X122233554Y-79800000D02*
X121349608Y-80683946D01*
X131939000Y-75649000D02*
X129711000Y-75649000D01*
X135970000Y-80330000D02*
X135150000Y-79510000D01*
%TO.N,/SD_CLK*%
X113766236Y-78274479D02*
X113417457Y-77925700D01*
X131850000Y-79160000D02*
X131850000Y-78810000D01*
X117108620Y-73930000D02*
X116719620Y-74319000D01*
X126970000Y-73930000D02*
X121361980Y-73930000D01*
X114384606Y-79269732D02*
X113766236Y-78651362D01*
X119238020Y-73670000D02*
X118978020Y-73930000D01*
X113417457Y-77925700D02*
X113009397Y-77925700D01*
X118978020Y-73930000D02*
X117108620Y-73930000D01*
X131850000Y-78810000D02*
X126970000Y-73930000D01*
X121361980Y-73930000D02*
X121101980Y-73670000D01*
X121101980Y-73670000D02*
X119238020Y-73670000D01*
X113766236Y-78651362D02*
X113766236Y-78274479D01*
X113009397Y-77925700D02*
X112889000Y-77805303D01*
X131850000Y-80412500D02*
X131780000Y-80482500D01*
X131850000Y-79160000D02*
X131850000Y-80412500D01*
%TO.N,/SD_CD*%
X123340000Y-73160000D02*
X131400000Y-73160000D01*
X131400000Y-73160000D02*
X136250000Y-78010000D01*
X112713503Y-79012843D02*
X112419239Y-79012843D01*
X136250000Y-78010000D02*
X136250000Y-79160000D01*
X113677499Y-79976839D02*
X112713503Y-79012843D01*
%TO.N,/SD_DAT2*%
X115091713Y-78562625D02*
X115663637Y-79134549D01*
X127450000Y-79160000D02*
X126234486Y-79160000D01*
X116485451Y-79134549D02*
X116570000Y-79050000D01*
X127450000Y-79160000D02*
X127070000Y-79540000D01*
X127070000Y-79540000D02*
X127070000Y-80482500D01*
X126234486Y-79160000D02*
X123235215Y-76160729D01*
X115663637Y-79134549D02*
X116485451Y-79134549D01*
%TO.N,/SD_CMD*%
X117788482Y-74449000D02*
X117275067Y-74962415D01*
X113148218Y-78675044D02*
X113148218Y-78575700D01*
X129650000Y-78810000D02*
X125289000Y-74449000D01*
X119403706Y-74070000D02*
X119024706Y-74449000D01*
X129650000Y-79160000D02*
X129650000Y-78810000D01*
X129650000Y-80402500D02*
X129540000Y-80512500D01*
X119024706Y-74449000D02*
X117788482Y-74449000D01*
X120936295Y-74070000D02*
X119403706Y-74070000D01*
X125289000Y-74449000D02*
X121315296Y-74449000D01*
X129650000Y-79160000D02*
X129650000Y-80402500D01*
X114031052Y-79557878D02*
X113148218Y-78675044D01*
X114031052Y-79623286D02*
X114031052Y-79557878D01*
X121315296Y-74449000D02*
X120936295Y-74070000D01*
%TO.N,Net-(D1-A)*%
X124486852Y-102971000D02*
X120775000Y-99259148D01*
X120775000Y-99259148D02*
X120775000Y-94320000D01*
X128761000Y-102971000D02*
X124486852Y-102971000D01*
X128820000Y-102912000D02*
X128761000Y-102971000D01*
X128820000Y-102320000D02*
X128820000Y-102912000D01*
%TO.N,Net-(D1-K)*%
X135860000Y-101700000D02*
X136740000Y-102580000D01*
X121770000Y-95240000D02*
X121770000Y-94345000D01*
X135850000Y-101700000D02*
X135860000Y-101700000D01*
X121770000Y-94345000D02*
X121745000Y-94320000D01*
%TO.N,/SERVO1*%
X106600000Y-98000000D02*
X113550702Y-91049298D01*
X114519790Y-91049298D02*
X115091713Y-90477375D01*
X113550702Y-91049298D02*
X114519790Y-91049298D01*
%TO.N,/SERVO2*%
X110301000Y-95337385D02*
X113560000Y-92078385D01*
X114818151Y-91458043D02*
X115445266Y-90830928D01*
X114180342Y-91458043D02*
X114818151Y-91458043D01*
X113560000Y-92036496D02*
X114116497Y-91480000D01*
X106610000Y-101880000D02*
X107761000Y-103031000D01*
X113560000Y-92078385D02*
X113560000Y-92036496D01*
X114158385Y-91480000D02*
X114180342Y-91458043D01*
X114116497Y-91480000D02*
X114158385Y-91480000D01*
X107761000Y-103031000D02*
X110301000Y-103031000D01*
X110301000Y-103031000D02*
X110301000Y-95337385D01*
%TO.N,Net-(U1-L1)*%
X133705268Y-87615268D02*
X134986504Y-87615268D01*
X133220000Y-87130000D02*
X133705268Y-87615268D01*
X135000000Y-90370000D02*
X133900000Y-90370000D01*
X133900000Y-90370000D02*
X133880000Y-90390000D01*
%TO.N,Net-(U1-L2)*%
X132460000Y-90350000D02*
X131520000Y-90350000D01*
X131520000Y-90350000D02*
X131480000Y-90390000D01*
X132220000Y-87253997D02*
X131884997Y-87589000D01*
X132220000Y-87130000D02*
X132220000Y-87253997D01*
%TO.N,Net-(U5-VDDA)*%
X115691055Y-89170925D02*
X115805849Y-89170925D01*
X116440000Y-92760000D02*
X117450000Y-91750000D01*
X117450000Y-91750000D02*
X117450000Y-90060000D01*
X114738159Y-90123821D02*
X115691055Y-89170925D01*
%TO.N,Net-(USB1-CC1)*%
X116510000Y-70050000D02*
X116500000Y-70040000D01*
X116510000Y-71235000D02*
X116510000Y-70050000D01*
%TO.N,Net-(USB1-CC2)*%
X113475000Y-71265000D02*
X113475000Y-70065000D01*
X113475000Y-70065000D02*
X113500000Y-70040000D01*
%TO.N,/BQ_INT*%
X130901667Y-102238333D02*
X130820000Y-102320000D01*
X130820000Y-102320000D02*
X130852667Y-102287333D01*
X133272621Y-102680896D02*
X132168613Y-102680896D01*
X131705754Y-102287333D02*
X132057811Y-102639390D01*
X134837527Y-102841473D02*
X133359000Y-104320000D01*
X113542315Y-81255869D02*
X114194326Y-81255869D01*
X114194326Y-81255869D02*
X115173724Y-80276471D01*
X132057811Y-102639390D02*
X133334458Y-102639390D01*
X130852667Y-102287333D02*
X131705754Y-102287333D01*
X134754647Y-101198870D02*
X133272621Y-102680896D01*
X133987584Y-101986264D02*
X134485470Y-101986264D01*
X136000000Y-100570000D02*
X135371130Y-101198870D01*
X133359000Y-104320000D02*
X131970000Y-104320000D01*
X133334458Y-102639390D02*
X133987584Y-101986264D01*
X131726050Y-102238333D02*
X130901667Y-102238333D01*
X134485470Y-101986264D02*
X134837527Y-102338321D01*
X135371130Y-101198870D02*
X134754647Y-101198870D01*
X132168613Y-102680896D02*
X131726050Y-102238333D01*
X134837527Y-102338321D02*
X134837527Y-102841473D01*
X112970392Y-80683946D02*
X113542315Y-81255869D01*
%TO.N,/I2C_SCL*%
X110157550Y-79970000D02*
X110047490Y-79970000D01*
X112616839Y-81037499D02*
X111504904Y-79925564D01*
X110411000Y-80223450D02*
X110157550Y-79970000D01*
X130320000Y-103669000D02*
X130520000Y-103869000D01*
X108737007Y-79290104D02*
X107707342Y-78260439D01*
X131295144Y-103050000D02*
X131456811Y-102888333D01*
X111459178Y-79925564D02*
X111443132Y-79941610D01*
X109539000Y-76771000D02*
X109539000Y-76960870D01*
X109367594Y-79290104D02*
X108737007Y-79290104D01*
X130320000Y-102320000D02*
X130320000Y-102912000D01*
X109539000Y-76960870D02*
X108879870Y-77620000D01*
X130320000Y-102912000D02*
X130458000Y-103050000D01*
X110411000Y-80747957D02*
X110411000Y-80223450D01*
X110047490Y-79970000D02*
X109367594Y-79290104D01*
X110588878Y-80925835D02*
X110411000Y-80747957D01*
X111504904Y-79925564D02*
X111459178Y-79925564D01*
X135200000Y-100550000D02*
X134360000Y-100550000D01*
X109710000Y-76600000D02*
X109539000Y-76771000D01*
X108879870Y-77620000D02*
X107887082Y-77620000D01*
X107887082Y-77620000D02*
X107707342Y-77799740D01*
X107707342Y-78260439D02*
X107707342Y-77799740D01*
X130320000Y-102320000D02*
X130320000Y-103669000D01*
X130458000Y-103050000D02*
X131295144Y-103050000D01*
%TO.N,/I2C_SDA*%
X133224791Y-103599000D02*
X134236527Y-102587264D01*
X111173893Y-80591610D02*
X110830000Y-80247717D01*
X110490000Y-77480000D02*
X110490000Y-77130000D01*
X130810239Y-104519000D02*
X131730239Y-103599000D01*
X129820000Y-102320000D02*
X129820000Y-103046200D01*
X133380000Y-100895824D02*
X133691994Y-101207818D01*
X110830000Y-79015686D02*
X109726791Y-79015686D01*
X110926193Y-77916193D02*
X110490000Y-77480000D01*
X110830000Y-79015686D02*
X110926193Y-78919493D01*
X129820000Y-102320000D02*
X129820000Y-104279239D01*
X109726791Y-79015686D02*
X109351209Y-78640104D01*
X110926193Y-78919493D02*
X110926193Y-77916193D01*
X121382000Y-103772000D02*
X120900000Y-103290000D01*
X129820000Y-103046200D02*
X129094200Y-103772000D01*
X111463844Y-80591610D02*
X111173893Y-80591610D01*
X129820000Y-104279239D02*
X130059761Y-104519000D01*
X133691994Y-101207818D02*
X133749900Y-101207818D01*
X112263286Y-81391052D02*
X111463844Y-80591610D01*
X130059761Y-104519000D02*
X130810239Y-104519000D01*
X131730239Y-103599000D02*
X133224791Y-103599000D01*
X109351209Y-78640104D02*
X109006246Y-78640104D01*
X129094200Y-103772000D02*
X121382000Y-103772000D01*
X133380000Y-100640000D02*
X133380000Y-100895824D01*
X110830000Y-80247717D02*
X110830000Y-79015686D01*
%TO.N,Net-(U3-ILIM)*%
X125400000Y-100350000D02*
X125024320Y-99974320D01*
X132118663Y-101070000D02*
X132448541Y-101399878D01*
X125024320Y-99974320D02*
X124272614Y-99974320D01*
X131570000Y-101070000D02*
X132118663Y-101070000D01*
%TO.N,/BQ_PG*%
X131620000Y-100620000D02*
X131570000Y-100570000D01*
X132570000Y-100620000D02*
X131620000Y-100620000D01*
%TO.N,Net-(U3-TS)*%
X129330000Y-92425221D02*
X129488346Y-92266875D01*
X134477106Y-97150000D02*
X133761000Y-96433894D01*
X133250000Y-99210000D02*
X134179239Y-99210000D01*
X135320000Y-98069239D02*
X135320000Y-97530761D01*
X133761000Y-96433894D02*
X133761000Y-93521761D01*
X135320000Y-97530761D02*
X134939239Y-97150000D01*
X128170000Y-92890000D02*
X129300000Y-92890000D01*
X132230000Y-92750000D02*
X132090000Y-92890000D01*
X134170000Y-99210000D02*
X134290000Y-99090000D01*
X132985971Y-101999381D02*
X132052784Y-101999381D01*
X129300000Y-92890000D02*
X129330000Y-92860000D01*
X131623403Y-101570000D02*
X131570000Y-101570000D01*
X132989239Y-92750000D02*
X132230000Y-92750000D01*
X133250000Y-99210000D02*
X134170000Y-99210000D01*
X133761000Y-93521761D02*
X132989239Y-92750000D01*
X134179239Y-99210000D02*
X135320000Y-98069239D01*
X134939239Y-97150000D02*
X134477106Y-97150000D01*
X129330000Y-92860000D02*
X129330000Y-92425221D01*
X132052784Y-101999381D02*
X131623403Y-101570000D01*
%TO.N,Net-(U1-EN)*%
X134170000Y-86040000D02*
X133593000Y-86040000D01*
X133470000Y-85640000D02*
X133470000Y-85090000D01*
X133519000Y-85689000D02*
X133470000Y-85640000D01*
X133470000Y-85090000D02*
X133470000Y-84810000D01*
X133470000Y-84810000D02*
X134100000Y-84180000D01*
X133519000Y-85966000D02*
X133519000Y-85689000D01*
X133593000Y-86040000D02*
X133519000Y-85966000D01*
%TO.N,Net-(U1-FB)*%
X130740000Y-84180000D02*
X130740000Y-84487180D01*
X130740000Y-84487180D02*
X131040000Y-84787180D01*
X131040000Y-85310000D02*
X131270000Y-85540000D01*
X131040000Y-84787180D02*
X131040000Y-85310000D01*
%TO.N,Net-(U1-PG)*%
X132970000Y-84513000D02*
X132858000Y-84401000D01*
X131601000Y-84401000D02*
X131380000Y-84180000D01*
X132970000Y-85090000D02*
X132970000Y-84513000D01*
X132858000Y-84401000D02*
X131601000Y-84401000D01*
%TO.N,Net-(U6-FB)*%
X107369000Y-65861893D02*
X107369000Y-66838999D01*
X107670001Y-67140000D02*
X107870000Y-67140000D01*
X105220000Y-66645000D02*
X105220000Y-65982501D01*
X108520000Y-68019999D02*
X107870000Y-67369999D01*
X105882501Y-65320000D02*
X106827106Y-65320000D01*
X105220000Y-65982501D02*
X105882501Y-65320000D01*
X108520000Y-68539239D02*
X108520000Y-68019999D01*
X107870000Y-67369999D02*
X107870000Y-67140000D01*
X106827106Y-65320000D02*
X107369000Y-65861893D01*
X107030000Y-68935000D02*
X108124239Y-68935000D01*
X107369000Y-66838999D02*
X107670001Y-67140000D01*
X108124239Y-68935000D02*
X108520000Y-68539239D01*
%TO.N,/BOOT*%
X118280000Y-97320000D02*
X118640000Y-96960000D01*
X118640000Y-96960000D02*
X118640000Y-94860000D01*
X118640000Y-95825002D02*
X117145002Y-97320000D01*
X114861934Y-84696808D02*
X114936048Y-84696808D01*
X118640000Y-94860000D02*
X118640000Y-95825002D01*
X111909732Y-81744606D02*
X114861934Y-84696808D01*
%TO.N,/BMP_INT*%
X112211370Y-76639370D02*
X112211370Y-77662131D01*
X111720000Y-78859239D02*
X111720000Y-79299239D01*
X112270000Y-77720761D02*
X112270000Y-78309239D01*
X111270000Y-76100000D02*
X111672000Y-76100000D01*
X112270000Y-78309239D02*
X111720000Y-78859239D01*
X112211370Y-77662131D02*
X112270000Y-77720761D01*
X111672000Y-76100000D02*
X112211370Y-76639370D01*
X111720000Y-79299239D02*
X112083604Y-79662843D01*
X112656397Y-79662843D02*
X113323946Y-80330392D01*
X112083604Y-79662843D02*
X112656397Y-79662843D01*
%TO.N,/BQ_CE*%
X119413000Y-102640000D02*
X111990000Y-95217000D01*
X115739000Y-92029000D02*
X116603900Y-92029000D01*
X116930000Y-91702900D02*
X116930000Y-91270761D01*
X113960000Y-92702784D02*
X113960000Y-92202182D01*
X111990000Y-95217000D02*
X111990000Y-94672784D01*
X121841239Y-103372000D02*
X121109239Y-102640000D01*
X114737818Y-91880000D02*
X114967776Y-92109958D01*
X129320000Y-102320000D02*
X129320000Y-102979100D01*
X116780000Y-91120761D02*
X116780000Y-87688479D01*
X116930000Y-91270761D02*
X116780000Y-91120761D01*
X114967776Y-92109958D02*
X115658042Y-92109958D01*
X115658042Y-92109958D02*
X115739000Y-92029000D01*
X114282182Y-91880000D02*
X114737818Y-91880000D01*
X114155380Y-85063859D02*
X114155380Y-84697360D01*
X113960000Y-92202182D02*
X114282182Y-91880000D01*
X116780000Y-87688479D02*
X114155380Y-85063859D01*
X111990000Y-94672784D02*
X113960000Y-92702784D01*
X116603900Y-92029000D02*
X116930000Y-91702900D01*
X128927100Y-103372000D02*
X121841239Y-103372000D01*
X129320000Y-102979100D02*
X128927100Y-103372000D01*
X121109239Y-102640000D02*
X119413000Y-102640000D01*
X114155380Y-84697360D02*
X111556179Y-82098159D01*
%TO.N,/ICM_SDI*%
X124275695Y-89635085D02*
X126684915Y-89635085D01*
X126684915Y-89635085D02*
X126890000Y-89430000D01*
X126677397Y-91682603D02*
X126510000Y-91850000D01*
X127092602Y-91682603D02*
X126677397Y-91682603D01*
X122584304Y-89635085D02*
X122829390Y-89390000D01*
X121214425Y-89635085D02*
X122584304Y-89635085D01*
X122829390Y-89390000D02*
X124030609Y-89390000D01*
X120642501Y-89063161D02*
X121214425Y-89635085D01*
X124030609Y-89390000D02*
X124275695Y-89635085D01*
%TO.N,/ICM_INT2*%
X120367025Y-87373471D02*
X121349608Y-88356054D01*
X125250000Y-94192000D02*
X125309000Y-94251000D01*
X126606870Y-94251000D02*
X127669000Y-93188870D01*
X118539340Y-82080000D02*
X118539340Y-85545786D01*
X126842775Y-88303536D02*
X124810550Y-88303536D01*
X120642501Y-79976839D02*
X118539340Y-82080000D01*
X127669000Y-92591130D02*
X128451000Y-91809130D01*
X122299380Y-88927978D02*
X121921532Y-88927978D01*
X118539340Y-85545786D02*
X119774131Y-86780577D01*
X128451000Y-91217265D02*
X127901130Y-90667395D01*
X123771878Y-88982358D02*
X123267642Y-88478122D01*
X123267642Y-88478122D02*
X122749236Y-88478122D01*
X119774131Y-86992710D02*
X120154892Y-87373471D01*
X127901130Y-90667395D02*
X127901130Y-89361891D01*
X125250000Y-93610000D02*
X125250000Y-94192000D01*
X125309000Y-94251000D02*
X126606870Y-94251000D01*
X127901130Y-89361891D02*
X126842775Y-88303536D01*
X122749236Y-88478122D02*
X122299380Y-88927978D01*
X127669000Y-93188870D02*
X127669000Y-92591130D01*
X119774131Y-86780577D02*
X119774131Y-86992710D01*
X128451000Y-91809130D02*
X128451000Y-91217265D01*
X124810550Y-88303536D02*
X124131728Y-88982358D01*
X121921532Y-88927978D02*
X121349608Y-88356054D01*
X124131728Y-88982358D02*
X123771878Y-88982358D01*
X120154892Y-87373471D02*
X120367025Y-87373471D01*
%TO.N,/ICM_SD0*%
X120288948Y-89416714D02*
X121157319Y-90285085D01*
X121157319Y-90285085D02*
X121429889Y-90285085D01*
X126250000Y-91090000D02*
X126271652Y-91090000D01*
X126271652Y-91090000D02*
X126398634Y-90963018D01*
%TO.N,/ICM_CS*%
X124110010Y-90035085D02*
X123864924Y-89790000D01*
X127735445Y-91959000D02*
X127735445Y-91406767D01*
X122599128Y-90035085D02*
X121654213Y-90980000D01*
X121654213Y-90980000D02*
X121185556Y-90980000D01*
X120904555Y-90699000D02*
X120157020Y-90699000D01*
X123864924Y-89790000D02*
X122995075Y-89790000D01*
X120157020Y-90699000D02*
X119581841Y-90123821D01*
X127269000Y-92425444D02*
X127735445Y-91959000D01*
X122749990Y-90035085D02*
X122599128Y-90035085D01*
X121185556Y-90980000D02*
X120904555Y-90699000D01*
X126363763Y-90035085D02*
X124110010Y-90035085D01*
X122995075Y-89790000D02*
X122749990Y-90035085D01*
X127735445Y-91406767D02*
X126363763Y-90035085D01*
X127050000Y-92850000D02*
X127269000Y-92631000D01*
X127269000Y-92631000D02*
X127269000Y-92425444D01*
X126510000Y-92850000D02*
X127050000Y-92850000D01*
%TO.N,/ICM_INT1*%
X123160761Y-90190000D02*
X122780000Y-90570761D01*
X122780000Y-90570761D02*
X122780000Y-90773452D01*
X124750000Y-91090000D02*
X124095085Y-90435085D01*
X122780000Y-90773452D02*
X122029944Y-91523508D01*
X120424131Y-80902315D02*
X120424131Y-86723471D01*
X124095085Y-90435085D02*
X123944324Y-90435085D01*
X120996054Y-80330392D02*
X120424131Y-80902315D01*
X123699239Y-90190000D02*
X123160761Y-90190000D01*
X123944324Y-90435085D02*
X123699239Y-90190000D01*
X120424131Y-86723471D02*
X121703161Y-88002501D01*
%TO.N,/ICM_SCK*%
X119363470Y-89198344D02*
X118705316Y-89198344D01*
X119935394Y-89770268D02*
X119363470Y-89198344D01*
X125660000Y-92350000D02*
X126510000Y-92350000D01*
X118705316Y-89198344D02*
X118405448Y-89498212D01*
%TO.N,/USB_DP*%
X115500000Y-70842000D02*
X115451000Y-70891000D01*
X120751000Y-77677722D02*
X119547192Y-78881530D01*
X120820000Y-75650761D02*
X120820000Y-76189239D01*
X119900761Y-75270000D02*
X120439239Y-75270000D01*
X116804662Y-76139000D02*
X119031761Y-76139000D01*
X120439239Y-75270000D02*
X120820000Y-75650761D01*
X120820000Y-76189239D02*
X120751000Y-76258239D01*
X115451000Y-70891000D02*
X114549000Y-70891000D01*
X114549000Y-70891000D02*
X114500000Y-70842000D01*
X115500000Y-70040000D02*
X115500000Y-70842000D01*
X119031761Y-76139000D02*
X119900761Y-75270000D01*
X115500000Y-70865001D02*
X115525000Y-70890001D01*
X115525000Y-74859338D02*
X116804662Y-76139000D01*
X114500000Y-70842000D02*
X114500000Y-70040000D01*
X115525000Y-70890001D02*
X115525000Y-74859338D01*
X120751000Y-76258239D02*
X120751000Y-77677722D01*
X115500000Y-70040000D02*
X115500000Y-70865001D01*
X119547192Y-78881530D02*
X119581841Y-78916179D01*
%TO.N,/USB_DN*%
X120604925Y-74870000D02*
X121220000Y-75485076D01*
X115000000Y-69238000D02*
X115049000Y-69189000D01*
X119735076Y-74870000D02*
X120604925Y-74870000D01*
X121220000Y-76354925D02*
X121200980Y-76373944D01*
X115979000Y-69189000D02*
X116000000Y-69210000D01*
X116991078Y-75689020D02*
X118916056Y-75689020D01*
X116000000Y-69210000D02*
X116000000Y-70040000D01*
X121200980Y-76373944D02*
X121200980Y-77934850D01*
X119935394Y-79200436D02*
X119935394Y-79269732D01*
X121200980Y-77934850D02*
X119935394Y-79200436D01*
X115049000Y-69189000D02*
X115979000Y-69189000D01*
X115000000Y-70040000D02*
X115000000Y-69238000D01*
X115975000Y-74672942D02*
X116991078Y-75689020D01*
X116000000Y-70865001D02*
X115975000Y-70890001D01*
X116000000Y-70040000D02*
X116000000Y-70865001D01*
X118916056Y-75689020D02*
X119735076Y-74870000D01*
X115975000Y-70890001D02*
X115975000Y-74672942D01*
X121220000Y-75485076D02*
X121220000Y-76354925D01*
%TO.N,Net-(LED1-DO)*%
X103699998Y-88465683D02*
X103699998Y-88360000D01*
X104069761Y-89409000D02*
X104000000Y-89339239D01*
X106490000Y-88090000D02*
X106390000Y-88090000D01*
X106390000Y-88090000D02*
X105071000Y-89409000D01*
X104000000Y-89339239D02*
X104000000Y-88765685D01*
X105071000Y-89409000D02*
X104069761Y-89409000D01*
X104000000Y-88765685D02*
X103699998Y-88465683D01*
%TO.N,/VBUS*%
X113049000Y-69841000D02*
X113049000Y-69189000D01*
X113049000Y-69189000D02*
X113450000Y-68788000D01*
X117050000Y-68788000D02*
X117451000Y-69189000D01*
X113450000Y-68788000D02*
X117050000Y-68788000D01*
X117451000Y-69841000D02*
X117650000Y-70040000D01*
X112850000Y-70040000D02*
X113049000Y-69841000D01*
X117451000Y-69189000D02*
X117451000Y-69841000D01*
%TO.N,Net-(LED1-DI)*%
X107920000Y-88980000D02*
X108460000Y-88440000D01*
X103600000Y-89504925D02*
X103904076Y-89809000D01*
X103904076Y-89809000D02*
X105255924Y-89809000D01*
X106390000Y-81750000D02*
X105710000Y-82430000D01*
X106084924Y-88980000D02*
X107920000Y-88980000D01*
X103600000Y-89179241D02*
X103600000Y-89504925D01*
X103980000Y-82430000D02*
X103890000Y-82340000D01*
X106390000Y-81750000D02*
X106290000Y-81750000D01*
X103840000Y-82390000D02*
X103840000Y-87300759D01*
X105710000Y-82430000D02*
X103980000Y-82430000D01*
X103890000Y-82340000D02*
X103840000Y-82390000D01*
X103049998Y-88090761D02*
X103049998Y-88629239D01*
X108460000Y-88440000D02*
X108460000Y-87290000D01*
X103049998Y-88629239D02*
X103600000Y-89179241D01*
X105255924Y-89809000D02*
X106084924Y-88980000D01*
X103840000Y-87300759D02*
X103049998Y-88090761D01*
%TO.N,/LED_DIN*%
X116252478Y-91429001D02*
X116043339Y-91429001D01*
X116043339Y-91429001D02*
X115798819Y-91184481D01*
X109100000Y-88130000D02*
X109320000Y-88350000D01*
X109100000Y-87290000D02*
X109100000Y-88130000D01*
%TD*%
%TA.AperFunction,Conductor*%
%TO.N,GND*%
G36*
X104439458Y-91049470D02*
G01*
X104439654Y-91049433D01*
X104471846Y-91062432D01*
X104504140Y-91075358D01*
X104504266Y-91075524D01*
X104504440Y-91075595D01*
X104528719Y-91101212D01*
X104580110Y-91173840D01*
X104590691Y-91204709D01*
X104602458Y-91235146D01*
X104601958Y-91237581D01*
X104602765Y-91239935D01*
X104591501Y-91288564D01*
X104589289Y-91299353D01*
X104589303Y-91299359D01*
X104589269Y-91299448D01*
X104588420Y-91303591D01*
X104587897Y-91304125D01*
X104587721Y-91304889D01*
X104586204Y-91307666D01*
X104535908Y-91442517D01*
X104529501Y-91502116D01*
X104529500Y-91502135D01*
X104529500Y-93397870D01*
X104529501Y-93397876D01*
X104535908Y-93457483D01*
X104586202Y-93592328D01*
X104586206Y-93592335D01*
X104672452Y-93707544D01*
X104672455Y-93707547D01*
X104787664Y-93793793D01*
X104787671Y-93793797D01*
X104922517Y-93844091D01*
X104922516Y-93844091D01*
X104929444Y-93844835D01*
X104982127Y-93850500D01*
X106077872Y-93850499D01*
X106137483Y-93844091D01*
X106272331Y-93793796D01*
X106387546Y-93707546D01*
X106473796Y-93592331D01*
X106524091Y-93457483D01*
X106530500Y-93397873D01*
X106530500Y-93397870D01*
X106530855Y-93394572D01*
X106532210Y-93394717D01*
X106553616Y-93333980D01*
X106608780Y-93291100D01*
X106678370Y-93284851D01*
X106740291Y-93317217D01*
X106770398Y-93363143D01*
X106796202Y-93432328D01*
X106796206Y-93432335D01*
X106882451Y-93547543D01*
X106882452Y-93547544D01*
X106882454Y-93547546D01*
X106953203Y-93600509D01*
X106995073Y-93656441D01*
X107000057Y-93726133D01*
X106977268Y-93775258D01*
X106973389Y-93780315D01*
X106960463Y-93797160D01*
X106899956Y-93943237D01*
X106899955Y-93943239D01*
X106884500Y-94060638D01*
X106884500Y-94339363D01*
X106899953Y-94456753D01*
X106899956Y-94456762D01*
X106957081Y-94594675D01*
X106960464Y-94602841D01*
X107056718Y-94728282D01*
X107182159Y-94824536D01*
X107328238Y-94885044D01*
X107445639Y-94900500D01*
X107784360Y-94900499D01*
X107784361Y-94900499D01*
X107818832Y-94895961D01*
X107901762Y-94885044D01*
X107901771Y-94885040D01*
X107903879Y-94884476D01*
X107906076Y-94884476D01*
X107909821Y-94883983D01*
X107909886Y-94884476D01*
X107960183Y-94884476D01*
X107960312Y-94883495D01*
X107967763Y-94884476D01*
X107968072Y-94884476D01*
X107968370Y-94884555D01*
X108055000Y-94895961D01*
X108055000Y-94880192D01*
X108063547Y-94851083D01*
X108069827Y-94821393D01*
X108073549Y-94817019D01*
X108074685Y-94813153D01*
X108090815Y-94793017D01*
X108096775Y-94786987D01*
X108173282Y-94728282D01*
X108237358Y-94644775D01*
X108242815Y-94639256D01*
X108266859Y-94625947D01*
X108289052Y-94609742D01*
X108296989Y-94609269D01*
X108303945Y-94605419D01*
X108331363Y-94607221D01*
X108358798Y-94605587D01*
X108365731Y-94609480D01*
X108373664Y-94610002D01*
X108395755Y-94626342D01*
X108419718Y-94639799D01*
X108423445Y-94646822D01*
X108429837Y-94651550D01*
X108439588Y-94677240D01*
X108452471Y-94701516D01*
X108453810Y-94714710D01*
X108454631Y-94716873D01*
X108454224Y-94718793D01*
X108455000Y-94726431D01*
X108455000Y-94895959D01*
X108455001Y-94895960D01*
X108549690Y-94883496D01*
X108549995Y-94885816D01*
X108607838Y-94887185D01*
X108665707Y-94926339D01*
X108693220Y-94990563D01*
X108681643Y-95059467D01*
X108657780Y-95092983D01*
X107084522Y-96666241D01*
X107023199Y-96699726D01*
X106958523Y-96696491D01*
X106916245Y-96682754D01*
X106776272Y-96660584D01*
X106706287Y-96649500D01*
X106493713Y-96649500D01*
X106445042Y-96657208D01*
X106283760Y-96682753D01*
X106081585Y-96748444D01*
X105892179Y-96844951D01*
X105720213Y-96969890D01*
X105569890Y-97120213D01*
X105444949Y-97292182D01*
X105440202Y-97301499D01*
X105392227Y-97352293D01*
X105324405Y-97369087D01*
X105258271Y-97346548D01*
X105219234Y-97301495D01*
X105214626Y-97292452D01*
X105175270Y-97238282D01*
X105175269Y-97238282D01*
X104542962Y-97870590D01*
X104525925Y-97807007D01*
X104460099Y-97692993D01*
X104367007Y-97599901D01*
X104252993Y-97534075D01*
X104189409Y-97517037D01*
X104821716Y-96884728D01*
X104767550Y-96845375D01*
X104578217Y-96748904D01*
X104376129Y-96683242D01*
X104166246Y-96650000D01*
X103953754Y-96650000D01*
X103743872Y-96683242D01*
X103743869Y-96683242D01*
X103541782Y-96748904D01*
X103352439Y-96845380D01*
X103298282Y-96884727D01*
X103298282Y-96884728D01*
X103930591Y-97517037D01*
X103867007Y-97534075D01*
X103752993Y-97599901D01*
X103659901Y-97692993D01*
X103594075Y-97807007D01*
X103577037Y-97870591D01*
X102944728Y-97238282D01*
X102944727Y-97238282D01*
X102905380Y-97292439D01*
X102808904Y-97481782D01*
X102743242Y-97683869D01*
X102743242Y-97683872D01*
X102710000Y-97893753D01*
X102710000Y-98106246D01*
X102743242Y-98316127D01*
X102743242Y-98316130D01*
X102808904Y-98518217D01*
X102905375Y-98707550D01*
X102944728Y-98761716D01*
X103577037Y-98129408D01*
X103594075Y-98192993D01*
X103659901Y-98307007D01*
X103752993Y-98400099D01*
X103867007Y-98465925D01*
X103930590Y-98482962D01*
X103298282Y-99115269D01*
X103298282Y-99115270D01*
X103352449Y-99154624D01*
X103541782Y-99251095D01*
X103743870Y-99316757D01*
X103953754Y-99350000D01*
X104166246Y-99350000D01*
X104376127Y-99316757D01*
X104376130Y-99316757D01*
X104578217Y-99251095D01*
X104767554Y-99154622D01*
X104821716Y-99115270D01*
X104821717Y-99115270D01*
X104189408Y-98482962D01*
X104252993Y-98465925D01*
X104367007Y-98400099D01*
X104460099Y-98307007D01*
X104525925Y-98192993D01*
X104542962Y-98129408D01*
X105175270Y-98761717D01*
X105175270Y-98761716D01*
X105214622Y-98707555D01*
X105219232Y-98698507D01*
X105267205Y-98647709D01*
X105335025Y-98630912D01*
X105401161Y-98653447D01*
X105440204Y-98698504D01*
X105444949Y-98707817D01*
X105569890Y-98879786D01*
X105720213Y-99030109D01*
X105892179Y-99155048D01*
X105892181Y-99155049D01*
X105892184Y-99155051D01*
X106081588Y-99251557D01*
X106283757Y-99317246D01*
X106493713Y-99350500D01*
X106493714Y-99350500D01*
X106706286Y-99350500D01*
X106706287Y-99350500D01*
X106916243Y-99317246D01*
X107118412Y-99251557D01*
X107307816Y-99155051D01*
X107394147Y-99092328D01*
X107479784Y-99030110D01*
X107479784Y-99030109D01*
X107479792Y-99030104D01*
X107593329Y-98916566D01*
X107654648Y-98883084D01*
X107724340Y-98888068D01*
X107780274Y-98929939D01*
X107797189Y-98960917D01*
X107846202Y-99092328D01*
X107846206Y-99092335D01*
X107932452Y-99207544D01*
X107932455Y-99207547D01*
X108047664Y-99293793D01*
X108047671Y-99293797D01*
X108092618Y-99310561D01*
X108182517Y-99344091D01*
X108242127Y-99350500D01*
X108425500Y-99350499D01*
X108492539Y-99370183D01*
X108538294Y-99422987D01*
X108549500Y-99474499D01*
X108549500Y-100405500D01*
X108529815Y-100472539D01*
X108477011Y-100518294D01*
X108425501Y-100529500D01*
X108252130Y-100529500D01*
X108252123Y-100529501D01*
X108192516Y-100535908D01*
X108057671Y-100586202D01*
X108057664Y-100586206D01*
X107942455Y-100672452D01*
X107942452Y-100672455D01*
X107856206Y-100787664D01*
X107856203Y-100787669D01*
X107807189Y-100919083D01*
X107765317Y-100975016D01*
X107699853Y-100999433D01*
X107631580Y-100984581D01*
X107603326Y-100963430D01*
X107489786Y-100849890D01*
X107317820Y-100724951D01*
X107128414Y-100628444D01*
X107128413Y-100628443D01*
X107128412Y-100628443D01*
X106926243Y-100562754D01*
X106926241Y-100562753D01*
X106926240Y-100562753D01*
X106764957Y-100537208D01*
X106716287Y-100529500D01*
X106503713Y-100529500D01*
X106455042Y-100537208D01*
X106293760Y-100562753D01*
X106091585Y-100628444D01*
X105902179Y-100724951D01*
X105730213Y-100849890D01*
X105579890Y-101000213D01*
X105454949Y-101172182D01*
X105450202Y-101181499D01*
X105402227Y-101232293D01*
X105334405Y-101249087D01*
X105268271Y-101226548D01*
X105229234Y-101181495D01*
X105224626Y-101172452D01*
X105185270Y-101118282D01*
X105185269Y-101118282D01*
X104552962Y-101750590D01*
X104535925Y-101687007D01*
X104470099Y-101572993D01*
X104377007Y-101479901D01*
X104262993Y-101414075D01*
X104199409Y-101397037D01*
X104831716Y-100764728D01*
X104777550Y-100725375D01*
X104588217Y-100628904D01*
X104386129Y-100563242D01*
X104176246Y-100530000D01*
X103963754Y-100530000D01*
X103753872Y-100563242D01*
X103753869Y-100563242D01*
X103551782Y-100628904D01*
X103362439Y-100725380D01*
X103308282Y-100764727D01*
X103308282Y-100764728D01*
X103940591Y-101397037D01*
X103877007Y-101414075D01*
X103762993Y-101479901D01*
X103669901Y-101572993D01*
X103604075Y-101687007D01*
X103587037Y-101750591D01*
X102954728Y-101118282D01*
X102954727Y-101118282D01*
X102915380Y-101172439D01*
X102818904Y-101361782D01*
X102753242Y-101563869D01*
X102753242Y-101563872D01*
X102720000Y-101773753D01*
X102720000Y-101986246D01*
X102753242Y-102196127D01*
X102753242Y-102196130D01*
X102818904Y-102398217D01*
X102915375Y-102587550D01*
X102954728Y-102641716D01*
X103587037Y-102009408D01*
X103604075Y-102072993D01*
X103669901Y-102187007D01*
X103762993Y-102280099D01*
X103877007Y-102345925D01*
X103940590Y-102362962D01*
X103308282Y-102995269D01*
X103308282Y-102995270D01*
X103362449Y-103034624D01*
X103551782Y-103131095D01*
X103753870Y-103196757D01*
X103963754Y-103230000D01*
X104176246Y-103230000D01*
X104386127Y-103196757D01*
X104386130Y-103196757D01*
X104588217Y-103131095D01*
X104777554Y-103034622D01*
X104831716Y-102995270D01*
X104831717Y-102995270D01*
X104199408Y-102362962D01*
X104262993Y-102345925D01*
X104377007Y-102280099D01*
X104470099Y-102187007D01*
X104535925Y-102072993D01*
X104552962Y-102009409D01*
X105185270Y-102641717D01*
X105185270Y-102641716D01*
X105224622Y-102587555D01*
X105229232Y-102578507D01*
X105277205Y-102527709D01*
X105345025Y-102510912D01*
X105411161Y-102533447D01*
X105450204Y-102578504D01*
X105454949Y-102587817D01*
X105579890Y-102759786D01*
X105730213Y-102910109D01*
X105902179Y-103035048D01*
X105902181Y-103035049D01*
X105902184Y-103035051D01*
X106091588Y-103131557D01*
X106293757Y-103197246D01*
X106503713Y-103230500D01*
X106503714Y-103230500D01*
X106716286Y-103230500D01*
X106716287Y-103230500D01*
X106926243Y-103197246D01*
X106968523Y-103183507D01*
X107038362Y-103181511D01*
X107094522Y-103213757D01*
X107276139Y-103395374D01*
X107276149Y-103395385D01*
X107280479Y-103399715D01*
X107280480Y-103399716D01*
X107392284Y-103511520D01*
X107477767Y-103560873D01*
X107529215Y-103590577D01*
X107681943Y-103631501D01*
X107681946Y-103631501D01*
X107847654Y-103631501D01*
X107847670Y-103631500D01*
X110380055Y-103631500D01*
X110380057Y-103631500D01*
X110532784Y-103590577D01*
X110669716Y-103511520D01*
X110781520Y-103399716D01*
X110860577Y-103262784D01*
X110901500Y-103110057D01*
X110901500Y-98664000D01*
X110921185Y-98596961D01*
X110973989Y-98551206D01*
X111025500Y-98540000D01*
X111420000Y-98540000D01*
X111920000Y-98540000D01*
X112332828Y-98540000D01*
X112332844Y-98539999D01*
X112392372Y-98533598D01*
X112392379Y-98533596D01*
X112527086Y-98483354D01*
X112527093Y-98483350D01*
X112642187Y-98397190D01*
X112642190Y-98397187D01*
X112728350Y-98282093D01*
X112728354Y-98282086D01*
X112778596Y-98147379D01*
X112778598Y-98147372D01*
X112784999Y-98087844D01*
X112785000Y-98087827D01*
X112785000Y-97610000D01*
X111920000Y-97610000D01*
X111920000Y-98540000D01*
X111420000Y-98540000D01*
X111420000Y-96180000D01*
X111025500Y-96180000D01*
X110958461Y-96160315D01*
X110912706Y-96107511D01*
X110901500Y-96056000D01*
X110901500Y-95637482D01*
X110921185Y-95570443D01*
X110937819Y-95549801D01*
X111062081Y-95425539D01*
X111195804Y-95291815D01*
X111197201Y-95291052D01*
X111198001Y-95289671D01*
X111227771Y-95274360D01*
X111257125Y-95258332D01*
X111258715Y-95258445D01*
X111260135Y-95257716D01*
X111293448Y-95260929D01*
X111326816Y-95263316D01*
X111328092Y-95264271D01*
X111329681Y-95264425D01*
X111355958Y-95285131D01*
X111382750Y-95305187D01*
X111383711Y-95307000D01*
X111384561Y-95307670D01*
X111388473Y-95315984D01*
X111400703Y-95339056D01*
X111402125Y-95343179D01*
X111430423Y-95448785D01*
X111444691Y-95473497D01*
X111485716Y-95544555D01*
X111509479Y-95585714D01*
X111509481Y-95585717D01*
X111628349Y-95704585D01*
X111628355Y-95704590D01*
X111924201Y-96000436D01*
X111957686Y-96061759D01*
X111952702Y-96131451D01*
X111924202Y-96175797D01*
X111920000Y-96179999D01*
X111920000Y-97110000D01*
X112785000Y-97110000D01*
X112821319Y-97073681D01*
X112824246Y-97076608D01*
X112857489Y-97047803D01*
X112926647Y-97037859D01*
X112990203Y-97066884D01*
X112996681Y-97072916D01*
X118928139Y-103004374D01*
X118928149Y-103004385D01*
X118932479Y-103008715D01*
X118932480Y-103008716D01*
X119044284Y-103120520D01*
X119044286Y-103120521D01*
X119044287Y-103120522D01*
X119111981Y-103159604D01*
X119111983Y-103159606D01*
X119111984Y-103159606D01*
X119177177Y-103197246D01*
X119181215Y-103199577D01*
X119333942Y-103240500D01*
X119333943Y-103240500D01*
X119975500Y-103240500D01*
X120042539Y-103260185D01*
X120088294Y-103312989D01*
X120099500Y-103364500D01*
X120099500Y-103368846D01*
X120130261Y-103523489D01*
X120130264Y-103523501D01*
X120190602Y-103669172D01*
X120190609Y-103669185D01*
X120278210Y-103800288D01*
X120278213Y-103800292D01*
X120389707Y-103911786D01*
X120389711Y-103911789D01*
X120520814Y-103999390D01*
X120520827Y-103999397D01*
X120666498Y-104059735D01*
X120666503Y-104059737D01*
X120731147Y-104072595D01*
X120821849Y-104090638D01*
X120838605Y-104099402D01*
X120857085Y-104103423D01*
X120882123Y-104122167D01*
X120883760Y-104123023D01*
X120885339Y-104124574D01*
X120897139Y-104136374D01*
X120897149Y-104136385D01*
X120901479Y-104140715D01*
X120901480Y-104140716D01*
X121013284Y-104252520D01*
X121073380Y-104287216D01*
X121150215Y-104331577D01*
X121302943Y-104372501D01*
X121302952Y-104372501D01*
X121303402Y-104372561D01*
X121303759Y-104372718D01*
X121310794Y-104374604D01*
X121310499Y-104375701D01*
X121367297Y-104400830D01*
X121405767Y-104459155D01*
X121406596Y-104529020D01*
X121369523Y-104588242D01*
X121306316Y-104618020D01*
X121287213Y-104619500D01*
X102044500Y-104619500D01*
X101977461Y-104599815D01*
X101931706Y-104547011D01*
X101920500Y-104495500D01*
X101920500Y-93743535D01*
X101940185Y-93676496D01*
X101992989Y-93630741D01*
X102062147Y-93620797D01*
X102125703Y-93649822D01*
X102143762Y-93669219D01*
X102172454Y-93707546D01*
X102172455Y-93707546D01*
X102172456Y-93707548D01*
X102287664Y-93793793D01*
X102287671Y-93793797D01*
X102422517Y-93844091D01*
X102422516Y-93844091D01*
X102429444Y-93844835D01*
X102482127Y-93850500D01*
X103577872Y-93850499D01*
X103637483Y-93844091D01*
X103772331Y-93793796D01*
X103887546Y-93707546D01*
X103973796Y-93592331D01*
X104024091Y-93457483D01*
X104030500Y-93397873D01*
X104030499Y-91502128D01*
X104025987Y-91460158D01*
X104038393Y-91391400D01*
X104086004Y-91340263D01*
X104092828Y-91336847D01*
X104097584Y-91334102D01*
X104222924Y-91237924D01*
X104319096Y-91112590D01*
X104320104Y-91110846D01*
X104320248Y-91110708D01*
X104320296Y-91110515D01*
X104321739Y-91109146D01*
X104324046Y-91106141D01*
X104324523Y-91106507D01*
X104345536Y-91086592D01*
X104370667Y-91062626D01*
X104370862Y-91062588D01*
X104371007Y-91062451D01*
X104405168Y-91055972D01*
X104439273Y-91049396D01*
X104439458Y-91049470D01*
G37*
%TD.AperFunction*%
%TA.AperFunction,Conductor*%
G36*
X118748389Y-93444517D02*
G01*
X118766173Y-93443246D01*
X118781819Y-93451789D01*
X118799240Y-93455579D01*
X118827491Y-93476726D01*
X118851284Y-93500519D01*
X118851286Y-93500520D01*
X118858355Y-93507589D01*
X119245140Y-93894374D01*
X119245150Y-93894385D01*
X119249480Y-93898715D01*
X119249481Y-93898716D01*
X119361285Y-94010520D01*
X119361287Y-94010521D01*
X119361291Y-94010524D01*
X119482334Y-94080407D01*
X119498217Y-94089577D01*
X119603737Y-94117851D01*
X119603736Y-94117851D01*
X119613712Y-94120523D01*
X119650943Y-94130500D01*
X119650944Y-94130500D01*
X119855500Y-94130500D01*
X119922539Y-94150185D01*
X119968294Y-94202989D01*
X119979500Y-94254500D01*
X119979500Y-94557947D01*
X119982390Y-94594673D01*
X119982391Y-94594679D01*
X120028066Y-94751892D01*
X120028068Y-94751895D01*
X120028069Y-94751897D01*
X120052387Y-94793017D01*
X120091418Y-94859016D01*
X120111410Y-94892820D01*
X120138181Y-94919591D01*
X120171666Y-94980912D01*
X120174500Y-95007272D01*
X120174500Y-99172478D01*
X120174499Y-99172496D01*
X120174499Y-99338202D01*
X120174498Y-99338202D01*
X120177793Y-99350499D01*
X120215423Y-99490933D01*
X120215424Y-99490935D01*
X120215423Y-99490935D01*
X120226676Y-99510424D01*
X120226677Y-99510426D01*
X120294475Y-99627857D01*
X120294481Y-99627865D01*
X120413349Y-99746733D01*
X120413355Y-99746738D01*
X123226436Y-102559819D01*
X123259921Y-102621142D01*
X123254937Y-102690834D01*
X123213065Y-102746767D01*
X123147601Y-102771184D01*
X123138755Y-102771500D01*
X122141336Y-102771500D01*
X122074297Y-102751815D01*
X122053655Y-102735181D01*
X121596829Y-102278355D01*
X121596827Y-102278352D01*
X121477956Y-102159481D01*
X121477955Y-102159480D01*
X121386254Y-102106537D01*
X121386253Y-102106536D01*
X121341022Y-102080422D01*
X121285120Y-102065443D01*
X121188296Y-102039499D01*
X121030182Y-102039499D01*
X121022586Y-102039499D01*
X121022570Y-102039500D01*
X119713097Y-102039500D01*
X119646058Y-102019815D01*
X119625416Y-102003181D01*
X116374415Y-98752180D01*
X116340930Y-98690857D01*
X116345914Y-98621165D01*
X116387786Y-98565232D01*
X116453250Y-98540815D01*
X116462096Y-98540499D01*
X116692871Y-98540499D01*
X116692872Y-98540499D01*
X116752483Y-98534091D01*
X116887331Y-98483796D01*
X117002546Y-98397546D01*
X117033287Y-98356481D01*
X117070706Y-98306497D01*
X117126639Y-98264626D01*
X117196331Y-98259642D01*
X117257654Y-98293128D01*
X117269238Y-98306497D01*
X117307452Y-98357544D01*
X117307455Y-98357547D01*
X117422664Y-98443793D01*
X117422671Y-98443797D01*
X117557517Y-98494091D01*
X117557516Y-98494091D01*
X117564444Y-98494835D01*
X117617127Y-98500500D01*
X118942872Y-98500499D01*
X119002483Y-98494091D01*
X119137331Y-98443796D01*
X119252546Y-98357546D01*
X119338796Y-98242331D01*
X119389091Y-98107483D01*
X119395500Y-98047873D01*
X119395499Y-96592128D01*
X119389091Y-96532517D01*
X119381793Y-96512951D01*
X119338797Y-96397671D01*
X119338796Y-96397669D01*
X119282490Y-96322454D01*
X119265232Y-96299401D01*
X119240816Y-96233938D01*
X119240500Y-96225091D01*
X119240500Y-95375354D01*
X119260185Y-95308315D01*
X119266113Y-95299881D01*
X119294536Y-95262841D01*
X119355044Y-95116762D01*
X119370500Y-94999361D01*
X119370499Y-94720640D01*
X119370499Y-94720639D01*
X119370499Y-94720636D01*
X119355046Y-94603246D01*
X119355044Y-94603241D01*
X119355044Y-94603238D01*
X119294536Y-94457159D01*
X119198282Y-94331718D01*
X119072841Y-94235464D01*
X119056523Y-94228705D01*
X118926762Y-94174956D01*
X118926760Y-94174955D01*
X118809361Y-94159500D01*
X118470637Y-94159500D01*
X118353236Y-94174955D01*
X118351111Y-94175525D01*
X118348910Y-94175525D01*
X118345181Y-94176016D01*
X118345116Y-94175525D01*
X118294815Y-94175525D01*
X118294687Y-94176505D01*
X118287251Y-94175525D01*
X118286937Y-94175526D01*
X118286633Y-94175444D01*
X118200000Y-94164038D01*
X118200000Y-94179807D01*
X118191452Y-94208915D01*
X118185173Y-94238606D01*
X118181450Y-94242979D01*
X118180315Y-94246846D01*
X118164185Y-94266982D01*
X118158219Y-94273016D01*
X118081718Y-94331718D01*
X118017645Y-94415219D01*
X118012185Y-94420743D01*
X117988143Y-94434050D01*
X117965948Y-94450257D01*
X117958010Y-94450729D01*
X117951055Y-94454580D01*
X117923636Y-94452777D01*
X117896202Y-94454412D01*
X117889269Y-94450518D01*
X117881336Y-94449997D01*
X117859242Y-94433655D01*
X117835281Y-94420199D01*
X117831554Y-94413176D01*
X117825163Y-94408449D01*
X117815411Y-94382757D01*
X117802529Y-94358482D01*
X117801189Y-94345288D01*
X117800369Y-94343126D01*
X117800775Y-94341205D01*
X117800000Y-94333568D01*
X117800000Y-94164038D01*
X117713369Y-94175444D01*
X117713365Y-94175445D01*
X117567412Y-94235900D01*
X117567411Y-94235900D01*
X117546547Y-94251910D01*
X117481377Y-94277103D01*
X117412933Y-94263064D01*
X117362944Y-94214249D01*
X117347282Y-94146157D01*
X117370919Y-94080407D01*
X117383375Y-94065858D01*
X117722416Y-93726818D01*
X117783739Y-93693333D01*
X117810097Y-93690499D01*
X118287871Y-93690499D01*
X118287872Y-93690499D01*
X118347483Y-93684091D01*
X118482331Y-93633796D01*
X118597546Y-93547546D01*
X118640549Y-93490100D01*
X118654819Y-93479418D01*
X118665503Y-93465146D01*
X118682207Y-93458915D01*
X118696481Y-93448230D01*
X118714263Y-93446958D01*
X118730967Y-93440728D01*
X118748389Y-93444517D01*
G37*
%TD.AperFunction*%
%TA.AperFunction,Conductor*%
G36*
X121580703Y-98246389D02*
G01*
X121598762Y-98265786D01*
X121667454Y-98357546D01*
X121679895Y-98366859D01*
X121782664Y-98443793D01*
X121782671Y-98443797D01*
X121917517Y-98494091D01*
X121917516Y-98494091D01*
X121924444Y-98494835D01*
X121977127Y-98500500D01*
X123302872Y-98500499D01*
X123362483Y-98494091D01*
X123497331Y-98443796D01*
X123601189Y-98366047D01*
X123666653Y-98341630D01*
X123734926Y-98356481D01*
X123784332Y-98405886D01*
X123799500Y-98465314D01*
X123799500Y-99263993D01*
X123779815Y-99331032D01*
X123763181Y-99351674D01*
X123650827Y-99464027D01*
X123650824Y-99464031D01*
X123563223Y-99595134D01*
X123563216Y-99595147D01*
X123502878Y-99740818D01*
X123502875Y-99740830D01*
X123472114Y-99895473D01*
X123472114Y-100053166D01*
X123502875Y-100207809D01*
X123502878Y-100207821D01*
X123563216Y-100353492D01*
X123563223Y-100353505D01*
X123650824Y-100484608D01*
X123650827Y-100484612D01*
X123762321Y-100596106D01*
X123762325Y-100596109D01*
X123893428Y-100683710D01*
X123893441Y-100683717D01*
X123994014Y-100725375D01*
X124039117Y-100744057D01*
X124193767Y-100774819D01*
X124193770Y-100774820D01*
X124193772Y-100774820D01*
X124351457Y-100774820D01*
X124369204Y-100771289D01*
X124437220Y-100757760D01*
X124506810Y-100763987D01*
X124561988Y-100806849D01*
X124585233Y-100872738D01*
X124580488Y-100913971D01*
X124552854Y-101009087D01*
X124551209Y-101029999D01*
X124551210Y-101030000D01*
X125078089Y-101030000D01*
X125110180Y-101034225D01*
X125113234Y-101035043D01*
X125113236Y-101035043D01*
X125113238Y-101035044D01*
X125230639Y-101050500D01*
X125385500Y-101050499D01*
X125452539Y-101070183D01*
X125498294Y-101122987D01*
X125509500Y-101174499D01*
X125509500Y-101514697D01*
X125512356Y-101550991D01*
X125512357Y-101550997D01*
X125557503Y-101706389D01*
X125557505Y-101706393D01*
X125557506Y-101706395D01*
X125562732Y-101715233D01*
X125580000Y-101778352D01*
X125580000Y-102084503D01*
X125726194Y-102042032D01*
X125746384Y-102030091D01*
X125814108Y-102012906D01*
X125872629Y-102030089D01*
X125893605Y-102042494D01*
X125928125Y-102052523D01*
X126049002Y-102087642D01*
X126049005Y-102087642D01*
X126049007Y-102087643D01*
X126085310Y-102090500D01*
X126092430Y-102090500D01*
X126101115Y-102093050D01*
X126110077Y-102091762D01*
X126134117Y-102102740D01*
X126159469Y-102110185D01*
X126165396Y-102117025D01*
X126173633Y-102120787D01*
X126187922Y-102143021D01*
X126205224Y-102162989D01*
X126207511Y-102173503D01*
X126211407Y-102179565D01*
X126216430Y-102214500D01*
X126216430Y-102246500D01*
X126196745Y-102313539D01*
X126143941Y-102359294D01*
X126092430Y-102370500D01*
X124786949Y-102370500D01*
X124719910Y-102350815D01*
X124699268Y-102334181D01*
X123895087Y-101530000D01*
X124551210Y-101530000D01*
X124552854Y-101550910D01*
X124597968Y-101706195D01*
X124680278Y-101845374D01*
X124680285Y-101845383D01*
X124794616Y-101959714D01*
X124794625Y-101959721D01*
X124933804Y-102042031D01*
X125080000Y-102084504D01*
X125080000Y-101530000D01*
X124551210Y-101530000D01*
X123895087Y-101530000D01*
X121411819Y-99046732D01*
X121378334Y-98985409D01*
X121375500Y-98959051D01*
X121375500Y-98340102D01*
X121395185Y-98273063D01*
X121447989Y-98227308D01*
X121517147Y-98217364D01*
X121580703Y-98246389D01*
G37*
%TD.AperFunction*%
%TA.AperFunction,Conductor*%
G36*
X127426896Y-97664930D02*
G01*
X127427715Y-97664629D01*
X127431598Y-97665492D01*
X127483215Y-97671664D01*
X127492003Y-97678920D01*
X127495920Y-97679791D01*
X127508801Y-97692789D01*
X127537093Y-97716149D01*
X127541126Y-97722516D01*
X127542728Y-97725225D01*
X127543408Y-97727712D01*
X127545101Y-97729420D01*
X127549387Y-97749563D01*
X127560000Y-97788352D01*
X127560000Y-98094504D01*
X127571410Y-98103071D01*
X127600772Y-98103155D01*
X127659442Y-98141096D01*
X127688287Y-98204734D01*
X127689500Y-98222033D01*
X127689500Y-98717870D01*
X127689501Y-98717879D01*
X127693463Y-98754734D01*
X127693754Y-98778172D01*
X127692345Y-98795258D01*
X127685909Y-98812517D01*
X127679500Y-98872127D01*
X127679500Y-98951102D01*
X127679081Y-98956186D01*
X127668276Y-98984220D01*
X127659815Y-99013039D01*
X127655845Y-99016478D01*
X127653956Y-99021382D01*
X127629705Y-99039128D01*
X127607011Y-99058794D01*
X127601067Y-99060087D01*
X127597572Y-99062645D01*
X127586116Y-99063339D01*
X127555500Y-99070000D01*
X127554000Y-99070000D01*
X127540694Y-99066093D01*
X127527830Y-99066873D01*
X127510731Y-99057294D01*
X127486961Y-99050315D01*
X127476292Y-99038002D01*
X127466873Y-99032726D01*
X127459162Y-99018234D01*
X127441206Y-98997511D01*
X127436411Y-98975472D01*
X127434055Y-98971043D01*
X127433516Y-98962165D01*
X127430000Y-98946000D01*
X127430000Y-98430000D01*
X127172155Y-98430000D01*
X127104913Y-98437231D01*
X127104766Y-98435868D01*
X127089829Y-98435067D01*
X127066852Y-98438371D01*
X127055594Y-98433230D01*
X127043239Y-98432567D01*
X127024412Y-98418989D01*
X127003296Y-98409346D01*
X126996605Y-98398935D01*
X126986569Y-98391697D01*
X126978071Y-98370096D01*
X126965522Y-98350568D01*
X126962717Y-98331063D01*
X126960992Y-98326677D01*
X126960499Y-98315633D01*
X126960499Y-98250333D01*
X126980184Y-98183294D01*
X127022494Y-98142949D01*
X127025703Y-98141096D01*
X127042734Y-98131262D01*
X127042738Y-98131262D01*
X127042738Y-98131261D01*
X127097716Y-98099520D01*
X127209520Y-97987716D01*
X127268234Y-97886019D01*
X127288577Y-97850785D01*
X127314628Y-97753557D01*
X127319788Y-97745092D01*
X127320016Y-97744491D01*
X127320735Y-97743538D01*
X127350993Y-97693898D01*
X127413840Y-97663369D01*
X127426896Y-97664930D01*
G37*
%TD.AperFunction*%
%TA.AperFunction,Conductor*%
G36*
X133453433Y-96981810D02*
G01*
X133479755Y-97001884D01*
X133992245Y-97514374D01*
X133992255Y-97514385D01*
X133996585Y-97518715D01*
X133996586Y-97518716D01*
X134108390Y-97630520D01*
X134185756Y-97675187D01*
X134245321Y-97709577D01*
X134398049Y-97750501D01*
X134398052Y-97750501D01*
X134490140Y-97750501D01*
X134557179Y-97770186D01*
X134602934Y-97822990D01*
X134612878Y-97892148D01*
X134583853Y-97955704D01*
X134577821Y-97962182D01*
X134286175Y-98253828D01*
X134224852Y-98287313D01*
X134211866Y-98289358D01*
X134056510Y-98320261D01*
X134056498Y-98320264D01*
X133910827Y-98380602D01*
X133910814Y-98380609D01*
X133779714Y-98468208D01*
X133727013Y-98520908D01*
X133712427Y-98528871D01*
X133700914Y-98540853D01*
X133682397Y-98545268D01*
X133665689Y-98554392D01*
X133648562Y-98553337D01*
X133632951Y-98557061D01*
X133604438Y-98550622D01*
X133598321Y-98550246D01*
X133595054Y-98549101D01*
X133536762Y-98524956D01*
X133519782Y-98522720D01*
X133507671Y-98518476D01*
X133489291Y-98505279D01*
X133468595Y-98496123D01*
X133461452Y-98485292D01*
X133450915Y-98477727D01*
X133442587Y-98456687D01*
X133430128Y-98437796D01*
X133429974Y-98424823D01*
X133425200Y-98412761D01*
X133429568Y-98390557D01*
X133429301Y-98367931D01*
X133429607Y-98366859D01*
X133437144Y-98340915D01*
X133437145Y-98340912D01*
X133438790Y-98320000D01*
X132850597Y-98320000D01*
X132821156Y-98311355D01*
X132791170Y-98304832D01*
X132786154Y-98301077D01*
X132783558Y-98300315D01*
X132762916Y-98283681D01*
X132701482Y-98222247D01*
X132667997Y-98160924D01*
X132672981Y-98091232D01*
X132714853Y-98035299D01*
X132741711Y-98020005D01*
X132862639Y-97969915D01*
X132862639Y-97969914D01*
X132862646Y-97969912D01*
X132993756Y-97882307D01*
X132993759Y-97882304D01*
X133019745Y-97856319D01*
X133081068Y-97822834D01*
X133107426Y-97820000D01*
X133438790Y-97820000D01*
X133437145Y-97799089D01*
X133392031Y-97643804D01*
X133309721Y-97504625D01*
X133309714Y-97504616D01*
X133307687Y-97502589D01*
X133306605Y-97500608D01*
X133304936Y-97498456D01*
X133305283Y-97498186D01*
X133274202Y-97441266D01*
X133273751Y-97390718D01*
X133283967Y-97339360D01*
X133283967Y-97181676D01*
X133283967Y-97181673D01*
X133270457Y-97113757D01*
X133276684Y-97044165D01*
X133319546Y-96988988D01*
X133385436Y-96965743D01*
X133453433Y-96981810D01*
G37*
%TD.AperFunction*%
%TA.AperFunction,Conductor*%
G36*
X117359516Y-94228705D02*
G01*
X117402707Y-94283626D01*
X117409348Y-94353179D01*
X117385965Y-94405198D01*
X117345901Y-94457410D01*
X117345900Y-94457412D01*
X117285444Y-94603368D01*
X117277987Y-94660000D01*
X117785500Y-94660000D01*
X117794185Y-94662550D01*
X117803146Y-94661262D01*
X117827184Y-94672240D01*
X117852539Y-94679685D01*
X117858466Y-94686526D01*
X117866702Y-94690287D01*
X117880990Y-94712520D01*
X117898294Y-94732489D01*
X117900581Y-94743002D01*
X117904477Y-94749064D01*
X117909500Y-94783999D01*
X117909501Y-94935999D01*
X117889817Y-95003039D01*
X117837013Y-95048794D01*
X117785501Y-95060000D01*
X117277990Y-95060000D01*
X117277988Y-95060001D01*
X117285442Y-95116627D01*
X117285444Y-95116633D01*
X117345899Y-95262585D01*
X117442075Y-95387924D01*
X117567413Y-95484100D01*
X117713365Y-95544554D01*
X117713370Y-95544555D01*
X117780284Y-95553365D01*
X117844180Y-95581631D01*
X117882652Y-95639955D01*
X117883484Y-95709820D01*
X117851780Y-95763985D01*
X117416586Y-96199179D01*
X117403217Y-96210764D01*
X117307453Y-96282453D01*
X117239293Y-96373503D01*
X117183359Y-96415373D01*
X117113667Y-96420357D01*
X117052344Y-96386871D01*
X117040761Y-96373503D01*
X117002546Y-96322454D01*
X116949112Y-96282453D01*
X116887329Y-96236202D01*
X116885068Y-96234967D01*
X116883246Y-96233145D01*
X116880231Y-96230888D01*
X116880555Y-96230454D01*
X116835665Y-96185559D01*
X116820500Y-96126138D01*
X116820500Y-95375354D01*
X116840185Y-95308315D01*
X116846113Y-95299881D01*
X116874536Y-95262841D01*
X116935044Y-95116762D01*
X116950500Y-94999361D01*
X116950499Y-94720640D01*
X116950499Y-94720639D01*
X116950499Y-94720636D01*
X116935046Y-94603246D01*
X116935044Y-94603241D01*
X116935044Y-94603238D01*
X116891596Y-94498347D01*
X116890414Y-94487347D01*
X116885079Y-94477653D01*
X116886745Y-94453223D01*
X116884128Y-94428878D01*
X116889081Y-94418983D01*
X116889834Y-94407945D01*
X116904442Y-94388295D01*
X116915403Y-94366399D01*
X116926008Y-94359287D01*
X116931520Y-94351874D01*
X116951863Y-94341950D01*
X116962441Y-94334857D01*
X116968156Y-94332703D01*
X117091785Y-94299577D01*
X117150042Y-94265942D01*
X117225590Y-94222324D01*
X117293489Y-94205852D01*
X117359516Y-94228705D01*
G37*
%TD.AperFunction*%
%TA.AperFunction,Conductor*%
G36*
X123034552Y-93548048D02*
G01*
X123050275Y-93552261D01*
X123070143Y-93557586D01*
X123070144Y-93557586D01*
X123081016Y-93560499D01*
X123122072Y-93571500D01*
X123122073Y-93571500D01*
X123268721Y-93571500D01*
X123335760Y-93591185D01*
X123356402Y-93607819D01*
X123550647Y-93802064D01*
X123584132Y-93863387D01*
X123579148Y-93933079D01*
X123538453Y-93988120D01*
X123442077Y-94062072D01*
X123345899Y-94187413D01*
X123285444Y-94333368D01*
X123277987Y-94390000D01*
X123658512Y-94390000D01*
X123686993Y-94398363D01*
X123716107Y-94404187D01*
X123720153Y-94408100D01*
X123725551Y-94409685D01*
X123744987Y-94432115D01*
X123766333Y-94452758D01*
X123767621Y-94458236D01*
X123771306Y-94462489D01*
X123775530Y-94491871D01*
X123782327Y-94520772D01*
X123780449Y-94526076D01*
X123781250Y-94531647D01*
X123768915Y-94558656D01*
X123759010Y-94586636D01*
X123754122Y-94591047D01*
X123752225Y-94595203D01*
X123734475Y-94612008D01*
X123727810Y-94617173D01*
X123630284Y-94673480D01*
X123544549Y-94759214D01*
X123538365Y-94764008D01*
X123512832Y-94774021D01*
X123488760Y-94787166D01*
X123475749Y-94788564D01*
X123473319Y-94789518D01*
X123471069Y-94789068D01*
X123462402Y-94790000D01*
X123277990Y-94790000D01*
X123277988Y-94790001D01*
X123285442Y-94846627D01*
X123285444Y-94846633D01*
X123345900Y-94992589D01*
X123372875Y-95027742D01*
X123398070Y-95092911D01*
X123398500Y-95103229D01*
X123398500Y-95865500D01*
X123378815Y-95932539D01*
X123326011Y-95978294D01*
X123274500Y-95989500D01*
X122560943Y-95989500D01*
X122450111Y-96019197D01*
X122380261Y-96017534D01*
X122322399Y-95978371D01*
X122294895Y-95914142D01*
X122306482Y-95845240D01*
X122330334Y-95811743D01*
X122391789Y-95750289D01*
X122479394Y-95619179D01*
X122492528Y-95587470D01*
X122539736Y-95473500D01*
X122539737Y-95473497D01*
X122570500Y-95318842D01*
X122570500Y-95161158D01*
X122570500Y-95161155D01*
X122570499Y-95161153D01*
X122556925Y-95092911D01*
X122539737Y-95006503D01*
X122533974Y-94992589D01*
X122481735Y-94866472D01*
X122474266Y-94797003D01*
X122489565Y-94755897D01*
X122491931Y-94751897D01*
X122528409Y-94626342D01*
X122537608Y-94594679D01*
X122537609Y-94594673D01*
X122537853Y-94591578D01*
X122540500Y-94557940D01*
X122540500Y-94082060D01*
X122537609Y-94045325D01*
X122537608Y-94045323D01*
X122536471Y-94039095D01*
X122538281Y-94038764D01*
X122538294Y-94034261D01*
X122533647Y-94021804D01*
X122538389Y-93999997D01*
X122538452Y-93977686D01*
X122546001Y-93965002D01*
X122548496Y-93953531D01*
X122569638Y-93925288D01*
X122569644Y-93925276D01*
X122596206Y-93898716D01*
X122596207Y-93898713D01*
X122914779Y-93580140D01*
X122976100Y-93546657D01*
X123034552Y-93548048D01*
G37*
%TD.AperFunction*%
%TA.AperFunction,Conductor*%
G36*
X114496458Y-94415041D02*
G01*
X114593605Y-94472494D01*
X114635790Y-94484750D01*
X114748252Y-94517424D01*
X114807138Y-94555030D01*
X114836344Y-94618503D01*
X114826598Y-94687689D01*
X114780994Y-94740624D01*
X114714011Y-94760499D01*
X114713657Y-94760500D01*
X114616061Y-94760500D01*
X114600573Y-94756350D01*
X114586827Y-94757005D01*
X114554061Y-94743887D01*
X114548409Y-94740624D01*
X114534243Y-94732445D01*
X114534242Y-94732444D01*
X114496105Y-94710425D01*
X114496098Y-94710422D01*
X114440884Y-94695627D01*
X114410977Y-94683239D01*
X114406098Y-94680422D01*
X114379949Y-94673415D01*
X114355259Y-94658365D01*
X114329182Y-94645889D01*
X114325794Y-94640404D01*
X114320289Y-94637049D01*
X114307655Y-94611041D01*
X114292463Y-94586446D01*
X114292578Y-94580000D01*
X114289761Y-94574201D01*
X114293193Y-94545496D01*
X114293710Y-94516588D01*
X114297631Y-94508391D01*
X114298058Y-94504826D01*
X114308936Y-94484761D01*
X114330238Y-94452880D01*
X114383848Y-94408078D01*
X114453173Y-94399371D01*
X114496458Y-94415041D01*
G37*
%TD.AperFunction*%
%TA.AperFunction,Conductor*%
G36*
X109099842Y-93561516D02*
G01*
X109114727Y-93571082D01*
X109197910Y-93633352D01*
X109197913Y-93633354D01*
X109332620Y-93683596D01*
X109332627Y-93683598D01*
X109392155Y-93689999D01*
X109392172Y-93690000D01*
X109761402Y-93690000D01*
X109828441Y-93709685D01*
X109874196Y-93762489D01*
X109884140Y-93831647D01*
X109855115Y-93895203D01*
X109849083Y-93901681D01*
X109177982Y-94572781D01*
X109116659Y-94606266D01*
X109046967Y-94601282D01*
X108991034Y-94559410D01*
X108966617Y-94493946D01*
X108969402Y-94464808D01*
X108968495Y-94464689D01*
X108977012Y-94400000D01*
X108469500Y-94400000D01*
X108460814Y-94397449D01*
X108451854Y-94398738D01*
X108427815Y-94387759D01*
X108402461Y-94380315D01*
X108396533Y-94373473D01*
X108388298Y-94369713D01*
X108374009Y-94347479D01*
X108356706Y-94327511D01*
X108354418Y-94316997D01*
X108350523Y-94310936D01*
X108345500Y-94276001D01*
X108345499Y-94124001D01*
X108365183Y-94056961D01*
X108417987Y-94011206D01*
X108469499Y-94000000D01*
X108977010Y-94000000D01*
X108977011Y-93999998D01*
X108969557Y-93943372D01*
X108969555Y-93943366D01*
X108909100Y-93797412D01*
X108909098Y-93797410D01*
X108895981Y-93780315D01*
X108892450Y-93771182D01*
X108885525Y-93764257D01*
X108880058Y-93739128D01*
X108870787Y-93715146D01*
X108872754Y-93705553D01*
X108870673Y-93695984D01*
X108879659Y-93671888D01*
X108884826Y-93646701D01*
X108892317Y-93637951D01*
X108895089Y-93630519D01*
X108920046Y-93605563D01*
X108966105Y-93571083D01*
X109031569Y-93546665D01*
X109099842Y-93561516D01*
G37*
%TD.AperFunction*%
%TA.AperFunction,Conductor*%
G36*
X102125703Y-78100180D02*
G01*
X102150039Y-78128797D01*
X102161406Y-78147227D01*
X102162288Y-78148656D01*
X102286344Y-78272712D01*
X102435666Y-78364814D01*
X102602203Y-78419999D01*
X102704991Y-78430500D01*
X103755008Y-78430499D01*
X103755016Y-78430498D01*
X103755019Y-78430498D01*
X103824562Y-78423394D01*
X103857797Y-78419999D01*
X104024334Y-78364814D01*
X104100465Y-78317855D01*
X104167857Y-78299415D01*
X104234521Y-78320337D01*
X104279290Y-78373979D01*
X104289562Y-78423394D01*
X104289562Y-79059078D01*
X104289561Y-79059096D01*
X104289561Y-79224802D01*
X104289560Y-79224802D01*
X104330485Y-79377533D01*
X104343464Y-79400013D01*
X104409539Y-79514460D01*
X104409543Y-79514465D01*
X104482897Y-79587819D01*
X104516382Y-79649142D01*
X104511398Y-79718834D01*
X104469526Y-79774767D01*
X104404062Y-79799184D01*
X104395216Y-79799500D01*
X104052130Y-79799500D01*
X104052123Y-79799501D01*
X103992516Y-79805908D01*
X103857671Y-79856202D01*
X103857664Y-79856206D01*
X103742455Y-79942452D01*
X103742452Y-79942455D01*
X103656206Y-80057664D01*
X103656202Y-80057671D01*
X103605908Y-80192517D01*
X103599501Y-80252116D01*
X103599500Y-80252135D01*
X103599500Y-81047870D01*
X103599501Y-81047876D01*
X103605909Y-81107484D01*
X103624519Y-81157382D01*
X103629503Y-81227074D01*
X103624520Y-81244046D01*
X103606402Y-81292623D01*
X103606401Y-81292627D01*
X103600000Y-81352155D01*
X103600000Y-81500000D01*
X103762893Y-81500000D01*
X103776795Y-81504082D01*
X103791261Y-81503289D01*
X103809646Y-81513728D01*
X103829932Y-81519685D01*
X103839419Y-81530633D01*
X103852019Y-81537788D01*
X103861843Y-81556512D01*
X103875687Y-81572489D01*
X103877748Y-81586827D01*
X103884481Y-81599659D01*
X103882622Y-81620721D01*
X103885631Y-81641647D01*
X103879612Y-81654825D01*
X103878339Y-81669258D01*
X103865389Y-81685969D01*
X103856606Y-81705203D01*
X103843626Y-81714055D01*
X103835543Y-81724488D01*
X103811724Y-81735815D01*
X103804290Y-81740886D01*
X103799699Y-81742511D01*
X103658215Y-81780423D01*
X103613430Y-81806280D01*
X103603569Y-81811973D01*
X103603561Y-81811976D01*
X103521284Y-81859479D01*
X103453846Y-81926916D01*
X103453842Y-81926922D01*
X103359478Y-82021286D01*
X103359475Y-82021290D01*
X103315433Y-82097575D01*
X103315433Y-82097576D01*
X103280423Y-82158214D01*
X103280423Y-82158215D01*
X103239499Y-82310943D01*
X103239499Y-82310945D01*
X103239499Y-82479046D01*
X103239500Y-82479059D01*
X103239500Y-87000661D01*
X103219815Y-87067700D01*
X103203181Y-87088342D01*
X102569479Y-87722043D01*
X102569475Y-87722048D01*
X102528515Y-87792995D01*
X102528515Y-87792996D01*
X102490421Y-87858975D01*
X102490421Y-87858976D01*
X102449497Y-88011704D01*
X102449497Y-88011706D01*
X102449497Y-88179807D01*
X102449498Y-88179820D01*
X102449498Y-88542569D01*
X102449497Y-88542587D01*
X102449497Y-88708293D01*
X102449496Y-88708293D01*
X102490422Y-88861028D01*
X102490423Y-88861029D01*
X102514748Y-88903160D01*
X102514749Y-88903162D01*
X102569473Y-88997948D01*
X102569479Y-88997956D01*
X102688347Y-89116824D01*
X102688353Y-89116829D01*
X102963180Y-89391656D01*
X102976418Y-89415899D01*
X102992525Y-89438339D01*
X102994268Y-89448591D01*
X102996665Y-89452979D01*
X102999335Y-89472970D01*
X102999499Y-89476165D01*
X102999500Y-89583983D01*
X103006359Y-89609581D01*
X103007032Y-89622664D01*
X103001839Y-89644424D01*
X103001307Y-89666790D01*
X102993887Y-89677751D01*
X102990816Y-89690625D01*
X102974684Y-89706123D01*
X102962144Y-89724651D01*
X102958693Y-89727399D01*
X102957286Y-89728478D01*
X102800394Y-89885371D01*
X102656285Y-90029480D01*
X102656284Y-90029481D01*
X102640991Y-90044774D01*
X102622965Y-90062799D01*
X102597295Y-90082497D01*
X102592165Y-90085459D01*
X102466718Y-90181718D01*
X102370463Y-90307160D01*
X102309956Y-90453237D01*
X102309955Y-90453239D01*
X102294500Y-90570638D01*
X102294500Y-90849363D01*
X102309953Y-90966753D01*
X102309956Y-90966761D01*
X102311908Y-90971474D01*
X102314383Y-90994505D01*
X102321323Y-91016599D01*
X102318046Y-91028586D01*
X102319374Y-91040943D01*
X102309006Y-91061652D01*
X102302899Y-91083995D01*
X102291669Y-91096285D01*
X102288097Y-91103422D01*
X102280290Y-91111097D01*
X102276119Y-91114850D01*
X102172454Y-91192454D01*
X102136483Y-91240504D01*
X102127445Y-91248638D01*
X102106462Y-91258699D01*
X102087832Y-91272646D01*
X102075548Y-91273524D01*
X102064445Y-91278849D01*
X102041354Y-91275969D01*
X102018140Y-91277630D01*
X102007331Y-91271727D01*
X101995112Y-91270204D01*
X101977242Y-91255297D01*
X101956818Y-91244144D01*
X101950916Y-91233335D01*
X101941460Y-91225447D01*
X101934486Y-91203247D01*
X101923333Y-91182820D01*
X101920868Y-91159890D01*
X101920522Y-91158788D01*
X101920685Y-91158189D01*
X101920500Y-91156464D01*
X101920500Y-78193893D01*
X101940185Y-78126854D01*
X101992989Y-78081099D01*
X102062147Y-78071155D01*
X102125703Y-78100180D01*
G37*
%TD.AperFunction*%
%TA.AperFunction,Conductor*%
G36*
X112492808Y-89715077D02*
G01*
X112527064Y-89717527D01*
X112527831Y-89717952D01*
X112528281Y-89717989D01*
X112559078Y-89735227D01*
X112591772Y-89760314D01*
X112591978Y-89760399D01*
X112598548Y-89765426D01*
X112620256Y-89790106D01*
X112621845Y-89788887D01*
X112695881Y-89885373D01*
X112695885Y-89885378D01*
X112855281Y-90044774D01*
X112855286Y-90044778D01*
X112855289Y-90044781D01*
X112908309Y-90085464D01*
X112951773Y-90118815D01*
X112949935Y-90121209D01*
X112973012Y-90144270D01*
X112975398Y-90142440D01*
X113049434Y-90238926D01*
X113049438Y-90238931D01*
X113193641Y-90383134D01*
X113198146Y-90391384D01*
X113205641Y-90397061D01*
X113214622Y-90421559D01*
X113227126Y-90444457D01*
X113226455Y-90453833D01*
X113229692Y-90462661D01*
X113224003Y-90488124D01*
X113222142Y-90514149D01*
X113216102Y-90523489D01*
X113214458Y-90530849D01*
X113201940Y-90545390D01*
X113193150Y-90558985D01*
X113185015Y-90567028D01*
X113181986Y-90568778D01*
X113070182Y-90680582D01*
X113070180Y-90680584D01*
X113069957Y-90680806D01*
X113069868Y-90680895D01*
X112696893Y-91053870D01*
X112635570Y-91087355D01*
X112565878Y-91082371D01*
X112509945Y-91040499D01*
X112486273Y-90982374D01*
X112474555Y-90893371D01*
X112474475Y-90893069D01*
X112474475Y-90892756D01*
X112473495Y-90885312D01*
X112474475Y-90885182D01*
X112474475Y-90834884D01*
X112473983Y-90834820D01*
X112474475Y-90831075D01*
X112474476Y-90828879D01*
X112475040Y-90826771D01*
X112475044Y-90826762D01*
X112490500Y-90709361D01*
X112490499Y-90370640D01*
X112490499Y-90370636D01*
X112475046Y-90253246D01*
X112475044Y-90253241D01*
X112475044Y-90253238D01*
X112421563Y-90124124D01*
X112414538Y-90107163D01*
X112414535Y-90107157D01*
X112391061Y-90076566D01*
X112369661Y-90033172D01*
X112368672Y-90029480D01*
X112349577Y-89958215D01*
X112336495Y-89935557D01*
X112320022Y-89867660D01*
X112342873Y-89801633D01*
X112356197Y-89785880D01*
X112391789Y-89750289D01*
X112391791Y-89750285D01*
X112396049Y-89746028D01*
X112396642Y-89745703D01*
X112396974Y-89745112D01*
X112427266Y-89728981D01*
X112457372Y-89712543D01*
X112458048Y-89712591D01*
X112458646Y-89712273D01*
X112492808Y-89715077D01*
G37*
%TD.AperFunction*%
%TA.AperFunction,Conductor*%
G36*
X112048240Y-83473957D02*
G01*
X112081953Y-83480872D01*
X112082496Y-83481273D01*
X112082840Y-83481347D01*
X112083554Y-83482055D01*
X112111508Y-83502723D01*
X113518560Y-84909775D01*
X113552045Y-84971098D01*
X113554879Y-84997456D01*
X113554879Y-85142913D01*
X113554878Y-85142913D01*
X113554879Y-85142916D01*
X113591793Y-85280680D01*
X113595804Y-85295646D01*
X113609054Y-85318595D01*
X113609055Y-85318597D01*
X113674857Y-85432571D01*
X113674861Y-85432576D01*
X113793729Y-85551444D01*
X113793735Y-85551449D01*
X116143181Y-87900895D01*
X116176666Y-87962218D01*
X116179500Y-87988576D01*
X116179500Y-88277971D01*
X116159815Y-88345010D01*
X116107011Y-88390765D01*
X116037853Y-88400709D01*
X116031309Y-88399588D01*
X115884695Y-88370425D01*
X115884691Y-88370425D01*
X115727007Y-88370425D01*
X115727004Y-88370425D01*
X115572359Y-88401186D01*
X115572347Y-88401189D01*
X115426676Y-88461527D01*
X115426663Y-88461534D01*
X115295560Y-88549135D01*
X115215777Y-88628918D01*
X115154453Y-88662402D01*
X115084762Y-88657418D01*
X115029720Y-88616722D01*
X115028015Y-88614500D01*
X115012672Y-88594504D01*
X115012669Y-88594501D01*
X115012665Y-88594496D01*
X114853269Y-88435100D01*
X114853264Y-88435096D01*
X114853262Y-88435094D01*
X114769079Y-88370499D01*
X114756778Y-88361060D01*
X114758608Y-88358674D01*
X114735547Y-88335597D01*
X114733153Y-88337435D01*
X114701306Y-88295931D01*
X114659119Y-88240951D01*
X114659116Y-88240948D01*
X114659112Y-88240943D01*
X114499716Y-88081547D01*
X114499711Y-88081543D01*
X114499709Y-88081541D01*
X114409673Y-88012455D01*
X114403225Y-88007507D01*
X114405055Y-88005121D01*
X114381994Y-87982044D01*
X114379600Y-87983882D01*
X114349397Y-87944520D01*
X114305566Y-87887398D01*
X114305563Y-87887395D01*
X114305559Y-87887390D01*
X114146163Y-87727994D01*
X114146158Y-87727990D01*
X114146156Y-87727988D01*
X114056120Y-87658902D01*
X114049672Y-87653954D01*
X114051537Y-87651523D01*
X114028483Y-87628458D01*
X114026046Y-87630329D01*
X114019939Y-87622370D01*
X113952012Y-87533844D01*
X113952009Y-87533841D01*
X113952005Y-87533836D01*
X113792609Y-87374440D01*
X113792604Y-87374436D01*
X113792602Y-87374434D01*
X113702566Y-87305348D01*
X113696118Y-87300400D01*
X113697948Y-87298014D01*
X113674887Y-87274937D01*
X113672493Y-87276775D01*
X113619689Y-87207959D01*
X113598459Y-87180291D01*
X113598456Y-87180288D01*
X113598452Y-87180283D01*
X113439056Y-87020887D01*
X113439051Y-87020883D01*
X113439049Y-87020881D01*
X113349013Y-86951795D01*
X113342565Y-86946847D01*
X113344395Y-86944461D01*
X113321334Y-86921384D01*
X113318940Y-86923222D01*
X113275002Y-86865961D01*
X113244906Y-86826738D01*
X113244903Y-86826735D01*
X113244899Y-86826730D01*
X113085503Y-86667334D01*
X113085498Y-86667330D01*
X113085496Y-86667328D01*
X112995460Y-86598242D01*
X112989012Y-86593294D01*
X112990877Y-86590863D01*
X112967823Y-86567798D01*
X112965386Y-86569669D01*
X112952398Y-86552742D01*
X112891352Y-86473184D01*
X112891349Y-86473181D01*
X112891345Y-86473176D01*
X112731949Y-86313780D01*
X112731944Y-86313776D01*
X112731942Y-86313774D01*
X112641906Y-86244688D01*
X112635458Y-86239740D01*
X112637288Y-86237354D01*
X112614227Y-86214277D01*
X112611833Y-86216115D01*
X112557969Y-86145918D01*
X112537799Y-86119631D01*
X112537796Y-86119628D01*
X112537792Y-86119623D01*
X112378396Y-85960227D01*
X112378391Y-85960223D01*
X112378389Y-85960221D01*
X112288353Y-85891135D01*
X112281905Y-85886187D01*
X112283770Y-85883756D01*
X112260716Y-85860691D01*
X112258279Y-85862562D01*
X112242741Y-85842312D01*
X112184245Y-85766077D01*
X112184242Y-85766074D01*
X112184238Y-85766069D01*
X112024842Y-85606673D01*
X112024837Y-85606669D01*
X112024835Y-85606667D01*
X111961793Y-85558294D01*
X111928351Y-85532633D01*
X111930181Y-85530247D01*
X111907120Y-85507170D01*
X111904726Y-85509008D01*
X111869536Y-85463147D01*
X111830692Y-85412524D01*
X111830689Y-85412521D01*
X111830685Y-85412516D01*
X111671289Y-85253120D01*
X111671284Y-85253116D01*
X111671282Y-85253114D01*
X111612738Y-85208192D01*
X111574798Y-85179080D01*
X111576628Y-85176694D01*
X111553567Y-85153617D01*
X111551173Y-85155455D01*
X111490200Y-85075993D01*
X111477139Y-85058971D01*
X111477136Y-85058968D01*
X111477132Y-85058963D01*
X111317736Y-84899567D01*
X111317731Y-84899563D01*
X111317729Y-84899561D01*
X111261614Y-84856503D01*
X111227694Y-84830475D01*
X111087696Y-84772486D01*
X111087694Y-84772485D01*
X110937462Y-84752708D01*
X110937460Y-84752708D01*
X110787226Y-84772485D01*
X110787224Y-84772486D01*
X110647228Y-84830474D01*
X110557194Y-84899559D01*
X110557188Y-84899565D01*
X110212392Y-85244362D01*
X110185464Y-85259065D01*
X110159646Y-85275658D01*
X110153445Y-85276549D01*
X110151069Y-85277847D01*
X110124711Y-85280681D01*
X109893999Y-85280681D01*
X109826960Y-85260996D01*
X109781205Y-85208192D01*
X109770240Y-85157789D01*
X109770094Y-85157795D01*
X109770061Y-85156968D01*
X109769999Y-85156681D01*
X109769999Y-85155375D01*
X109769998Y-85155350D01*
X109767145Y-85119090D01*
X109762585Y-85103395D01*
X109762783Y-85033526D01*
X109793980Y-84981115D01*
X109849719Y-84925376D01*
X109849722Y-84925372D01*
X109932031Y-84786195D01*
X109932033Y-84786190D01*
X109977144Y-84630918D01*
X109977145Y-84630912D01*
X109978790Y-84610000D01*
X109450000Y-84610000D01*
X109450000Y-85156680D01*
X109430315Y-85223719D01*
X109377511Y-85269474D01*
X109350796Y-85278176D01*
X109338527Y-85280680D01*
X109319762Y-85280680D01*
X109259801Y-85296746D01*
X109256130Y-85297496D01*
X109252611Y-85297198D01*
X109231334Y-85300000D01*
X109202896Y-85300000D01*
X109173831Y-85316783D01*
X109174541Y-85318495D01*
X109167031Y-85321605D01*
X109129305Y-85343387D01*
X109067305Y-85360000D01*
X108964500Y-85360000D01*
X108897461Y-85340315D01*
X108851706Y-85287511D01*
X108840500Y-85236000D01*
X108840500Y-85026666D01*
X108860185Y-84959627D01*
X108876816Y-84938987D01*
X108890117Y-84925687D01*
X108972494Y-84786395D01*
X109017643Y-84630993D01*
X109020500Y-84594690D01*
X109020500Y-84484000D01*
X109040185Y-84416961D01*
X109092989Y-84371206D01*
X109144500Y-84360000D01*
X109200000Y-84360000D01*
X109200000Y-84234000D01*
X109219685Y-84166961D01*
X109272489Y-84121206D01*
X109324000Y-84110000D01*
X109978790Y-84110000D01*
X109977145Y-84089089D01*
X109932031Y-83933804D01*
X109931495Y-83932565D01*
X109931364Y-83931509D01*
X109929855Y-83926313D01*
X109930693Y-83926069D01*
X109927357Y-83899046D01*
X109922559Y-83865672D01*
X109923093Y-83864500D01*
X109922936Y-83863222D01*
X109937567Y-83832807D01*
X109951584Y-83802116D01*
X109952667Y-83801419D01*
X109953226Y-83800259D01*
X109981972Y-83782586D01*
X110010362Y-83764342D01*
X110012043Y-83764100D01*
X110012748Y-83763667D01*
X110045297Y-83759319D01*
X110124711Y-83759319D01*
X110191750Y-83779004D01*
X110212392Y-83795638D01*
X110557193Y-84140439D01*
X110647228Y-84209525D01*
X110787225Y-84267514D01*
X110862343Y-84277403D01*
X110937460Y-84287292D01*
X110937461Y-84287292D01*
X110937462Y-84287292D01*
X110993034Y-84279976D01*
X111087696Y-84267514D01*
X111227693Y-84209525D01*
X111317729Y-84140439D01*
X111477139Y-83981029D01*
X111546225Y-83890993D01*
X111604214Y-83750996D01*
X111613966Y-83676914D01*
X111642231Y-83613019D01*
X111700555Y-83574547D01*
X111720717Y-83570161D01*
X111753214Y-83565883D01*
X111822249Y-83576650D01*
X111851735Y-83597384D01*
X111853224Y-83597286D01*
X111904023Y-83531086D01*
X111927711Y-83507589D01*
X111934275Y-83502635D01*
X111934799Y-83502419D01*
X111948743Y-83491719D01*
X111949140Y-83491420D01*
X111981370Y-83479258D01*
X112013508Y-83466834D01*
X112014020Y-83466939D01*
X112014511Y-83466754D01*
X112048240Y-83473957D01*
G37*
%TD.AperFunction*%
%TA.AperFunction,Conductor*%
G36*
X126065783Y-86707161D02*
G01*
X126115042Y-86754690D01*
X126118422Y-86760545D01*
X126118423Y-86760546D01*
X126142660Y-86802525D01*
X126142661Y-86802528D01*
X126142662Y-86802528D01*
X126193120Y-86889926D01*
X126197479Y-86897475D01*
X126197481Y-86897478D01*
X126243180Y-86943177D01*
X126276665Y-87004500D01*
X126279499Y-87030858D01*
X126279499Y-87076604D01*
X126279498Y-87076604D01*
X126279499Y-87076607D01*
X126320423Y-87229335D01*
X126347813Y-87276775D01*
X126349358Y-87279450D01*
X126349359Y-87279454D01*
X126349360Y-87279454D01*
X126396683Y-87361422D01*
X126399479Y-87366264D01*
X126399481Y-87366267D01*
X126518349Y-87485135D01*
X126518355Y-87485140D01*
X126524570Y-87491355D01*
X126558055Y-87552678D01*
X126553071Y-87622370D01*
X126511199Y-87678303D01*
X126445735Y-87702720D01*
X126436889Y-87703036D01*
X125592614Y-87703036D01*
X125525575Y-87683351D01*
X125479820Y-87630547D01*
X125470685Y-87588556D01*
X125469592Y-87588695D01*
X125468613Y-87580947D01*
X125428402Y-87424336D01*
X125428399Y-87424326D01*
X125350503Y-87282633D01*
X125336874Y-87266676D01*
X124936837Y-87666717D01*
X124909917Y-87681416D01*
X124884106Y-87698009D01*
X124877893Y-87698902D01*
X124875514Y-87700202D01*
X124849172Y-87703036D01*
X124731492Y-87703036D01*
X124731436Y-87703050D01*
X124723252Y-87703052D01*
X124696776Y-87695281D01*
X124669546Y-87690826D01*
X124661031Y-87684791D01*
X124656210Y-87683376D01*
X124651709Y-87678183D01*
X124635555Y-87666733D01*
X124567408Y-87598586D01*
X124533923Y-87537263D01*
X124531089Y-87510905D01*
X124531089Y-87416718D01*
X124550774Y-87349679D01*
X124567408Y-87329037D01*
X125006518Y-86889926D01*
X125067841Y-86856441D01*
X125110384Y-86854668D01*
X125113237Y-86855043D01*
X125113238Y-86855044D01*
X125230639Y-86870500D01*
X125569360Y-86870499D01*
X125569361Y-86870499D01*
X125603832Y-86865961D01*
X125686762Y-86855044D01*
X125686771Y-86855040D01*
X125688879Y-86854476D01*
X125691076Y-86854476D01*
X125694821Y-86853983D01*
X125694886Y-86854476D01*
X125745183Y-86854476D01*
X125745312Y-86853495D01*
X125752763Y-86854476D01*
X125753072Y-86854476D01*
X125753370Y-86854555D01*
X125840000Y-86865961D01*
X125840000Y-86850192D01*
X125841073Y-86846534D01*
X125840219Y-86842819D01*
X125850842Y-86813266D01*
X125859685Y-86783153D01*
X125862939Y-86779615D01*
X125863855Y-86777069D01*
X125888511Y-86751818D01*
X125932172Y-86718316D01*
X125997338Y-86693123D01*
X126065783Y-86707161D01*
G37*
%TD.AperFunction*%
%TA.AperFunction,Conductor*%
G36*
X137793539Y-85779685D02*
G01*
X137839294Y-85832489D01*
X137850500Y-85884000D01*
X137850500Y-86626000D01*
X137830815Y-86693039D01*
X137778011Y-86738794D01*
X137726500Y-86750000D01*
X137714000Y-86750000D01*
X137646961Y-86730315D01*
X137601206Y-86677511D01*
X137590000Y-86626000D01*
X137590000Y-85884000D01*
X137592550Y-85875314D01*
X137591262Y-85866353D01*
X137602240Y-85842312D01*
X137609685Y-85816961D01*
X137616525Y-85811033D01*
X137620287Y-85802797D01*
X137642521Y-85788507D01*
X137662489Y-85771206D01*
X137673003Y-85768918D01*
X137679065Y-85765023D01*
X137714000Y-85760000D01*
X137726500Y-85760000D01*
X137793539Y-85779685D01*
G37*
%TD.AperFunction*%
%TA.AperFunction,Conductor*%
G36*
X130689236Y-81122050D02*
G01*
X130696511Y-81121152D01*
X130721805Y-81133320D01*
X130748337Y-81142501D01*
X130758156Y-81150807D01*
X130759474Y-81151441D01*
X130760089Y-81152442D01*
X130764097Y-81155832D01*
X130771284Y-81163019D01*
X130771285Y-81163020D01*
X130925424Y-81317159D01*
X130998267Y-81390001D01*
X131031752Y-81451324D01*
X131026768Y-81521015D01*
X130998269Y-81565362D01*
X130937287Y-81626344D01*
X130845187Y-81775663D01*
X130845185Y-81775668D01*
X130829287Y-81823646D01*
X130790001Y-81942203D01*
X130790001Y-81942204D01*
X130790000Y-81942204D01*
X130779500Y-82044983D01*
X130779500Y-82169901D01*
X130759815Y-82236940D01*
X130743181Y-82257582D01*
X129840286Y-83160478D01*
X129728481Y-83272282D01*
X129728479Y-83272285D01*
X129688565Y-83341420D01*
X129688564Y-83341421D01*
X129649423Y-83409215D01*
X129608499Y-83561943D01*
X129608499Y-83561945D01*
X129608499Y-83730046D01*
X129608500Y-83730059D01*
X129608500Y-84390138D01*
X129588815Y-84457177D01*
X129580000Y-84468115D01*
X129580000Y-85346000D01*
X129560315Y-85413039D01*
X129507511Y-85458794D01*
X129456000Y-85470000D01*
X129204000Y-85470000D01*
X129136961Y-85450315D01*
X129091206Y-85397511D01*
X129080000Y-85346000D01*
X129080000Y-84470000D01*
X128805029Y-84470000D01*
X128805012Y-84470001D01*
X128702302Y-84480494D01*
X128535878Y-84535642D01*
X128529334Y-84538694D01*
X128528311Y-84536501D01*
X128471997Y-84551892D01*
X128405340Y-84530950D01*
X128375835Y-84499747D01*
X128374499Y-84500785D01*
X128369714Y-84494616D01*
X128255383Y-84380285D01*
X128255374Y-84380278D01*
X128116195Y-84297968D01*
X128116190Y-84297966D01*
X127960918Y-84252855D01*
X127960912Y-84252854D01*
X127940000Y-84251209D01*
X127940000Y-84906000D01*
X127920315Y-84973039D01*
X127867511Y-85018794D01*
X127816000Y-85030000D01*
X127564000Y-85030000D01*
X127496961Y-85010315D01*
X127451206Y-84957511D01*
X127440000Y-84906000D01*
X127440000Y-84251210D01*
X127439999Y-84251209D01*
X127419087Y-84252854D01*
X127419081Y-84252855D01*
X127263809Y-84297966D01*
X127263804Y-84297968D01*
X127124625Y-84380278D01*
X127124615Y-84380286D01*
X127082024Y-84422877D01*
X127020701Y-84456361D01*
X126951009Y-84451376D01*
X126906663Y-84422876D01*
X126851367Y-84367580D01*
X126851363Y-84367577D01*
X126720260Y-84279976D01*
X126720247Y-84279969D01*
X126574578Y-84219632D01*
X126574573Y-84219630D01*
X126574572Y-84219630D01*
X126574570Y-84219629D01*
X126571165Y-84218597D01*
X126569595Y-84217568D01*
X126568945Y-84217299D01*
X126568996Y-84217175D01*
X126512726Y-84180299D01*
X126484270Y-84116487D01*
X126494830Y-84047420D01*
X126519476Y-84012258D01*
X128655845Y-81875888D01*
X128717166Y-81842405D01*
X128727341Y-81840632D01*
X128748373Y-81837863D01*
X128826762Y-81827544D01*
X128972836Y-81767038D01*
X128972837Y-81767038D01*
X128972837Y-81767037D01*
X128972841Y-81767036D01*
X129009869Y-81738623D01*
X129075036Y-81713430D01*
X129085354Y-81713000D01*
X129653201Y-81713000D01*
X129653217Y-81713001D01*
X129660813Y-81713001D01*
X129818924Y-81713001D01*
X129818927Y-81713001D01*
X129971655Y-81672077D01*
X130025580Y-81640943D01*
X130108586Y-81593020D01*
X130220390Y-81481216D01*
X130220390Y-81481214D01*
X130230594Y-81471011D01*
X130230598Y-81471006D01*
X130512996Y-81188607D01*
X130518952Y-81184559D01*
X130521359Y-81180975D01*
X130547136Y-81165405D01*
X130551426Y-81162490D01*
X130552265Y-81162126D01*
X130612841Y-81137036D01*
X130616200Y-81134458D01*
X130627168Y-81129712D01*
X130655030Y-81126272D01*
X130682309Y-81119653D01*
X130689236Y-81122050D01*
G37*
%TD.AperFunction*%
%TA.AperFunction,Conductor*%
G36*
X109931830Y-64270185D02*
G01*
X109977585Y-64322989D01*
X109987529Y-64392147D01*
X109975276Y-64430795D01*
X109910591Y-64557742D01*
X109857085Y-64722415D01*
X109830000Y-64893428D01*
X109830000Y-65030000D01*
X110630000Y-65030000D01*
X110630000Y-65530000D01*
X109830000Y-65530000D01*
X109830000Y-65666571D01*
X109857085Y-65837584D01*
X109910591Y-66002257D01*
X109989195Y-66156524D01*
X110090967Y-66296602D01*
X110213397Y-66419032D01*
X110353475Y-66520804D01*
X110507744Y-66599408D01*
X110672415Y-66652914D01*
X110672414Y-66652914D01*
X110679999Y-66654115D01*
X110680000Y-66654114D01*
X110680000Y-65746987D01*
X110689940Y-65764204D01*
X110745795Y-65820059D01*
X110814204Y-65859555D01*
X110890504Y-65879999D01*
X110969496Y-65879999D01*
X111045796Y-65859555D01*
X111114205Y-65820059D01*
X111170060Y-65764204D01*
X111180000Y-65746987D01*
X111180000Y-66654115D01*
X111187584Y-66652914D01*
X111352255Y-66599408D01*
X111506524Y-66520804D01*
X111646602Y-66419032D01*
X111769032Y-66296602D01*
X111870804Y-66156524D01*
X111949408Y-66002257D01*
X112002914Y-65837584D01*
X112030000Y-65666571D01*
X112030000Y-65530000D01*
X111230000Y-65530000D01*
X111230000Y-65030000D01*
X112030000Y-65030000D01*
X112030000Y-64893428D01*
X112002914Y-64722415D01*
X111949408Y-64557742D01*
X111884724Y-64430795D01*
X111871828Y-64362126D01*
X111898104Y-64297386D01*
X111955210Y-64257128D01*
X111995209Y-64250500D01*
X118504791Y-64250500D01*
X118571830Y-64270185D01*
X118617585Y-64322989D01*
X118627529Y-64392147D01*
X118615276Y-64430795D01*
X118550591Y-64557742D01*
X118497085Y-64722415D01*
X118470000Y-64893428D01*
X118470000Y-65030000D01*
X119270000Y-65030000D01*
X119270000Y-65530000D01*
X118470000Y-65530000D01*
X118470000Y-65666571D01*
X118497085Y-65837584D01*
X118550591Y-66002257D01*
X118629195Y-66156524D01*
X118730967Y-66296602D01*
X118853397Y-66419032D01*
X118993475Y-66520804D01*
X119147744Y-66599408D01*
X119312415Y-66652914D01*
X119312414Y-66652914D01*
X119319999Y-66654115D01*
X119320000Y-66654114D01*
X119320000Y-65746987D01*
X119329940Y-65764204D01*
X119385795Y-65820059D01*
X119454204Y-65859555D01*
X119530504Y-65879999D01*
X119609496Y-65879999D01*
X119685796Y-65859555D01*
X119754205Y-65820059D01*
X119810060Y-65764204D01*
X119820000Y-65746987D01*
X119820000Y-66654115D01*
X119827584Y-66652914D01*
X119992255Y-66599408D01*
X120146524Y-66520804D01*
X120286602Y-66419032D01*
X120409032Y-66296602D01*
X120510804Y-66156524D01*
X120589408Y-66002257D01*
X120642914Y-65837584D01*
X120670000Y-65666571D01*
X120670000Y-65530000D01*
X119870000Y-65530000D01*
X119870000Y-65030000D01*
X120670000Y-65030000D01*
X120670000Y-64893428D01*
X120642914Y-64722415D01*
X120589408Y-64557742D01*
X120524724Y-64430795D01*
X120511828Y-64362126D01*
X120538104Y-64297386D01*
X120595210Y-64257128D01*
X120635209Y-64250500D01*
X139075500Y-64250500D01*
X139142539Y-64270185D01*
X139188294Y-64322989D01*
X139199500Y-64374500D01*
X139199500Y-83533664D01*
X139179815Y-83600703D01*
X139127011Y-83646458D01*
X139057853Y-83656402D01*
X138994297Y-83627377D01*
X138968113Y-83595664D01*
X138931522Y-83532286D01*
X138931518Y-83532281D01*
X137771909Y-82372672D01*
X136596160Y-81196924D01*
X136562676Y-81135602D01*
X136567660Y-81065910D01*
X136585463Y-81033761D01*
X136624536Y-80982841D01*
X136685044Y-80836762D01*
X136700500Y-80719361D01*
X136700499Y-80440640D01*
X136694235Y-80393057D01*
X136705001Y-80324024D01*
X136751381Y-80271768D01*
X136773844Y-80260691D01*
X136792328Y-80253797D01*
X136792327Y-80253797D01*
X136792331Y-80253796D01*
X136907546Y-80167546D01*
X136993796Y-80052331D01*
X137044091Y-79917483D01*
X137050500Y-79857873D01*
X137050500Y-79634000D01*
X137070185Y-79566961D01*
X137122989Y-79521206D01*
X137174500Y-79510000D01*
X137200000Y-79510000D01*
X137700000Y-79510000D01*
X138097828Y-79510000D01*
X138097844Y-79509999D01*
X138157372Y-79503598D01*
X138157379Y-79503596D01*
X138292086Y-79453354D01*
X138292093Y-79453350D01*
X138407187Y-79367190D01*
X138407190Y-79367187D01*
X138493350Y-79252093D01*
X138493354Y-79252086D01*
X138543596Y-79117379D01*
X138543598Y-79117372D01*
X138549999Y-79057844D01*
X138550000Y-79057827D01*
X138550000Y-78560000D01*
X137700000Y-78560000D01*
X137700000Y-79510000D01*
X137200000Y-79510000D01*
X137200000Y-78060000D01*
X137700000Y-78060000D01*
X138550000Y-78060000D01*
X138550000Y-77562172D01*
X138549999Y-77562155D01*
X138543598Y-77502627D01*
X138543596Y-77502620D01*
X138493354Y-77367913D01*
X138493350Y-77367906D01*
X138407190Y-77252812D01*
X138407187Y-77252809D01*
X138292093Y-77166649D01*
X138292086Y-77166645D01*
X138157379Y-77116403D01*
X138157372Y-77116401D01*
X138097844Y-77110000D01*
X137700000Y-77110000D01*
X137700000Y-78060000D01*
X137200000Y-78060000D01*
X137200000Y-77110000D01*
X136802155Y-77110000D01*
X136742627Y-77116401D01*
X136742620Y-77116403D01*
X136607913Y-77166645D01*
X136607910Y-77166647D01*
X136492606Y-77252964D01*
X136427142Y-77277381D01*
X136358869Y-77262529D01*
X136330614Y-77241378D01*
X131887590Y-72798355D01*
X131887588Y-72798352D01*
X131768717Y-72679481D01*
X131768716Y-72679480D01*
X131681904Y-72629360D01*
X131681904Y-72629359D01*
X131681900Y-72629358D01*
X131631785Y-72600423D01*
X131479057Y-72559499D01*
X131320943Y-72559499D01*
X131313347Y-72559499D01*
X131313331Y-72559500D01*
X123919766Y-72559500D01*
X123852727Y-72539815D01*
X123850875Y-72538602D01*
X123719185Y-72450609D01*
X123719172Y-72450602D01*
X123573501Y-72390264D01*
X123573489Y-72390261D01*
X123418845Y-72359500D01*
X123418842Y-72359500D01*
X123261158Y-72359500D01*
X123261155Y-72359500D01*
X123106510Y-72390261D01*
X123106498Y-72390264D01*
X122960827Y-72450602D01*
X122960814Y-72450609D01*
X122829711Y-72538210D01*
X122829707Y-72538213D01*
X122718213Y-72649707D01*
X122718210Y-72649711D01*
X122630609Y-72780814D01*
X122630602Y-72780827D01*
X122570264Y-72926498D01*
X122570261Y-72926510D01*
X122539500Y-73081153D01*
X122539500Y-73205500D01*
X122519815Y-73272539D01*
X122467011Y-73318294D01*
X122415500Y-73329500D01*
X121662078Y-73329500D01*
X121595039Y-73309815D01*
X121574397Y-73293181D01*
X121470697Y-73189481D01*
X121470696Y-73189480D01*
X121366041Y-73129058D01*
X121366040Y-73129057D01*
X121333763Y-73110422D01*
X121277861Y-73095443D01*
X121181037Y-73069499D01*
X121022923Y-73069499D01*
X121015327Y-73069499D01*
X121015311Y-73069500D01*
X119324690Y-73069500D01*
X119324674Y-73069499D01*
X119317078Y-73069499D01*
X119158963Y-73069499D01*
X119082599Y-73089961D01*
X119006234Y-73110423D01*
X119006229Y-73110426D01*
X118869310Y-73189475D01*
X118869302Y-73189481D01*
X118765603Y-73293181D01*
X118704280Y-73326666D01*
X118677922Y-73329500D01*
X117029563Y-73329500D01*
X116876833Y-73370423D01*
X116835625Y-73394216D01*
X116835623Y-73394216D01*
X116761499Y-73437011D01*
X116693599Y-73453484D01*
X116627572Y-73430631D01*
X116584382Y-73375710D01*
X116575500Y-73329624D01*
X116575500Y-72057917D01*
X116595185Y-71990878D01*
X116647989Y-71945123D01*
X116683314Y-71934978D01*
X116796762Y-71920044D01*
X116796771Y-71920040D01*
X116798879Y-71919476D01*
X116801076Y-71919476D01*
X116804821Y-71918983D01*
X116804886Y-71919476D01*
X116855183Y-71919476D01*
X116855312Y-71918495D01*
X116862763Y-71919476D01*
X116863072Y-71919476D01*
X116863370Y-71919555D01*
X116950000Y-71930961D01*
X116950000Y-71915192D01*
X116958547Y-71886083D01*
X116964827Y-71856393D01*
X116968549Y-71852019D01*
X116969685Y-71848153D01*
X116985815Y-71828017D01*
X116991775Y-71821987D01*
X117068282Y-71763282D01*
X117132358Y-71679775D01*
X117137815Y-71674256D01*
X117161859Y-71660947D01*
X117184052Y-71644742D01*
X117191989Y-71644269D01*
X117198945Y-71640419D01*
X117226363Y-71642221D01*
X117253798Y-71640587D01*
X117260731Y-71644480D01*
X117268664Y-71645002D01*
X117290755Y-71661342D01*
X117314718Y-71674799D01*
X117318445Y-71681822D01*
X117324837Y-71686550D01*
X117334588Y-71712240D01*
X117347471Y-71736516D01*
X117348810Y-71749710D01*
X117349631Y-71751873D01*
X117349224Y-71753793D01*
X117350000Y-71761431D01*
X117350000Y-71930959D01*
X117350001Y-71930960D01*
X117436627Y-71919557D01*
X117436633Y-71919555D01*
X117582585Y-71859100D01*
X117707924Y-71762924D01*
X117804100Y-71637586D01*
X117864555Y-71491631D01*
X117872012Y-71435000D01*
X117364500Y-71435000D01*
X117355814Y-71432449D01*
X117346854Y-71433738D01*
X117322812Y-71422759D01*
X117297461Y-71415315D01*
X117291534Y-71408475D01*
X117283298Y-71404714D01*
X117269007Y-71382478D01*
X117251706Y-71362511D01*
X117249418Y-71351998D01*
X117245523Y-71345936D01*
X117240500Y-71311001D01*
X117240499Y-71214500D01*
X117260183Y-71147461D01*
X117312986Y-71101705D01*
X117364494Y-71090499D01*
X117972872Y-71090499D01*
X118032483Y-71084091D01*
X118032483Y-71084090D01*
X118039096Y-71083380D01*
X118065607Y-71083381D01*
X118127157Y-71089999D01*
X118127172Y-71090000D01*
X118200000Y-71090000D01*
X118200000Y-71071409D01*
X118219685Y-71004370D01*
X118249691Y-70972141D01*
X118282545Y-70947547D01*
X118282546Y-70947546D01*
X118368796Y-70832331D01*
X118419091Y-70697483D01*
X118425500Y-70637873D01*
X118425499Y-70163998D01*
X118428049Y-70155313D01*
X118426761Y-70146353D01*
X118437738Y-70122316D01*
X118445183Y-70096961D01*
X118452025Y-70091032D01*
X118455786Y-70082797D01*
X118478017Y-70068510D01*
X118497987Y-70051206D01*
X118508502Y-70048918D01*
X118514564Y-70045023D01*
X118549499Y-70040000D01*
X118576000Y-70040000D01*
X118643039Y-70059685D01*
X118688794Y-70112489D01*
X118700000Y-70164000D01*
X118700000Y-71090000D01*
X118772828Y-71090000D01*
X118772844Y-71089999D01*
X118832372Y-71083598D01*
X118832379Y-71083596D01*
X118967086Y-71033354D01*
X118967089Y-71033352D01*
X119088211Y-70942680D01*
X119153675Y-70918262D01*
X119209977Y-70927386D01*
X119263718Y-70949647D01*
X119263725Y-70949649D01*
X119320000Y-70960842D01*
X119320000Y-70106987D01*
X119329940Y-70124204D01*
X119385795Y-70180059D01*
X119454204Y-70219555D01*
X119530504Y-70239999D01*
X119609496Y-70239999D01*
X119685796Y-70219555D01*
X119754205Y-70180059D01*
X119810060Y-70124204D01*
X119820000Y-70106987D01*
X119820000Y-70960842D01*
X119876274Y-70949649D01*
X119876276Y-70949648D01*
X120067358Y-70870499D01*
X120067368Y-70870494D01*
X120239335Y-70755589D01*
X120239339Y-70755586D01*
X120385586Y-70609339D01*
X120385589Y-70609335D01*
X120500494Y-70437368D01*
X120500499Y-70437358D01*
X120579649Y-70246274D01*
X120579651Y-70246266D01*
X120619999Y-70043420D01*
X120620000Y-70043417D01*
X120620000Y-69814466D01*
X120639685Y-69747427D01*
X120692489Y-69701672D01*
X120761647Y-69691728D01*
X120825203Y-69720753D01*
X120860182Y-69771133D01*
X120886645Y-69842086D01*
X120886649Y-69842093D01*
X120972809Y-69957187D01*
X120972812Y-69957190D01*
X121087906Y-70043350D01*
X121087913Y-70043354D01*
X121222620Y-70093596D01*
X121222627Y-70093598D01*
X121282155Y-70099999D01*
X121282172Y-70100000D01*
X121680000Y-70100000D01*
X122180000Y-70100000D01*
X122577828Y-70100000D01*
X122577844Y-70099999D01*
X122637372Y-70093598D01*
X122637379Y-70093596D01*
X122772086Y-70043354D01*
X122772093Y-70043350D01*
X122887187Y-69957190D01*
X122887190Y-69957187D01*
X122973350Y-69842093D01*
X122973354Y-69842086D01*
X123023596Y-69707379D01*
X123023598Y-69707372D01*
X123029999Y-69647844D01*
X136350000Y-69647844D01*
X136356401Y-69707372D01*
X136356403Y-69707379D01*
X136406645Y-69842086D01*
X136406649Y-69842093D01*
X136492809Y-69957187D01*
X136492812Y-69957190D01*
X136607906Y-70043350D01*
X136607913Y-70043354D01*
X136742620Y-70093596D01*
X136742627Y-70093598D01*
X136802155Y-70099999D01*
X136802172Y-70100000D01*
X137200000Y-70100000D01*
X137700000Y-70100000D01*
X138097828Y-70100000D01*
X138097844Y-70099999D01*
X138157372Y-70093598D01*
X138157379Y-70093596D01*
X138292086Y-70043354D01*
X138292093Y-70043350D01*
X138407187Y-69957190D01*
X138407190Y-69957187D01*
X138493350Y-69842093D01*
X138493354Y-69842086D01*
X138543596Y-69707379D01*
X138543598Y-69707372D01*
X138549999Y-69647844D01*
X138550000Y-69647827D01*
X138550000Y-68850000D01*
X137700000Y-68850000D01*
X137700000Y-70100000D01*
X137200000Y-70100000D01*
X137200000Y-68850000D01*
X136350000Y-68850000D01*
X136350000Y-69647844D01*
X123029999Y-69647844D01*
X123030000Y-69647827D01*
X123030000Y-68850000D01*
X122180000Y-68850000D01*
X122180000Y-70100000D01*
X121680000Y-70100000D01*
X121680000Y-68850000D01*
X120830000Y-68850000D01*
X120804516Y-68875484D01*
X120743192Y-68908968D01*
X120673501Y-68903983D01*
X120617567Y-68862112D01*
X120595217Y-68811992D01*
X120579649Y-68733725D01*
X120500499Y-68542641D01*
X120500494Y-68542631D01*
X120410899Y-68408543D01*
X125639499Y-68408543D01*
X125677947Y-68601829D01*
X125677950Y-68601839D01*
X125753364Y-68783907D01*
X125753371Y-68783920D01*
X125862860Y-68947781D01*
X125862863Y-68947785D01*
X126002214Y-69087136D01*
X126002218Y-69087139D01*
X126166079Y-69196628D01*
X126166092Y-69196635D01*
X126270786Y-69240000D01*
X126348165Y-69272051D01*
X126348169Y-69272051D01*
X126348170Y-69272052D01*
X126541456Y-69310500D01*
X126541459Y-69310500D01*
X126738543Y-69310500D01*
X126868582Y-69284632D01*
X126931835Y-69272051D01*
X127113914Y-69196632D01*
X127277782Y-69087139D01*
X127417139Y-68947782D01*
X127526632Y-68783914D01*
X127602051Y-68601835D01*
X127631739Y-68452586D01*
X127640500Y-68408543D01*
X133639499Y-68408543D01*
X133677947Y-68601829D01*
X133677950Y-68601839D01*
X133753364Y-68783907D01*
X133753371Y-68783920D01*
X133862860Y-68947781D01*
X133862863Y-68947785D01*
X134002214Y-69087136D01*
X134002218Y-69087139D01*
X134166079Y-69196628D01*
X134166092Y-69196635D01*
X134270786Y-69240000D01*
X134348165Y-69272051D01*
X134348169Y-69272051D01*
X134348170Y-69272052D01*
X134541456Y-69310500D01*
X134541459Y-69310500D01*
X134738543Y-69310500D01*
X134868582Y-69284632D01*
X134931835Y-69272051D01*
X135113914Y-69196632D01*
X135277782Y-69087139D01*
X135417139Y-68947782D01*
X135526632Y-68783914D01*
X135602051Y-68601835D01*
X135631739Y-68452586D01*
X135640500Y-68408543D01*
X135640500Y-68211456D01*
X135602052Y-68018170D01*
X135602051Y-68018169D01*
X135602051Y-68018165D01*
X135602049Y-68018160D01*
X135526635Y-67836092D01*
X135526628Y-67836079D01*
X135417139Y-67672218D01*
X135417136Y-67672214D01*
X135297077Y-67552155D01*
X136350000Y-67552155D01*
X136350000Y-68350000D01*
X137200000Y-68350000D01*
X137700000Y-68350000D01*
X138550000Y-68350000D01*
X138550000Y-67552172D01*
X138549999Y-67552155D01*
X138543598Y-67492627D01*
X138543596Y-67492620D01*
X138493354Y-67357913D01*
X138493350Y-67357906D01*
X138407190Y-67242812D01*
X138407187Y-67242809D01*
X138292093Y-67156649D01*
X138292086Y-67156645D01*
X138157379Y-67106403D01*
X138157372Y-67106401D01*
X138097844Y-67100000D01*
X137700000Y-67100000D01*
X137700000Y-68350000D01*
X137200000Y-68350000D01*
X137200000Y-67100000D01*
X136802155Y-67100000D01*
X136742627Y-67106401D01*
X136742620Y-67106403D01*
X136607913Y-67156645D01*
X136607906Y-67156649D01*
X136492812Y-67242809D01*
X136492809Y-67242812D01*
X136406649Y-67357906D01*
X136406645Y-67357913D01*
X136356403Y-67492620D01*
X136356401Y-67492627D01*
X136350000Y-67552155D01*
X135297077Y-67552155D01*
X135277785Y-67532863D01*
X135277781Y-67532860D01*
X135113920Y-67423371D01*
X135113907Y-67423364D01*
X134931839Y-67347950D01*
X134931829Y-67347947D01*
X134738543Y-67309500D01*
X134738541Y-67309500D01*
X134541459Y-67309500D01*
X134541457Y-67309500D01*
X134348170Y-67347947D01*
X134348160Y-67347950D01*
X134166092Y-67423364D01*
X134166079Y-67423371D01*
X134002218Y-67532860D01*
X134002214Y-67532863D01*
X133862863Y-67672214D01*
X133862860Y-67672218D01*
X133753371Y-67836079D01*
X133753364Y-67836092D01*
X133677950Y-68018160D01*
X133677947Y-68018170D01*
X133639500Y-68211456D01*
X133639500Y-68211459D01*
X133639500Y-68408541D01*
X133639500Y-68408543D01*
X133639499Y-68408543D01*
X127640500Y-68408543D01*
X127640500Y-68211456D01*
X127602052Y-68018170D01*
X127602051Y-68018169D01*
X127602051Y-68018165D01*
X127602049Y-68018160D01*
X127526635Y-67836092D01*
X127526628Y-67836079D01*
X127417139Y-67672218D01*
X127417136Y-67672214D01*
X127277785Y-67532863D01*
X127277781Y-67532860D01*
X127113920Y-67423371D01*
X127113907Y-67423364D01*
X126931839Y-67347950D01*
X126931829Y-67347947D01*
X126738543Y-67309500D01*
X126738541Y-67309500D01*
X126541459Y-67309500D01*
X126541457Y-67309500D01*
X126348170Y-67347947D01*
X126348160Y-67347950D01*
X126166092Y-67423364D01*
X126166079Y-67423371D01*
X126002218Y-67532860D01*
X126002214Y-67532863D01*
X125862863Y-67672214D01*
X125862860Y-67672218D01*
X125753371Y-67836079D01*
X125753364Y-67836092D01*
X125677950Y-68018160D01*
X125677947Y-68018170D01*
X125639500Y-68211456D01*
X125639500Y-68211459D01*
X125639500Y-68408541D01*
X125639500Y-68408543D01*
X125639499Y-68408543D01*
X120410899Y-68408543D01*
X120385589Y-68370664D01*
X120385586Y-68370660D01*
X120239339Y-68224413D01*
X120239335Y-68224410D01*
X120067368Y-68109505D01*
X120067358Y-68109500D01*
X119876272Y-68030349D01*
X119876267Y-68030347D01*
X119820000Y-68019155D01*
X119820000Y-68873012D01*
X119810060Y-68855796D01*
X119754205Y-68799941D01*
X119685796Y-68760445D01*
X119609496Y-68740001D01*
X119530504Y-68740001D01*
X119454204Y-68760445D01*
X119385795Y-68799941D01*
X119329940Y-68855796D01*
X119320000Y-68873012D01*
X119320000Y-68019156D01*
X119319999Y-68019155D01*
X119263732Y-68030347D01*
X119263727Y-68030349D01*
X119072641Y-68109500D01*
X119072631Y-68109505D01*
X118900664Y-68224410D01*
X118900660Y-68224413D01*
X118840165Y-68284909D01*
X118778842Y-68318394D01*
X118709150Y-68313410D01*
X118683593Y-68300330D01*
X118542860Y-68206295D01*
X118388082Y-68142184D01*
X118388074Y-68142182D01*
X118223771Y-68109500D01*
X118223767Y-68109500D01*
X118056233Y-68109500D01*
X118056228Y-68109500D01*
X117891925Y-68142182D01*
X117891917Y-68142184D01*
X117737139Y-68206295D01*
X117597837Y-68299373D01*
X117597837Y-68299374D01*
X117591900Y-68305311D01*
X117530575Y-68338792D01*
X117460884Y-68333805D01*
X117439621Y-68323468D01*
X117427001Y-68315765D01*
X117418716Y-68307480D01*
X117322247Y-68251784D01*
X117320924Y-68251020D01*
X117320891Y-68251000D01*
X117281788Y-68228424D01*
X117281787Y-68228423D01*
X117220693Y-68212053D01*
X117129057Y-68187499D01*
X116970943Y-68187499D01*
X116963347Y-68187499D01*
X116963331Y-68187500D01*
X113536670Y-68187500D01*
X113536654Y-68187499D01*
X113529058Y-68187499D01*
X113370943Y-68187499D01*
X113300786Y-68206298D01*
X113218214Y-68228423D01*
X113218209Y-68228426D01*
X113081290Y-68307475D01*
X113074839Y-68312426D01*
X113073535Y-68310727D01*
X113022117Y-68338795D01*
X112952426Y-68333801D01*
X112908095Y-68305306D01*
X112902162Y-68299373D01*
X112762860Y-68206295D01*
X112608082Y-68142184D01*
X112608074Y-68142182D01*
X112443771Y-68109500D01*
X112443767Y-68109500D01*
X112276233Y-68109500D01*
X112276228Y-68109500D01*
X112111925Y-68142182D01*
X112111917Y-68142184D01*
X111957138Y-68206296D01*
X111957134Y-68206298D01*
X111816405Y-68300330D01*
X111749728Y-68321208D01*
X111682348Y-68302723D01*
X111659833Y-68284909D01*
X111599334Y-68224409D01*
X111427368Y-68109505D01*
X111427358Y-68109500D01*
X111236272Y-68030349D01*
X111236267Y-68030347D01*
X111180000Y-68019155D01*
X111180000Y-68873000D01*
X111170060Y-68855784D01*
X111114205Y-68799929D01*
X111045796Y-68760433D01*
X110969496Y-68739989D01*
X110890504Y-68739989D01*
X110814204Y-68760433D01*
X110745795Y-68799929D01*
X110689940Y-68855784D01*
X110680000Y-68873000D01*
X110680000Y-68019156D01*
X110679999Y-68019155D01*
X110623732Y-68030347D01*
X110623727Y-68030349D01*
X110432641Y-68109500D01*
X110432631Y-68109505D01*
X110260664Y-68224410D01*
X110260660Y-68224413D01*
X110114413Y-68370660D01*
X110114410Y-68370664D01*
X109999505Y-68542631D01*
X109999500Y-68542641D01*
X109920350Y-68733725D01*
X109920348Y-68733733D01*
X109880000Y-68936579D01*
X109880000Y-69240000D01*
X110630000Y-69240000D01*
X110630000Y-69740000D01*
X109880000Y-69740000D01*
X109880000Y-70043420D01*
X109920348Y-70246266D01*
X109920350Y-70246274D01*
X109999500Y-70437358D01*
X109999505Y-70437368D01*
X110114410Y-70609335D01*
X110114413Y-70609339D01*
X110260660Y-70755586D01*
X110260664Y-70755589D01*
X110432631Y-70870494D01*
X110432641Y-70870499D01*
X110623723Y-70949648D01*
X110623725Y-70949649D01*
X110680000Y-70960842D01*
X110680000Y-70106999D01*
X110689940Y-70124216D01*
X110745795Y-70180071D01*
X110814204Y-70219567D01*
X110890504Y-70240011D01*
X110969496Y-70240011D01*
X111045796Y-70219567D01*
X111114205Y-70180071D01*
X111170060Y-70124216D01*
X111180000Y-70106999D01*
X111180000Y-70960842D01*
X111236274Y-70949649D01*
X111236277Y-70949648D01*
X111290021Y-70927386D01*
X111359490Y-70919916D01*
X111411787Y-70942680D01*
X111532906Y-71033350D01*
X111532913Y-71033354D01*
X111667620Y-71083596D01*
X111667627Y-71083598D01*
X111727155Y-71089999D01*
X111727172Y-71090000D01*
X111800000Y-71090000D01*
X111800000Y-70164000D01*
X111802550Y-70155314D01*
X111801262Y-70146353D01*
X111812240Y-70122312D01*
X111819685Y-70096961D01*
X111826525Y-70091033D01*
X111830287Y-70082797D01*
X111852521Y-70068507D01*
X111872489Y-70051206D01*
X111883003Y-70048918D01*
X111889065Y-70045023D01*
X111924000Y-70040000D01*
X111950500Y-70040000D01*
X112017539Y-70059685D01*
X112063294Y-70112489D01*
X112074500Y-70164000D01*
X112074500Y-70637870D01*
X112074501Y-70637876D01*
X112080908Y-70697483D01*
X112131202Y-70832328D01*
X112131203Y-70832329D01*
X112131204Y-70832331D01*
X112159773Y-70870494D01*
X112217454Y-70947547D01*
X112235215Y-70960842D01*
X112332669Y-71033796D01*
X112467517Y-71084091D01*
X112527127Y-71090500D01*
X112620500Y-71090499D01*
X112629185Y-71093049D01*
X112638146Y-71091761D01*
X112662185Y-71102738D01*
X112687538Y-71110183D01*
X112693465Y-71117023D01*
X112701702Y-71120785D01*
X112715989Y-71143016D01*
X112733294Y-71162986D01*
X112735581Y-71173501D01*
X112739477Y-71179563D01*
X112744500Y-71214498D01*
X112744501Y-71340999D01*
X112724817Y-71408039D01*
X112672013Y-71453794D01*
X112620501Y-71465000D01*
X112112990Y-71465000D01*
X112112988Y-71465001D01*
X112120442Y-71521627D01*
X112120444Y-71521633D01*
X112180899Y-71667585D01*
X112277075Y-71792924D01*
X112402413Y-71889100D01*
X112548365Y-71949554D01*
X112548369Y-71949555D01*
X112635000Y-71960961D01*
X112635000Y-71791431D01*
X112641336Y-71769852D01*
X112643070Y-71747429D01*
X112650990Y-71736975D01*
X112654685Y-71724392D01*
X112671681Y-71709664D01*
X112685263Y-71691738D01*
X112697577Y-71687225D01*
X112707489Y-71678637D01*
X112729748Y-71675436D01*
X112750866Y-71667698D01*
X112763665Y-71670559D01*
X112776647Y-71668693D01*
X112797105Y-71678036D01*
X112819053Y-71682943D01*
X112831701Y-71693835D01*
X112840203Y-71697718D01*
X112847185Y-71704256D01*
X112852641Y-71709775D01*
X112916718Y-71793282D01*
X112993224Y-71851987D01*
X112999185Y-71858017D01*
X113011889Y-71881605D01*
X113027689Y-71903243D01*
X113029672Y-71914623D01*
X113032316Y-71919532D01*
X113031766Y-71926638D01*
X113035000Y-71945192D01*
X113035000Y-71960959D01*
X113035001Y-71960960D01*
X113121622Y-71949558D01*
X113121917Y-71949479D01*
X113122222Y-71949478D01*
X113129690Y-71948496D01*
X113129819Y-71949478D01*
X113180115Y-71949476D01*
X113180180Y-71948983D01*
X113183925Y-71949476D01*
X113186121Y-71949476D01*
X113188230Y-71950040D01*
X113188238Y-71950044D01*
X113305639Y-71965500D01*
X113644360Y-71965499D01*
X113644363Y-71965499D01*
X113761753Y-71950046D01*
X113761757Y-71950044D01*
X113761762Y-71950044D01*
X113907841Y-71889536D01*
X114033282Y-71793282D01*
X114129536Y-71667841D01*
X114187674Y-71527481D01*
X114188153Y-71526887D01*
X114188245Y-71526124D01*
X114210071Y-71499689D01*
X114231513Y-71473080D01*
X114232241Y-71472837D01*
X114232730Y-71472246D01*
X114265322Y-71461827D01*
X114297807Y-71451015D01*
X114298793Y-71451127D01*
X114299282Y-71450971D01*
X114334320Y-71455160D01*
X114429019Y-71480534D01*
X114469942Y-71491500D01*
X114469943Y-71491500D01*
X114800500Y-71491500D01*
X114867539Y-71511185D01*
X114913294Y-71563989D01*
X114924500Y-71615500D01*
X114924500Y-73735903D01*
X114904815Y-73802942D01*
X114852011Y-73848697D01*
X114782853Y-73858641D01*
X114719297Y-73829616D01*
X114712819Y-73823584D01*
X113577590Y-72688355D01*
X113577588Y-72688352D01*
X113458717Y-72569481D01*
X113458709Y-72569475D01*
X113354828Y-72509500D01*
X113354825Y-72509499D01*
X113321787Y-72490424D01*
X113321786Y-72490423D01*
X113321785Y-72490423D01*
X113169057Y-72449499D01*
X113010943Y-72449499D01*
X113003347Y-72449499D01*
X113003331Y-72449500D01*
X109950942Y-72449500D01*
X109798212Y-72490423D01*
X109765175Y-72509499D01*
X109765172Y-72509500D01*
X109661290Y-72569475D01*
X109661282Y-72569481D01*
X109384481Y-72846282D01*
X109384479Y-72846285D01*
X109338167Y-72926502D01*
X109338165Y-72926504D01*
X109305425Y-72983209D01*
X109305424Y-72983210D01*
X109305423Y-72983215D01*
X109264499Y-73135943D01*
X109264499Y-73135945D01*
X109264499Y-73304046D01*
X109264500Y-73304059D01*
X109264500Y-74379645D01*
X109244815Y-74446684D01*
X109238876Y-74455131D01*
X109210464Y-74492157D01*
X109149956Y-74638237D01*
X109149955Y-74638239D01*
X109134500Y-74755638D01*
X109134500Y-74964545D01*
X109114815Y-75031584D01*
X109062011Y-75077339D01*
X108992853Y-75087283D01*
X108948501Y-75071933D01*
X108942508Y-75068473D01*
X108910964Y-75050261D01*
X108910962Y-75050259D01*
X108889795Y-75038039D01*
X108888860Y-75037499D01*
X108736132Y-74996575D01*
X108578018Y-74996575D01*
X108570422Y-74996575D01*
X108570406Y-74996576D01*
X108225501Y-74996576D01*
X108216816Y-74994025D01*
X108207858Y-74995314D01*
X108183816Y-74984336D01*
X108158462Y-74976891D01*
X108152536Y-74970052D01*
X108144301Y-74966292D01*
X108130008Y-74944054D01*
X108112707Y-74924087D01*
X108110420Y-74913575D01*
X108106525Y-74907515D01*
X108101502Y-74872587D01*
X108101501Y-74872580D01*
X108101501Y-74862257D01*
X108101501Y-74851103D01*
X108101500Y-74851099D01*
X108101500Y-70195061D01*
X108101501Y-70195048D01*
X108101501Y-70026945D01*
X108088790Y-69979507D01*
X108060577Y-69874217D01*
X107981520Y-69737285D01*
X107979088Y-69734853D01*
X107973425Y-69725926D01*
X107965244Y-69697448D01*
X107954563Y-69669818D01*
X107955706Y-69664242D01*
X107954135Y-69658772D01*
X107962649Y-69630392D01*
X107968602Y-69601373D01*
X107972578Y-69597300D01*
X107974214Y-69591849D01*
X107996716Y-69572581D01*
X108017416Y-69551383D01*
X108023258Y-69549854D01*
X108027286Y-69546406D01*
X108046635Y-69543739D01*
X108078133Y-69535501D01*
X108203293Y-69535501D01*
X108203296Y-69535501D01*
X108356024Y-69494577D01*
X108434099Y-69449500D01*
X108492955Y-69415520D01*
X108604759Y-69303716D01*
X108604760Y-69303714D01*
X109000520Y-68907955D01*
X109079577Y-68771023D01*
X109120501Y-68618296D01*
X109120501Y-68460181D01*
X109120501Y-68452586D01*
X109120500Y-68452568D01*
X109120500Y-68109058D01*
X109120501Y-68109045D01*
X109120501Y-67940944D01*
X109120501Y-67940942D01*
X109079577Y-67788214D01*
X109028402Y-67699577D01*
X109000520Y-67651283D01*
X108901392Y-67552155D01*
X120830000Y-67552155D01*
X120830000Y-68350000D01*
X121680000Y-68350000D01*
X122180000Y-68350000D01*
X123030000Y-68350000D01*
X123030000Y-67552172D01*
X123029999Y-67552155D01*
X123023598Y-67492627D01*
X123023596Y-67492620D01*
X122973354Y-67357913D01*
X122973350Y-67357906D01*
X122887190Y-67242812D01*
X122887187Y-67242809D01*
X122772093Y-67156649D01*
X122772086Y-67156645D01*
X122637379Y-67106403D01*
X122637372Y-67106401D01*
X122577844Y-67100000D01*
X122180000Y-67100000D01*
X122180000Y-68350000D01*
X121680000Y-68350000D01*
X121680000Y-67100000D01*
X121282155Y-67100000D01*
X121222627Y-67106401D01*
X121222620Y-67106403D01*
X121087913Y-67156645D01*
X121087906Y-67156649D01*
X120972812Y-67242809D01*
X120972809Y-67242812D01*
X120886649Y-67357906D01*
X120886645Y-67357913D01*
X120836403Y-67492620D01*
X120836401Y-67492627D01*
X120830000Y-67552155D01*
X108901392Y-67552155D01*
X108888716Y-67539479D01*
X108888715Y-67539478D01*
X108884385Y-67535148D01*
X108884374Y-67535138D01*
X108606818Y-67257582D01*
X108573333Y-67196259D01*
X108570499Y-67169901D01*
X108570499Y-66970636D01*
X108555046Y-66853249D01*
X108555044Y-66853244D01*
X108555044Y-66853238D01*
X108555041Y-66853231D01*
X108554477Y-66851125D01*
X108554477Y-66848924D01*
X108553984Y-66845179D01*
X108554477Y-66845114D01*
X108554477Y-66794817D01*
X108553495Y-66794688D01*
X108554477Y-66787229D01*
X108554477Y-66786923D01*
X108554556Y-66786627D01*
X108565961Y-66700000D01*
X108550193Y-66700000D01*
X108521084Y-66691452D01*
X108491394Y-66685173D01*
X108487020Y-66681450D01*
X108483154Y-66680315D01*
X108463018Y-66664185D01*
X108456983Y-66658219D01*
X108398282Y-66581718D01*
X108314780Y-66517645D01*
X108309257Y-66512185D01*
X108295949Y-66488143D01*
X108279743Y-66465948D01*
X108279270Y-66458010D01*
X108275420Y-66451055D01*
X108277222Y-66423636D01*
X108275588Y-66396202D01*
X108279481Y-66389269D01*
X108280003Y-66381336D01*
X108296344Y-66359242D01*
X108309801Y-66335281D01*
X108316823Y-66331554D01*
X108321551Y-66325163D01*
X108347242Y-66315411D01*
X108371518Y-66302529D01*
X108384711Y-66301189D01*
X108386874Y-66300369D01*
X108388794Y-66300775D01*
X108396432Y-66300000D01*
X108565959Y-66300000D01*
X108565960Y-66299998D01*
X108554557Y-66213372D01*
X108554555Y-66213366D01*
X108494100Y-66067414D01*
X108397924Y-65942075D01*
X108272586Y-65845899D01*
X108126634Y-65785445D01*
X108126630Y-65785444D01*
X108046622Y-65774910D01*
X107982726Y-65746643D01*
X107949853Y-65703127D01*
X107945663Y-65693876D01*
X107928577Y-65630109D01*
X107873004Y-65533853D01*
X107849522Y-65493180D01*
X107849521Y-65493179D01*
X107849520Y-65493177D01*
X107737716Y-65381373D01*
X107737715Y-65381372D01*
X107733385Y-65377042D01*
X107733374Y-65377032D01*
X107195823Y-64839481D01*
X107195815Y-64839475D01*
X107058896Y-64760426D01*
X107058891Y-64760423D01*
X107020708Y-64750192D01*
X106906163Y-64719499D01*
X106906160Y-64719499D01*
X106748048Y-64719500D01*
X105969170Y-64719500D01*
X105969154Y-64719499D01*
X105961558Y-64719499D01*
X105803444Y-64719499D01*
X105696088Y-64748265D01*
X105650711Y-64760424D01*
X105650710Y-64760425D01*
X105600597Y-64789359D01*
X105600596Y-64789360D01*
X105557190Y-64814420D01*
X105513786Y-64839479D01*
X105513783Y-64839481D01*
X104851286Y-65501979D01*
X104851266Y-65501999D01*
X104849062Y-65504202D01*
X104816166Y-65526554D01*
X104816306Y-65526791D01*
X104812556Y-65529007D01*
X104810658Y-65530298D01*
X104809600Y-65530755D01*
X104808110Y-65531637D01*
X104806792Y-65531971D01*
X104802452Y-65533850D01*
X104802148Y-65533148D01*
X104790702Y-65536051D01*
X104787732Y-65537673D01*
X104785064Y-65537481D01*
X104740384Y-65548813D01*
X104687766Y-65533361D01*
X104687554Y-65533853D01*
X104683574Y-65532130D01*
X104681883Y-65531634D01*
X104680398Y-65530756D01*
X104680393Y-65530754D01*
X104522573Y-65484902D01*
X104522567Y-65484901D01*
X104485701Y-65482000D01*
X104485694Y-65482000D01*
X104054306Y-65482000D01*
X104054298Y-65482000D01*
X104017432Y-65484901D01*
X104017426Y-65484902D01*
X103859606Y-65530754D01*
X103859605Y-65530754D01*
X103859602Y-65530756D01*
X103858118Y-65531633D01*
X103856804Y-65531966D01*
X103852446Y-65533853D01*
X103852141Y-65533149D01*
X103790396Y-65548815D01*
X103737766Y-65533361D01*
X103737554Y-65533853D01*
X103733573Y-65532130D01*
X103731881Y-65531633D01*
X103730398Y-65530756D01*
X103730394Y-65530755D01*
X103730393Y-65530754D01*
X103572573Y-65484902D01*
X103572567Y-65484901D01*
X103535701Y-65482000D01*
X103535694Y-65482000D01*
X103104306Y-65482000D01*
X103104298Y-65482000D01*
X103067432Y-65484901D01*
X103067426Y-65484902D01*
X102909606Y-65530754D01*
X102909603Y-65530755D01*
X102768137Y-65614417D01*
X102768129Y-65614423D01*
X102651923Y-65730629D01*
X102651917Y-65730637D01*
X102568255Y-65872103D01*
X102568254Y-65872106D01*
X102522402Y-66029926D01*
X102522401Y-66029932D01*
X102519500Y-66066798D01*
X102519500Y-66456249D01*
X102499815Y-66523288D01*
X102447011Y-66569043D01*
X102377853Y-66578987D01*
X102363415Y-66576025D01*
X102339057Y-66569499D01*
X102180943Y-66569499D01*
X102076592Y-66597459D01*
X102006744Y-66595797D01*
X101948881Y-66556635D01*
X101921377Y-66492406D01*
X101920500Y-66477685D01*
X101920500Y-64374500D01*
X101940185Y-64307461D01*
X101992989Y-64261706D01*
X102044500Y-64250500D01*
X109864791Y-64250500D01*
X109931830Y-64270185D01*
G37*
%TD.AperFunction*%
%TA.AperFunction,Conductor*%
G36*
X135078498Y-81428150D02*
G01*
X135106106Y-81427817D01*
X135113301Y-81432027D01*
X135120504Y-81432830D01*
X135135538Y-81445040D01*
X135160292Y-81459526D01*
X136127408Y-82426643D01*
X137091662Y-83390897D01*
X137096003Y-83398847D01*
X137103256Y-83404278D01*
X137112486Y-83429034D01*
X137125147Y-83452220D01*
X137124500Y-83461255D01*
X137127666Y-83469745D01*
X137122047Y-83495559D01*
X137120163Y-83521912D01*
X137114340Y-83530970D01*
X137112807Y-83538016D01*
X137091653Y-83566268D01*
X137086904Y-83571016D01*
X137025577Y-83604495D01*
X136967139Y-83603101D01*
X136879057Y-83579499D01*
X136720943Y-83579499D01*
X136713347Y-83579499D01*
X136713331Y-83579500D01*
X135246257Y-83579500D01*
X135179218Y-83559815D01*
X135173900Y-83556075D01*
X135172836Y-83555461D01*
X135026765Y-83494957D01*
X135026760Y-83494955D01*
X134909362Y-83479500D01*
X134747845Y-83479500D01*
X134680806Y-83459815D01*
X134635051Y-83407011D01*
X134625107Y-83337853D01*
X134630139Y-83316496D01*
X134669505Y-83197697D01*
X134669506Y-83197690D01*
X134679999Y-83094986D01*
X134680000Y-83094973D01*
X134680000Y-82820000D01*
X133804000Y-82820000D01*
X133736961Y-82800315D01*
X133691206Y-82747511D01*
X133680000Y-82696000D01*
X133680000Y-82444000D01*
X133699685Y-82376961D01*
X133752489Y-82331206D01*
X133804000Y-82320000D01*
X134679999Y-82320000D01*
X134679999Y-82045027D01*
X134679998Y-82045014D01*
X134678563Y-82030965D01*
X134691332Y-81962272D01*
X134714239Y-81930681D01*
X134732205Y-81912716D01*
X134830520Y-81814401D01*
X134909577Y-81677469D01*
X134945587Y-81543077D01*
X134950500Y-81524743D01*
X134950500Y-81524108D01*
X134952582Y-81516081D01*
X134966760Y-81492392D01*
X134977924Y-81467144D01*
X134984450Y-81462837D01*
X134988465Y-81456130D01*
X135013195Y-81443869D01*
X135036241Y-81428662D01*
X135044059Y-81428567D01*
X135051064Y-81425095D01*
X135078498Y-81428150D01*
G37*
%TD.AperFunction*%
%TA.AperFunction,Conductor*%
G36*
X104048811Y-81500427D02*
G01*
X104048817Y-81500322D01*
X104052102Y-81500497D01*
X104052127Y-81500500D01*
X104426002Y-81500499D01*
X104493039Y-81520183D01*
X104538794Y-81572987D01*
X104550000Y-81624499D01*
X104550000Y-81705500D01*
X104530315Y-81772539D01*
X104477511Y-81818294D01*
X104426000Y-81829500D01*
X104240015Y-81829500D01*
X104178015Y-81812887D01*
X104121788Y-81780424D01*
X104121789Y-81780424D01*
X104092362Y-81772539D01*
X103985012Y-81743774D01*
X103925354Y-81707409D01*
X103894825Y-81644562D01*
X103903120Y-81575187D01*
X103947606Y-81521309D01*
X104014158Y-81500035D01*
X104017108Y-81500000D01*
X104040833Y-81500000D01*
X104048811Y-81500427D01*
G37*
%TD.AperFunction*%
%TA.AperFunction,Conductor*%
G36*
X133084858Y-79179685D02*
G01*
X133130613Y-79232489D01*
X133140557Y-79301647D01*
X133137595Y-79316088D01*
X133109499Y-79420943D01*
X133109499Y-79420945D01*
X133109499Y-79589046D01*
X133109500Y-79589059D01*
X133109500Y-80074645D01*
X133089815Y-80141684D01*
X133083876Y-80150131D01*
X133055464Y-80187157D01*
X132994956Y-80333237D01*
X132994955Y-80333239D01*
X132979500Y-80450638D01*
X132979500Y-80729363D01*
X132989236Y-80803317D01*
X132986600Y-80820216D01*
X132989035Y-80837147D01*
X132981328Y-80854021D01*
X132978470Y-80872352D01*
X132967115Y-80885144D01*
X132960010Y-80900703D01*
X132944404Y-80910732D01*
X132932089Y-80924607D01*
X132915322Y-80929421D01*
X132901232Y-80938477D01*
X132866297Y-80943500D01*
X132808413Y-80943500D01*
X132741374Y-80923815D01*
X132720732Y-80907181D01*
X132545004Y-80731453D01*
X132511519Y-80670130D01*
X132509746Y-80627586D01*
X132510500Y-80621861D01*
X132510499Y-80433999D01*
X132530183Y-80366961D01*
X132582987Y-80321206D01*
X132634499Y-80310000D01*
X132700000Y-80310000D01*
X132700000Y-79284000D01*
X132719685Y-79216961D01*
X132772489Y-79171206D01*
X132824000Y-79160000D01*
X133017819Y-79160000D01*
X133084858Y-79179685D01*
G37*
%TD.AperFunction*%
%TA.AperFunction,Conductor*%
G36*
X106973357Y-77230185D02*
G01*
X107019112Y-77282989D01*
X107029056Y-77352147D01*
X107009420Y-77403391D01*
X106997951Y-77420554D01*
X106997944Y-77420567D01*
X106937606Y-77566238D01*
X106937603Y-77566250D01*
X106906842Y-77720893D01*
X106906842Y-77878586D01*
X106937603Y-78033229D01*
X106937606Y-78033241D01*
X106997944Y-78178912D01*
X106997951Y-78178925D01*
X107085552Y-78310029D01*
X107088448Y-78313557D01*
X107090978Y-78318056D01*
X107093288Y-78319856D01*
X107100218Y-78334483D01*
X107109597Y-78351156D01*
X107111154Y-78355592D01*
X107147765Y-78492224D01*
X107170917Y-78532324D01*
X107176698Y-78542338D01*
X107176699Y-78542339D01*
X107226821Y-78629153D01*
X107226823Y-78629156D01*
X107345691Y-78748024D01*
X107345697Y-78748029D01*
X108256485Y-79658817D01*
X108256487Y-79658820D01*
X108290198Y-79692531D01*
X108328250Y-79730584D01*
X108361735Y-79791907D01*
X108359933Y-79817095D01*
X108356750Y-79861598D01*
X108328252Y-79905943D01*
X108316714Y-79917482D01*
X108291015Y-79943180D01*
X108229695Y-79976666D01*
X108203334Y-79979500D01*
X107874412Y-79979500D01*
X107807373Y-79959815D01*
X107786731Y-79943181D01*
X107211904Y-79368355D01*
X107211902Y-79368352D01*
X107093031Y-79249481D01*
X107093030Y-79249480D01*
X107002978Y-79197489D01*
X106956099Y-79170423D01*
X106803371Y-79129499D01*
X106645257Y-79129499D01*
X106637661Y-79129499D01*
X106637645Y-79129500D01*
X105774411Y-79129500D01*
X105744970Y-79120855D01*
X105714984Y-79114332D01*
X105709968Y-79110577D01*
X105707372Y-79109815D01*
X105686730Y-79093181D01*
X105526881Y-78933332D01*
X105493396Y-78872009D01*
X105490562Y-78845651D01*
X105490562Y-78554499D01*
X105510247Y-78487460D01*
X105563051Y-78441705D01*
X105614562Y-78430499D01*
X105915002Y-78430499D01*
X105915008Y-78430499D01*
X106017797Y-78419999D01*
X106184334Y-78364814D01*
X106333656Y-78272712D01*
X106457712Y-78148656D01*
X106549814Y-77999334D01*
X106604999Y-77832797D01*
X106615500Y-77730009D01*
X106615499Y-77334499D01*
X106635183Y-77267461D01*
X106687987Y-77221706D01*
X106739499Y-77210500D01*
X106906318Y-77210500D01*
X106973357Y-77230185D01*
G37*
%TD.AperFunction*%
%TA.AperFunction,Conductor*%
G36*
X121589334Y-78498244D02*
G01*
X121645267Y-78540116D01*
X121669684Y-78605580D01*
X121670000Y-78614426D01*
X121670000Y-78901578D01*
X121665979Y-78915271D01*
X121666811Y-78929519D01*
X121656331Y-78948127D01*
X121650315Y-78968617D01*
X121639529Y-78977962D01*
X121632526Y-78990399D01*
X121613649Y-79000388D01*
X121597511Y-79014372D01*
X121583385Y-79016403D01*
X121570770Y-79023079D01*
X121549489Y-79021276D01*
X121528353Y-79024316D01*
X121514032Y-79018273D01*
X121501150Y-79017183D01*
X121477564Y-79002887D01*
X121470397Y-78999864D01*
X121465886Y-78996394D01*
X121464711Y-78995219D01*
X121374675Y-78926133D01*
X121374392Y-78926015D01*
X121367644Y-78920825D01*
X121355712Y-78904443D01*
X121346996Y-78895722D01*
X121344602Y-78897560D01*
X121299176Y-78838359D01*
X121273982Y-78773190D01*
X121288021Y-78704745D01*
X121309865Y-78675198D01*
X121458321Y-78526742D01*
X121519642Y-78493260D01*
X121589334Y-78498244D01*
G37*
%TD.AperFunction*%
%TA.AperFunction,Conductor*%
G36*
X109692853Y-77758764D02*
G01*
X109732623Y-77773597D01*
X109732627Y-77773598D01*
X109792155Y-77779999D01*
X109792172Y-77780000D01*
X109866573Y-77780000D01*
X109869334Y-77778492D01*
X109890454Y-77780000D01*
X109891362Y-77780000D01*
X109891362Y-77780064D01*
X109939026Y-77783468D01*
X109986436Y-77815133D01*
X109996048Y-77825451D01*
X110009480Y-77848716D01*
X110121284Y-77960520D01*
X110121286Y-77960521D01*
X110129906Y-77969141D01*
X110289374Y-78128609D01*
X110322859Y-78189932D01*
X110325693Y-78216290D01*
X110325693Y-78291186D01*
X110306008Y-78358225D01*
X110253204Y-78403980D01*
X110201693Y-78415186D01*
X110026888Y-78415186D01*
X109997447Y-78406541D01*
X109967461Y-78400018D01*
X109962445Y-78396263D01*
X109959849Y-78395501D01*
X109939207Y-78378867D01*
X109838799Y-78278459D01*
X109838797Y-78278456D01*
X109719926Y-78159585D01*
X109719925Y-78159584D01*
X109629712Y-78107500D01*
X109587080Y-78082886D01*
X109561399Y-78063179D01*
X109512227Y-78014006D01*
X109514021Y-78012211D01*
X109480931Y-77963614D01*
X109479073Y-77893769D01*
X109511253Y-77837851D01*
X109561842Y-77787262D01*
X109623161Y-77753780D01*
X109692853Y-77758764D01*
G37*
%TD.AperFunction*%
%TA.AperFunction,Conductor*%
G36*
X112856942Y-73670185D02*
G01*
X112877584Y-73686819D01*
X115807026Y-76616261D01*
X115840511Y-76677584D01*
X115835527Y-76747276D01*
X115793655Y-76803209D01*
X115728191Y-76827626D01*
X115659918Y-76812774D01*
X115652223Y-76807764D01*
X115647113Y-76804814D01*
X115507113Y-76746824D01*
X115507111Y-76746823D01*
X115356878Y-76727046D01*
X115356876Y-76727046D01*
X115206643Y-76746823D01*
X115206641Y-76746824D01*
X115066643Y-76804813D01*
X114976606Y-76873901D01*
X114976601Y-76873905D01*
X114817205Y-77033301D01*
X114817201Y-77033306D01*
X114743166Y-77129792D01*
X114740761Y-77127946D01*
X114717693Y-77151014D01*
X114719539Y-77153419D01*
X114623054Y-77227453D01*
X114466273Y-77384234D01*
X114404950Y-77417718D01*
X114335258Y-77412734D01*
X114290911Y-77384233D01*
X113951859Y-77045181D01*
X113951851Y-77045175D01*
X113814932Y-76966125D01*
X113814926Y-76966123D01*
X113805420Y-76963576D01*
X113805420Y-76963575D01*
X113805417Y-76963575D01*
X113801170Y-76962437D01*
X113790364Y-76959541D01*
X113734783Y-76927449D01*
X113647732Y-76840398D01*
X113614247Y-76779075D01*
X113613807Y-76776967D01*
X113609737Y-76756503D01*
X113572294Y-76666106D01*
X113549397Y-76610827D01*
X113549390Y-76610814D01*
X113461789Y-76479711D01*
X113461786Y-76479707D01*
X113350292Y-76368213D01*
X113350288Y-76368210D01*
X113219185Y-76280609D01*
X113219172Y-76280602D01*
X113073501Y-76220264D01*
X113073489Y-76220261D01*
X112918845Y-76189500D01*
X112918842Y-76189500D01*
X112761158Y-76189500D01*
X112736223Y-76194459D01*
X112700696Y-76201526D01*
X112692791Y-76200818D01*
X112685357Y-76203592D01*
X112658489Y-76197748D01*
X112631104Y-76195297D01*
X112623097Y-76190050D01*
X112617083Y-76188742D01*
X112588846Y-76167605D01*
X112588831Y-76167595D01*
X112580086Y-76158850D01*
X112580083Y-76158848D01*
X112159590Y-75738355D01*
X112159588Y-75738352D01*
X112040717Y-75619481D01*
X112040716Y-75619480D01*
X111943154Y-75563153D01*
X111903785Y-75540423D01*
X111751057Y-75499499D01*
X111751055Y-75499499D01*
X111747811Y-75499072D01*
X111745277Y-75497950D01*
X111743206Y-75497396D01*
X111743292Y-75497072D01*
X111683915Y-75470803D01*
X111645446Y-75412478D01*
X111640000Y-75376133D01*
X111640000Y-75372172D01*
X111639999Y-75372155D01*
X111633598Y-75312627D01*
X111633596Y-75312620D01*
X111583354Y-75177913D01*
X111583350Y-75177906D01*
X111497190Y-75062813D01*
X111382087Y-74976646D01*
X111365000Y-74970273D01*
X111365000Y-74971000D01*
X111345315Y-75038039D01*
X111292511Y-75083794D01*
X111241000Y-75095000D01*
X110719500Y-75095000D01*
X110710814Y-75092449D01*
X110701854Y-75093738D01*
X110677815Y-75082759D01*
X110652461Y-75075315D01*
X110646533Y-75068473D01*
X110638298Y-75064713D01*
X110624009Y-75042479D01*
X110606706Y-75022511D01*
X110604418Y-75011997D01*
X110600523Y-75005936D01*
X110595500Y-74971001D01*
X110595499Y-74819001D01*
X110615183Y-74751961D01*
X110667987Y-74706206D01*
X110719499Y-74695000D01*
X111227010Y-74695000D01*
X111227011Y-74694998D01*
X111219557Y-74638372D01*
X111219555Y-74638366D01*
X111159100Y-74492414D01*
X111062924Y-74367075D01*
X110937586Y-74270899D01*
X110791631Y-74210444D01*
X110704999Y-74199037D01*
X110671258Y-74228628D01*
X110607876Y-74258030D01*
X110538659Y-74248497D01*
X110485585Y-74203057D01*
X110465502Y-74136136D01*
X110465500Y-74135399D01*
X110465500Y-73774500D01*
X110485185Y-73707461D01*
X110537989Y-73661706D01*
X110589500Y-73650500D01*
X112789903Y-73650500D01*
X112856942Y-73670185D01*
G37*
%TD.AperFunction*%
%TA.AperFunction,Conductor*%
G36*
X108130955Y-76486045D02*
G01*
X108154114Y-76484254D01*
X108172587Y-76491022D01*
X108177269Y-76491582D01*
X108180486Y-76493916D01*
X108187254Y-76496396D01*
X108323602Y-76569825D01*
X108363181Y-76603511D01*
X108416718Y-76673282D01*
X108494056Y-76732625D01*
X108535257Y-76789052D01*
X108539412Y-76858798D01*
X108505199Y-76919719D01*
X108443482Y-76952471D01*
X108418568Y-76955000D01*
X108249040Y-76955000D01*
X108229518Y-76977260D01*
X108200351Y-76995759D01*
X108171226Y-77014477D01*
X108170727Y-77014548D01*
X108170516Y-77014683D01*
X108136291Y-77019500D01*
X107973752Y-77019500D01*
X107973736Y-77019499D01*
X107966140Y-77019499D01*
X107944785Y-77019499D01*
X107877746Y-76999814D01*
X107831991Y-76947010D01*
X107822047Y-76877852D01*
X107851072Y-76814296D01*
X107857104Y-76807818D01*
X107888015Y-76776907D01*
X107920520Y-76744402D01*
X107928140Y-76731204D01*
X107975323Y-76649481D01*
X107975324Y-76649479D01*
X107999574Y-76607477D01*
X107999574Y-76607475D01*
X107999577Y-76607471D01*
X108008686Y-76573474D01*
X108020772Y-76553644D01*
X108028763Y-76531837D01*
X108038614Y-76524372D01*
X108045047Y-76513819D01*
X108065939Y-76503669D01*
X108084453Y-76489642D01*
X108096775Y-76488688D01*
X108107893Y-76483288D01*
X108130955Y-76486045D01*
G37*
%TD.AperFunction*%
%TA.AperFunction,Conductor*%
G36*
X102125703Y-76199228D02*
G01*
X102150039Y-76227844D01*
X102162684Y-76248345D01*
X102286655Y-76372316D01*
X102286659Y-76372319D01*
X102289656Y-76374168D01*
X102291279Y-76375972D01*
X102292323Y-76376798D01*
X102292181Y-76376976D01*
X102336381Y-76426116D01*
X102347602Y-76495079D01*
X102319759Y-76559161D01*
X102289661Y-76585241D01*
X102286349Y-76587283D01*
X102286343Y-76587288D01*
X102162287Y-76711344D01*
X102150038Y-76731204D01*
X102098090Y-76777928D01*
X102029127Y-76789149D01*
X101965045Y-76761305D01*
X101926190Y-76703236D01*
X101920500Y-76666106D01*
X101920500Y-76292941D01*
X101940185Y-76225902D01*
X101992989Y-76180147D01*
X102062147Y-76170203D01*
X102125703Y-76199228D01*
G37*
%TD.AperFunction*%
%TA.AperFunction,Conductor*%
G36*
X103706539Y-75299685D02*
G01*
X103752294Y-75352489D01*
X103763500Y-75404000D01*
X103763500Y-75656000D01*
X103743815Y-75723039D01*
X103691011Y-75768794D01*
X103639500Y-75780000D01*
X103354000Y-75780000D01*
X103286961Y-75760315D01*
X103241206Y-75707511D01*
X103230000Y-75656000D01*
X103230000Y-75404000D01*
X103249685Y-75336961D01*
X103302489Y-75291206D01*
X103354000Y-75280000D01*
X103639500Y-75280000D01*
X103706539Y-75299685D01*
G37*
%TD.AperFunction*%
%TA.AperFunction,Conductor*%
G36*
X106689265Y-70709045D02*
G01*
X106692146Y-70708631D01*
X106694908Y-70709227D01*
X106696114Y-70709267D01*
X106702681Y-70710429D01*
X106744796Y-70722665D01*
X106780819Y-70725500D01*
X106787811Y-70725499D01*
X106798115Y-70727324D01*
X106822148Y-70739255D01*
X106847578Y-70747819D01*
X106852969Y-70754557D01*
X106860697Y-70758394D01*
X106874464Y-70781423D01*
X106891227Y-70802376D01*
X106892119Y-70810958D01*
X106896547Y-70818365D01*
X106900500Y-70849426D01*
X106900500Y-74630062D01*
X106880815Y-74697101D01*
X106864181Y-74717743D01*
X106687598Y-74894326D01*
X106626275Y-74927811D01*
X106556583Y-74922827D01*
X106500650Y-74880955D01*
X106494378Y-74871742D01*
X106457315Y-74811653D01*
X106452839Y-74805993D01*
X106454739Y-74804490D01*
X106426774Y-74753275D01*
X106431758Y-74683583D01*
X106448671Y-74652609D01*
X106493796Y-74592331D01*
X106544091Y-74457483D01*
X106550500Y-74397873D01*
X106550499Y-72802128D01*
X106544091Y-72742517D01*
X106541093Y-72734480D01*
X106493797Y-72607671D01*
X106493793Y-72607664D01*
X106407547Y-72492455D01*
X106407544Y-72492452D01*
X106292335Y-72406206D01*
X106292328Y-72406202D01*
X106238650Y-72386182D01*
X106182716Y-72344311D01*
X106158299Y-72278847D01*
X106173150Y-72210574D01*
X106222555Y-72161168D01*
X106238650Y-72153818D01*
X106292328Y-72133797D01*
X106292327Y-72133797D01*
X106292331Y-72133796D01*
X106407546Y-72047546D01*
X106493796Y-71932331D01*
X106544091Y-71797483D01*
X106550500Y-71737873D01*
X106550499Y-70831368D01*
X106556074Y-70812379D01*
X106556716Y-70792597D01*
X106565716Y-70779543D01*
X106570183Y-70764330D01*
X106585141Y-70751368D01*
X106596376Y-70735074D01*
X106611003Y-70728958D01*
X106622987Y-70718575D01*
X106642578Y-70715757D01*
X106660839Y-70708124D01*
X106689265Y-70709045D01*
G37*
%TD.AperFunction*%
%TA.AperFunction,Conductor*%
G36*
X102125703Y-70330384D02*
G01*
X102132181Y-70336416D01*
X102193181Y-70397416D01*
X102226666Y-70458739D01*
X102229500Y-70485097D01*
X102229500Y-71737870D01*
X102229501Y-71737876D01*
X102235908Y-71797483D01*
X102286202Y-71932328D01*
X102286206Y-71932335D01*
X102372452Y-72047544D01*
X102372455Y-72047547D01*
X102487664Y-72133793D01*
X102487671Y-72133797D01*
X102541349Y-72153818D01*
X102597283Y-72195689D01*
X102621700Y-72261154D01*
X102606848Y-72329427D01*
X102557443Y-72378832D01*
X102541349Y-72386182D01*
X102487671Y-72406202D01*
X102487664Y-72406206D01*
X102372455Y-72492452D01*
X102372452Y-72492455D01*
X102286206Y-72607664D01*
X102286202Y-72607671D01*
X102235908Y-72742517D01*
X102229501Y-72802116D01*
X102229501Y-72802123D01*
X102229500Y-72802135D01*
X102229500Y-74397870D01*
X102229501Y-74397876D01*
X102235909Y-74457484D01*
X102284380Y-74587445D01*
X102285441Y-74602286D01*
X102291310Y-74615962D01*
X102287883Y-74636434D01*
X102289364Y-74657136D01*
X102282037Y-74671360D01*
X102279776Y-74684873D01*
X102262763Y-74708783D01*
X102260016Y-74714117D01*
X102136318Y-74850398D01*
X102115886Y-74862872D01*
X102098089Y-74878880D01*
X102086610Y-74880747D01*
X102076685Y-74886808D01*
X102052752Y-74886256D01*
X102029126Y-74890101D01*
X102018460Y-74885466D01*
X102006834Y-74885199D01*
X101986999Y-74871796D01*
X101965045Y-74862257D01*
X101958577Y-74852591D01*
X101948941Y-74846080D01*
X101939501Y-74824083D01*
X101926189Y-74804188D01*
X101923537Y-74786881D01*
X101921388Y-74781873D01*
X101922109Y-74777562D01*
X101920500Y-74767058D01*
X101920500Y-70424097D01*
X101940185Y-70357058D01*
X101992989Y-70311303D01*
X102062147Y-70301359D01*
X102125703Y-70330384D01*
G37*
%TD.AperFunction*%
%TD*%
M02*
