M48
; DRILL file {KiCad 9.0.3} date 2025-11-29T09:23:13-0600
; FORMAT={-:-/ absolute / metric / decimal}
; #@! TF.CreationDate,2025-11-29T09:23:13-06:00
; #@! TF.GenerationSoftware,Kicad,Pcbnew,9.0.3
; #@! TF.FileFunction,Plated,1,2,PTH
FMAT,2
METRIC
; #@! TA.AperFunction,Plated,PTH,ViaDrill
T1C0.200
; #@! TA.AperFunction,Plated,PTH,ViaDrill
T2C0.300
; #@! TA.AperFunction,Plated,PTH,ComponentDrill
T3C0.600
; #@! TA.AperFunction,Plated,PTH,ComponentDrill
T4C0.700
; #@! TA.AperFunction,Plated,PTH,ComponentDrill
T5C1.000
; #@! TA.AperFunction,Plated,PTH,ComponentDrill
T6C1.200
%
G90
G05
T1
X112.33Y-91.56
X114.51Y-92.43
X123.429Y-93.538
X123.795Y-92.525
X131.59Y-85.015
X131.921Y-85.966
X132.008Y-83.901
X133.01Y-85.84
X134.684Y-85.01
X136.21Y-85.34
T2
X103.42Y-69.69
X103.7Y-88.36
X104.55Y-80.65
X104.65Y-88.769
X104.65Y-90.809
X105.149Y-91.05
X106.33Y-66.42
X106.73Y-90.75
X107.56Y-88.34
X107.707Y-77.8
X107.87Y-68.27
X108.245Y-76.247
X109.006Y-78.64
X109.32Y-88.35
X110.242Y-78.08
X110.589Y-80.926
X111.039Y-89.6
X111.062Y-88.114
X111.443Y-79.942
X111.56Y-78.171
X111.77Y-89.24
X112.419Y-79.013
X112.84Y-76.99
X112.889Y-77.805
X113.148Y-78.576
X113.63Y-94.06
X114.936Y-84.697
X115.174Y-80.276
X115.806Y-89.171
X116.252Y-91.429
X116.57Y-79.05
X116.72Y-74.319
X117.145Y-97.32
X117.275Y-74.962
X117.45Y-90.06
X118.05Y-77.13
X118.12Y-75.058
X118.405Y-89.498
X119.363Y-95.054
X120.17Y-75.92
X120.424Y-86.723
X120.9Y-103.29
X121.43Y-90.285
X121.59Y-78.8
X121.77Y-95.24
X122.03Y-91.524
X122.92Y-85.09
X123.11Y-75.32
X123.235Y-76.161
X123.34Y-73.16
X123.349Y-95.95
X123.43Y-90.84
X124.273Y-99.974
X124.59Y-79.8
X124.679Y-80.645
X124.682Y-100.719
X125.66Y-92.35
X126.139Y-100.405
X126.23Y-87.0
X126.341Y-84.989
X126.399Y-90.963
X126.89Y-89.43
X126.991Y-99.448
X127.017Y-102.167
X127.093Y-91.683
X128.504Y-97.124
X129.488Y-92.267
X129.53Y-98.42
X129.65Y-75.71
X129.969Y-86.27
X130.2Y-88.51
X130.35Y-76.25
X130.49Y-94.89
X130.52Y-103.869
X130.937Y-97.743
X131.457Y-102.888
X131.48Y-98.93
X131.885Y-87.589
X131.97Y-104.32
X132.09Y-92.89
X132.449Y-101.4
X132.46Y-90.35
X132.483Y-97.261
X132.72Y-93.4
X132.986Y-101.999
X133.034Y-80.944
X133.15Y-95.65
X133.75Y-101.208
X134.237Y-102.587
X134.29Y-99.09
X134.36Y-100.55
X134.67Y-97.8
X134.96Y-82.44
X134.987Y-87.615
X135.0Y-90.37
X136.74Y-102.58
X137.435Y-86.972
X137.61Y-84.18
T4
X112.36Y-68.96
X118.14Y-68.96
T5
X104.06Y-98.0
X104.07Y-101.88
X106.6Y-98.0
X106.61Y-101.88
X109.14Y-98.0
X109.15Y-101.88
X126.64Y-68.31
X134.64Y-68.31
T6
X137.3Y-94.31
X137.3Y-96.85
T3
G00X110.93Y-65.58
M15
G01X110.93Y-64.98
M16
G05
G00X110.93Y-69.94
M15
G01X110.93Y-69.04
M16
G05
G00X119.57Y-65.58
M15
G01X119.57Y-64.98
M16
G05
G00X119.57Y-69.94
M15
G01X119.57Y-69.04
M16
G05
M30
