%TF.GenerationSoftware,KiCad,Pcbnew,9.0.3*%
%TF.CreationDate,2025-11-29T09:23:08-06:00*%
%TF.ProjectId,zenith,7a656e69-7468-42e6-9b69-6361645f7063,rev?*%
%TF.SameCoordinates,Original*%
%TF.FileFunction,Copper,L2,Bot*%
%TF.FilePolarity,Positive*%
%FSLAX46Y46*%
G04 Gerber Fmt 4.6, Leading zero omitted, Abs format (unit mm)*
G04 Created by KiCad (PCBNEW 9.0.3) date 2025-11-29 09:23:08*
%MOMM*%
%LPD*%
G01*
G04 APERTURE LIST*
G04 Aperture macros list*
%AMRoundRect*
0 Rectangle with rounded corners*
0 $1 Rounding radius*
0 $2 $3 $4 $5 $6 $7 $8 $9 X,Y pos of 4 corners*
0 Add a 4 corners polygon primitive as box body*
4,1,4,$2,$3,$4,$5,$6,$7,$8,$9,$2,$3,0*
0 Add four circle primitives for the rounded corners*
1,1,$1+$1,$2,$3*
1,1,$1+$1,$4,$5*
1,1,$1+$1,$6,$7*
1,1,$1+$1,$8,$9*
0 Add four rect primitives between the rounded corners*
20,1,$1+$1,$2,$3,$4,$5,0*
20,1,$1+$1,$4,$5,$6,$7,0*
20,1,$1+$1,$6,$7,$8,$9,0*
20,1,$1+$1,$8,$9,$2,$3,0*%
G04 Aperture macros list end*
%TA.AperFunction,ComponentPad*%
%ADD10RoundRect,0.250000X0.750000X-0.750000X0.750000X0.750000X-0.750000X0.750000X-0.750000X-0.750000X0*%
%TD*%
%TA.AperFunction,ComponentPad*%
%ADD11C,2.000000*%
%TD*%
%TA.AperFunction,ComponentPad*%
%ADD12R,1.700000X1.700000*%
%TD*%
%TA.AperFunction,ComponentPad*%
%ADD13C,1.700000*%
%TD*%
%TA.AperFunction,ComponentPad*%
%ADD14C,1.000000*%
%TD*%
%TA.AperFunction,ComponentPad*%
%ADD15C,0.700000*%
%TD*%
%TA.AperFunction,ComponentPad*%
%ADD16O,1.100000X2.000000*%
%TD*%
%TA.AperFunction,ComponentPad*%
%ADD17O,1.200000X1.800000*%
%TD*%
%TA.AperFunction,ViaPad*%
%ADD18C,0.600000*%
%TD*%
%TA.AperFunction,ViaPad*%
%ADD19C,0.400000*%
%TD*%
%TA.AperFunction,Conductor*%
%ADD20C,0.200000*%
%TD*%
%TA.AperFunction,Conductor*%
%ADD21C,0.400000*%
%TD*%
G04 APERTURE END LIST*
D10*
%TO.P,J1,1,Pin_1*%
%TO.N,+BAT*%
X137300000Y-96850000D03*
D11*
%TO.P,J1,2,Pin_2*%
%TO.N,BAT-*%
X137300000Y-94310000D03*
%TD*%
D12*
%TO.P,SERVO HEADERS,1,Pin_1*%
%TO.N,+5V*%
X109150000Y-101880000D03*
D13*
%TO.P,SERVO HEADERS,2,Pin_2*%
%TO.N,/SERVO2*%
X106610000Y-101880000D03*
%TO.P,SERVO HEADERS,3,Pin_3*%
%TO.N,GND*%
X104070000Y-101880000D03*
%TD*%
D14*
%TO.P,SD Card,*%
%TO.N,*%
X134640000Y-68310000D03*
X126640000Y-68310000D03*
%TD*%
D12*
%TO.P,J2,1,Pin_1*%
%TO.N,+5V*%
X109140000Y-98000000D03*
D13*
%TO.P,J2,2,Pin_2*%
%TO.N,/SERVO1*%
X106600000Y-98000000D03*
%TO.P,J2,3,Pin_3*%
%TO.N,GND*%
X104060000Y-98000000D03*
%TD*%
D15*
%TO.P,USB1,*%
%TO.N,*%
X118140000Y-68960000D03*
X112360000Y-68960000D03*
D16*
%TO.P,USB1,13,SHELL*%
%TO.N,GND*%
X119570000Y-69490000D03*
D17*
X119570000Y-65280000D03*
D16*
%TO.P,USB1,14,SHELL*%
X110930000Y-69490000D03*
D17*
X110930000Y-65280000D03*
%TD*%
D18*
%TO.N,VSYS*%
X137610000Y-84180000D03*
X107870000Y-68270000D03*
X129530000Y-98419998D03*
X126341075Y-84989367D03*
X127016930Y-102166908D03*
X132720000Y-93400000D03*
%TO.N,BAT-*%
X133150000Y-95650000D03*
D19*
%TO.N,GND*%
X114510000Y-92430000D03*
D18*
X126138832Y-100405177D03*
D19*
X123429087Y-93538377D03*
D18*
X108245000Y-76247076D03*
X126230000Y-87000000D03*
D19*
X112330000Y-91560000D03*
X136210000Y-85340000D03*
D18*
X106730000Y-90750000D03*
X120170000Y-75920000D03*
X119362885Y-95053903D03*
D19*
X133009852Y-85840002D03*
D18*
X104650000Y-88769000D03*
X106330000Y-66420000D03*
X110241726Y-78080253D03*
X129969000Y-86270000D03*
X134670000Y-97800000D03*
X134960000Y-82440000D03*
X111560000Y-78170711D03*
X121590000Y-78800000D03*
X126991206Y-99447755D03*
D19*
X131921000Y-85966000D03*
D18*
X130490000Y-94890000D03*
X124682083Y-100719196D03*
D19*
X131590000Y-85014998D03*
D18*
X137435000Y-86971792D03*
X104650000Y-90809000D03*
X105148712Y-91049999D03*
D19*
X134684000Y-85010000D03*
X123795247Y-92525199D03*
D18*
X123349000Y-95950000D03*
X133034379Y-80944001D03*
D19*
X132008394Y-83901000D03*
D18*
X103420000Y-69689998D03*
%TO.N,+BAT*%
X128504375Y-97124385D03*
X130937259Y-97743141D03*
%TO.N,Net-(U3-BTST)*%
X132483467Y-97260518D03*
X131480002Y-98930000D03*
%TO.N,+5V*%
X130200000Y-88510000D03*
X107560000Y-88340000D03*
%TO.N,+3.3V*%
X118050000Y-77130000D03*
X118119692Y-75057877D03*
X122920000Y-85090000D03*
X123430000Y-90840000D03*
%TO.N,/HSE_IN*%
X111062260Y-88113857D03*
X111039374Y-89600475D03*
%TO.N,/RESET*%
X113630000Y-94060000D03*
X111770000Y-89240000D03*
%TO.N,/SD_DAT3*%
X123110000Y-75320000D03*
X112840000Y-76990000D03*
%TO.N,/SD_DAT0*%
X124678700Y-80645362D03*
X130350000Y-76250000D03*
%TO.N,/SD_DAT1*%
X124590000Y-79800000D03*
X129650000Y-75710000D03*
%TO.N,/SD_CLK*%
X112889000Y-77805303D03*
X116719620Y-74319000D03*
%TO.N,/SD_CD*%
X123340000Y-73160000D03*
X112419239Y-79012843D03*
%TO.N,/SD_DAT2*%
X116570000Y-79050000D03*
X123235215Y-76160729D03*
%TO.N,/SD_CMD*%
X117275067Y-74962415D03*
X113148218Y-78575700D03*
%TO.N,Net-(D1-K)*%
X136740000Y-102580000D03*
X121770000Y-95240000D03*
%TO.N,Net-(U1-L1)*%
X134986504Y-87615268D03*
X135000000Y-90370000D03*
%TO.N,Net-(U1-L2)*%
X132460000Y-90350000D03*
X131884997Y-87589000D03*
%TO.N,Net-(U5-VDDA)*%
X117450000Y-90060000D03*
X115805849Y-89170925D03*
%TO.N,/BQ_INT*%
X131970000Y-104320000D03*
X115173724Y-80276471D03*
%TO.N,/I2C_SCL*%
X110588878Y-80925835D03*
X130520000Y-103869000D03*
X107707342Y-77799740D03*
X131456811Y-102888333D03*
X134360000Y-100550000D03*
X111443132Y-79941610D03*
%TO.N,/I2C_SDA*%
X133749900Y-101207818D03*
X120900000Y-103290000D03*
X109006246Y-78640104D03*
X134236527Y-102587264D03*
%TO.N,Net-(U3-ILIM)*%
X132448541Y-101399878D03*
X124272614Y-99974320D03*
%TO.N,Net-(U3-TS)*%
X132090000Y-92890000D03*
X132985971Y-101999381D03*
X129488346Y-92266875D03*
X134290000Y-99090000D03*
%TO.N,/BOOT*%
X117145002Y-97320000D03*
X114936048Y-84696808D03*
%TO.N,/ICM_SDI*%
X126890000Y-89430000D03*
X127092602Y-91682603D03*
%TO.N,/ICM_SD0*%
X126398634Y-90963018D03*
X121429889Y-90285085D03*
%TO.N,/ICM_INT1*%
X122029944Y-91523508D03*
X120424131Y-86723471D03*
%TO.N,/ICM_SCK*%
X125660000Y-92350000D03*
X118405448Y-89498212D03*
%TO.N,Net-(LED1-DO)*%
X104550000Y-80650000D03*
X103699998Y-88360000D03*
%TO.N,/LED_DIN*%
X116252478Y-91429001D03*
X109320000Y-88350000D03*
%TD*%
D20*
%TO.N,VSYS*%
X107870000Y-68270000D02*
X109270000Y-66870000D01*
X126754556Y-83344556D02*
X126754556Y-84575886D01*
X123960000Y-80845901D02*
X124409461Y-81295362D01*
X138900000Y-91010000D02*
X135110000Y-91010000D01*
X138900000Y-85470000D02*
X138900000Y-91010000D01*
X123380000Y-66870000D02*
X123960000Y-67450000D01*
X126754556Y-84575886D02*
X126341075Y-84989367D01*
X137610000Y-84180000D02*
X138900000Y-85470000D01*
X124409461Y-81295362D02*
X124705362Y-81295362D01*
X135110000Y-91010000D02*
X132720000Y-93400000D01*
X129530000Y-98419998D02*
X129530000Y-99653838D01*
X129530000Y-99653838D02*
X127016930Y-102166908D01*
X109270000Y-66870000D02*
X123380000Y-66870000D01*
X123960000Y-67450000D02*
X123960000Y-80845901D01*
X124705362Y-81295362D02*
X126754556Y-83344556D01*
%TO.N,BAT-*%
X135960000Y-95650000D02*
X133150000Y-95650000D01*
X137300000Y-94310000D02*
X135960000Y-95650000D01*
%TO.N,GND*%
X110332184Y-78170711D02*
X110241726Y-78080253D01*
X133034379Y-80944001D02*
X133464001Y-80944001D01*
X132714507Y-86135347D02*
X132090347Y-86135347D01*
X106430001Y-91049999D02*
X106730000Y-90750000D01*
D21*
X124682083Y-100719196D02*
X125108968Y-100292311D01*
X126991206Y-99447755D02*
X126991206Y-99552803D01*
D20*
X132008394Y-83901000D02*
X132008394Y-84596604D01*
X123429087Y-92891359D02*
X123795247Y-92525199D01*
X136733208Y-86270000D02*
X137435000Y-86971792D01*
X133464001Y-80944001D02*
X134960000Y-82440000D01*
X104650000Y-88769000D02*
X104650000Y-90809000D01*
D21*
X126991206Y-99552803D02*
X126138832Y-100405177D01*
X125108968Y-100292311D02*
X126025966Y-100292311D01*
D20*
X108408549Y-76247076D02*
X110241726Y-78080253D01*
X111560000Y-78170711D02*
X110332184Y-78170711D01*
X105148712Y-91049999D02*
X106430001Y-91049999D01*
X123429087Y-93538377D02*
X123429087Y-92891359D01*
X112330000Y-91560000D02*
X113200000Y-92430000D01*
X108245000Y-76247076D02*
X108408549Y-76247076D01*
X103420000Y-69689998D02*
X103420000Y-69330000D01*
X113200000Y-92430000D02*
X114510000Y-92430000D01*
X132008394Y-84596604D02*
X131590000Y-85014998D01*
X134684000Y-85010000D02*
X135880000Y-85010000D01*
X103420000Y-69330000D02*
X106330000Y-66420000D01*
X133009852Y-85840002D02*
X132714507Y-86135347D01*
X129969000Y-86270000D02*
X136733208Y-86270000D01*
D21*
X126025966Y-100292311D02*
X126138832Y-100405177D01*
D20*
X132090347Y-86135347D02*
X131921000Y-85966000D01*
X135880000Y-85010000D02*
X136210000Y-85340000D01*
%TO.N,+BAT*%
X131402665Y-97492665D02*
X131141704Y-97753626D01*
X131141704Y-97753626D02*
X130947744Y-97753626D01*
X132752706Y-96610518D02*
X132284812Y-96610518D01*
X131402665Y-97492665D02*
X131379998Y-97469998D01*
X132992188Y-96850000D02*
X132752706Y-96610518D01*
X132284812Y-96610518D02*
X131402665Y-97492665D01*
X130947744Y-97753626D02*
X130937259Y-97743141D01*
X128849988Y-97469998D02*
X128504375Y-97124385D01*
X137300000Y-96850000D02*
X132992188Y-96850000D01*
X131379998Y-97469998D02*
X128849988Y-97469998D01*
%TO.N,Net-(U3-BTST)*%
X131480002Y-98263983D02*
X132483467Y-97260518D01*
X131480002Y-98930000D02*
X131480002Y-98263983D01*
%TO.N,Net-(U1-Vaux)*%
X133365632Y-84207261D02*
X133365632Y-84713330D01*
X133365632Y-84713330D02*
X132444615Y-85634347D01*
%TO.N,+5V*%
X130200000Y-88510000D02*
X129620000Y-88510000D01*
X107315685Y-88584315D02*
X107315685Y-90416446D01*
X107560000Y-88340000D02*
X107315685Y-88584315D01*
X105915685Y-91480000D02*
X105449000Y-91946685D01*
X108852240Y-101880000D02*
X109150000Y-101880000D01*
X107315685Y-90416446D02*
X107380000Y-90480761D01*
X128861280Y-91818959D02*
X127700237Y-92980002D01*
X125149998Y-92980002D02*
X122730000Y-95400000D01*
X127700237Y-92980002D02*
X125149998Y-92980002D01*
X129620000Y-88510000D02*
X128861280Y-89268720D01*
X122610000Y-93920000D02*
X122240057Y-93920000D01*
X122730000Y-95400000D02*
X122610000Y-95280000D01*
X107380000Y-90480761D02*
X107380000Y-91415685D01*
X122240057Y-93920000D02*
X118160057Y-98000000D01*
X105449000Y-98476760D02*
X108852240Y-101880000D01*
X118160057Y-98000000D02*
X109140000Y-98000000D01*
X128861280Y-89268720D02*
X128861280Y-91818959D01*
X107380000Y-91415685D02*
X107315685Y-91480000D01*
X122610000Y-95280000D02*
X122610000Y-93920000D01*
X105449000Y-91946685D02*
X105449000Y-98476760D01*
X107315685Y-91480000D02*
X105915685Y-91480000D01*
%TO.N,+3.3V*%
X123430000Y-88660000D02*
X123430000Y-90840000D01*
X121400000Y-86630000D02*
X123430000Y-88660000D01*
X118050000Y-77130000D02*
X118050000Y-75127569D01*
X122920000Y-85090000D02*
X122920000Y-85110000D01*
X122920000Y-85110000D02*
X121400000Y-86630000D01*
X118050000Y-75127569D02*
X118119692Y-75057877D01*
%TO.N,/HSE_IN*%
X111039374Y-88136743D02*
X111039374Y-89600475D01*
X111062260Y-88113857D02*
X111039374Y-88136743D01*
%TO.N,/RESET*%
X113630000Y-94060000D02*
X115060000Y-92630000D01*
X113630000Y-91100000D02*
X111770000Y-89240000D01*
X115060000Y-92202182D02*
X114737818Y-91880000D01*
X115060000Y-92630000D02*
X115060000Y-92202182D01*
X113975685Y-91880000D02*
X113630000Y-91534315D01*
X113630000Y-91534315D02*
X113630000Y-91100000D01*
X114737818Y-91880000D02*
X113975685Y-91880000D01*
%TO.N,/SD_DAT3*%
X121459000Y-73669000D02*
X123110000Y-75320000D01*
X112840000Y-76990000D02*
X116161000Y-73669000D01*
X116161000Y-73669000D02*
X121459000Y-73669000D01*
%TO.N,/SD_DAT0*%
X126320000Y-80280000D02*
X125044062Y-80280000D01*
X125044062Y-80280000D02*
X124678700Y-80645362D01*
X130350000Y-76250000D02*
X126320000Y-80280000D01*
%TO.N,/SD_DAT1*%
X128680000Y-75710000D02*
X124590000Y-79800000D01*
X129650000Y-75710000D02*
X128680000Y-75710000D01*
%TO.N,/SD_CLK*%
X116719620Y-74319000D02*
X116231000Y-74319000D01*
X116231000Y-74319000D02*
X113490000Y-77060000D01*
X113490000Y-77060000D02*
X113490000Y-77330000D01*
X113490000Y-77330000D02*
X113014697Y-77805303D01*
X113014697Y-77805303D02*
X112889000Y-77805303D01*
%TO.N,/SD_CD*%
X115820057Y-73160000D02*
X112239000Y-76741057D01*
X112239000Y-76741057D02*
X112239000Y-78832604D01*
X112239000Y-78832604D02*
X112419239Y-79012843D01*
X123340000Y-73160000D02*
X115820057Y-73160000D01*
%TO.N,/SD_DAT2*%
X119920000Y-79050000D02*
X122809271Y-76160729D01*
X116570000Y-79050000D02*
X119920000Y-79050000D01*
X122809271Y-76160729D02*
X123235215Y-76160729D01*
%TO.N,/SD_CMD*%
X117275067Y-74962415D02*
X116797585Y-74962415D01*
X113184300Y-78575700D02*
X113148218Y-78575700D01*
X116797585Y-74962415D02*
X113184300Y-78575700D01*
%TO.N,Net-(D1-K)*%
X120680000Y-96330000D02*
X121770000Y-95240000D01*
X135721000Y-103599000D02*
X131248239Y-103599000D01*
X122188239Y-103599000D02*
X120680000Y-102090761D01*
X130250761Y-103140000D02*
X129791761Y-103599000D01*
X136740000Y-102580000D02*
X135721000Y-103599000D01*
X120680000Y-102090761D02*
X120680000Y-96330000D01*
X129791761Y-103599000D02*
X122188239Y-103599000D01*
X130789239Y-103140000D02*
X130250761Y-103140000D01*
X131248239Y-103599000D02*
X130789239Y-103140000D01*
%TO.N,Net-(U1-L1)*%
X134986504Y-90356504D02*
X135000000Y-90370000D01*
X134986504Y-87615268D02*
X134986504Y-90356504D01*
%TO.N,Net-(U1-L2)*%
X132460000Y-88164003D02*
X132460000Y-90350000D01*
X131884997Y-87589000D02*
X132460000Y-88164003D01*
%TO.N,Net-(U5-VDDA)*%
X116694924Y-90060000D02*
X115805849Y-89170925D01*
X117450000Y-90060000D02*
X116694924Y-90060000D01*
%TO.N,/BQ_INT*%
X107186771Y-78292537D02*
X107186771Y-79053229D01*
X105961371Y-79130000D02*
X105060000Y-78228629D01*
X102507000Y-103685514D02*
X102509000Y-103687514D01*
X106988656Y-78094422D02*
X107186771Y-78292537D01*
X111315559Y-78825502D02*
X110006954Y-78825502D01*
X104591371Y-77720000D02*
X103888628Y-77720000D01*
X108474497Y-77576954D02*
X107916595Y-77019052D01*
X109626193Y-78444741D02*
X109626193Y-78030406D01*
X109626193Y-78030406D02*
X109172741Y-77576954D01*
X115173724Y-80276471D02*
X112766528Y-80276471D01*
X131771000Y-104519000D02*
X131970000Y-104320000D01*
X106988656Y-77275420D02*
X106988656Y-78094422D01*
X109172741Y-77576954D02*
X108474497Y-77576954D01*
X107186771Y-79053229D02*
X107110000Y-79130000D01*
X102507000Y-79101628D02*
X102507000Y-103685514D01*
X107110000Y-79130000D02*
X105961371Y-79130000D01*
X102991000Y-104519000D02*
X131771000Y-104519000D01*
X112766528Y-80276471D02*
X111315559Y-78825502D01*
X105060000Y-78188628D02*
X104591371Y-77720000D01*
X102509000Y-104037000D02*
X102991000Y-104519000D01*
X103888628Y-77720000D02*
X102507000Y-79101628D01*
X102509000Y-103687514D02*
X102509000Y-104037000D01*
X110006954Y-78825502D02*
X109626193Y-78444741D01*
X107916595Y-77019052D02*
X107245024Y-77019052D01*
X105060000Y-78228629D02*
X105060000Y-78188628D01*
X107245024Y-77019052D02*
X106988656Y-77275420D01*
%TO.N,/I2C_SCL*%
X102909000Y-79265314D02*
X104054314Y-78120000D01*
X107836771Y-79492229D02*
X107836771Y-77929169D01*
X134360000Y-100550000D02*
X134848802Y-101038802D01*
X130359000Y-104030000D02*
X103420000Y-104030000D01*
X105744314Y-79810000D02*
X105744314Y-81390000D01*
X107836771Y-77929169D02*
X107707342Y-77799740D01*
X104054314Y-78120000D02*
X105744314Y-79810000D01*
X111443132Y-79941610D02*
X110588878Y-80795864D01*
X134545009Y-103199000D02*
X133782755Y-103199000D01*
X131517478Y-102949000D02*
X131456811Y-102888333D01*
X133782755Y-103199000D02*
X133532755Y-102949000D01*
X102909000Y-103519000D02*
X102909000Y-79265314D01*
X133532755Y-102949000D02*
X131517478Y-102949000D01*
X105939000Y-81390000D02*
X107836771Y-79492229D01*
X134848802Y-102895207D02*
X134545009Y-103199000D01*
X105744314Y-81390000D02*
X105939000Y-81390000D01*
X130520000Y-103869000D02*
X130359000Y-104030000D01*
X134848802Y-101038802D02*
X134848802Y-102895207D01*
X103420000Y-104030000D02*
X102909000Y-103519000D01*
X110588878Y-80795864D02*
X110588878Y-80925835D01*
%TO.N,/I2C_SDA*%
X120900000Y-103290000D02*
X116761000Y-99151000D01*
X108210000Y-88070761D02*
X107989000Y-87849761D01*
X134236527Y-102587264D02*
X134236527Y-101694445D01*
X107989000Y-87849761D02*
X107989000Y-80056189D01*
X107989000Y-99151000D02*
X107989000Y-91372370D01*
X109006246Y-79038943D02*
X109006246Y-78640104D01*
X108010000Y-90688629D02*
X107989000Y-90667629D01*
X107989000Y-91372370D02*
X108010000Y-91351370D01*
X107989000Y-80056189D02*
X109006246Y-79038943D01*
X108210000Y-88609239D02*
X108210000Y-88070761D01*
X107989000Y-88830239D02*
X108210000Y-88609239D01*
X134236527Y-101694445D02*
X133749900Y-101207818D01*
X116761000Y-99151000D02*
X107989000Y-99151000D01*
X108010000Y-91351370D02*
X108010000Y-90688629D01*
X107989000Y-90667629D02*
X107989000Y-88830239D01*
%TO.N,Net-(U3-ILIM)*%
X132448541Y-101399878D02*
X132418419Y-101430000D01*
X126320079Y-102320000D02*
X123640761Y-102320000D01*
X132418419Y-101430000D02*
X128603781Y-101430000D01*
X127265873Y-102767908D02*
X126767987Y-102767908D01*
X128603781Y-101430000D02*
X127265873Y-102767908D01*
X126767987Y-102767908D02*
X126320079Y-102320000D01*
X123640761Y-102320000D02*
X123640761Y-100606173D01*
X123640761Y-100606173D02*
X124272614Y-99974320D01*
%TO.N,Net-(U3-TS)*%
X133139493Y-101845859D02*
X132985971Y-101999381D01*
X131620000Y-92890000D02*
X130996875Y-92266875D01*
X133139493Y-100240507D02*
X133139493Y-101845859D01*
X132090000Y-92890000D02*
X131620000Y-92890000D01*
X130996875Y-92266875D02*
X129488346Y-92266875D01*
X134290000Y-99090000D02*
X133139493Y-100240507D01*
%TO.N,/BOOT*%
X116720000Y-91820755D02*
X116852478Y-91688277D01*
X116852478Y-91688277D02*
X116852478Y-91076793D01*
X115921370Y-93870000D02*
X116251371Y-93870000D01*
X114936048Y-89160363D02*
X114936048Y-84696808D01*
X116720000Y-93401370D02*
X116720000Y-91820755D01*
X117145002Y-97320000D02*
X115050000Y-95224998D01*
X116251371Y-93870000D02*
X116720000Y-93401370D01*
X115050000Y-95224998D02*
X115050000Y-94741370D01*
X115050000Y-94741370D02*
X115921370Y-93870000D01*
X116852478Y-91076793D02*
X114936048Y-89160363D01*
%TO.N,/ICM_SDI*%
X126890000Y-89430000D02*
X127240000Y-89780000D01*
X127240000Y-91535205D02*
X127092602Y-91682603D01*
X127240000Y-89780000D02*
X127240000Y-91535205D01*
%TO.N,/ICM_SD0*%
X124144591Y-91490000D02*
X122915676Y-91490000D01*
X125626567Y-91735085D02*
X124389676Y-91735085D01*
X121710761Y-90285085D02*
X121429889Y-90285085D01*
X124389676Y-91735085D02*
X124144591Y-91490000D01*
X126398634Y-90963018D02*
X125626567Y-91735085D01*
X122915676Y-91490000D02*
X121710761Y-90285085D01*
%TO.N,/ICM_INT1*%
X120424131Y-86723471D02*
X120190000Y-86957602D01*
X121812711Y-91523508D02*
X122029944Y-91523508D01*
X120190000Y-89900797D02*
X121812711Y-91523508D01*
X120190000Y-86957602D02*
X120190000Y-89900797D01*
%TO.N,/ICM_SCK*%
X123978906Y-91890000D02*
X124438906Y-92350000D01*
X121257236Y-92350000D02*
X122782182Y-92350000D01*
X118405448Y-89498212D02*
X121257236Y-92350000D01*
X124438906Y-92350000D02*
X125660000Y-92350000D01*
X123242182Y-91890000D02*
X123978906Y-91890000D01*
X122782182Y-92350000D02*
X123242182Y-91890000D01*
%TO.N,Net-(LED1-DO)*%
X103699998Y-81500002D02*
X104550000Y-80650000D01*
X103699998Y-88360000D02*
X103699998Y-81500002D01*
%TO.N,/LED_DIN*%
X116252478Y-92287465D02*
X116252478Y-91429001D01*
X113878943Y-94661000D02*
X116252478Y-92287465D01*
X109320000Y-90599943D02*
X113381057Y-94661000D01*
X113381057Y-94661000D02*
X113878943Y-94661000D01*
X109320000Y-88350000D02*
X109320000Y-90599943D01*
%TD*%
%TA.AperFunction,Conductor*%
%TO.N,GND*%
G36*
X139113256Y-91594920D02*
G01*
X139171119Y-91634082D01*
X139198623Y-91698311D01*
X139199500Y-91713032D01*
X139199500Y-104495500D01*
X139179815Y-104562539D01*
X139127011Y-104608294D01*
X139075500Y-104619500D01*
X132877703Y-104619500D01*
X132863255Y-104615257D01*
X132848210Y-104615942D01*
X132830406Y-104605612D01*
X132810664Y-104599815D01*
X132800804Y-104588436D01*
X132787776Y-104580877D01*
X132778383Y-104562561D01*
X132764909Y-104547011D01*
X132762251Y-104531101D01*
X132755894Y-104518705D01*
X132755995Y-104493656D01*
X132754290Y-104483448D01*
X132754887Y-104477331D01*
X132770500Y-104398842D01*
X132770500Y-104317458D01*
X132771087Y-104311448D01*
X132781976Y-104284414D01*
X132790185Y-104256461D01*
X132794874Y-104252397D01*
X132797194Y-104246639D01*
X132820973Y-104229782D01*
X132842989Y-104210706D01*
X132850052Y-104209169D01*
X132854195Y-104206233D01*
X132866023Y-104205694D01*
X132894500Y-104199500D01*
X135634331Y-104199500D01*
X135634347Y-104199501D01*
X135641943Y-104199501D01*
X135800054Y-104199501D01*
X135800057Y-104199501D01*
X135952785Y-104158577D01*
X136026431Y-104116057D01*
X136089716Y-104079520D01*
X136201520Y-103967716D01*
X136201520Y-103967714D01*
X136211724Y-103957511D01*
X136211727Y-103957506D01*
X136754665Y-103414570D01*
X136815984Y-103381088D01*
X136818151Y-103380637D01*
X136818840Y-103380500D01*
X136818842Y-103380500D01*
X136973497Y-103349737D01*
X137119179Y-103289394D01*
X137250289Y-103201789D01*
X137361789Y-103090289D01*
X137449394Y-102959179D01*
X137509737Y-102813497D01*
X137540500Y-102658842D01*
X137540500Y-102501158D01*
X137540500Y-102501155D01*
X137540499Y-102501153D01*
X137537165Y-102484391D01*
X137509737Y-102346503D01*
X137476617Y-102266543D01*
X137449397Y-102200827D01*
X137449390Y-102200814D01*
X137361789Y-102069711D01*
X137361786Y-102069707D01*
X137250292Y-101958213D01*
X137250288Y-101958210D01*
X137119185Y-101870609D01*
X137119172Y-101870602D01*
X136973501Y-101810264D01*
X136973489Y-101810261D01*
X136818845Y-101779500D01*
X136818842Y-101779500D01*
X136661158Y-101779500D01*
X136661155Y-101779500D01*
X136506510Y-101810261D01*
X136506498Y-101810264D01*
X136360827Y-101870602D01*
X136360814Y-101870609D01*
X136229711Y-101958210D01*
X136229707Y-101958213D01*
X136118213Y-102069707D01*
X136118210Y-102069711D01*
X136030609Y-102200814D01*
X136030602Y-102200827D01*
X135970264Y-102346498D01*
X135970261Y-102346508D01*
X135939362Y-102501849D01*
X135906977Y-102563759D01*
X135905426Y-102565338D01*
X135660983Y-102809781D01*
X135599660Y-102843266D01*
X135529968Y-102838282D01*
X135474035Y-102796410D01*
X135449618Y-102730946D01*
X135449302Y-102722100D01*
X135449302Y-100959747D01*
X135449302Y-100959745D01*
X135408379Y-100807018D01*
X135391677Y-100778089D01*
X135329326Y-100670092D01*
X135329323Y-100670088D01*
X135329322Y-100670086D01*
X135217518Y-100558282D01*
X135217517Y-100558281D01*
X135213187Y-100553951D01*
X135213176Y-100553941D01*
X135194574Y-100535339D01*
X135161089Y-100474016D01*
X135160638Y-100471849D01*
X135137096Y-100353499D01*
X135129737Y-100316503D01*
X135096998Y-100237463D01*
X135069397Y-100170827D01*
X135069390Y-100170814D01*
X134981789Y-100039711D01*
X134981786Y-100039707D01*
X134870292Y-99928213D01*
X134824221Y-99897429D01*
X134779417Y-99843816D01*
X134770710Y-99774491D01*
X134800865Y-99711464D01*
X134805413Y-99706664D01*
X134911789Y-99600289D01*
X134999394Y-99469179D01*
X135059737Y-99323497D01*
X135090500Y-99168842D01*
X135090500Y-99011158D01*
X135090500Y-99011155D01*
X135090499Y-99011153D01*
X135074530Y-98930872D01*
X135059737Y-98856503D01*
X135055168Y-98845472D01*
X134999397Y-98710827D01*
X134999390Y-98710814D01*
X134911789Y-98579711D01*
X134911786Y-98579707D01*
X134800292Y-98468213D01*
X134800288Y-98468210D01*
X134669185Y-98380609D01*
X134669172Y-98380602D01*
X134523501Y-98320264D01*
X134523489Y-98320261D01*
X134368845Y-98289500D01*
X134368842Y-98289500D01*
X134211158Y-98289500D01*
X134211155Y-98289500D01*
X134056510Y-98320261D01*
X134056498Y-98320264D01*
X133910827Y-98380602D01*
X133910814Y-98380609D01*
X133779711Y-98468210D01*
X133779707Y-98468213D01*
X133668213Y-98579707D01*
X133668210Y-98579711D01*
X133580609Y-98710814D01*
X133580602Y-98710827D01*
X133520264Y-98856498D01*
X133520261Y-98856508D01*
X133489362Y-99011848D01*
X133456977Y-99073759D01*
X133455426Y-99075337D01*
X132770779Y-99759985D01*
X132658974Y-99871789D01*
X132658968Y-99871797D01*
X132614109Y-99949497D01*
X132614109Y-99949498D01*
X132579916Y-100008721D01*
X132579916Y-100008722D01*
X132538992Y-100161450D01*
X132538992Y-100161452D01*
X132538992Y-100329553D01*
X132538993Y-100329566D01*
X132538993Y-100475378D01*
X132519308Y-100542417D01*
X132466504Y-100588172D01*
X132414993Y-100599378D01*
X132369696Y-100599378D01*
X132215051Y-100630139D01*
X132215039Y-100630142D01*
X132069368Y-100690480D01*
X132069355Y-100690487D01*
X131938252Y-100778088D01*
X131938248Y-100778091D01*
X131923159Y-100793181D01*
X131861836Y-100826666D01*
X131835478Y-100829500D01*
X129502936Y-100829500D01*
X129435897Y-100809815D01*
X129390142Y-100757011D01*
X129380198Y-100687853D01*
X129409223Y-100624297D01*
X129415255Y-100617819D01*
X129703521Y-100329553D01*
X130010520Y-100022554D01*
X130089577Y-99885622D01*
X130130501Y-99732895D01*
X130130501Y-99574780D01*
X130130501Y-99567185D01*
X130130500Y-99567167D01*
X130130500Y-98999763D01*
X130150185Y-98932724D01*
X130151398Y-98930872D01*
X130239390Y-98799183D01*
X130239390Y-98799182D01*
X130239394Y-98799177D01*
X130299737Y-98653495D01*
X130329124Y-98505755D01*
X130340655Y-98483709D01*
X130348325Y-98460040D01*
X130356568Y-98453287D01*
X130361508Y-98443845D01*
X130383129Y-98431533D01*
X130402378Y-98415767D01*
X130412964Y-98414543D01*
X130422224Y-98409271D01*
X130447067Y-98410602D01*
X130471785Y-98407746D01*
X130483883Y-98412575D01*
X130491993Y-98413010D01*
X130505361Y-98418625D01*
X130512772Y-98422261D01*
X130558080Y-98452535D01*
X130663314Y-98496124D01*
X130666840Y-98497854D01*
X130689817Y-98518907D01*
X130714075Y-98538455D01*
X130715357Y-98542308D01*
X130718355Y-98545055D01*
X130726302Y-98575189D01*
X130736141Y-98604749D01*
X130735310Y-98609350D01*
X130736172Y-98612615D01*
X130732900Y-98622712D01*
X130726782Y-98656626D01*
X130710265Y-98696503D01*
X130710264Y-98696506D01*
X130710264Y-98696507D01*
X130710263Y-98696510D01*
X130679502Y-98851153D01*
X130679502Y-99008846D01*
X130710263Y-99163489D01*
X130710266Y-99163501D01*
X130770604Y-99309172D01*
X130770611Y-99309185D01*
X130858212Y-99440288D01*
X130858215Y-99440292D01*
X130969709Y-99551786D01*
X130969713Y-99551789D01*
X131100816Y-99639390D01*
X131100829Y-99639397D01*
X131246500Y-99699735D01*
X131246505Y-99699737D01*
X131401155Y-99730499D01*
X131401158Y-99730500D01*
X131401160Y-99730500D01*
X131558846Y-99730500D01*
X131558847Y-99730499D01*
X131713499Y-99699737D01*
X131859181Y-99639394D01*
X131990291Y-99551789D01*
X132101791Y-99440289D01*
X132189396Y-99309179D01*
X132249739Y-99163497D01*
X132280502Y-99008842D01*
X132280502Y-98851158D01*
X132280502Y-98851155D01*
X132280501Y-98851153D01*
X132252587Y-98710821D01*
X132249739Y-98696503D01*
X132211734Y-98604749D01*
X132189399Y-98550828D01*
X132189398Y-98550827D01*
X132189396Y-98550821D01*
X132187053Y-98547315D01*
X132166176Y-98480639D01*
X132184660Y-98413258D01*
X132202475Y-98390744D01*
X132328762Y-98264457D01*
X132498129Y-98095090D01*
X132559450Y-98061607D01*
X132561617Y-98061156D01*
X132619552Y-98049631D01*
X132716964Y-98030255D01*
X132862646Y-97969912D01*
X132993756Y-97882307D01*
X133105256Y-97770807D01*
X133192861Y-97639697D01*
X133209345Y-97599901D01*
X133239522Y-97527048D01*
X133283363Y-97472644D01*
X133349657Y-97450579D01*
X133354083Y-97450500D01*
X135675501Y-97450500D01*
X135742540Y-97470185D01*
X135788295Y-97522989D01*
X135799501Y-97574500D01*
X135799501Y-97650018D01*
X135810000Y-97752796D01*
X135810001Y-97752799D01*
X135856832Y-97894123D01*
X135865186Y-97919334D01*
X135957288Y-98068656D01*
X136081344Y-98192712D01*
X136230666Y-98284814D01*
X136397203Y-98339999D01*
X136499991Y-98350500D01*
X138100008Y-98350499D01*
X138202797Y-98339999D01*
X138369334Y-98284814D01*
X138518656Y-98192712D01*
X138642712Y-98068656D01*
X138734814Y-97919334D01*
X138789999Y-97752797D01*
X138800500Y-97650009D01*
X138800499Y-96049992D01*
X138799589Y-96041088D01*
X138789999Y-95947203D01*
X138789998Y-95947200D01*
X138770908Y-95889590D01*
X138734814Y-95780666D01*
X138642712Y-95631344D01*
X138518656Y-95507288D01*
X138518655Y-95507287D01*
X138470342Y-95477487D01*
X138423618Y-95425539D01*
X138412397Y-95356576D01*
X138440241Y-95292494D01*
X138441381Y-95291249D01*
X138441348Y-95291221D01*
X138444511Y-95287516D01*
X138444511Y-95287515D01*
X138444517Y-95287510D01*
X138583343Y-95096433D01*
X138690568Y-94885992D01*
X138763553Y-94661368D01*
X138789983Y-94494496D01*
X138800500Y-94428097D01*
X138800500Y-94191902D01*
X138763553Y-93958631D01*
X138705245Y-93779179D01*
X138690568Y-93734008D01*
X138690566Y-93734005D01*
X138690566Y-93734003D01*
X138612353Y-93580502D01*
X138583343Y-93523567D01*
X138444517Y-93332490D01*
X138277510Y-93165483D01*
X138086433Y-93026657D01*
X137875996Y-92919433D01*
X137651368Y-92846446D01*
X137418097Y-92809500D01*
X137418092Y-92809500D01*
X137181908Y-92809500D01*
X137181903Y-92809500D01*
X136948631Y-92846446D01*
X136724003Y-92919433D01*
X136513566Y-93026657D01*
X136449960Y-93072870D01*
X136322490Y-93165483D01*
X136322488Y-93165485D01*
X136322487Y-93165485D01*
X136155485Y-93332487D01*
X136155485Y-93332488D01*
X136155483Y-93332490D01*
X136127853Y-93370520D01*
X136016657Y-93523566D01*
X135909433Y-93734003D01*
X135836446Y-93958631D01*
X135799500Y-94191902D01*
X135799500Y-94428097D01*
X135836447Y-94661369D01*
X135836447Y-94661372D01*
X135877450Y-94787564D01*
X135877884Y-94802776D01*
X135883203Y-94817035D01*
X135878861Y-94836991D01*
X135879445Y-94857405D01*
X135871357Y-94871489D01*
X135868352Y-94885308D01*
X135847201Y-94913562D01*
X135747585Y-95013180D01*
X135686262Y-95046666D01*
X135659903Y-95049500D01*
X133729766Y-95049500D01*
X133662727Y-95029815D01*
X133660875Y-95028602D01*
X133529185Y-94940609D01*
X133529172Y-94940602D01*
X133383501Y-94880264D01*
X133383489Y-94880261D01*
X133228845Y-94849500D01*
X133228842Y-94849500D01*
X133071158Y-94849500D01*
X133071155Y-94849500D01*
X132916510Y-94880261D01*
X132916498Y-94880264D01*
X132770827Y-94940602D01*
X132770814Y-94940609D01*
X132639711Y-95028210D01*
X132639707Y-95028213D01*
X132528213Y-95139707D01*
X132528211Y-95139710D01*
X132440609Y-95270814D01*
X132440602Y-95270827D01*
X132380264Y-95416498D01*
X132380261Y-95416510D01*
X132349500Y-95571153D01*
X132349500Y-95728846D01*
X132375952Y-95861827D01*
X132369725Y-95931418D01*
X132326862Y-95986595D01*
X132260972Y-96009840D01*
X132254335Y-96010018D01*
X132205754Y-96010018D01*
X132053027Y-96050941D01*
X132029250Y-96064669D01*
X132029249Y-96064669D01*
X131916102Y-96129993D01*
X131916094Y-96129999D01*
X131804292Y-96241802D01*
X131804290Y-96241804D01*
X131495831Y-96550264D01*
X131212916Y-96833179D01*
X131151593Y-96866664D01*
X131125235Y-96869498D01*
X129348106Y-96869498D01*
X129281067Y-96849813D01*
X129235312Y-96797009D01*
X129233556Y-96792978D01*
X129213769Y-96745206D01*
X129213765Y-96745199D01*
X129126164Y-96614096D01*
X129126161Y-96614092D01*
X129014667Y-96502598D01*
X129014663Y-96502595D01*
X128883560Y-96414994D01*
X128883547Y-96414987D01*
X128737876Y-96354649D01*
X128737864Y-96354646D01*
X128583220Y-96323885D01*
X128583217Y-96323885D01*
X128425533Y-96323885D01*
X128425530Y-96323885D01*
X128270885Y-96354646D01*
X128270873Y-96354649D01*
X128125202Y-96414987D01*
X128125189Y-96414994D01*
X127994086Y-96502595D01*
X127994082Y-96502598D01*
X127882588Y-96614092D01*
X127882585Y-96614096D01*
X127794984Y-96745199D01*
X127794977Y-96745212D01*
X127734639Y-96890883D01*
X127734636Y-96890895D01*
X127703875Y-97045538D01*
X127703875Y-97203231D01*
X127734636Y-97357874D01*
X127734639Y-97357886D01*
X127794977Y-97503557D01*
X127794984Y-97503570D01*
X127882585Y-97634673D01*
X127882588Y-97634677D01*
X127994084Y-97746173D01*
X128125189Y-97833775D01*
X128125202Y-97833782D01*
X128270873Y-97894120D01*
X128270878Y-97894122D01*
X128336257Y-97907126D01*
X128427325Y-97925242D01*
X128474214Y-97946487D01*
X128474233Y-97946455D01*
X128474562Y-97946645D01*
X128478623Y-97948485D01*
X128481269Y-97950515D01*
X128481272Y-97950518D01*
X128481275Y-97950519D01*
X128481278Y-97950522D01*
X128618197Y-98029571D01*
X128618204Y-98029575D01*
X128670529Y-98043595D01*
X128730189Y-98079961D01*
X128760717Y-98142808D01*
X128760051Y-98187561D01*
X128729500Y-98341151D01*
X128729500Y-98498844D01*
X128760261Y-98653487D01*
X128760264Y-98653499D01*
X128820602Y-98799170D01*
X128820609Y-98799183D01*
X128908602Y-98930872D01*
X128929480Y-98997549D01*
X128929500Y-98999763D01*
X128929500Y-99353740D01*
X128909815Y-99420779D01*
X128893181Y-99441421D01*
X127002269Y-101332333D01*
X126940946Y-101365818D01*
X126938780Y-101366269D01*
X126783438Y-101397169D01*
X126783428Y-101397172D01*
X126637757Y-101457510D01*
X126637744Y-101457517D01*
X126506641Y-101545118D01*
X126506637Y-101545121D01*
X126395143Y-101656615D01*
X126395138Y-101656621D01*
X126389947Y-101664391D01*
X126383856Y-101669480D01*
X126380560Y-101676700D01*
X126357432Y-101691563D01*
X126336334Y-101709196D01*
X126326960Y-101711147D01*
X126321783Y-101714475D01*
X126286852Y-101719498D01*
X126286848Y-101719499D01*
X126241022Y-101719499D01*
X126241018Y-101719499D01*
X126233412Y-101719500D01*
X126233411Y-101719499D01*
X126233410Y-101719500D01*
X124365261Y-101719500D01*
X124298222Y-101699815D01*
X124252467Y-101647011D01*
X124241261Y-101595500D01*
X124241261Y-100906270D01*
X124260946Y-100839231D01*
X124277570Y-100818598D01*
X124287273Y-100808895D01*
X124348591Y-100775410D01*
X124350764Y-100774958D01*
X124408699Y-100763433D01*
X124506111Y-100744057D01*
X124624017Y-100695219D01*
X124651786Y-100683717D01*
X124651786Y-100683716D01*
X124651793Y-100683714D01*
X124782903Y-100596109D01*
X124894403Y-100484609D01*
X124982008Y-100353499D01*
X125042351Y-100207817D01*
X125073114Y-100053162D01*
X125073114Y-99895478D01*
X125073114Y-99895475D01*
X125073113Y-99895473D01*
X125071154Y-99885623D01*
X125042351Y-99740823D01*
X125025332Y-99699735D01*
X124982011Y-99595147D01*
X124982004Y-99595134D01*
X124894403Y-99464031D01*
X124894400Y-99464027D01*
X124782906Y-99352533D01*
X124782902Y-99352530D01*
X124651799Y-99264929D01*
X124651786Y-99264922D01*
X124506115Y-99204584D01*
X124506103Y-99204581D01*
X124351459Y-99173820D01*
X124351456Y-99173820D01*
X124193772Y-99173820D01*
X124193769Y-99173820D01*
X124039124Y-99204581D01*
X124039112Y-99204584D01*
X123893441Y-99264922D01*
X123893428Y-99264929D01*
X123762325Y-99352530D01*
X123762321Y-99352533D01*
X123650827Y-99464027D01*
X123650824Y-99464031D01*
X123563223Y-99595134D01*
X123563216Y-99595147D01*
X123502878Y-99740818D01*
X123502875Y-99740828D01*
X123471975Y-99896169D01*
X123463209Y-99912925D01*
X123459190Y-99931404D01*
X123440445Y-99956444D01*
X123439590Y-99958080D01*
X123438040Y-99959658D01*
X123362769Y-100034929D01*
X123272047Y-100125651D01*
X123272046Y-100125651D01*
X123272045Y-100125652D01*
X123160242Y-100237455D01*
X123160236Y-100237463D01*
X123114604Y-100316502D01*
X123114604Y-100316503D01*
X123081184Y-100374388D01*
X123040260Y-100527116D01*
X123040260Y-100527118D01*
X123040260Y-100695219D01*
X123040261Y-100695232D01*
X123040261Y-102399057D01*
X123077893Y-102539499D01*
X123081184Y-102551783D01*
X123081187Y-102551790D01*
X123160236Y-102688709D01*
X123160242Y-102688717D01*
X123258344Y-102786819D01*
X123291829Y-102848142D01*
X123286845Y-102917834D01*
X123244973Y-102973767D01*
X123179509Y-102998184D01*
X123170663Y-102998500D01*
X122488336Y-102998500D01*
X122421297Y-102978815D01*
X122400655Y-102962181D01*
X121316819Y-101878345D01*
X121283334Y-101817022D01*
X121280500Y-101790664D01*
X121280500Y-96630097D01*
X121300185Y-96563058D01*
X121316819Y-96542416D01*
X121535350Y-96323885D01*
X121784664Y-96074571D01*
X121845985Y-96041088D01*
X121848152Y-96040637D01*
X121848841Y-96040500D01*
X121848842Y-96040500D01*
X122003497Y-96009737D01*
X122149179Y-95949394D01*
X122238683Y-95889588D01*
X122253967Y-95884803D01*
X122267015Y-95875512D01*
X122286623Y-95874577D01*
X122305357Y-95868712D01*
X122321607Y-95872911D01*
X122336805Y-95872187D01*
X122369568Y-95885303D01*
X122448095Y-95930639D01*
X122448097Y-95930641D01*
X122480578Y-95949394D01*
X122498215Y-95959577D01*
X122650943Y-96000501D01*
X122650946Y-96000501D01*
X122809056Y-96000501D01*
X122809058Y-96000501D01*
X122961785Y-95959577D01*
X123098716Y-95880520D01*
X123210520Y-95768716D01*
X123210520Y-95768714D01*
X123220724Y-95758511D01*
X123220727Y-95758506D01*
X125362414Y-93616821D01*
X125423737Y-93583336D01*
X125450095Y-93580502D01*
X127613568Y-93580502D01*
X127613584Y-93580503D01*
X127621180Y-93580503D01*
X127779291Y-93580503D01*
X127779294Y-93580503D01*
X127932022Y-93539579D01*
X127982141Y-93510641D01*
X128068953Y-93460522D01*
X128180757Y-93348718D01*
X128180757Y-93348716D01*
X128190965Y-93338509D01*
X128190966Y-93338506D01*
X128721755Y-92807718D01*
X128783074Y-92774236D01*
X128852766Y-92779220D01*
X128897113Y-92807721D01*
X128978053Y-92888661D01*
X128978057Y-92888664D01*
X129109160Y-92976265D01*
X129109173Y-92976272D01*
X129185787Y-93008006D01*
X129254849Y-93036612D01*
X129409499Y-93067374D01*
X129409502Y-93067375D01*
X129409504Y-93067375D01*
X129567190Y-93067375D01*
X129567191Y-93067374D01*
X129721843Y-93036612D01*
X129867525Y-92976269D01*
X129867531Y-92976265D01*
X129999221Y-92888273D01*
X130065899Y-92867395D01*
X130068112Y-92867375D01*
X130696778Y-92867375D01*
X130763817Y-92887060D01*
X130784459Y-92903694D01*
X131135139Y-93254374D01*
X131135149Y-93254385D01*
X131139479Y-93258715D01*
X131139480Y-93258716D01*
X131251284Y-93370520D01*
X131318800Y-93409500D01*
X131388215Y-93449577D01*
X131534123Y-93488673D01*
X131574107Y-93509211D01*
X131574646Y-93508405D01*
X131710814Y-93599390D01*
X131710827Y-93599397D01*
X131793163Y-93633501D01*
X131856503Y-93659737D01*
X131905520Y-93669486D01*
X131967428Y-93701869D01*
X131995889Y-93743650D01*
X132010604Y-93779175D01*
X132010609Y-93779185D01*
X132098210Y-93910288D01*
X132098213Y-93910292D01*
X132209707Y-94021786D01*
X132209711Y-94021789D01*
X132340814Y-94109390D01*
X132340827Y-94109397D01*
X132486498Y-94169735D01*
X132486503Y-94169737D01*
X132641153Y-94200499D01*
X132641156Y-94200500D01*
X132641158Y-94200500D01*
X132798844Y-94200500D01*
X132798845Y-94200499D01*
X132953497Y-94169737D01*
X133099179Y-94109394D01*
X133230289Y-94021789D01*
X133341789Y-93910289D01*
X133429394Y-93779179D01*
X133489737Y-93633497D01*
X133511604Y-93523566D01*
X133520638Y-93478150D01*
X133553023Y-93416239D01*
X133554518Y-93414716D01*
X135322416Y-91646819D01*
X135383739Y-91613334D01*
X135410097Y-91610500D01*
X138979054Y-91610500D01*
X138979057Y-91610500D01*
X139043408Y-91593257D01*
X139113256Y-91594920D01*
G37*
%TD.AperFunction*%
%TA.AperFunction,Conductor*%
G36*
X105185270Y-102641717D02*
G01*
X105185270Y-102641716D01*
X105224622Y-102587555D01*
X105229232Y-102578507D01*
X105277205Y-102527709D01*
X105345025Y-102510912D01*
X105411161Y-102533447D01*
X105450204Y-102578504D01*
X105454949Y-102587817D01*
X105579890Y-102759786D01*
X105730213Y-102910109D01*
X105902179Y-103035048D01*
X105902181Y-103035049D01*
X105902184Y-103035051D01*
X106091588Y-103131557D01*
X106263975Y-103187569D01*
X106321651Y-103227007D01*
X106348849Y-103291365D01*
X106336934Y-103360212D01*
X106289690Y-103411687D01*
X106225657Y-103429500D01*
X104452727Y-103429500D01*
X104385688Y-103409815D01*
X104339933Y-103357011D01*
X104329989Y-103287853D01*
X104359014Y-103224297D01*
X104414409Y-103187569D01*
X104588217Y-103131095D01*
X104777554Y-103034622D01*
X104831716Y-102995270D01*
X104831717Y-102995270D01*
X104199409Y-102362962D01*
X104262993Y-102345925D01*
X104377007Y-102280099D01*
X104470099Y-102187007D01*
X104535925Y-102072993D01*
X104552962Y-102009409D01*
X105185270Y-102641717D01*
G37*
%TD.AperFunction*%
%TA.AperFunction,Conductor*%
G36*
X104812180Y-98398626D02*
G01*
X104845665Y-98459949D01*
X104848499Y-98486307D01*
X104848499Y-98555814D01*
X104848498Y-98555814D01*
X104853690Y-98575189D01*
X104886197Y-98696507D01*
X104889423Y-98708544D01*
X104889423Y-98708545D01*
X104896776Y-98721282D01*
X104896778Y-98721284D01*
X104968477Y-98845472D01*
X104968481Y-98845477D01*
X105087349Y-98964345D01*
X105087355Y-98964350D01*
X106460077Y-100337072D01*
X106493562Y-100398395D01*
X106488578Y-100468087D01*
X106446706Y-100524020D01*
X106391794Y-100547226D01*
X106293760Y-100562753D01*
X106091585Y-100628444D01*
X105902179Y-100724951D01*
X105730213Y-100849890D01*
X105579890Y-101000213D01*
X105454949Y-101172182D01*
X105450202Y-101181499D01*
X105402227Y-101232293D01*
X105334405Y-101249087D01*
X105268271Y-101226548D01*
X105229234Y-101181495D01*
X105224626Y-101172452D01*
X105185270Y-101118282D01*
X105185269Y-101118282D01*
X104552962Y-101750590D01*
X104535925Y-101687007D01*
X104470099Y-101572993D01*
X104377007Y-101479901D01*
X104262993Y-101414075D01*
X104199407Y-101397036D01*
X104831716Y-100764728D01*
X104777550Y-100725375D01*
X104588217Y-100628904D01*
X104386129Y-100563242D01*
X104176246Y-100530000D01*
X103963754Y-100530000D01*
X103753872Y-100563242D01*
X103753865Y-100563243D01*
X103671817Y-100589902D01*
X103601976Y-100591897D01*
X103542143Y-100555816D01*
X103511316Y-100493115D01*
X103509500Y-100471971D01*
X103509500Y-99411276D01*
X103529185Y-99344237D01*
X103581989Y-99298482D01*
X103651147Y-99288538D01*
X103671820Y-99293346D01*
X103743866Y-99316756D01*
X103743872Y-99316757D01*
X103953754Y-99350000D01*
X104166246Y-99350000D01*
X104376127Y-99316757D01*
X104376130Y-99316757D01*
X104578217Y-99251095D01*
X104767554Y-99154622D01*
X104821716Y-99115270D01*
X104821717Y-99115270D01*
X104189409Y-98482962D01*
X104252993Y-98465925D01*
X104367007Y-98400099D01*
X104460099Y-98307007D01*
X104525925Y-98192993D01*
X104542962Y-98129408D01*
X104812180Y-98398626D01*
G37*
%TD.AperFunction*%
%TA.AperFunction,Conductor*%
G36*
X118325711Y-90298534D02*
G01*
X118327323Y-90298855D01*
X118389227Y-90331253D01*
X118390787Y-90332786D01*
X120772375Y-92714374D01*
X120772385Y-92714385D01*
X120776715Y-92718715D01*
X120776716Y-92718716D01*
X120888520Y-92830520D01*
X120952391Y-92867395D01*
X120975331Y-92880639D01*
X120975333Y-92880641D01*
X121025449Y-92909576D01*
X121025451Y-92909577D01*
X121178178Y-92950500D01*
X121178179Y-92950500D01*
X122695513Y-92950500D01*
X122695529Y-92950501D01*
X122703125Y-92950501D01*
X122861236Y-92950501D01*
X122861239Y-92950501D01*
X123013967Y-92909577D01*
X123064086Y-92880639D01*
X123150898Y-92830520D01*
X123262702Y-92718716D01*
X123262703Y-92718713D01*
X123454599Y-92526816D01*
X123481528Y-92512113D01*
X123507344Y-92495523D01*
X123513546Y-92494631D01*
X123515922Y-92493334D01*
X123542279Y-92490500D01*
X123678809Y-92490500D01*
X123745848Y-92510185D01*
X123766490Y-92526819D01*
X123954045Y-92714374D01*
X123954055Y-92714385D01*
X123958385Y-92718715D01*
X123958386Y-92718716D01*
X124070190Y-92830520D01*
X124157001Y-92880639D01*
X124168122Y-92887060D01*
X124171188Y-92888830D01*
X124219402Y-92939398D01*
X124232623Y-93008006D01*
X124206654Y-93072870D01*
X124196866Y-93083897D01*
X123410829Y-93869935D01*
X123349506Y-93903420D01*
X123279815Y-93898436D01*
X123223881Y-93856564D01*
X123203374Y-93814349D01*
X123169577Y-93688216D01*
X123137988Y-93633501D01*
X123090524Y-93551290D01*
X123090518Y-93551282D01*
X122978717Y-93439481D01*
X122978709Y-93439475D01*
X122841790Y-93360426D01*
X122841786Y-93360424D01*
X122841784Y-93360423D01*
X122689057Y-93319500D01*
X122319114Y-93319500D01*
X122160999Y-93319500D01*
X122160996Y-93319500D01*
X122150504Y-93322311D01*
X122150505Y-93322312D01*
X122008271Y-93360423D01*
X122008266Y-93360426D01*
X121871347Y-93439475D01*
X121871339Y-93439481D01*
X118130141Y-97180680D01*
X118068818Y-97214165D01*
X117999126Y-97209181D01*
X117943193Y-97167309D01*
X117920843Y-97117192D01*
X117914739Y-97086503D01*
X117896519Y-97042516D01*
X117854399Y-96940827D01*
X117854392Y-96940814D01*
X117766791Y-96809711D01*
X117766788Y-96809707D01*
X117655294Y-96698213D01*
X117655290Y-96698210D01*
X117524187Y-96610609D01*
X117524174Y-96610602D01*
X117378503Y-96550264D01*
X117378493Y-96550261D01*
X117223151Y-96519361D01*
X117161240Y-96486976D01*
X117159662Y-96485425D01*
X115745102Y-95070865D01*
X115711617Y-95009542D01*
X115716601Y-94939850D01*
X115745102Y-94895503D01*
X115853041Y-94787564D01*
X116133787Y-94506817D01*
X116156352Y-94494496D01*
X116176754Y-94478842D01*
X116189311Y-94476499D01*
X116195108Y-94473334D01*
X116211150Y-94470930D01*
X116216291Y-94470500D01*
X116330429Y-94470500D01*
X116371352Y-94459534D01*
X116483155Y-94429577D01*
X116620087Y-94350520D01*
X116731891Y-94238716D01*
X116731891Y-94238714D01*
X116742095Y-94228511D01*
X116742098Y-94228506D01*
X117200520Y-93770086D01*
X117279577Y-93633154D01*
X117320500Y-93480427D01*
X117320500Y-93322312D01*
X117320500Y-92111866D01*
X117324649Y-92096377D01*
X117323995Y-92082634D01*
X117337113Y-92049866D01*
X117357035Y-92015359D01*
X117362535Y-92005832D01*
X117393690Y-91951870D01*
X117412055Y-91920062D01*
X117452978Y-91767334D01*
X117452978Y-91609220D01*
X117452978Y-90997736D01*
X117452978Y-90997733D01*
X117452466Y-90993842D01*
X117452978Y-90990560D01*
X117452978Y-90989615D01*
X117453126Y-90989615D01*
X117463237Y-90924808D01*
X117509621Y-90872556D01*
X117551215Y-90856050D01*
X117595386Y-90847263D01*
X117683497Y-90829737D01*
X117829179Y-90769394D01*
X117960289Y-90681789D01*
X118071789Y-90570289D01*
X118159394Y-90439179D01*
X118163676Y-90428842D01*
X118186933Y-90372694D01*
X118230773Y-90318290D01*
X118297067Y-90296225D01*
X118325711Y-90298534D01*
G37*
%TD.AperFunction*%
%TA.AperFunction,Conductor*%
G36*
X107307834Y-80972914D02*
G01*
X107363767Y-81014786D01*
X107388184Y-81080250D01*
X107388500Y-81089096D01*
X107388500Y-87461728D01*
X107368815Y-87528767D01*
X107316011Y-87574522D01*
X107311953Y-87576289D01*
X107180824Y-87630604D01*
X107180814Y-87630609D01*
X107049711Y-87718210D01*
X107049707Y-87718213D01*
X106938213Y-87829707D01*
X106938210Y-87829711D01*
X106850609Y-87960814D01*
X106850602Y-87960827D01*
X106790264Y-88106498D01*
X106790261Y-88106510D01*
X106759500Y-88261153D01*
X106759500Y-88323545D01*
X106755275Y-88355638D01*
X106715184Y-88505258D01*
X106715184Y-88505260D01*
X106715184Y-88673361D01*
X106715185Y-88673374D01*
X106715185Y-90329776D01*
X106715184Y-90329794D01*
X106715184Y-90495500D01*
X106715183Y-90495500D01*
X106756108Y-90648231D01*
X106762886Y-90659970D01*
X106767036Y-90675459D01*
X106774477Y-90687037D01*
X106779500Y-90721972D01*
X106779500Y-90755500D01*
X106759815Y-90822539D01*
X106707011Y-90868294D01*
X106655500Y-90879500D01*
X105836627Y-90879500D01*
X105683899Y-90920423D01*
X105660846Y-90933733D01*
X105637793Y-90947043D01*
X105637792Y-90947043D01*
X105546975Y-90999475D01*
X105546967Y-90999481D01*
X104968481Y-91577967D01*
X104968479Y-91577970D01*
X104928356Y-91647467D01*
X104928355Y-91647468D01*
X104889423Y-91714900D01*
X104848499Y-91867628D01*
X104848499Y-91867630D01*
X104848499Y-92035731D01*
X104848500Y-92035744D01*
X104848500Y-96684270D01*
X104828815Y-96751309D01*
X104776011Y-96797064D01*
X104706853Y-96807008D01*
X104668206Y-96794755D01*
X104578220Y-96748905D01*
X104376129Y-96683242D01*
X104166246Y-96650000D01*
X103953754Y-96650000D01*
X103743872Y-96683242D01*
X103743865Y-96683243D01*
X103671817Y-96706653D01*
X103601976Y-96708648D01*
X103542143Y-96672567D01*
X103511316Y-96609866D01*
X103509500Y-96588722D01*
X103509500Y-89284500D01*
X103529185Y-89217461D01*
X103581989Y-89171706D01*
X103633500Y-89160500D01*
X103778842Y-89160500D01*
X103778843Y-89160499D01*
X103933495Y-89129737D01*
X104079177Y-89069394D01*
X104210287Y-88981789D01*
X104321787Y-88870289D01*
X104409392Y-88739179D01*
X104469735Y-88593497D01*
X104500498Y-88438842D01*
X104500498Y-88281158D01*
X104500498Y-88281155D01*
X104500497Y-88281153D01*
X104492920Y-88243060D01*
X104469735Y-88126503D01*
X104469733Y-88126498D01*
X104409395Y-87980827D01*
X104409388Y-87980814D01*
X104321396Y-87849125D01*
X104300518Y-87782447D01*
X104300498Y-87780234D01*
X104300498Y-81800099D01*
X104320183Y-81733060D01*
X104336817Y-81712418D01*
X104427452Y-81621783D01*
X104564662Y-81484572D01*
X104625983Y-81451089D01*
X104628150Y-81450638D01*
X104701099Y-81436127D01*
X104783497Y-81419737D01*
X104929179Y-81359394D01*
X104950922Y-81344865D01*
X105017598Y-81323987D01*
X105084979Y-81342470D01*
X105131670Y-81394448D01*
X105143814Y-81447967D01*
X105143814Y-81469056D01*
X105184737Y-81621783D01*
X105184740Y-81621790D01*
X105263789Y-81758709D01*
X105263792Y-81758713D01*
X105263794Y-81758716D01*
X105375598Y-81870520D01*
X105375600Y-81870521D01*
X105375604Y-81870524D01*
X105512523Y-81949573D01*
X105512530Y-81949577D01*
X105665257Y-81990500D01*
X105852331Y-81990500D01*
X105852347Y-81990501D01*
X105859943Y-81990501D01*
X106018054Y-81990501D01*
X106018057Y-81990501D01*
X106170785Y-81949577D01*
X106220904Y-81920639D01*
X106307716Y-81870520D01*
X106419520Y-81758716D01*
X106419520Y-81758714D01*
X106429728Y-81748507D01*
X106429729Y-81748504D01*
X107176820Y-81001414D01*
X107238142Y-80967930D01*
X107307834Y-80972914D01*
G37*
%TD.AperFunction*%
%TA.AperFunction,Conductor*%
G36*
X110259566Y-88400817D02*
G01*
X110270381Y-88401397D01*
X110290427Y-88415852D01*
X110312642Y-88426675D01*
X110323186Y-88439474D01*
X110327053Y-88442263D01*
X110330815Y-88448735D01*
X110335083Y-88453916D01*
X110340037Y-88462065D01*
X110352866Y-88493036D01*
X110419459Y-88592698D01*
X110420829Y-88594952D01*
X110433158Y-88638967D01*
X110438854Y-88657156D01*
X110438557Y-88658238D01*
X110438874Y-88659370D01*
X110438874Y-89020709D01*
X110419189Y-89087748D01*
X110417976Y-89089600D01*
X110329983Y-89221289D01*
X110329976Y-89221302D01*
X110269638Y-89366973D01*
X110269635Y-89366985D01*
X110238874Y-89521628D01*
X110238874Y-89679321D01*
X110269635Y-89833964D01*
X110269638Y-89833976D01*
X110329976Y-89979647D01*
X110329983Y-89979660D01*
X110417584Y-90110763D01*
X110417587Y-90110767D01*
X110529081Y-90222261D01*
X110529085Y-90222264D01*
X110660188Y-90309865D01*
X110660201Y-90309872D01*
X110763210Y-90352539D01*
X110805877Y-90370212D01*
X110947054Y-90398294D01*
X110960527Y-90400974D01*
X110960530Y-90400975D01*
X110960532Y-90400975D01*
X111118218Y-90400975D01*
X111118219Y-90400974D01*
X111272871Y-90370212D01*
X111418553Y-90309869D01*
X111549663Y-90222264D01*
X111638666Y-90133260D01*
X111699987Y-90099777D01*
X111769679Y-90104761D01*
X111814027Y-90133262D01*
X112993181Y-91312416D01*
X113007884Y-91339343D01*
X113024477Y-91365162D01*
X113025368Y-91371362D01*
X113026666Y-91373739D01*
X113029500Y-91400097D01*
X113029500Y-91447645D01*
X113029499Y-91447663D01*
X113029499Y-91613369D01*
X113029498Y-91613369D01*
X113070423Y-91766100D01*
X113082118Y-91786356D01*
X113149477Y-91903027D01*
X113149481Y-91903032D01*
X113268349Y-92021900D01*
X113268355Y-92021905D01*
X113490824Y-92244374D01*
X113490834Y-92244385D01*
X113495164Y-92248715D01*
X113495165Y-92248716D01*
X113606969Y-92360520D01*
X113606971Y-92360521D01*
X113606975Y-92360524D01*
X113692952Y-92410162D01*
X113743901Y-92439577D01*
X113855704Y-92469534D01*
X113896627Y-92480500D01*
X113896628Y-92480500D01*
X114064874Y-92480500D01*
X114068826Y-92480753D01*
X114098080Y-92491416D01*
X114127942Y-92500185D01*
X114130622Y-92503278D01*
X114134470Y-92504681D01*
X114153316Y-92529468D01*
X114173697Y-92552989D01*
X114174279Y-92557040D01*
X114176758Y-92560300D01*
X114179211Y-92591338D01*
X114183641Y-92622147D01*
X114181940Y-92625870D01*
X114182263Y-92629953D01*
X114167548Y-92657384D01*
X114154616Y-92685703D01*
X114149290Y-92691422D01*
X114149236Y-92691524D01*
X114149152Y-92691570D01*
X114148584Y-92692181D01*
X113615339Y-93225425D01*
X113554016Y-93258910D01*
X113551850Y-93259361D01*
X113396508Y-93290261D01*
X113396498Y-93290264D01*
X113250827Y-93350602D01*
X113250816Y-93350608D01*
X113137059Y-93426618D01*
X113070382Y-93447495D01*
X113003002Y-93429010D01*
X112980488Y-93411196D01*
X109956819Y-90387527D01*
X109923334Y-90326204D01*
X109920500Y-90299846D01*
X109920500Y-88929765D01*
X109940185Y-88862726D01*
X109941398Y-88860874D01*
X110029390Y-88729185D01*
X110029390Y-88729184D01*
X110029394Y-88729179D01*
X110029687Y-88728473D01*
X110057940Y-88660263D01*
X110089737Y-88583497D01*
X110102021Y-88521738D01*
X110107511Y-88494143D01*
X110118965Y-88472245D01*
X110126517Y-88448714D01*
X110134876Y-88441827D01*
X110139896Y-88432232D01*
X110161368Y-88420004D01*
X110180445Y-88404290D01*
X110191201Y-88403016D01*
X110200611Y-88397658D01*
X110225285Y-88398980D01*
X110249830Y-88396074D01*
X110259566Y-88400817D01*
G37*
%TD.AperFunction*%
%TA.AperFunction,Conductor*%
G36*
X139142539Y-64270185D02*
G01*
X139188294Y-64322989D01*
X139199500Y-64374500D01*
X139199500Y-84620903D01*
X139179815Y-84687942D01*
X139127011Y-84733697D01*
X139057853Y-84743641D01*
X138994297Y-84714616D01*
X138987819Y-84708584D01*
X138444574Y-84165339D01*
X138411089Y-84104016D01*
X138410638Y-84101849D01*
X138379738Y-83946510D01*
X138379737Y-83946503D01*
X138379735Y-83946498D01*
X138319397Y-83800827D01*
X138319390Y-83800814D01*
X138231789Y-83669711D01*
X138231786Y-83669707D01*
X138120292Y-83558213D01*
X138120288Y-83558210D01*
X137989185Y-83470609D01*
X137989172Y-83470602D01*
X137843501Y-83410264D01*
X137843489Y-83410261D01*
X137688845Y-83379500D01*
X137688842Y-83379500D01*
X137531158Y-83379500D01*
X137531155Y-83379500D01*
X137376510Y-83410261D01*
X137376498Y-83410264D01*
X137230827Y-83470602D01*
X137230814Y-83470609D01*
X137099711Y-83558210D01*
X137099707Y-83558213D01*
X136988213Y-83669707D01*
X136988210Y-83669711D01*
X136900609Y-83800814D01*
X136900602Y-83800827D01*
X136840264Y-83946498D01*
X136840261Y-83946510D01*
X136809500Y-84101153D01*
X136809500Y-84258846D01*
X136840261Y-84413489D01*
X136840264Y-84413501D01*
X136900602Y-84559172D01*
X136900609Y-84559185D01*
X136988210Y-84690288D01*
X136988213Y-84690292D01*
X137099707Y-84801786D01*
X137099711Y-84801789D01*
X137230814Y-84889390D01*
X137230827Y-84889397D01*
X137329599Y-84930309D01*
X137376503Y-84949737D01*
X137441147Y-84962595D01*
X137531849Y-84980638D01*
X137593760Y-85013023D01*
X137595339Y-85014574D01*
X138263181Y-85682416D01*
X138296666Y-85743739D01*
X138299500Y-85770097D01*
X138299500Y-90285500D01*
X138279815Y-90352539D01*
X138227011Y-90398294D01*
X138175500Y-90409500D01*
X135924500Y-90409500D01*
X135857461Y-90389815D01*
X135811706Y-90337011D01*
X135803008Y-90297029D01*
X135801097Y-90297218D01*
X135800500Y-90291163D01*
X135800500Y-90291158D01*
X135769737Y-90136503D01*
X135726239Y-90031488D01*
X135709397Y-89990827D01*
X135709390Y-89990814D01*
X135621789Y-89859711D01*
X135617924Y-89855001D01*
X135619298Y-89853873D01*
X135589838Y-89799921D01*
X135587004Y-89773563D01*
X135587004Y-88195033D01*
X135606689Y-88127994D01*
X135607902Y-88126142D01*
X135695894Y-87994453D01*
X135695894Y-87994452D01*
X135695898Y-87994447D01*
X135756241Y-87848765D01*
X135787004Y-87694110D01*
X135787004Y-87536426D01*
X135787004Y-87536423D01*
X135787003Y-87536421D01*
X135756241Y-87381771D01*
X135756239Y-87381766D01*
X135695901Y-87236095D01*
X135695894Y-87236082D01*
X135608293Y-87104979D01*
X135608290Y-87104975D01*
X135496796Y-86993481D01*
X135496792Y-86993478D01*
X135365689Y-86905877D01*
X135365676Y-86905870D01*
X135220005Y-86845532D01*
X135219993Y-86845529D01*
X135065349Y-86814768D01*
X135065346Y-86814768D01*
X134907662Y-86814768D01*
X134907659Y-86814768D01*
X134753014Y-86845529D01*
X134753002Y-86845532D01*
X134607331Y-86905870D01*
X134607318Y-86905877D01*
X134476215Y-86993478D01*
X134476211Y-86993481D01*
X134364717Y-87104975D01*
X134364714Y-87104979D01*
X134277113Y-87236082D01*
X134277106Y-87236095D01*
X134216768Y-87381766D01*
X134216765Y-87381778D01*
X134186004Y-87536421D01*
X134186004Y-87694114D01*
X134216765Y-87848757D01*
X134216768Y-87848769D01*
X134277106Y-87994440D01*
X134277113Y-87994453D01*
X134365106Y-88126142D01*
X134385984Y-88192819D01*
X134386004Y-88195033D01*
X134386004Y-89810432D01*
X134366319Y-89877471D01*
X134365106Y-89879323D01*
X134290609Y-89990814D01*
X134290602Y-89990827D01*
X134230264Y-90136498D01*
X134230261Y-90136510D01*
X134199500Y-90291153D01*
X134199500Y-90448846D01*
X134230261Y-90603489D01*
X134230264Y-90603501D01*
X134290602Y-90749172D01*
X134290608Y-90749183D01*
X134326586Y-90803028D01*
X134347463Y-90869705D01*
X134328978Y-90937085D01*
X134311164Y-90959599D01*
X132889102Y-92381661D01*
X132827779Y-92415146D01*
X132758087Y-92410162D01*
X132713740Y-92381661D01*
X132600292Y-92268213D01*
X132600288Y-92268210D01*
X132469185Y-92180609D01*
X132469172Y-92180602D01*
X132323501Y-92120264D01*
X132323489Y-92120261D01*
X132168845Y-92089500D01*
X132168842Y-92089500D01*
X132011158Y-92089500D01*
X132011155Y-92089500D01*
X131856511Y-92120260D01*
X131856502Y-92120263D01*
X131822025Y-92134543D01*
X131752556Y-92142009D01*
X131690078Y-92110732D01*
X131686896Y-92107661D01*
X131484465Y-91905230D01*
X131484463Y-91905227D01*
X131365592Y-91786356D01*
X131365591Y-91786355D01*
X131264324Y-91727889D01*
X131264323Y-91727888D01*
X131228658Y-91707297D01*
X131172756Y-91692318D01*
X131075932Y-91666374D01*
X130917818Y-91666374D01*
X130910222Y-91666374D01*
X130910206Y-91666375D01*
X130068112Y-91666375D01*
X130001073Y-91646690D01*
X129999221Y-91645477D01*
X129867531Y-91557484D01*
X129867518Y-91557477D01*
X129721847Y-91497139D01*
X129721837Y-91497136D01*
X129561588Y-91465260D01*
X129499677Y-91432875D01*
X129465103Y-91372159D01*
X129461780Y-91343643D01*
X129461780Y-89568816D01*
X129481465Y-89501777D01*
X129498095Y-89481139D01*
X129719116Y-89260117D01*
X129780437Y-89226634D01*
X129850128Y-89231618D01*
X129854208Y-89233223D01*
X129966503Y-89279737D01*
X130121153Y-89310499D01*
X130121156Y-89310500D01*
X130121158Y-89310500D01*
X130278844Y-89310500D01*
X130278845Y-89310499D01*
X130433497Y-89279737D01*
X130561700Y-89226634D01*
X130579172Y-89219397D01*
X130579172Y-89219396D01*
X130579179Y-89219394D01*
X130710289Y-89131789D01*
X130821789Y-89020289D01*
X130909394Y-88889179D01*
X130969737Y-88743497D01*
X131000500Y-88588842D01*
X131000500Y-88431158D01*
X131000500Y-88431155D01*
X131000499Y-88431153D01*
X130994539Y-88401189D01*
X130969737Y-88276503D01*
X130961748Y-88257215D01*
X130909397Y-88130827D01*
X130909390Y-88130814D01*
X130821789Y-87999711D01*
X130821786Y-87999707D01*
X130710292Y-87888213D01*
X130710288Y-87888210D01*
X130579185Y-87800609D01*
X130579172Y-87800602D01*
X130433501Y-87740264D01*
X130433489Y-87740261D01*
X130278845Y-87709500D01*
X130278842Y-87709500D01*
X130121158Y-87709500D01*
X130121155Y-87709500D01*
X129966510Y-87740261D01*
X129966498Y-87740264D01*
X129820827Y-87800602D01*
X129820814Y-87800609D01*
X129689125Y-87888602D01*
X129622447Y-87909480D01*
X129620234Y-87909500D01*
X129540943Y-87909500D01*
X129388212Y-87950423D01*
X129357463Y-87968178D01*
X129357460Y-87968179D01*
X129251290Y-88029475D01*
X129251282Y-88029481D01*
X128380761Y-88900002D01*
X128380755Y-88900010D01*
X128337172Y-88975500D01*
X128337172Y-88975501D01*
X128301703Y-89036935D01*
X128260779Y-89189663D01*
X128260779Y-89189665D01*
X128260779Y-89357766D01*
X128260780Y-89357779D01*
X128260780Y-91518860D01*
X128252135Y-91548300D01*
X128245612Y-91578287D01*
X128241857Y-91583302D01*
X128241095Y-91585899D01*
X128224461Y-91606541D01*
X128104783Y-91726219D01*
X128043460Y-91759704D01*
X127973768Y-91754720D01*
X127917835Y-91712848D01*
X127893418Y-91647384D01*
X127893102Y-91638538D01*
X127893102Y-91603758D01*
X127893101Y-91603756D01*
X127862341Y-91449114D01*
X127862340Y-91449111D01*
X127862339Y-91449106D01*
X127849937Y-91419165D01*
X127840500Y-91371717D01*
X127840500Y-89869060D01*
X127840501Y-89869047D01*
X127840501Y-89700944D01*
X127828820Y-89657351D01*
X127799577Y-89548216D01*
X127788527Y-89529077D01*
X127720524Y-89411290D01*
X127720521Y-89411287D01*
X127720520Y-89411284D01*
X127720517Y-89411281D01*
X127715574Y-89404839D01*
X127717876Y-89403072D01*
X127691088Y-89354014D01*
X127690637Y-89351847D01*
X127689827Y-89347777D01*
X127659737Y-89196503D01*
X127632931Y-89131786D01*
X127599397Y-89050827D01*
X127599390Y-89050814D01*
X127511789Y-88919711D01*
X127511786Y-88919707D01*
X127400292Y-88808213D01*
X127400288Y-88808210D01*
X127269185Y-88720609D01*
X127269172Y-88720602D01*
X127123501Y-88660264D01*
X127123489Y-88660261D01*
X126968845Y-88629500D01*
X126968842Y-88629500D01*
X126811158Y-88629500D01*
X126811155Y-88629500D01*
X126656510Y-88660261D01*
X126656498Y-88660264D01*
X126510827Y-88720602D01*
X126510814Y-88720609D01*
X126379711Y-88808210D01*
X126379707Y-88808213D01*
X126268213Y-88919707D01*
X126268210Y-88919711D01*
X126180609Y-89050814D01*
X126180602Y-89050827D01*
X126120264Y-89196498D01*
X126120261Y-89196510D01*
X126089500Y-89351153D01*
X126089500Y-89508846D01*
X126120261Y-89663489D01*
X126120264Y-89663501D01*
X126180602Y-89809172D01*
X126180609Y-89809185D01*
X126268210Y-89940288D01*
X126268213Y-89940292D01*
X126298086Y-89970165D01*
X126331571Y-90031488D01*
X126326587Y-90101180D01*
X126284715Y-90157113D01*
X126234598Y-90179463D01*
X126165141Y-90193279D01*
X126165132Y-90193282D01*
X126019461Y-90253620D01*
X126019448Y-90253627D01*
X125888345Y-90341228D01*
X125888341Y-90341231D01*
X125776847Y-90452725D01*
X125776844Y-90452729D01*
X125689243Y-90583832D01*
X125689236Y-90583845D01*
X125628898Y-90729516D01*
X125628895Y-90729526D01*
X125597996Y-90884867D01*
X125589230Y-90901623D01*
X125585211Y-90920102D01*
X125566464Y-90945144D01*
X125565611Y-90946777D01*
X125564106Y-90948309D01*
X125414149Y-91098267D01*
X125352829Y-91131751D01*
X125326470Y-91134585D01*
X124689774Y-91134585D01*
X124622735Y-91114900D01*
X124602093Y-91098266D01*
X124513308Y-91009481D01*
X124513300Y-91009475D01*
X124412605Y-90951339D01*
X124412599Y-90951336D01*
X124404161Y-90946465D01*
X124376376Y-90930423D01*
X124316121Y-90914277D01*
X124310036Y-90911940D01*
X124287237Y-90894523D01*
X124262745Y-90879594D01*
X124259825Y-90873583D01*
X124254513Y-90869525D01*
X124244749Y-90842547D01*
X124232217Y-90816747D01*
X124231258Y-90805269D01*
X124230736Y-90803826D01*
X124231030Y-90802534D01*
X124230500Y-90796186D01*
X124230500Y-90761155D01*
X124230499Y-90761153D01*
X124224139Y-90729179D01*
X124199737Y-90606503D01*
X124190349Y-90583839D01*
X124139397Y-90460827D01*
X124139390Y-90460814D01*
X124051398Y-90329125D01*
X124030520Y-90262447D01*
X124030500Y-90260234D01*
X124030500Y-88749060D01*
X124030501Y-88749047D01*
X124030501Y-88580944D01*
X124030501Y-88580943D01*
X123989577Y-88428216D01*
X123980586Y-88412643D01*
X123910524Y-88291290D01*
X123910518Y-88291282D01*
X123210983Y-87591747D01*
X123129389Y-87510153D01*
X131084497Y-87510153D01*
X131084497Y-87667846D01*
X131115258Y-87822489D01*
X131115261Y-87822501D01*
X131175599Y-87968172D01*
X131175606Y-87968185D01*
X131263207Y-88099288D01*
X131263210Y-88099292D01*
X131374704Y-88210786D01*
X131374708Y-88210789D01*
X131505811Y-88298390D01*
X131505824Y-88298397D01*
X131651495Y-88358735D01*
X131651500Y-88358737D01*
X131710259Y-88370425D01*
X131759691Y-88380258D01*
X131821602Y-88412643D01*
X131856176Y-88473358D01*
X131859500Y-88501875D01*
X131859500Y-89770234D01*
X131839815Y-89837273D01*
X131838602Y-89839125D01*
X131750609Y-89970814D01*
X131750602Y-89970827D01*
X131690264Y-90116498D01*
X131690261Y-90116510D01*
X131659500Y-90271153D01*
X131659500Y-90428846D01*
X131690261Y-90583489D01*
X131690264Y-90583501D01*
X131750602Y-90729172D01*
X131750609Y-90729185D01*
X131838210Y-90860288D01*
X131838213Y-90860292D01*
X131949707Y-90971786D01*
X131949711Y-90971789D01*
X132080814Y-91059390D01*
X132080827Y-91059397D01*
X132206095Y-91111284D01*
X132226503Y-91119737D01*
X132381153Y-91150499D01*
X132381156Y-91150500D01*
X132381158Y-91150500D01*
X132538844Y-91150500D01*
X132538845Y-91150499D01*
X132693497Y-91119737D01*
X132839179Y-91059394D01*
X132970289Y-90971789D01*
X133081789Y-90860289D01*
X133169394Y-90729179D01*
X133229737Y-90583497D01*
X133260500Y-90428842D01*
X133260500Y-90271158D01*
X133260500Y-90271155D01*
X133260499Y-90271153D01*
X133257011Y-90253620D01*
X133229737Y-90116503D01*
X133227360Y-90110764D01*
X133169397Y-89970827D01*
X133169390Y-89970814D01*
X133081398Y-89839125D01*
X133060520Y-89772447D01*
X133060500Y-89770234D01*
X133060500Y-88253062D01*
X133060501Y-88253049D01*
X133060501Y-88084948D01*
X133060501Y-88084946D01*
X133019577Y-87932218D01*
X132977593Y-87859500D01*
X132940520Y-87795287D01*
X132828716Y-87683483D01*
X132824385Y-87679152D01*
X132824374Y-87679142D01*
X132719571Y-87574339D01*
X132686086Y-87513016D01*
X132685635Y-87510849D01*
X132654735Y-87355510D01*
X132654734Y-87355503D01*
X132650491Y-87345260D01*
X132594394Y-87209827D01*
X132594387Y-87209814D01*
X132506786Y-87078711D01*
X132506783Y-87078707D01*
X132395289Y-86967213D01*
X132395285Y-86967210D01*
X132264182Y-86879609D01*
X132264169Y-86879602D01*
X132118498Y-86819264D01*
X132118486Y-86819261D01*
X131963842Y-86788500D01*
X131963839Y-86788500D01*
X131806155Y-86788500D01*
X131806152Y-86788500D01*
X131651507Y-86819261D01*
X131651495Y-86819264D01*
X131505824Y-86879602D01*
X131505811Y-86879609D01*
X131374708Y-86967210D01*
X131374704Y-86967213D01*
X131263210Y-87078707D01*
X131263207Y-87078711D01*
X131175606Y-87209814D01*
X131175599Y-87209827D01*
X131115261Y-87355498D01*
X131115258Y-87355510D01*
X131084497Y-87510153D01*
X123129389Y-87510153D01*
X122336916Y-86717681D01*
X122303431Y-86656358D01*
X122308415Y-86586667D01*
X122336916Y-86542319D01*
X122534950Y-86344285D01*
X122959630Y-85919605D01*
X123020951Y-85886122D01*
X123023099Y-85885674D01*
X123153497Y-85859737D01*
X123299179Y-85799394D01*
X123430289Y-85711789D01*
X123541789Y-85600289D01*
X123629394Y-85469179D01*
X123689737Y-85323497D01*
X123720500Y-85168842D01*
X123720500Y-85011158D01*
X123720500Y-85011155D01*
X123720499Y-85011153D01*
X123708283Y-84949738D01*
X123689737Y-84856503D01*
X123689735Y-84856498D01*
X123629397Y-84710827D01*
X123629390Y-84710814D01*
X123541789Y-84579711D01*
X123541786Y-84579707D01*
X123430292Y-84468213D01*
X123430288Y-84468210D01*
X123299185Y-84380609D01*
X123299172Y-84380602D01*
X123153501Y-84320264D01*
X123153489Y-84320261D01*
X122998845Y-84289500D01*
X122998842Y-84289500D01*
X122841158Y-84289500D01*
X122841155Y-84289500D01*
X122686510Y-84320261D01*
X122686498Y-84320264D01*
X122540827Y-84380602D01*
X122540814Y-84380609D01*
X122409711Y-84468210D01*
X122409707Y-84468213D01*
X122298213Y-84579707D01*
X122298210Y-84579711D01*
X122210609Y-84710814D01*
X122210602Y-84710827D01*
X122150264Y-84856498D01*
X122150261Y-84856510D01*
X122119500Y-85011153D01*
X122118903Y-85017218D01*
X122117395Y-85017069D01*
X122099815Y-85076941D01*
X122083181Y-85097583D01*
X121093097Y-86087667D01*
X121031774Y-86121152D01*
X120962082Y-86116168D01*
X120936525Y-86103088D01*
X120803316Y-86014080D01*
X120803303Y-86014073D01*
X120657632Y-85953735D01*
X120657620Y-85953732D01*
X120502976Y-85922971D01*
X120502973Y-85922971D01*
X120345289Y-85922971D01*
X120345286Y-85922971D01*
X120190641Y-85953732D01*
X120190629Y-85953735D01*
X120044958Y-86014073D01*
X120044945Y-86014080D01*
X119913842Y-86101681D01*
X119913838Y-86101684D01*
X119802344Y-86213178D01*
X119802341Y-86213182D01*
X119714740Y-86344285D01*
X119714733Y-86344298D01*
X119654395Y-86489969D01*
X119654392Y-86489981D01*
X119623631Y-86644624D01*
X119623631Y-86734838D01*
X119619406Y-86766931D01*
X119589499Y-86878545D01*
X119589499Y-87046648D01*
X119589500Y-87046661D01*
X119589500Y-89533667D01*
X119583261Y-89554912D01*
X119581682Y-89577001D01*
X119573609Y-89587784D01*
X119569815Y-89600706D01*
X119553081Y-89615205D01*
X119539810Y-89632934D01*
X119527189Y-89637641D01*
X119517011Y-89646461D01*
X119495093Y-89649612D01*
X119474346Y-89657351D01*
X119461185Y-89654488D01*
X119447853Y-89656405D01*
X119427709Y-89647205D01*
X119406073Y-89642499D01*
X119388347Y-89629230D01*
X119384297Y-89627380D01*
X119377819Y-89621348D01*
X119240022Y-89483551D01*
X119206537Y-89422228D01*
X119206086Y-89420061D01*
X119180266Y-89290261D01*
X119175185Y-89264715D01*
X119173025Y-89259500D01*
X119114845Y-89119039D01*
X119114838Y-89119026D01*
X119027237Y-88987923D01*
X119027234Y-88987919D01*
X118915740Y-88876425D01*
X118915736Y-88876422D01*
X118784633Y-88788821D01*
X118784620Y-88788814D01*
X118638949Y-88728476D01*
X118638937Y-88728473D01*
X118484293Y-88697712D01*
X118484290Y-88697712D01*
X118326606Y-88697712D01*
X118326603Y-88697712D01*
X118171958Y-88728473D01*
X118171946Y-88728476D01*
X118026275Y-88788814D01*
X118026262Y-88788821D01*
X117895159Y-88876422D01*
X117895155Y-88876425D01*
X117783661Y-88987919D01*
X117783658Y-88987923D01*
X117696057Y-89119026D01*
X117696054Y-89119033D01*
X117668514Y-89185519D01*
X117624672Y-89239922D01*
X117558378Y-89261986D01*
X117534907Y-89260096D01*
X117534907Y-89260097D01*
X117534892Y-89260095D01*
X117529767Y-89259683D01*
X117528849Y-89259500D01*
X117528842Y-89259500D01*
X117371158Y-89259500D01*
X117371155Y-89259500D01*
X117216510Y-89290261D01*
X117216498Y-89290264D01*
X117070827Y-89350602D01*
X117070809Y-89350612D01*
X117013928Y-89388619D01*
X116947251Y-89409497D01*
X116879871Y-89391012D01*
X116857357Y-89373198D01*
X116640423Y-89156264D01*
X116606938Y-89094941D01*
X116606487Y-89092774D01*
X116575587Y-88937435D01*
X116575586Y-88937428D01*
X116571581Y-88927759D01*
X116515246Y-88791752D01*
X116515239Y-88791739D01*
X116427638Y-88660636D01*
X116427635Y-88660632D01*
X116316141Y-88549138D01*
X116316137Y-88549135D01*
X116185034Y-88461534D01*
X116185021Y-88461527D01*
X116039350Y-88401189D01*
X116039338Y-88401186D01*
X115884694Y-88370425D01*
X115884691Y-88370425D01*
X115727007Y-88370425D01*
X115727004Y-88370425D01*
X115684739Y-88378832D01*
X115615148Y-88372605D01*
X115559970Y-88329742D01*
X115536726Y-88263852D01*
X115536548Y-88257215D01*
X115536548Y-85276573D01*
X115556233Y-85209534D01*
X115557446Y-85207682D01*
X115583396Y-85168846D01*
X115645442Y-85075987D01*
X115705785Y-84930305D01*
X115736548Y-84775650D01*
X115736548Y-84617966D01*
X115736548Y-84617963D01*
X115736547Y-84617961D01*
X115734999Y-84610181D01*
X115705785Y-84463311D01*
X115671526Y-84380602D01*
X115645445Y-84317635D01*
X115645438Y-84317622D01*
X115557837Y-84186519D01*
X115557834Y-84186515D01*
X115446340Y-84075021D01*
X115446336Y-84075018D01*
X115315233Y-83987417D01*
X115315220Y-83987410D01*
X115169549Y-83927072D01*
X115169537Y-83927069D01*
X115014893Y-83896308D01*
X115014890Y-83896308D01*
X114857206Y-83896308D01*
X114857203Y-83896308D01*
X114702558Y-83927069D01*
X114702546Y-83927072D01*
X114556875Y-83987410D01*
X114556862Y-83987417D01*
X114425759Y-84075018D01*
X114425755Y-84075021D01*
X114314261Y-84186515D01*
X114314258Y-84186519D01*
X114226657Y-84317622D01*
X114226650Y-84317635D01*
X114166312Y-84463306D01*
X114166309Y-84463318D01*
X114135548Y-84617961D01*
X114135548Y-84775654D01*
X114166309Y-84930297D01*
X114166312Y-84930309D01*
X114226650Y-85075980D01*
X114226657Y-85075993D01*
X114314650Y-85207682D01*
X114335528Y-85274359D01*
X114335548Y-85276573D01*
X114335548Y-89073693D01*
X114335547Y-89073711D01*
X114335547Y-89239417D01*
X114335546Y-89239417D01*
X114376471Y-89392149D01*
X114392062Y-89419151D01*
X114392063Y-89419156D01*
X114392065Y-89419156D01*
X114447601Y-89515349D01*
X114455527Y-89529077D01*
X114455529Y-89529080D01*
X114574397Y-89647948D01*
X114574403Y-89647953D01*
X115650244Y-90723794D01*
X115683729Y-90785117D01*
X115678745Y-90854809D01*
X115650246Y-90899154D01*
X115630690Y-90918709D01*
X115630686Y-90918715D01*
X115543087Y-91049815D01*
X115543080Y-91049828D01*
X115482742Y-91195499D01*
X115482739Y-91195511D01*
X115451978Y-91350154D01*
X115451978Y-91445563D01*
X115445739Y-91466808D01*
X115444160Y-91488897D01*
X115436087Y-91499680D01*
X115432293Y-91512602D01*
X115415559Y-91527101D01*
X115402288Y-91544830D01*
X115389667Y-91549537D01*
X115379489Y-91558357D01*
X115357571Y-91561508D01*
X115336824Y-91569247D01*
X115323663Y-91566384D01*
X115310331Y-91568301D01*
X115290187Y-91559101D01*
X115268551Y-91554395D01*
X115250825Y-91541126D01*
X115246775Y-91539276D01*
X115240297Y-91533244D01*
X115225408Y-91518355D01*
X115225406Y-91518352D01*
X115106535Y-91399481D01*
X115106534Y-91399480D01*
X115000807Y-91338439D01*
X115000806Y-91338438D01*
X114969601Y-91320422D01*
X114913699Y-91305443D01*
X114816875Y-91279499D01*
X114658761Y-91279499D01*
X114651165Y-91279499D01*
X114651149Y-91279500D01*
X114354500Y-91279500D01*
X114287461Y-91259815D01*
X114241706Y-91207011D01*
X114230500Y-91155500D01*
X114230500Y-91020945D01*
X114230500Y-91020943D01*
X114230382Y-91020500D01*
X114189577Y-90868215D01*
X114154357Y-90807212D01*
X114110520Y-90731284D01*
X113998716Y-90619480D01*
X113998715Y-90619479D01*
X113994385Y-90615149D01*
X113994374Y-90615139D01*
X112604574Y-89225339D01*
X112571089Y-89164016D01*
X112570638Y-89161849D01*
X112545790Y-89036933D01*
X112539737Y-89006503D01*
X112520515Y-88960097D01*
X112479397Y-88860827D01*
X112479390Y-88860814D01*
X112391789Y-88729711D01*
X112391786Y-88729707D01*
X112280292Y-88618213D01*
X112280288Y-88618210D01*
X112149185Y-88530609D01*
X112149172Y-88530602D01*
X112003501Y-88470264D01*
X112003491Y-88470261D01*
X111936623Y-88456960D01*
X111874712Y-88424575D01*
X111840138Y-88363859D01*
X111839198Y-88311151D01*
X111841737Y-88298390D01*
X111859162Y-88210789D01*
X111862760Y-88192701D01*
X111862760Y-88035012D01*
X111862759Y-88035010D01*
X111860090Y-88021591D01*
X111831997Y-87880360D01*
X111808026Y-87822489D01*
X111771657Y-87734684D01*
X111771650Y-87734671D01*
X111684049Y-87603568D01*
X111684046Y-87603564D01*
X111572552Y-87492070D01*
X111572548Y-87492067D01*
X111441445Y-87404466D01*
X111441432Y-87404459D01*
X111295761Y-87344121D01*
X111295749Y-87344118D01*
X111141105Y-87313357D01*
X111141102Y-87313357D01*
X110983418Y-87313357D01*
X110983415Y-87313357D01*
X110828770Y-87344118D01*
X110828758Y-87344121D01*
X110683087Y-87404459D01*
X110683074Y-87404466D01*
X110551971Y-87492067D01*
X110551967Y-87492070D01*
X110440473Y-87603564D01*
X110440470Y-87603568D01*
X110352869Y-87734671D01*
X110352862Y-87734684D01*
X110292524Y-87880355D01*
X110292522Y-87880364D01*
X110274748Y-87969715D01*
X110242362Y-88031625D01*
X110181646Y-88066199D01*
X110111877Y-88062458D01*
X110055205Y-88021591D01*
X110038569Y-87992972D01*
X110029394Y-87970821D01*
X110029392Y-87970818D01*
X110029390Y-87970814D01*
X109941789Y-87839711D01*
X109941786Y-87839707D01*
X109830292Y-87728213D01*
X109830288Y-87728210D01*
X109699185Y-87640609D01*
X109699172Y-87640602D01*
X109553501Y-87580264D01*
X109553489Y-87580261D01*
X109398845Y-87549500D01*
X109398842Y-87549500D01*
X109241158Y-87549500D01*
X109241155Y-87549500D01*
X109086510Y-87580261D01*
X109086498Y-87580264D01*
X108940827Y-87640602D01*
X108940814Y-87640609D01*
X108838560Y-87708934D01*
X108808262Y-87718420D01*
X108778515Y-87729516D01*
X108775158Y-87728785D01*
X108771882Y-87729812D01*
X108741267Y-87721413D01*
X108710242Y-87714664D01*
X108706526Y-87711882D01*
X108704502Y-87711327D01*
X108681988Y-87693513D01*
X108625819Y-87637344D01*
X108592334Y-87576021D01*
X108589500Y-87549663D01*
X108589500Y-80356285D01*
X108609185Y-80289246D01*
X108625815Y-80268608D01*
X109364752Y-79529670D01*
X109364757Y-79529667D01*
X109374960Y-79519463D01*
X109374962Y-79519463D01*
X109486766Y-79407659D01*
X109506644Y-79373227D01*
X109557206Y-79325015D01*
X109625812Y-79311789D01*
X109676029Y-79327840D01*
X109775170Y-79385079D01*
X109880015Y-79413172D01*
X109927896Y-79426002D01*
X109927897Y-79426002D01*
X110604670Y-79426002D01*
X110671709Y-79445687D01*
X110717464Y-79498491D01*
X110727408Y-79567649D01*
X110719231Y-79597452D01*
X110714210Y-79609577D01*
X110673395Y-79708112D01*
X110673393Y-79708118D01*
X110642494Y-79863458D01*
X110610109Y-79925369D01*
X110608558Y-79926947D01*
X110411832Y-80123672D01*
X110360157Y-80154648D01*
X110355385Y-80156095D01*
X110209705Y-80216437D01*
X110209692Y-80216444D01*
X110078589Y-80304045D01*
X110078585Y-80304048D01*
X109967091Y-80415542D01*
X109967088Y-80415546D01*
X109879487Y-80546649D01*
X109879480Y-80546662D01*
X109819142Y-80692333D01*
X109819139Y-80692345D01*
X109788378Y-80846988D01*
X109788378Y-81004681D01*
X109819139Y-81159324D01*
X109819142Y-81159336D01*
X109879480Y-81305007D01*
X109879487Y-81305020D01*
X109967088Y-81436123D01*
X109967091Y-81436127D01*
X110078585Y-81547621D01*
X110078589Y-81547624D01*
X110209692Y-81635225D01*
X110209705Y-81635232D01*
X110355376Y-81695570D01*
X110355381Y-81695572D01*
X110510031Y-81726334D01*
X110510034Y-81726335D01*
X110510036Y-81726335D01*
X110667722Y-81726335D01*
X110667723Y-81726334D01*
X110822375Y-81695572D01*
X110968057Y-81635229D01*
X111099167Y-81547624D01*
X111210667Y-81436124D01*
X111298272Y-81305014D01*
X111358615Y-81159332D01*
X111389378Y-81004677D01*
X111389378Y-80895960D01*
X111398023Y-80866517D01*
X111404547Y-80836531D01*
X111408300Y-80831516D01*
X111409063Y-80828921D01*
X111425690Y-80808285D01*
X111457796Y-80776180D01*
X111519118Y-80742698D01*
X111521283Y-80742248D01*
X111596184Y-80727348D01*
X111676629Y-80711347D01*
X111811080Y-80655656D01*
X111822304Y-80651007D01*
X111822304Y-80651006D01*
X111822311Y-80651004D01*
X111953421Y-80563399D01*
X111991139Y-80525681D01*
X111999085Y-80521341D01*
X112004511Y-80514094D01*
X112029267Y-80504860D01*
X112052461Y-80492195D01*
X112061492Y-80492840D01*
X112069975Y-80489677D01*
X112095796Y-80495294D01*
X112122153Y-80497179D01*
X112131206Y-80502997D01*
X112138248Y-80504529D01*
X112166502Y-80525680D01*
X112281667Y-80640845D01*
X112281677Y-80640856D01*
X112286007Y-80645186D01*
X112286008Y-80645187D01*
X112397812Y-80756991D01*
X112397814Y-80756992D01*
X112397818Y-80756995D01*
X112454117Y-80789499D01*
X112454122Y-80789501D01*
X112534737Y-80836045D01*
X112534738Y-80836046D01*
X112534740Y-80836046D01*
X112534743Y-80836048D01*
X112687471Y-80876972D01*
X112687474Y-80876972D01*
X112853181Y-80876972D01*
X112853197Y-80876971D01*
X114593958Y-80876971D01*
X114660997Y-80896656D01*
X114662849Y-80897869D01*
X114794538Y-80985861D01*
X114794551Y-80985868D01*
X114898627Y-81028977D01*
X114940227Y-81046208D01*
X115088120Y-81075626D01*
X115094877Y-81076970D01*
X115094880Y-81076971D01*
X115094882Y-81076971D01*
X115252568Y-81076971D01*
X115252569Y-81076970D01*
X115407221Y-81046208D01*
X115552903Y-80985865D01*
X115684013Y-80898260D01*
X115795513Y-80786760D01*
X115883118Y-80655650D01*
X115885043Y-80651004D01*
X115921329Y-80563399D01*
X115943461Y-80509968D01*
X115974224Y-80355313D01*
X115974224Y-80197629D01*
X115974224Y-80197626D01*
X115974223Y-80197624D01*
X115962703Y-80139711D01*
X115943461Y-80042974D01*
X115937346Y-80028210D01*
X115883121Y-79897298D01*
X115883114Y-79897285D01*
X115795513Y-79766182D01*
X115795510Y-79766178D01*
X115684016Y-79654684D01*
X115684012Y-79654681D01*
X115552909Y-79567080D01*
X115552896Y-79567073D01*
X115407225Y-79506735D01*
X115407213Y-79506732D01*
X115252569Y-79475971D01*
X115252566Y-79475971D01*
X115094882Y-79475971D01*
X115094879Y-79475971D01*
X114940234Y-79506732D01*
X114940222Y-79506735D01*
X114794551Y-79567073D01*
X114794538Y-79567080D01*
X114662849Y-79655073D01*
X114596171Y-79675951D01*
X114593958Y-79675971D01*
X113170892Y-79675971D01*
X113161140Y-79673107D01*
X113151057Y-79674374D01*
X113128181Y-79663429D01*
X113103853Y-79656286D01*
X113097198Y-79648606D01*
X113088030Y-79644220D01*
X113074701Y-79622643D01*
X113058098Y-79603482D01*
X113056651Y-79593424D01*
X113051310Y-79584777D01*
X113051762Y-79559421D01*
X113048154Y-79534324D01*
X113052408Y-79523220D01*
X113052557Y-79514919D01*
X113067790Y-79483081D01*
X113102382Y-79431310D01*
X113155994Y-79386504D01*
X113205484Y-79376200D01*
X113227062Y-79376200D01*
X113227063Y-79376199D01*
X113381715Y-79345437D01*
X113527397Y-79285094D01*
X113658507Y-79197489D01*
X113770007Y-79085989D01*
X113857612Y-78954879D01*
X113917955Y-78809197D01*
X113939896Y-78698888D01*
X113972279Y-78636982D01*
X113973775Y-78635458D01*
X116866675Y-75742559D01*
X116927996Y-75709076D01*
X116997688Y-75714060D01*
X117001754Y-75715660D01*
X117041570Y-75732152D01*
X117196220Y-75762914D01*
X117196223Y-75762915D01*
X117325500Y-75762915D01*
X117392539Y-75782600D01*
X117438294Y-75835404D01*
X117449500Y-75886915D01*
X117449500Y-76550234D01*
X117429815Y-76617273D01*
X117428602Y-76619125D01*
X117340609Y-76750814D01*
X117340602Y-76750827D01*
X117280264Y-76896498D01*
X117280261Y-76896510D01*
X117249500Y-77051153D01*
X117249500Y-77208846D01*
X117280261Y-77363489D01*
X117280264Y-77363501D01*
X117340602Y-77509172D01*
X117340609Y-77509185D01*
X117428210Y-77640288D01*
X117428213Y-77640292D01*
X117539707Y-77751786D01*
X117539711Y-77751789D01*
X117670814Y-77839390D01*
X117670827Y-77839397D01*
X117816498Y-77899735D01*
X117816503Y-77899737D01*
X117949033Y-77926099D01*
X117971153Y-77930499D01*
X117971156Y-77930500D01*
X117971158Y-77930500D01*
X118128844Y-77930500D01*
X118128845Y-77930499D01*
X118283497Y-77899737D01*
X118429179Y-77839394D01*
X118560289Y-77751789D01*
X118671789Y-77640289D01*
X118759394Y-77509179D01*
X118819737Y-77363497D01*
X118850500Y-77208842D01*
X118850500Y-77051158D01*
X118850500Y-77051155D01*
X118850499Y-77051153D01*
X118849002Y-77043629D01*
X118819737Y-76896503D01*
X118792239Y-76830116D01*
X118759397Y-76750827D01*
X118759390Y-76750814D01*
X118671398Y-76619125D01*
X118650520Y-76552447D01*
X118650500Y-76550234D01*
X118650500Y-75710509D01*
X118670185Y-75643470D01*
X118686820Y-75622827D01*
X118741478Y-75568169D01*
X118741481Y-75568166D01*
X118829086Y-75437056D01*
X118889429Y-75291374D01*
X118920192Y-75136719D01*
X118920192Y-74979035D01*
X118920192Y-74979032D01*
X118920191Y-74979030D01*
X118912479Y-74940261D01*
X118889429Y-74824380D01*
X118889427Y-74824375D01*
X118829089Y-74678704D01*
X118829082Y-74678691D01*
X118741481Y-74547588D01*
X118741478Y-74547584D01*
X118675075Y-74481181D01*
X118641590Y-74419858D01*
X118646574Y-74350166D01*
X118688446Y-74294233D01*
X118753910Y-74269816D01*
X118762756Y-74269500D01*
X121158903Y-74269500D01*
X121225942Y-74289185D01*
X121246584Y-74305819D01*
X122275425Y-75334660D01*
X122308910Y-75395983D01*
X122309361Y-75398149D01*
X122340261Y-75553491D01*
X122340264Y-75553501D01*
X122375043Y-75637466D01*
X122377179Y-75657337D01*
X122384166Y-75676066D01*
X122380838Y-75691367D01*
X122382512Y-75706936D01*
X122373564Y-75724810D01*
X122369317Y-75744339D01*
X122352627Y-75766635D01*
X122351236Y-75769415D01*
X122348168Y-75772595D01*
X122339796Y-75780966D01*
X122328752Y-75792011D01*
X122328750Y-75792012D01*
X122328749Y-75792015D01*
X121001265Y-77119500D01*
X119707584Y-78413181D01*
X119646261Y-78446666D01*
X119619903Y-78449500D01*
X117149766Y-78449500D01*
X117082727Y-78429815D01*
X117080875Y-78428602D01*
X116949185Y-78340609D01*
X116949172Y-78340602D01*
X116803501Y-78280264D01*
X116803489Y-78280261D01*
X116648845Y-78249500D01*
X116648842Y-78249500D01*
X116491158Y-78249500D01*
X116491155Y-78249500D01*
X116336510Y-78280261D01*
X116336498Y-78280264D01*
X116190827Y-78340602D01*
X116190814Y-78340609D01*
X116059711Y-78428210D01*
X116059707Y-78428213D01*
X115948213Y-78539707D01*
X115948210Y-78539711D01*
X115860609Y-78670814D01*
X115860602Y-78670827D01*
X115800264Y-78816498D01*
X115800261Y-78816510D01*
X115769500Y-78971153D01*
X115769500Y-79128846D01*
X115800261Y-79283489D01*
X115800264Y-79283501D01*
X115860602Y-79429172D01*
X115860609Y-79429185D01*
X115948210Y-79560288D01*
X115948213Y-79560292D01*
X116059707Y-79671786D01*
X116059711Y-79671789D01*
X116190814Y-79759390D01*
X116190827Y-79759397D01*
X116336498Y-79819735D01*
X116336503Y-79819737D01*
X116484135Y-79849103D01*
X116491153Y-79850499D01*
X116491156Y-79850500D01*
X116491158Y-79850500D01*
X116648844Y-79850500D01*
X116648845Y-79850499D01*
X116803497Y-79819737D01*
X116949179Y-79759394D01*
X117025919Y-79708118D01*
X117080875Y-79671398D01*
X117147553Y-79650520D01*
X117149766Y-79650500D01*
X119833331Y-79650500D01*
X119833347Y-79650501D01*
X119840943Y-79650501D01*
X119999054Y-79650501D01*
X119999057Y-79650501D01*
X120151785Y-79609577D01*
X120218105Y-79571287D01*
X120288716Y-79530520D01*
X120400520Y-79418716D01*
X120400520Y-79418714D01*
X120410724Y-79408511D01*
X120410728Y-79408506D01*
X122863265Y-76955968D01*
X122924586Y-76922485D01*
X122994278Y-76927469D01*
X122998385Y-76929085D01*
X123001718Y-76930466D01*
X123001722Y-76930466D01*
X123001726Y-76930468D01*
X123156368Y-76961228D01*
X123156371Y-76961229D01*
X123235500Y-76961229D01*
X123302539Y-76980914D01*
X123348294Y-77033718D01*
X123359500Y-77085229D01*
X123359500Y-80759231D01*
X123359499Y-80759249D01*
X123359499Y-80924955D01*
X123359498Y-80924955D01*
X123391988Y-81046209D01*
X123400423Y-81077686D01*
X123422301Y-81115579D01*
X123447557Y-81159324D01*
X123479479Y-81214615D01*
X123479481Y-81214618D01*
X123598349Y-81333486D01*
X123598355Y-81333491D01*
X123924600Y-81659736D01*
X123924610Y-81659747D01*
X123928940Y-81664077D01*
X123928941Y-81664078D01*
X124040745Y-81775882D01*
X124127556Y-81826001D01*
X124127558Y-81826003D01*
X124165612Y-81847973D01*
X124177676Y-81854939D01*
X124330404Y-81895863D01*
X124405266Y-81895863D01*
X124472305Y-81915548D01*
X124492947Y-81932182D01*
X126117737Y-83556972D01*
X126151222Y-83618295D01*
X126154056Y-83644653D01*
X126154056Y-84117523D01*
X126134371Y-84184562D01*
X126081567Y-84230317D01*
X126077509Y-84232084D01*
X125961899Y-84279971D01*
X125961889Y-84279976D01*
X125830786Y-84367577D01*
X125830782Y-84367580D01*
X125719288Y-84479074D01*
X125719285Y-84479078D01*
X125631684Y-84610181D01*
X125631677Y-84610194D01*
X125571339Y-84755865D01*
X125571336Y-84755877D01*
X125540575Y-84910520D01*
X125540575Y-85068213D01*
X125571336Y-85222856D01*
X125571339Y-85222868D01*
X125631677Y-85368539D01*
X125631684Y-85368552D01*
X125719285Y-85499655D01*
X125719288Y-85499659D01*
X125830782Y-85611153D01*
X125830786Y-85611156D01*
X125961889Y-85698757D01*
X125961902Y-85698764D01*
X126070483Y-85743739D01*
X126107578Y-85759104D01*
X126262228Y-85789866D01*
X126262231Y-85789867D01*
X126262233Y-85789867D01*
X126419919Y-85789867D01*
X126419920Y-85789866D01*
X126574572Y-85759104D01*
X126684910Y-85713401D01*
X131844113Y-85713401D01*
X131867154Y-85799390D01*
X131885038Y-85866132D01*
X131964096Y-86003063D01*
X132075899Y-86114866D01*
X132212830Y-86193924D01*
X132365558Y-86234848D01*
X132365561Y-86234848D01*
X132523669Y-86234848D01*
X132523672Y-86234848D01*
X132676400Y-86193924D01*
X132813331Y-86114866D01*
X133846152Y-85082046D01*
X133925209Y-84945114D01*
X133966133Y-84792387D01*
X133966133Y-84634272D01*
X133966133Y-84626677D01*
X133966132Y-84626659D01*
X133966132Y-84128206D01*
X133966132Y-84128204D01*
X133925209Y-83975477D01*
X133897261Y-83927069D01*
X133846156Y-83838551D01*
X133846150Y-83838543D01*
X133734349Y-83726742D01*
X133734341Y-83726736D01*
X133597422Y-83647687D01*
X133597418Y-83647685D01*
X133597416Y-83647684D01*
X133444689Y-83606761D01*
X133286575Y-83606761D01*
X133133848Y-83647684D01*
X133133841Y-83647687D01*
X132996922Y-83726736D01*
X132996914Y-83726742D01*
X132885113Y-83838543D01*
X132885107Y-83838551D01*
X132806058Y-83975470D01*
X132806055Y-83975477D01*
X132765132Y-84128204D01*
X132765132Y-84413232D01*
X132745447Y-84480271D01*
X132728813Y-84500913D01*
X131964098Y-85265628D01*
X131964096Y-85265631D01*
X131885038Y-85402561D01*
X131885038Y-85402562D01*
X131844114Y-85555290D01*
X131844114Y-85555292D01*
X131844114Y-85713401D01*
X131844113Y-85713401D01*
X126684910Y-85713401D01*
X126720254Y-85698761D01*
X126851364Y-85611156D01*
X126962864Y-85499656D01*
X127050469Y-85368546D01*
X127110812Y-85222864D01*
X127141575Y-85068209D01*
X127141575Y-85068207D01*
X127141712Y-85067519D01*
X127174096Y-85005608D01*
X127175537Y-85004140D01*
X127235076Y-84944602D01*
X127314133Y-84807670D01*
X127355056Y-84654943D01*
X127355056Y-83433615D01*
X127355057Y-83433602D01*
X127355057Y-83265501D01*
X127355057Y-83265499D01*
X127314133Y-83112771D01*
X127285195Y-83062651D01*
X127235076Y-82975840D01*
X127123272Y-82864036D01*
X127123271Y-82864035D01*
X127118941Y-82859705D01*
X127118930Y-82859695D01*
X125416126Y-81156891D01*
X125406545Y-81139346D01*
X125392923Y-81124714D01*
X125390143Y-81109307D01*
X125382641Y-81095568D01*
X125384067Y-81075626D01*
X125380518Y-81055955D01*
X125387403Y-81028977D01*
X125387625Y-81025876D01*
X125389223Y-81021812D01*
X125416051Y-80957045D01*
X125459891Y-80902644D01*
X125526186Y-80880579D01*
X125530611Y-80880500D01*
X126233331Y-80880500D01*
X126233347Y-80880501D01*
X126240943Y-80880501D01*
X126399054Y-80880501D01*
X126399057Y-80880501D01*
X126551785Y-80839577D01*
X126601904Y-80810639D01*
X126688716Y-80760520D01*
X126800520Y-80648716D01*
X126800520Y-80648714D01*
X126810728Y-80638507D01*
X126810729Y-80638504D01*
X130364664Y-77084571D01*
X130425985Y-77051088D01*
X130428152Y-77050637D01*
X130428841Y-77050500D01*
X130428842Y-77050500D01*
X130583497Y-77019737D01*
X130724749Y-76961229D01*
X130729172Y-76959397D01*
X130729172Y-76959396D01*
X130729179Y-76959394D01*
X130860289Y-76871789D01*
X130971789Y-76760289D01*
X131059394Y-76629179D01*
X131063559Y-76619125D01*
X131093985Y-76545668D01*
X131119737Y-76483497D01*
X131150500Y-76328842D01*
X131150500Y-76171158D01*
X131150500Y-76171155D01*
X131150499Y-76171153D01*
X131119738Y-76016510D01*
X131119737Y-76016503D01*
X131119735Y-76016498D01*
X131059397Y-75870827D01*
X131059390Y-75870814D01*
X130971789Y-75739711D01*
X130971786Y-75739707D01*
X130860292Y-75628213D01*
X130860288Y-75628210D01*
X130729185Y-75540609D01*
X130729172Y-75540602D01*
X130583501Y-75480264D01*
X130583491Y-75480261D01*
X130471735Y-75458031D01*
X130409824Y-75425646D01*
X130381366Y-75383866D01*
X130359397Y-75330826D01*
X130359390Y-75330814D01*
X130271789Y-75199711D01*
X130271786Y-75199707D01*
X130160292Y-75088213D01*
X130160288Y-75088210D01*
X130029185Y-75000609D01*
X130029172Y-75000602D01*
X129883501Y-74940264D01*
X129883489Y-74940261D01*
X129728845Y-74909500D01*
X129728842Y-74909500D01*
X129571158Y-74909500D01*
X129571155Y-74909500D01*
X129416510Y-74940261D01*
X129416498Y-74940264D01*
X129270827Y-75000602D01*
X129270814Y-75000609D01*
X129139125Y-75088602D01*
X129072447Y-75109480D01*
X129070234Y-75109500D01*
X128600940Y-75109500D01*
X128563621Y-75119499D01*
X128563622Y-75119500D01*
X128448214Y-75150423D01*
X128448209Y-75150426D01*
X128311290Y-75229475D01*
X128311282Y-75229481D01*
X124772181Y-78768583D01*
X124710858Y-78802068D01*
X124641166Y-78797084D01*
X124585233Y-78755212D01*
X124560816Y-78689748D01*
X124560500Y-78680902D01*
X124560500Y-68408543D01*
X125639499Y-68408543D01*
X125677947Y-68601829D01*
X125677950Y-68601839D01*
X125753364Y-68783907D01*
X125753371Y-68783920D01*
X125862860Y-68947781D01*
X125862863Y-68947785D01*
X126002214Y-69087136D01*
X126002218Y-69087139D01*
X126166079Y-69196628D01*
X126166092Y-69196635D01*
X126270786Y-69240000D01*
X126348165Y-69272051D01*
X126348169Y-69272051D01*
X126348170Y-69272052D01*
X126541456Y-69310500D01*
X126541459Y-69310500D01*
X126738543Y-69310500D01*
X126868582Y-69284632D01*
X126931835Y-69272051D01*
X127113914Y-69196632D01*
X127277782Y-69087139D01*
X127417139Y-68947782D01*
X127526632Y-68783914D01*
X127602051Y-68601835D01*
X127621612Y-68503497D01*
X127640500Y-68408543D01*
X133639499Y-68408543D01*
X133677947Y-68601829D01*
X133677950Y-68601839D01*
X133753364Y-68783907D01*
X133753371Y-68783920D01*
X133862860Y-68947781D01*
X133862863Y-68947785D01*
X134002214Y-69087136D01*
X134002218Y-69087139D01*
X134166079Y-69196628D01*
X134166092Y-69196635D01*
X134270786Y-69240000D01*
X134348165Y-69272051D01*
X134348169Y-69272051D01*
X134348170Y-69272052D01*
X134541456Y-69310500D01*
X134541459Y-69310500D01*
X134738543Y-69310500D01*
X134868582Y-69284632D01*
X134931835Y-69272051D01*
X135113914Y-69196632D01*
X135277782Y-69087139D01*
X135417139Y-68947782D01*
X135526632Y-68783914D01*
X135602051Y-68601835D01*
X135621612Y-68503497D01*
X135640500Y-68408543D01*
X135640500Y-68211456D01*
X135602052Y-68018170D01*
X135602051Y-68018169D01*
X135602051Y-68018165D01*
X135602049Y-68018160D01*
X135526635Y-67836092D01*
X135526628Y-67836079D01*
X135417139Y-67672218D01*
X135417136Y-67672214D01*
X135277785Y-67532863D01*
X135277781Y-67532860D01*
X135113920Y-67423371D01*
X135113907Y-67423364D01*
X134931839Y-67347950D01*
X134931829Y-67347947D01*
X134738543Y-67309500D01*
X134738541Y-67309500D01*
X134541459Y-67309500D01*
X134541457Y-67309500D01*
X134348170Y-67347947D01*
X134348160Y-67347950D01*
X134166092Y-67423364D01*
X134166079Y-67423371D01*
X134002218Y-67532860D01*
X134002214Y-67532863D01*
X133862863Y-67672214D01*
X133862860Y-67672218D01*
X133753371Y-67836079D01*
X133753364Y-67836092D01*
X133677950Y-68018160D01*
X133677947Y-68018170D01*
X133639500Y-68211456D01*
X133639500Y-68211459D01*
X133639500Y-68408541D01*
X133639500Y-68408543D01*
X133639499Y-68408543D01*
X127640500Y-68408543D01*
X127640500Y-68211456D01*
X127602052Y-68018170D01*
X127602051Y-68018169D01*
X127602051Y-68018165D01*
X127602049Y-68018160D01*
X127526635Y-67836092D01*
X127526628Y-67836079D01*
X127417139Y-67672218D01*
X127417136Y-67672214D01*
X127277785Y-67532863D01*
X127277781Y-67532860D01*
X127113920Y-67423371D01*
X127113907Y-67423364D01*
X126931839Y-67347950D01*
X126931829Y-67347947D01*
X126738543Y-67309500D01*
X126738541Y-67309500D01*
X126541459Y-67309500D01*
X126541457Y-67309500D01*
X126348170Y-67347947D01*
X126348160Y-67347950D01*
X126166092Y-67423364D01*
X126166079Y-67423371D01*
X126002218Y-67532860D01*
X126002214Y-67532863D01*
X125862863Y-67672214D01*
X125862860Y-67672218D01*
X125753371Y-67836079D01*
X125753364Y-67836092D01*
X125677950Y-68018160D01*
X125677947Y-68018170D01*
X125639500Y-68211456D01*
X125639500Y-68211459D01*
X125639500Y-68408541D01*
X125639500Y-68408543D01*
X125639499Y-68408543D01*
X124560500Y-68408543D01*
X124560500Y-67539059D01*
X124560501Y-67539046D01*
X124560501Y-67370945D01*
X124560501Y-67370943D01*
X124519577Y-67218215D01*
X124490639Y-67168095D01*
X124440520Y-67081284D01*
X124328716Y-66969480D01*
X124328715Y-66969479D01*
X124324385Y-66965149D01*
X124324374Y-66965139D01*
X123867590Y-66508355D01*
X123867588Y-66508352D01*
X123748717Y-66389481D01*
X123748716Y-66389480D01*
X123661904Y-66339360D01*
X123661904Y-66339359D01*
X123661900Y-66339358D01*
X123611785Y-66310423D01*
X123459057Y-66269499D01*
X123300943Y-66269499D01*
X123293347Y-66269499D01*
X123293331Y-66269500D01*
X120655590Y-66269500D01*
X120588551Y-66249815D01*
X120542796Y-66197011D01*
X120532852Y-66127853D01*
X120545106Y-66089204D01*
X120589407Y-66002259D01*
X120642914Y-65837584D01*
X120670000Y-65666571D01*
X120670000Y-65530000D01*
X119870000Y-65530000D01*
X119870000Y-65030000D01*
X120670000Y-65030000D01*
X120670000Y-64893428D01*
X120642914Y-64722415D01*
X120589408Y-64557742D01*
X120524724Y-64430795D01*
X120511828Y-64362126D01*
X120538104Y-64297386D01*
X120595210Y-64257128D01*
X120635209Y-64250500D01*
X139075500Y-64250500D01*
X139142539Y-64270185D01*
G37*
%TD.AperFunction*%
%TA.AperFunction,Conductor*%
G36*
X109931830Y-64270185D02*
G01*
X109977585Y-64322989D01*
X109987529Y-64392147D01*
X109975276Y-64430795D01*
X109910591Y-64557742D01*
X109857085Y-64722415D01*
X109830000Y-64893428D01*
X109830000Y-65030000D01*
X110630000Y-65030000D01*
X110630000Y-65530000D01*
X109830000Y-65530000D01*
X109830000Y-65666571D01*
X109857085Y-65837584D01*
X109910592Y-66002259D01*
X109954894Y-66089204D01*
X109967791Y-66157873D01*
X109941515Y-66222614D01*
X109884409Y-66262872D01*
X109844410Y-66269500D01*
X109356669Y-66269500D01*
X109356653Y-66269499D01*
X109349057Y-66269499D01*
X109190943Y-66269499D01*
X109083587Y-66298265D01*
X109038210Y-66310424D01*
X109038209Y-66310425D01*
X108988096Y-66339359D01*
X108988095Y-66339360D01*
X108944689Y-66364420D01*
X108901285Y-66389479D01*
X108901282Y-66389481D01*
X107855339Y-67435425D01*
X107794016Y-67468910D01*
X107791850Y-67469361D01*
X107636508Y-67500261D01*
X107636498Y-67500264D01*
X107490827Y-67560602D01*
X107490814Y-67560609D01*
X107359711Y-67648210D01*
X107359707Y-67648213D01*
X107248213Y-67759707D01*
X107248210Y-67759711D01*
X107160609Y-67890814D01*
X107160602Y-67890827D01*
X107100264Y-68036498D01*
X107100261Y-68036510D01*
X107069500Y-68191153D01*
X107069500Y-68348846D01*
X107100261Y-68503489D01*
X107100264Y-68503501D01*
X107160602Y-68649172D01*
X107160609Y-68649185D01*
X107248210Y-68780288D01*
X107248213Y-68780292D01*
X107359707Y-68891786D01*
X107359711Y-68891789D01*
X107490814Y-68979390D01*
X107490827Y-68979397D01*
X107636498Y-69039735D01*
X107636503Y-69039737D01*
X107791153Y-69070499D01*
X107791156Y-69070500D01*
X107791158Y-69070500D01*
X107948844Y-69070500D01*
X107948845Y-69070499D01*
X108103497Y-69039737D01*
X108249179Y-68979394D01*
X108313256Y-68936579D01*
X109880000Y-68936579D01*
X109880000Y-69240000D01*
X110630000Y-69240000D01*
X110630000Y-69740000D01*
X109880000Y-69740000D01*
X109880000Y-70043420D01*
X109920348Y-70246266D01*
X109920350Y-70246274D01*
X109999500Y-70437358D01*
X109999505Y-70437368D01*
X110114410Y-70609335D01*
X110114413Y-70609339D01*
X110260660Y-70755586D01*
X110260664Y-70755589D01*
X110432631Y-70870494D01*
X110432641Y-70870499D01*
X110623723Y-70949648D01*
X110623725Y-70949649D01*
X110680000Y-70960842D01*
X110680000Y-70106999D01*
X110689940Y-70124216D01*
X110745795Y-70180071D01*
X110814204Y-70219567D01*
X110890504Y-70240011D01*
X110969496Y-70240011D01*
X111045796Y-70219567D01*
X111114205Y-70180071D01*
X111170060Y-70124216D01*
X111180000Y-70106999D01*
X111180000Y-70960842D01*
X111236274Y-70949649D01*
X111236276Y-70949648D01*
X111427358Y-70870499D01*
X111427368Y-70870494D01*
X111599335Y-70755589D01*
X111599339Y-70755586D01*
X111745586Y-70609339D01*
X111745589Y-70609335D01*
X111860494Y-70437368D01*
X111860499Y-70437358D01*
X111939649Y-70246274D01*
X111939651Y-70246266D01*
X111979999Y-70043420D01*
X111980000Y-70043417D01*
X111980000Y-69902670D01*
X111999685Y-69835631D01*
X112052489Y-69789876D01*
X112121647Y-69779932D01*
X112128191Y-69781053D01*
X112159497Y-69787280D01*
X112276230Y-69810499D01*
X112276232Y-69810500D01*
X112276233Y-69810500D01*
X112443768Y-69810500D01*
X112443769Y-69810499D01*
X112608082Y-69777816D01*
X112762863Y-69713703D01*
X112902162Y-69620626D01*
X113020626Y-69502162D01*
X113113703Y-69362863D01*
X113177816Y-69208082D01*
X113210500Y-69043767D01*
X113210500Y-68876233D01*
X113210499Y-68876228D01*
X117289500Y-68876228D01*
X117289500Y-69043771D01*
X117322182Y-69208074D01*
X117322184Y-69208082D01*
X117386295Y-69362860D01*
X117479373Y-69502162D01*
X117597837Y-69620626D01*
X117690494Y-69682537D01*
X117737137Y-69713703D01*
X117891918Y-69777816D01*
X118056228Y-69810499D01*
X118056232Y-69810500D01*
X118056233Y-69810500D01*
X118223768Y-69810500D01*
X118223768Y-69810499D01*
X118340503Y-69787280D01*
X118371809Y-69781053D01*
X118441400Y-69787280D01*
X118496578Y-69830143D01*
X118519822Y-69896033D01*
X118520000Y-69902670D01*
X118520000Y-70043420D01*
X118560348Y-70246266D01*
X118560350Y-70246274D01*
X118639500Y-70437358D01*
X118639505Y-70437368D01*
X118754410Y-70609335D01*
X118754413Y-70609339D01*
X118900660Y-70755586D01*
X118900664Y-70755589D01*
X119072631Y-70870494D01*
X119072641Y-70870499D01*
X119263723Y-70949648D01*
X119263725Y-70949649D01*
X119320000Y-70960842D01*
X119320000Y-70106987D01*
X119329940Y-70124204D01*
X119385795Y-70180059D01*
X119454204Y-70219555D01*
X119530504Y-70239999D01*
X119609496Y-70239999D01*
X119685796Y-70219555D01*
X119754205Y-70180059D01*
X119810060Y-70124204D01*
X119820000Y-70106987D01*
X119820000Y-70960842D01*
X119876274Y-70949649D01*
X119876276Y-70949648D01*
X120067358Y-70870499D01*
X120067368Y-70870494D01*
X120239335Y-70755589D01*
X120239339Y-70755586D01*
X120385586Y-70609339D01*
X120385589Y-70609335D01*
X120500494Y-70437368D01*
X120500499Y-70437358D01*
X120579649Y-70246274D01*
X120579651Y-70246266D01*
X120619999Y-70043420D01*
X120620000Y-70043417D01*
X120620000Y-69740000D01*
X119870000Y-69740000D01*
X119870000Y-69240000D01*
X120620000Y-69240000D01*
X120620000Y-68936583D01*
X120619999Y-68936579D01*
X120579651Y-68733733D01*
X120579649Y-68733725D01*
X120500499Y-68542641D01*
X120500494Y-68542631D01*
X120385589Y-68370664D01*
X120385586Y-68370660D01*
X120239339Y-68224413D01*
X120239335Y-68224410D01*
X120067368Y-68109505D01*
X120067358Y-68109500D01*
X119876272Y-68030349D01*
X119876267Y-68030347D01*
X119820000Y-68019155D01*
X119820000Y-68873012D01*
X119810060Y-68855796D01*
X119754205Y-68799941D01*
X119685796Y-68760445D01*
X119609496Y-68740001D01*
X119530504Y-68740001D01*
X119454204Y-68760445D01*
X119385795Y-68799941D01*
X119329940Y-68855796D01*
X119320000Y-68873012D01*
X119320000Y-68019156D01*
X119319999Y-68019155D01*
X119263732Y-68030347D01*
X119263727Y-68030349D01*
X119072641Y-68109500D01*
X119072631Y-68109505D01*
X118900664Y-68224410D01*
X118900660Y-68224413D01*
X118840165Y-68284909D01*
X118778842Y-68318394D01*
X118709150Y-68313410D01*
X118683593Y-68300330D01*
X118542860Y-68206295D01*
X118388082Y-68142184D01*
X118388074Y-68142182D01*
X118223771Y-68109500D01*
X118223767Y-68109500D01*
X118056233Y-68109500D01*
X118056228Y-68109500D01*
X117891925Y-68142182D01*
X117891917Y-68142184D01*
X117737139Y-68206295D01*
X117597837Y-68299373D01*
X117479373Y-68417837D01*
X117386295Y-68557139D01*
X117322184Y-68711917D01*
X117322182Y-68711925D01*
X117289500Y-68876228D01*
X113210499Y-68876228D01*
X113177816Y-68711918D01*
X113113703Y-68557137D01*
X113077856Y-68503489D01*
X113020626Y-68417837D01*
X112902162Y-68299373D01*
X112762860Y-68206295D01*
X112608082Y-68142184D01*
X112608074Y-68142182D01*
X112443771Y-68109500D01*
X112443767Y-68109500D01*
X112276233Y-68109500D01*
X112276228Y-68109500D01*
X112111925Y-68142182D01*
X112111917Y-68142184D01*
X111957138Y-68206296D01*
X111957134Y-68206298D01*
X111816405Y-68300330D01*
X111749728Y-68321208D01*
X111682348Y-68302723D01*
X111659833Y-68284909D01*
X111599334Y-68224409D01*
X111427368Y-68109505D01*
X111427358Y-68109500D01*
X111236272Y-68030349D01*
X111236267Y-68030347D01*
X111180000Y-68019155D01*
X111180000Y-68873000D01*
X111170060Y-68855784D01*
X111114205Y-68799929D01*
X111045796Y-68760433D01*
X110969496Y-68739989D01*
X110890504Y-68739989D01*
X110814204Y-68760433D01*
X110745795Y-68799929D01*
X110689940Y-68855784D01*
X110680000Y-68873000D01*
X110680000Y-68019156D01*
X110679999Y-68019155D01*
X110623732Y-68030347D01*
X110623727Y-68030349D01*
X110432641Y-68109500D01*
X110432631Y-68109505D01*
X110260664Y-68224410D01*
X110260660Y-68224413D01*
X110114413Y-68370660D01*
X110114410Y-68370664D01*
X109999505Y-68542631D01*
X109999500Y-68542641D01*
X109920350Y-68733725D01*
X109920348Y-68733733D01*
X109880000Y-68936579D01*
X108313256Y-68936579D01*
X108380289Y-68891789D01*
X108395850Y-68876228D01*
X108429268Y-68842811D01*
X108491786Y-68780292D01*
X108491789Y-68780289D01*
X108579394Y-68649179D01*
X108639737Y-68503497D01*
X108659113Y-68406085D01*
X108670638Y-68348150D01*
X108703023Y-68286239D01*
X108704518Y-68284716D01*
X109482416Y-67506819D01*
X109543739Y-67473334D01*
X109570097Y-67470500D01*
X123079903Y-67470500D01*
X123109343Y-67479144D01*
X123139330Y-67485668D01*
X123144345Y-67489422D01*
X123146942Y-67490185D01*
X123167584Y-67506819D01*
X123323181Y-67662416D01*
X123356666Y-67723739D01*
X123359500Y-67750097D01*
X123359500Y-72238174D01*
X123339815Y-72305213D01*
X123287011Y-72350968D01*
X123259692Y-72359791D01*
X123106508Y-72390261D01*
X123106498Y-72390264D01*
X122960827Y-72450602D01*
X122960814Y-72450609D01*
X122829125Y-72538602D01*
X122762447Y-72559480D01*
X122760234Y-72559500D01*
X115740997Y-72559500D01*
X115700076Y-72570464D01*
X115700076Y-72570465D01*
X115662808Y-72580451D01*
X115588271Y-72600423D01*
X115588266Y-72600426D01*
X115451347Y-72679475D01*
X115451339Y-72679481D01*
X111758481Y-76372339D01*
X111758475Y-76372347D01*
X111719565Y-76439743D01*
X111719565Y-76439744D01*
X111679423Y-76509272D01*
X111638499Y-76662000D01*
X111638499Y-76662002D01*
X111638499Y-76830103D01*
X111638500Y-76830116D01*
X111638500Y-78128750D01*
X111618815Y-78195789D01*
X111566011Y-78241544D01*
X111496853Y-78251488D01*
X111482411Y-78248526D01*
X111394616Y-78225001D01*
X111236502Y-78225001D01*
X111228906Y-78225001D01*
X111228890Y-78225002D01*
X110350694Y-78225002D01*
X110283655Y-78205317D01*
X110237900Y-78152513D01*
X110226694Y-78101002D01*
X110226694Y-77951351D01*
X110226694Y-77951349D01*
X110185770Y-77798621D01*
X110158731Y-77751789D01*
X110152637Y-77741233D01*
X110152637Y-77741232D01*
X110106717Y-77661696D01*
X110106714Y-77661692D01*
X110106713Y-77661690D01*
X109994909Y-77549886D01*
X109994908Y-77549885D01*
X109990578Y-77545555D01*
X109990567Y-77545545D01*
X109660331Y-77215309D01*
X109660329Y-77215306D01*
X109541458Y-77096435D01*
X109541453Y-77096431D01*
X109436030Y-77035566D01*
X109436028Y-77035565D01*
X109404528Y-77017378D01*
X109404527Y-77017377D01*
X109404526Y-77017377D01*
X109251798Y-76976453D01*
X109093684Y-76976453D01*
X109086088Y-76976453D01*
X109086072Y-76976454D01*
X108774595Y-76976454D01*
X108707556Y-76956769D01*
X108686914Y-76940135D01*
X108285312Y-76538533D01*
X108285307Y-76538529D01*
X108164628Y-76468856D01*
X108164627Y-76468855D01*
X108157760Y-76464890D01*
X108148380Y-76459475D01*
X107995652Y-76418551D01*
X107837538Y-76418551D01*
X107829942Y-76418551D01*
X107829926Y-76418552D01*
X107165967Y-76418552D01*
X107013239Y-76459475D01*
X106996987Y-76468858D01*
X106876311Y-76538529D01*
X106876306Y-76538533D01*
X106508137Y-76906702D01*
X106508135Y-76906705D01*
X106494417Y-76930466D01*
X106479693Y-76955970D01*
X106458017Y-76993514D01*
X106458015Y-76993516D01*
X106429081Y-77043629D01*
X106429080Y-77043630D01*
X106417934Y-77085229D01*
X106388155Y-77196363D01*
X106388155Y-77196365D01*
X106388155Y-77364466D01*
X106388156Y-77364479D01*
X106388156Y-78007752D01*
X106388155Y-78007770D01*
X106388155Y-78173476D01*
X106388154Y-78173476D01*
X106388155Y-78173479D01*
X106429079Y-78326207D01*
X106429080Y-78326208D01*
X106439064Y-78343502D01*
X106440495Y-78349401D01*
X106444470Y-78353989D01*
X106448635Y-78382960D01*
X106455535Y-78411402D01*
X106453549Y-78417137D01*
X106454414Y-78423147D01*
X106442253Y-78449774D01*
X106432682Y-78477429D01*
X106427910Y-78481180D01*
X106425389Y-78486703D01*
X106400763Y-78502528D01*
X106377760Y-78520618D01*
X106370412Y-78522034D01*
X106366611Y-78524477D01*
X106331676Y-78529500D01*
X106261468Y-78529500D01*
X106194429Y-78509815D01*
X106173787Y-78493181D01*
X105606705Y-77926099D01*
X105586998Y-77900417D01*
X105586606Y-77899738D01*
X105540520Y-77819912D01*
X105428716Y-77708108D01*
X105428715Y-77708107D01*
X105424385Y-77703777D01*
X105424374Y-77703767D01*
X104960088Y-77239481D01*
X104960080Y-77239475D01*
X104823161Y-77160426D01*
X104823157Y-77160424D01*
X104823155Y-77160423D01*
X104823153Y-77160422D01*
X104823152Y-77160422D01*
X104802181Y-77154802D01*
X104802181Y-77154803D01*
X104670428Y-77119499D01*
X104670425Y-77119499D01*
X104512313Y-77119500D01*
X103809571Y-77119500D01*
X103656841Y-77160423D01*
X103623278Y-77179802D01*
X103623277Y-77179802D01*
X103519915Y-77239477D01*
X103519910Y-77239481D01*
X102132181Y-78627211D01*
X102070858Y-78660696D01*
X102001166Y-78655712D01*
X101945233Y-78613840D01*
X101920816Y-78548376D01*
X101920500Y-78539530D01*
X101920500Y-64374500D01*
X101940185Y-64307461D01*
X101992989Y-64261706D01*
X102044500Y-64250500D01*
X109864791Y-64250500D01*
X109931830Y-64270185D01*
G37*
%TD.AperFunction*%
%TA.AperFunction,Conductor*%
G36*
X118571830Y-64270185D02*
G01*
X118617585Y-64322989D01*
X118627529Y-64392147D01*
X118615276Y-64430795D01*
X118550591Y-64557742D01*
X118497085Y-64722415D01*
X118470000Y-64893428D01*
X118470000Y-65030000D01*
X119270000Y-65030000D01*
X119270000Y-65530000D01*
X118470000Y-65530000D01*
X118470000Y-65666571D01*
X118497085Y-65837584D01*
X118550592Y-66002259D01*
X118594894Y-66089204D01*
X118607791Y-66157873D01*
X118581515Y-66222614D01*
X118524409Y-66262872D01*
X118484410Y-66269500D01*
X112015590Y-66269500D01*
X111948551Y-66249815D01*
X111902796Y-66197011D01*
X111892852Y-66127853D01*
X111905106Y-66089204D01*
X111949407Y-66002259D01*
X112002914Y-65837584D01*
X112030000Y-65666571D01*
X112030000Y-65530000D01*
X111230000Y-65530000D01*
X111230000Y-65030000D01*
X112030000Y-65030000D01*
X112030000Y-64893428D01*
X112002914Y-64722415D01*
X111949408Y-64557742D01*
X111884724Y-64430795D01*
X111871828Y-64362126D01*
X111898104Y-64297386D01*
X111955210Y-64257128D01*
X111995209Y-64250500D01*
X118504791Y-64250500D01*
X118571830Y-64270185D01*
G37*
%TD.AperFunction*%
%TD*%
M02*
