%TF.GenerationSoftware,KiCad,Pcbnew,9.0.3*%
%TF.CreationDate,2025-11-29T09:23:08-06:00*%
%TF.ProjectId,zenith,7a656e69-7468-42e6-9b69-6361645f7063,rev?*%
%TF.SameCoordinates,Original*%
%TF.FileFunction,Paste,Top*%
%TF.FilePolarity,Positive*%
%FSLAX46Y46*%
G04 Gerber Fmt 4.6, Leading zero omitted, Abs format (unit mm)*
G04 Created by KiCad (PCBNEW 9.0.3) date 2025-11-29 09:23:08*
%MOMM*%
%LPD*%
G01*
G04 APERTURE LIST*
G04 Aperture macros list*
%AMRoundRect*
0 Rectangle with rounded corners*
0 $1 Rounding radius*
0 $2 $3 $4 $5 $6 $7 $8 $9 X,Y pos of 4 corners*
0 Add a 4 corners polygon primitive as box body*
4,1,4,$2,$3,$4,$5,$6,$7,$8,$9,$2,$3,0*
0 Add four circle primitives for the rounded corners*
1,1,$1+$1,$2,$3*
1,1,$1+$1,$4,$5*
1,1,$1+$1,$6,$7*
1,1,$1+$1,$8,$9*
0 Add four rect primitives between the rounded corners*
20,1,$1+$1,$2,$3,$4,$5,0*
20,1,$1+$1,$4,$5,$6,$7,0*
20,1,$1+$1,$6,$7,$8,$9,0*
20,1,$1+$1,$8,$9,$2,$3,0*%
G04 Aperture macros list end*
%ADD10RoundRect,0.140000X-0.140000X-0.170000X0.140000X-0.170000X0.140000X0.170000X-0.140000X0.170000X0*%
%ADD11RoundRect,0.079500X-0.079500X-0.100500X0.079500X-0.100500X0.079500X0.100500X-0.079500X0.100500X0*%
%ADD12RoundRect,0.250000X0.250000X0.475000X-0.250000X0.475000X-0.250000X-0.475000X0.250000X-0.475000X0*%
%ADD13RoundRect,0.140000X0.170000X-0.140000X0.170000X0.140000X-0.170000X0.140000X-0.170000X-0.140000X0*%
%ADD14R,0.280000X0.680000*%
%ADD15R,0.680000X0.280000*%
%ADD16R,1.230000X1.360000*%
%ADD17RoundRect,0.079500X-0.100500X0.079500X-0.100500X-0.079500X0.100500X-0.079500X0.100500X0.079500X0*%
%ADD18RoundRect,0.135000X0.185000X-0.135000X0.185000X0.135000X-0.185000X0.135000X-0.185000X-0.135000X0*%
%ADD19RoundRect,0.079500X0.079500X0.100500X-0.079500X0.100500X-0.079500X-0.100500X0.079500X-0.100500X0*%
%ADD20R,0.900000X0.700000*%
%ADD21R,2.160000X1.630000*%
%ADD22RoundRect,0.250000X0.475000X-0.250000X0.475000X0.250000X-0.475000X0.250000X-0.475000X-0.250000X0*%
%ADD23RoundRect,0.079500X0.100500X-0.079500X0.100500X0.079500X-0.100500X0.079500X-0.100500X-0.079500X0*%
%ADD24RoundRect,0.140000X0.140000X0.170000X-0.140000X0.170000X-0.140000X-0.170000X0.140000X-0.170000X0*%
%ADD25R,1.400000X1.200000*%
%ADD26RoundRect,0.140000X-0.170000X0.140000X-0.170000X-0.140000X0.170000X-0.140000X0.170000X0.140000X0*%
%ADD27R,0.280000X0.700000*%
%ADD28R,0.700000X0.280000*%
%ADD29R,2.800000X2.800000*%
%ADD30RoundRect,0.147500X0.147500X0.172500X-0.147500X0.172500X-0.147500X-0.172500X0.147500X-0.172500X0*%
%ADD31R,0.600000X1.300000*%
%ADD32R,1.200000X1.400000*%
%ADD33R,1.200000X2.000000*%
%ADD34R,0.300000X0.300000*%
%ADD35RoundRect,0.150000X0.150000X-0.512500X0.150000X0.512500X-0.150000X0.512500X-0.150000X-0.512500X0*%
%ADD36R,0.250000X0.700000*%
%ADD37R,0.700000X0.250000*%
%ADD38R,0.250000X1.450000*%
%ADD39R,0.250000X1.850000*%
%ADD40R,1.000000X1.800000*%
%ADD41R,0.800000X0.860000*%
%ADD42RoundRect,0.250000X-0.250000X-0.475000X0.250000X-0.475000X0.250000X0.475000X-0.250000X0.475000X0*%
%ADD43RoundRect,0.075000X-0.441942X-0.548008X0.548008X0.441942X0.441942X0.548008X-0.548008X-0.441942X0*%
%ADD44RoundRect,0.075000X0.441942X-0.548008X0.548008X-0.441942X-0.441942X0.548008X-0.548008X0.441942X0*%
%ADD45R,1.000000X3.800000*%
%ADD46RoundRect,0.140000X0.021213X-0.219203X0.219203X-0.021213X-0.021213X0.219203X-0.219203X0.021213X0*%
%ADD47R,3.320000X1.500000*%
%ADD48R,0.550000X1.100000*%
%ADD49R,0.300000X1.100000*%
G04 APERTURE END LIST*
D10*
%TO.C,C26*%
X108870000Y-80580000D03*
X109830000Y-80580000D03*
%TD*%
D11*
%TO.C,R2*%
X112810000Y-71265000D03*
X113500000Y-71265000D03*
%TD*%
%TO.C,R20*%
X135305000Y-80580000D03*
X135995000Y-80580000D03*
%TD*%
%TO.C,C30*%
X119555000Y-76640000D03*
X120245000Y-76640000D03*
%TD*%
D12*
%TO.C,C3*%
X131580000Y-94420000D03*
X129680000Y-94420000D03*
%TD*%
D13*
%TO.C,C9*%
X137840000Y-87710000D03*
X137840000Y-86750000D03*
%TD*%
D14*
%TO.C,U4*%
X126250000Y-91090000D03*
X125750000Y-91090000D03*
X125250000Y-91090000D03*
X124750000Y-91090000D03*
D15*
X124490000Y-91850000D03*
X124490000Y-92350000D03*
X124490000Y-92850000D03*
D14*
X124750000Y-93610000D03*
X125250000Y-93610000D03*
X125750000Y-93610000D03*
X126250000Y-93610000D03*
D15*
X126510000Y-92850000D03*
X126510000Y-92350000D03*
X126510000Y-91850000D03*
%TD*%
D11*
%TO.C,C20*%
X109840000Y-74895000D03*
X110530000Y-74895000D03*
%TD*%
D16*
%TO.C,BOOT*%
X122640000Y-97320000D03*
X118280000Y-97320000D03*
%TD*%
D17*
%TO.C,C15*%
X102130000Y-68820000D03*
X102130000Y-69510000D03*
%TD*%
D18*
%TO.C,R14*%
X107030000Y-69955000D03*
X107030000Y-68935000D03*
%TD*%
D19*
%TO.C,R21*%
X134375000Y-80590000D03*
X133685000Y-80590000D03*
%TD*%
D20*
%TO.C,LED1*%
X104550000Y-80650000D03*
X104550000Y-81750000D03*
X106390000Y-81750000D03*
X106390000Y-80650000D03*
%TD*%
D11*
%TO.C,C32*%
X119195000Y-92820000D03*
X119885000Y-92820000D03*
%TD*%
D20*
%TO.C,LED2*%
X104650000Y-86990000D03*
X104650000Y-88090000D03*
X106490000Y-88090000D03*
X106490000Y-86990000D03*
%TD*%
D21*
%TO.C,L1*%
X125380000Y-98610000D03*
X125380000Y-96270000D03*
%TD*%
D22*
%TO.C,C17*%
X103230000Y-77430000D03*
X103230000Y-75530000D03*
%TD*%
D11*
%TO.C,R12*%
X134075000Y-84180000D03*
X134765000Y-84180000D03*
%TD*%
D13*
%TO.C,C16*%
X106700000Y-67775000D03*
X106700000Y-66815000D03*
%TD*%
D22*
%TO.C,C13*%
X136210000Y-87240000D03*
X136210000Y-85340000D03*
%TD*%
D19*
%TO.C,C8*%
X133065000Y-83970000D03*
X132375000Y-83970000D03*
%TD*%
D17*
%TO.C,R5*%
X135200000Y-99885000D03*
X135200000Y-100575000D03*
%TD*%
D23*
%TO.C,R15*%
X107870000Y-67165000D03*
X107870000Y-66475000D03*
%TD*%
D17*
%TO.C,C19*%
X108945000Y-76090000D03*
X108945000Y-76780000D03*
%TD*%
D19*
%TO.C,R13*%
X131405000Y-84180000D03*
X130715000Y-84180000D03*
%TD*%
D24*
%TO.C,C2*%
X126290000Y-101280000D03*
X125330000Y-101280000D03*
%TD*%
D25*
%TO.C,X1*%
X110140000Y-90890000D03*
X107940000Y-90890000D03*
X107940000Y-92590000D03*
X110140000Y-92590000D03*
%TD*%
D26*
%TO.C,C7*%
X137840000Y-84800000D03*
X137840000Y-85760000D03*
%TD*%
D27*
%TO.C,U3*%
X128320000Y-102320000D03*
X128820000Y-102320000D03*
X129320000Y-102320000D03*
X129820000Y-102320000D03*
X130320000Y-102320000D03*
X130820000Y-102320000D03*
D28*
X131570000Y-101570000D03*
X131570000Y-101070000D03*
X131570000Y-100570000D03*
X131570000Y-100070000D03*
X131570000Y-99570000D03*
X131570000Y-99070000D03*
D27*
X130820000Y-98320000D03*
X130320000Y-98320000D03*
X129820000Y-98320000D03*
X129320000Y-98320000D03*
X128820000Y-98320000D03*
X128330000Y-98320000D03*
D28*
X127570000Y-99070000D03*
X127570000Y-99570000D03*
X127570000Y-100070000D03*
X127570000Y-100570000D03*
X127570000Y-101070000D03*
X127570000Y-101570000D03*
D29*
X129580000Y-100320000D03*
%TD*%
D19*
%TO.C,R23*%
X109125000Y-87290000D03*
X108435000Y-87290000D03*
%TD*%
D30*
%TO.C,D1*%
X121745000Y-94320000D03*
X120775000Y-94320000D03*
%TD*%
D13*
%TO.C,C24*%
X115020000Y-93740000D03*
X115020000Y-92780000D03*
%TD*%
D11*
%TO.C,C37*%
X115555000Y-94860000D03*
X116245000Y-94860000D03*
%TD*%
%TO.C,R16*%
X131115000Y-80482500D03*
X131805000Y-80482500D03*
%TD*%
D19*
%TO.C,R19*%
X127735000Y-80482500D03*
X127045000Y-80482500D03*
%TD*%
D17*
%TO.C,C22*%
X123470000Y-91775000D03*
X123470000Y-92465000D03*
%TD*%
D11*
%TO.C,R10*%
X129305000Y-92860000D03*
X129995000Y-92860000D03*
%TD*%
D31*
%TO.C,SD Card*%
X127450000Y-79160000D03*
X128550000Y-79160000D03*
X129650000Y-79160000D03*
X130750000Y-79160000D03*
X131850000Y-79160000D03*
X132950000Y-79160000D03*
X134050000Y-79160000D03*
X135150000Y-79160000D03*
X136250000Y-79160000D03*
D32*
X137450000Y-78310000D03*
D33*
X137450000Y-68600000D03*
X121930000Y-68600000D03*
D32*
X122770000Y-78310000D03*
%TD*%
D11*
%TO.C,R11*%
X132585000Y-99210000D03*
X133275000Y-99210000D03*
%TD*%
D34*
%TO.C,U2*%
X109710000Y-76100000D03*
X109710000Y-76600000D03*
X109990000Y-77130000D03*
X110490000Y-77130000D03*
X110990000Y-77130000D03*
X111270000Y-76600000D03*
X111270000Y-76100000D03*
X110990000Y-75570000D03*
X110490000Y-75570000D03*
X109990000Y-75570000D03*
%TD*%
D12*
%TO.C,C5*%
X131580000Y-96570000D03*
X129680000Y-96570000D03*
%TD*%
D19*
%TO.C,C28*%
X121105000Y-91600000D03*
X120415000Y-91600000D03*
%TD*%
%TO.C,C36*%
X105860000Y-90720000D03*
X105170000Y-90720000D03*
%TD*%
%TO.C,R22*%
X118665000Y-94860000D03*
X117975000Y-94860000D03*
%TD*%
D35*
%TO.C,U6*%
X103320000Y-68920000D03*
X104270000Y-68920000D03*
X105220000Y-68920000D03*
X105220000Y-66645000D03*
X104270000Y-66645000D03*
X103320000Y-66645000D03*
%TD*%
D17*
%TO.C,R4*%
X136000000Y-99905000D03*
X136000000Y-100595000D03*
%TD*%
D36*
%TO.C,U1*%
X133470000Y-85090000D03*
X132970000Y-85090000D03*
X132470000Y-85090000D03*
X131970000Y-85090000D03*
D37*
X131270000Y-85540000D03*
X131270000Y-86040000D03*
X131270000Y-86540000D03*
X131270000Y-87040000D03*
D38*
X132220000Y-87130000D03*
D39*
X132720000Y-86930000D03*
D38*
X133220000Y-87130000D03*
D37*
X134170000Y-87040000D03*
X134170000Y-86540000D03*
X134170000Y-86040000D03*
X134170000Y-85540000D03*
%TD*%
D17*
%TO.C,R9*%
X128170000Y-92865000D03*
X128170000Y-93555000D03*
%TD*%
D40*
%TO.C,X2*%
X103030000Y-92450000D03*
X105530000Y-92450000D03*
%TD*%
D41*
%TO.C,L4*%
X116440000Y-92760000D03*
X117840000Y-92760000D03*
%TD*%
D42*
%TO.C,C12*%
X131780000Y-82570000D03*
X133680000Y-82570000D03*
%TD*%
D11*
%TO.C,C35*%
X103000000Y-90710000D03*
X103690000Y-90710000D03*
%TD*%
D17*
%TO.C,C33*%
X111790000Y-90515000D03*
X111790000Y-91205000D03*
%TD*%
D11*
%TO.C,C34*%
X107590000Y-94200000D03*
X108280000Y-94200000D03*
%TD*%
D16*
%TO.C,RESET*%
X111670000Y-97360000D03*
X116030000Y-97360000D03*
%TD*%
D11*
%TO.C,C29*%
X125375000Y-86170000D03*
X126065000Y-86170000D03*
%TD*%
D19*
%TO.C,C21*%
X124665000Y-94590000D03*
X123975000Y-94590000D03*
%TD*%
D13*
%TO.C,C10*%
X127690000Y-85990000D03*
X127690000Y-85030000D03*
%TD*%
D22*
%TO.C,C18*%
X105390000Y-77430000D03*
X105390000Y-75530000D03*
%TD*%
D43*
%TO.C,U5*%
X110495519Y-85881181D03*
X110849072Y-86234734D03*
X111202625Y-86588287D03*
X111556179Y-86941841D03*
X111909732Y-87295394D03*
X112263286Y-87648948D03*
X112616839Y-88002501D03*
X112970392Y-88356054D03*
X113323946Y-88709608D03*
X113677499Y-89063161D03*
X114031052Y-89416714D03*
X114384606Y-89770268D03*
X114738159Y-90123821D03*
X115091713Y-90477375D03*
X115445266Y-90830928D03*
X115798819Y-91184481D03*
D44*
X118521181Y-91184481D03*
X118874734Y-90830928D03*
X119228287Y-90477375D03*
X119581841Y-90123821D03*
X119935394Y-89770268D03*
X120288948Y-89416714D03*
X120642501Y-89063161D03*
X120996054Y-88709608D03*
X121349608Y-88356054D03*
X121703161Y-88002501D03*
X122056714Y-87648948D03*
X122410268Y-87295394D03*
X122763821Y-86941841D03*
X123117375Y-86588287D03*
X123470928Y-86234734D03*
X123824481Y-85881181D03*
D43*
X123824481Y-83158819D03*
X123470928Y-82805266D03*
X123117375Y-82451713D03*
X122763821Y-82098159D03*
X122410268Y-81744606D03*
X122056714Y-81391052D03*
X121703161Y-81037499D03*
X121349608Y-80683946D03*
X120996054Y-80330392D03*
X120642501Y-79976839D03*
X120288948Y-79623286D03*
X119935394Y-79269732D03*
X119581841Y-78916179D03*
X119228287Y-78562625D03*
X118874734Y-78209072D03*
X118521181Y-77855519D03*
D44*
X115798819Y-77855519D03*
X115445266Y-78209072D03*
X115091713Y-78562625D03*
X114738159Y-78916179D03*
X114384606Y-79269732D03*
X114031052Y-79623286D03*
X113677499Y-79976839D03*
X113323946Y-80330392D03*
X112970392Y-80683946D03*
X112616839Y-81037499D03*
X112263286Y-81391052D03*
X111909732Y-81744606D03*
X111556179Y-82098159D03*
X111202625Y-82451713D03*
X110849072Y-82805266D03*
X110495519Y-83158819D03*
%TD*%
D13*
%TO.C,C1*%
X133150000Y-94970000D03*
X133150000Y-94010000D03*
%TD*%
D10*
%TO.C,C27*%
X108240000Y-84360000D03*
X109200000Y-84360000D03*
%TD*%
D11*
%TO.C,C31*%
X109005000Y-81720000D03*
X109695000Y-81720000D03*
%TD*%
D45*
%TO.C,L2*%
X131480000Y-90390000D03*
X133880000Y-90390000D03*
%TD*%
D46*
%TO.C,C23*%
X123930589Y-88319411D03*
X124609411Y-87640589D03*
%TD*%
D19*
%TO.C,R17*%
X130205000Y-80512500D03*
X129515000Y-80512500D03*
%TD*%
D22*
%TO.C,C14*%
X129330000Y-87370000D03*
X129330000Y-85470000D03*
%TD*%
D23*
%TO.C,R8*%
X132570000Y-100645000D03*
X132570000Y-99955000D03*
%TD*%
D24*
%TO.C,C4*%
X128270000Y-97290000D03*
X127310000Y-97290000D03*
%TD*%
D19*
%TO.C,R3*%
X135875000Y-101700000D03*
X135185000Y-101700000D03*
%TD*%
D23*
%TO.C,R18*%
X128570000Y-81137500D03*
X128570000Y-80447500D03*
%TD*%
D24*
%TO.C,C6*%
X132660000Y-98070000D03*
X131700000Y-98070000D03*
%TD*%
D47*
%TO.C,L3*%
X104390000Y-70940000D03*
X104390000Y-73600000D03*
%TD*%
D17*
%TO.C,R6*%
X133380000Y-99975000D03*
X133380000Y-100665000D03*
%TD*%
D13*
%TO.C,C11*%
X127680000Y-87820000D03*
X127680000Y-86860000D03*
%TD*%
D48*
%TO.C,USB1*%
X118450000Y-70040000D03*
X117650000Y-70040000D03*
D49*
X117000000Y-70040000D03*
X116500000Y-70040000D03*
X116000000Y-70040000D03*
X115500000Y-70040000D03*
X115000000Y-70040000D03*
X114500000Y-70040000D03*
X114000000Y-70040000D03*
X113500000Y-70040000D03*
D48*
X112850000Y-70040000D03*
X112050000Y-70040000D03*
%TD*%
D11*
%TO.C,R7*%
X125375000Y-100350000D03*
X126065000Y-100350000D03*
%TD*%
D13*
%TO.C,C25*%
X108960000Y-86320000D03*
X108960000Y-85360000D03*
%TD*%
D19*
%TO.C,R1*%
X117175000Y-71235000D03*
X116485000Y-71235000D03*
%TD*%
M02*
